<mxfile host="app.diagrams.net" agent="Mozilla/5.0 (Windows NT 10.0; Win64; x64; rv:139.0) Gecko/20100101 Firefox/139.0" version="27.1.4">
  <diagram name="Page-1" id="HfjMVURgrGuabvAnmjJA">
    <mxGraphModel grid="1" page="1" gridSize="10" guides="1" tooltips="1" connect="1" arrows="1" fold="1" pageScale="1" pageWidth="850" pageHeight="1100" math="0" shadow="0">
      <root>
        <mxCell id="0" />
        <mxCell id="1" parent="0" />
        <mxCell id="aaEVAs9FFzcRLmY-xivd-19" value="" style="group" connectable="0" vertex="1" parent="1">
          <mxGeometry x="40" y="90" width="742" height="1640" as="geometry" />
        </mxCell>
        <mxCell id="aWSgGrdjoKCMINjONeHv-11" style="edgeStyle=orthogonalEdgeStyle;rounded=0;orthogonalLoop=1;jettySize=auto;html=1;exitX=0.5;exitY=1;exitDx=0;exitDy=0;entryX=0.5;entryY=0;entryDx=0;entryDy=0;" edge="1" parent="aaEVAs9FFzcRLmY-xivd-19" source="aWSgGrdjoKCMINjONeHv-3" target="aWSgGrdjoKCMINjONeHv-10">
          <mxGeometry relative="1" as="geometry" />
        </mxCell>
        <mxCell id="aWSgGrdjoKCMINjONeHv-9" value="" style="group" vertex="1" connectable="0" parent="aaEVAs9FFzcRLmY-xivd-19">
          <mxGeometry x="92" width="650" height="150" as="geometry" />
        </mxCell>
        <mxCell id="aWSgGrdjoKCMINjONeHv-60" value="" style="rounded=0;whiteSpace=wrap;html=1;dashed=1;" vertex="1" parent="aWSgGrdjoKCMINjONeHv-9">
          <mxGeometry x="-60" y="-12.5" width="710" height="162.5" as="geometry" />
        </mxCell>
        <mxCell id="aWSgGrdjoKCMINjONeHv-4" value="&lt;div&gt;&lt;b&gt;Source&lt;/b&gt;&lt;/div&gt;Live video feed from CC&lt;div&gt;TV camera or IP stream.&lt;/div&gt;&lt;div&gt;&lt;br&gt;&lt;/div&gt;&lt;div&gt;&lt;br&gt;&lt;/div&gt;&lt;div&gt;&lt;br&gt;&lt;/div&gt;&lt;div&gt;&lt;br&gt;&lt;/div&gt;&lt;div&gt;&lt;br&gt;&lt;/div&gt;" style="rounded=1;whiteSpace=wrap;html=1;" vertex="1" parent="aWSgGrdjoKCMINjONeHv-9">
          <mxGeometry y="8.75" width="180" height="120" as="geometry" />
        </mxCell>
        <mxCell id="aWSgGrdjoKCMINjONeHv-8" value="" style="shape=image;imageAspect=0;aspect=fixed;verticalLabelPosition=bottom;verticalAlign=top;image=data:image/webp,UklGRgIEAgBXRUJQVlA4IPYDAgBQjwqdASpABsIDPm00lkgkIqKppBKKyTANiWVtVvgG++D94dDL6L3K8DPzTrfHoFU0r1+d81ly2eb/2vtYeHb2e/6vuAfqxxJm4HsBfs15RvOP9qOin6In2B0Y2ix7U9SuIRd60xwDrq+pDzXxxtLvFP6y/4efT7r/n+eH/2exH+1ej76OvVZ/ifSX/Yf/J6xfqq/vPqO/3L0y/XE/yPq3edR64X+D873r8+fX83/9fmo+kf53/y/3/kX+ke9F/Q+2V/pZx/jvBj+t/wDOv/x+P/1O1KcVP/b++HnV8J/6fBz5xP9nqJ+2dCnmsHhP/P0v/sv/jIIMGfmHJ5mAhtwCYp23AFzRgKy8derIJ960K28GafroyftnEAGC1JTR7cnIdvCzDzm0J0N7nBXLGLDHhpyYLrWDf+cNmXKJBhXtlRpyMID0y2SK62k9qbeZgIb7U28zYf+W0ntFqUX2QjPeB2VCwx72kGFdE6Bb2U/U29tzDO4951N2XVAxi7u+Ce3PX+QsAsajy4tknk73Ow79E5hRE4tMHDveqC06gkbXx2FWHgQfZnXucijzk2a8csar4BLXiXL/gq1nslTrYfIXh8lICe1Op7m2JAktwSZCX4uIN47ptUl9yfAzJwb5arGpIEKazRdUcW42yUv8c15EFUVOLmAK5lMnledSboe9TWCmt1b2NpuYfxOqSlLASuQWA72CsYCa9fGo0cBkcuOoAmlBiLAeTLERH2umIQWtJmNNQ8v9BIceg8+ruoPz49B5P1vtf7BecbPJ2n0RA2Wu+U7PyokA7Jz1rBTBsgQfW21SKNtzJ5rMYy1oYprGmADiAlHF7HiPrSXtF2mvociHYEPu9m8HaBkHix/ybtXbaUvYrmP+paDpiSRlN6Kk7nwFEcekV5UnD5J3m3Lj187AFqFPU8+QnCP2jXneMUcd0IcZmeR8MVACi877d3Upfjp33s1b3xBTjAoTZ5tEvSKKQqG02ZaY4tD8FHkP8ThIlGWWEDc0AD9Q+fC37rthqn2vDKjC0zi/xs9XRt1dKzvn6FXfmDKI/TXwX+7rf7FFAJwYufPaV8g5RN7lOMGC45Urhs3selqm0Ym81fsK5/LL58ui7ph7bR2XuCoy+ME681CPAt0LYxuUHuarZOQpExmZyQzF1wujglQbQ4QbEsCUNXbAtG3PWDxYnDV2kmhnzJaI97QMsMZsAFu+2NKYFdzhbeZEzwuIsLmeAZsiWva+XgJ/WbgXkKsW/ku7MFwnin//kI8rV5CkxvAGZrQ6W7m2RnuOQI5KqWEF5haeKZ2CVSmiWZgKoWxHLGGsrX4E+dwGmeBqUyfyx7YsPcxVlBSFZIwrn6EqqrU4l+Mfz67pJ6oqH4CzgL2DxTy+3+z6C/mzOsGp/r121mIo9ZkKSvzUcc1QS4ewrzXl3XdSxFLGdlqKNaK+03+lN1Xfs1u9VhyaV/GlKTrc6tRkIwyvMNs5sMDGySJ/acbbYnRv9bMzmy+iiXrWAvwRGoa5bwrvXFn5ZRlx0EMZ56IWuSpjokzPmVdJN7I7hkxl7eytvnBxQyYa2vujt3kJ+b6TAGMMP/cSRElvDqCtUuukLyF0XNKhkeSP7ESIsIlH2M+EFkCUsRqM1uSUcwyMBfAnHGoPXYZECQ9G39DPWK9ub0W1I9EONYxwPNoriRKPSrmGuo+gQVMzftmy9vN9gBVk5MsWrbp5T4Dj9a0sW2MP92skuztgX9zl+XN4Cb1ozc4P6HCGeDtQmWsgJvSZfyBMjkrHZc1bzokzj5IM0907qojtcHfa8mcJ00k/GUAFK16svh1zvCrl2VHHvhw51dDaLIiEK5UmXI5gHkpTyKQXd536SuKXB/u4XUitNiDWGjeL9qsoEUkozEGetcKb4Qn5zuB5SIChzLDBqGUKFjyxFRK6A6vqyDTWPnTd7Tmk0qZlh2WqTi0P5gQqYRei5iDv3jG4ZG7OFYaTWwwnJChGZoD/nGrHQplRhBWdt2GGwidkW10hS2VjlLp78iIa70FCnx+8tA8AuFsBM6m3tgCK8JA9zSpt5ifOdZOCfIJtkuLqGkTE6/QUgmRR/myCKtzewjYfdyiNoyd/nWaP63N9H6WG/Kde44tEJ1tZ1hzee3+Hi8KEvYCX4/+RrpMfRjXlhI6ob3XLReXleCUiCYmAqrwQln3q3x/Ii28TSgo7mf49g5p5Oq6s9a1bbXafpZg5TmfAOY3FX6oVjnyAVbugi1wWNQdLlCKNWPUUK38lzFTlLQRlkibRW/DYRJVogTTJA5gckaFbkX3t8nf1nkv3Xo1u9VwYFCsJ4u5OTteqJIjHvArwOZjthBPxbSfl7FDgjbxWBDfMv3CkPKtPeEwWnjKI8QVL34m8AF2yfIhulPMbUo873X3DrGsCS6gHuHnR8xFe1K47KUkpSt0a4FT5Jb+u0WyvpOXbQksLaVDml9FYZYhkZtGAZBpora3vXJO5LtTT1RxngcgOD01EdvPEtRkwQIdrrudNNA4W5LXXl3BNwfQdaxNU7qzVJENp2W+CJ8tScC8nduC4Ty8/7Kn1oI4xsKVCiKUaG0Dn0LT24astgD7kk3V3Qeecy1YalIv8lxUYZOIDEVYy0Txc0H/5NdPmx5gsb3hSEDZUrkavrydJfyFtPtTbFcqlTb4V4L04ukv269mKNeUod4qTVtpvcIFWk+mijmpfQEwtpqtm4ik8GahpKnm4y05Ks+lt+QL67XWDLarY2fGKvPgPg+XfDIEhYO5/eonohxGlR2ghbzAsFLHsUXaEwGGxB2Ijb8/i5dd9MBcgAHSGj7q7Gz5a2FULAZU8Wb6XLqo7PiCzfQigsDxcfD2LhsnEFPMuYgjfHLkcpnoPRntIsbbMLK25ZjRKUf1geejxjtL04nnK0y3D7kHqgvgc/+438mllilDre77H9bL2SOYitFM57b/rdNF0FGSRllQa455Pth03mlradsaoVzXzgGecrnE0IWWkNdPY+A48Sq+5DQ0ErcdJClqRUQeJHODDUcKZN2XZMCaXYprTgbC0QABATjzYZKphVLZeIUMpC0+7sO6paPgDkGheSZS0L7X7J6gXlW22/z74ls3WgI70dfKVRZwjG/UgXOPPxKtA6dKnEYbfjKgAp3WSeVjXSQE7uc/KOO8m5BqpDK46lVs9jB4MXllhv5MLz2BxgWTbOR2ptbg/S6UwfYEDYl3E7tMKJBcSeeuJjhuPuFuHermkP416mhN9t/0blcTNUFnSWnYWfqDWOqpJ28yof76/1BpGpUXV3lmlgSDOnddgOPYm3ssxsZjGeuyHJJoe0bz5U8xJatUglqklpABITqECZgZOSFYVrNA3klXeqbmud7heUamUoxat7Q7mAjZwfysxunPt23CT4MwUpuKNmoOrN7bRkRKZAx7yOzSl/uyHRHyT8qZLyw/aTPK3ojK1nNfl6/y7k24TABgZD5HPU0ZYgp/WTuqVvvQcF51FPyaklHTSaA8TRSmD8TFwwXaaSiaKIF92fAzQ7LFFDSoDoZAMN5igE9icRUrdiF3yZcsrjyL8l0Ecxx/Y0As2G4Ug1f4J+0RqWdUB3JR/T0gX43u4l2weA29a6YYD2KB14hPode8HOcVQRHttvfMLeb1XBbRVN6I33mTsnWcMYjF7crCke2Qw4oqZcXql7YBpcdbZjv4ZftskWJ5uEk1SukRJRazaqwoY4F1uDGp+FeK5INrOmuboLKS7uhiOCFGNyRDyDbZ3lBpp5LsjaIgTtUZFNLDyLEVRLBGk4Ac5nurrt5Tm6D7GxckpYaZt07NKSBjMK5/vvK5MY74U7D3BQ0nAjI+lBqiivhMSeFHzClCxOb2OX6ecFCbGmegBV2Jcmmgyi/AQCQBFSia/r2H1RL1H+PnWo+zaIN1QwLXEQzgcI76gzfr8b/aAXFdtxDbwcTNMnVuWUJi/ro9tahlS6P87n6XFLoZmYyh3YwA9A+etIky+AGunN7L7rbKcoGzgb/MUJLEr+kbDkNNLfDkn2xl6w5fjA7IkNo7l6HFWAPeC+GrD4HzOMcU9O0MG3durTF/itJzIoWqyzfqL71nLPtpwMKdtnvX9mNXdCkbsolKWSIz5aZLZ9/HwlgQwvA39T7NMqVOksvQaBptro4Y2mtTnSCYLdx3CUl6l/mXwTPL4G9ia6E1P5aYhKu5n0H49u3SMwk/VICg6oQd8VFsBcXvdyja7sTbHOc3EEayHZmGA1/OmLoHxh2DWLLbz61tYkEnIQmszkHOVinOYXawTpeeg4aOuLFO0Q4G7W4l9rmhizDENnYADrZc9D5MgHyXPcU3EDwNQk8fkysQM2563R1UtKJvLIa6hSi6subLfhrz1mp9BF5B3SrGgg/4nDeihIprUJ/apcE6WEaJIJ73LwZ/xtiuUrjmcCYfW5LDQSaW5vp6oGW2osfEuER38H8zpPT8sKoghdvwK6TwmfDioZ4RFwPq2n6YnNaqdCwi8QF049vMYRFrpKaVuVAjI6T8i72hIBBVVu8Ia2+XiSWsxv8s18h0kUbmjoYyEOUNUCMQXixJLFCUNots+AtKkb7T3GhcYhwpM5MDYkpW4W5E4QP4drFcf6PnyZZx53UGpklMsrBprvp+l3ofY0E6YHlOrWO7RoUpr9Xl/9tfsZu6LUXDsvDMZUgkb/e4iZK/v4dtlnEY00BKp8xz514gl3A1vN7gx/XxuYjf8Y7XNoAHfExZR9lmU+SwUmb1rGyZg3i7o/K05LLNA2P+odi4fR8A77IdmB6eWKRYxSDm6weontMl05nYhl8zAs34kpuW77M21EclOBb8w8UALWrRrTpK7USufOO/75fJbDvs/DvXrIcuENUJONSMP7apZ+crhlvjAdGa66O5nyTsggu0nrNy9gALp9cf18rpbq63/SFUrCYpSOyeGVYJuTVAnoVMWamf41rz5CncSUAmUqSs4FGJH1KaYy46P4JEnNtJva1YjDBMkQPTqqrXaTmOuwqp2XdVgxOO0bK+jn8JsRcgL8OvikFLpFcn3I7XVULCmN1m1fA/0obdNBWU4n7CXcRWyPF5iycAhFCcPj8YfVlBBTgDhjPiSO0ctphTLaUoa2yO5oGzOH4J6mtgdhK0pyEQGTiwKTJpv6Y8+p1846aLTnwFY13YtLsJGFdBjLz1GNnc/ARkVFMoj4gopQfe3E9cKWJ/U5/NkrDEgKN38hxAP+RLVlutsk7a4NCxAQy965JjwgDd5lO02f5YrpW7HbGqfDfyBPzAiDCQuQUL3hLTU+L38mbpYTgXzOLFuhvYRA16mwCDVmGRmr/hlVOmSpLAxeHTkV99Vr6BY9EtzQxfL19rcNkfUHkvGM+H7zXOZmjfInZt5iyI4GF7rNV2RhNmZLSZRJQ9yWH+5PKmXxuASpTqWolinmuflZl8yaRrO7VE7tUdrfCCFySDLtXhfSi0vF+5BiPHM0hOfqtbtgKrIA0BrJGI6tCb5ObJVy4hewDn4vSTFVM+rFnIPF+xT1XDsdzU7pxkDLllwmGNbCkQA/LxX6Ke8iQQA/By97zd5ZPZoMpZ9CBiLco6DZLBte1mHpBNd5smx8cUff6mYWZw9PpGIlNVkqhQmOvv2w80uljVcs0bL+Semf5F5N29GzJ/sI1GVRshI3HFKOBpwmtBIxugeqcZwW/thhXbZeCULZovZlm5jbXMVwqR2akDlU92XyWrCFXWNKqVOAfzsUggYxWYh6o/1q/bqufI17euiyiWLni0eAIjrlQlogCMgyzgl3N4sFFB64MmynA6tYd+CBJedKTUTCxVDhyAmv1jEMcJz3NkHCca9/P7Qs66kv6tEBBp8nttjnIRWpdxl+DHq+dbgNg9e5UjQ4/u8c7QH+t89qxx5KZrwqoHDYE6y0e3SvfYbWCVobaxuFFxJB62URPV+XtB7cctkzbOcD7i8EHcxeNN/4SD8CRskqcsljakJk9ZKawwseocfhTgfqSdHITsejVunpgSXKGrOdQUgSYGkjtwkfd8F/f3is2b+kbq69zYykr7+tojXPykXNIKNuXqhqy6REeSYaAggnuPxeDMsEWeX0/pqNnba4Tjxx2Q7u6/OWh9w4PAMaFiz9ekrBGgUSj5oCN0rKmQPgjOSOKxexhHdh9xSf5hRifMOE2OBu339GaOk69rsjfIalkquBKc5Nnc2yUqAK7ij5DPPJct2plx8Fn6D1H04YdvlArKWO1ax7m1sqXiOpJEkaQaaMRofSfRA5VnDcwWUM5/sAAukL6ouuKgfwS+daJPsbDTc3PsSD9dhs+rF3MjGn5D5npeGuZzq3G6+C9cCQ9mxxL0g23i0uvnDp0j4ngV3581ihaT+E4aVeRA/NPjsj+jnwjp3q6KoZXsp8ZO9C4dbcBLesKS08VoaT2eXDL1GSnLEzknwPJfvcHTX1XUtJ0OGvigRwLOhhO3jPfiTHDD+nZEdjTREKAMNqtb2SYs5jUK4bcahjU87ud/WAW7JCCXMyoBWniLb64tHgIUNIhzdTn9X3j5o1UF/R+qwgeTMKnlu+WOsGOOWu/yRyZcKtZ28cRxuuePJCSVK9urSqxrbmyZX8m6qLaYGoalkTJVVgtV4BeUQnAmPqEPPB3obPN4NX6MRnMhtMvMDbQ255SP9fnEGzSkfLvFYBQ6vYT3XBmOyS52zj41PaBZcR4kYQeo089Sg1slDQur8C+trBLpKaIA0zv4ilGMYmDKfweum8Jv1SDsU/FX7ncOTf/cB3s+CeDWD6NF+BJPg7MT/AlSTev/NOtRH+gUxaocAa/gTGMEP6RsyFCsQGjv/KW2XEEv0Yqs7lhmDuaHGwhpJT3pzyRAWMcocCIQmCz8JqOWpXZ3OJ1TShF15y9ucQSiHFI/HWmHzLOTO6eof9LrVQXsbfNtdiDZfJ3yWzLbY6RKSg8csLCE6eCwKBb1S3Ks244QVlpXuGYnfJfGupLxJv1KDUNgeMzGTGpf9bQHk9tGioyxdSHPgiy+aS4J536VyguN3u4rOAr2ovY3HZp7/ndiRMuQKQI8KmoXm+dpof0Pd1HJpHHQm5cYQFw7vlX28+verMNgxwn9xTOBAwgkBSUHk/a2vdOl/YNDOxFfmABK9hw2wT4UyQVIEnlmIr809VUZBEsylgtLETTwRsT6/3qWSV8e1WvJP7N3ouZKTnazLTw7UDGxrN/hu8a1iZCF5W8Mwc1oCrU6bB48sTmTGLWrmExzLEh7qmew7mbFSYcKhIPH1lt5PCHiScyR1ckCwHGIY0s0o71FRo9XYB880YIC9Ukkr0AArg//Ssxdo2ih0dAUwTde/zv3rgOLw2YNbNuDc90nlY+62UWvalop41DY06yzYKtUlcoznT1y41V4386+BMWmyGTqGh8GuXILMPReZ1e7NVXMX9WdwjQgqLLB3forsJFbwX2aRRbSiRXucxRe666I6qOtNNvBFzfga3vyGOgU/esIOecBLWl6demnqlySIaq9RuTMU14LXm/sVskQGuq5+iGvAVxbwOLW5CMKGQbTF6UX/ArWL+EFsC4ZxNBj3RFhZWHjh3yq1XT6FWPNZxZDoz5uGLKMCwBd+lujN3M+eJTCDQy6zhxqV2Kl21Je0AV9YqrTGgf8hbqiB9rmCkT2wSuWdOQsht9CtD95HlEBdEkkKHpPpO++E5faPIdj0o6/KBbsA04fFrq2fWT+DF4pwTD1zPeVupypFvT0HRlVtoI4zNG+QckZIyoEJL3hH4fBa7OQZX2+sLyuXBOXkRXpYX/LOHJH7dpkTKMACbGwrvTuGSQDGEh5GVeFb7apGiyxtiC/+TrSRA/dkf3oWtXxb2vv6CtlEcPcPT8/WHYupaa9otdk2ejtxG9caI/ALpPBbmkuL8mPW2zrAomm2RPytmOIWk0wA0y8dx+HFtWsA8DW36saK2pEIGXXMv0DkLO9AKgiFGSsfV2V2mfJVBAqlLypBEMnOkvz68tx7WB2KHVQW7ZOcu+y2mcQXUyE67ELzT3uv0H0M3bYEefpsxO6ocSW0g5N5YRjjYfAURwbfbGt4P97hiUy1BoEjvPL7wH8pdKF+nzkD6ISOSZ2q/LtNCI1dpTSfJsmTB7wU+ceAsrm8FZYdf2KFeCBnDLcZc2P1eDltGKVtFPVpktNkfFKcwb3odaE3XAMrYXnCibV2HImAKubcPaK2zyZtCfiXd1wcNSCHeyT1ityTAO5qzbkc3DaYewp32G50SNueK2z50GbiPDsaM5+f6rGqip1Xr5Sx7l75EoIu6EhneFxDTSK7zmG+mVVTb8NzNg+BL3DHua9Wl4JSIBMzxrRjUPKMjhjvo8sIen65c+kPfmg4hDLeC2Ay87IrG0knQ8Cg/Mn/nnpDwN9yCPHf6rs+EXNqrSfXfivUdJYuKAvQU/LqXflkNBfEXzpGAsvW+K3nDs4OqPcj3uNQRcr/yKpYR3PqKH/rxDbT63OQ+RSbohPu+wg6UPhQ9oddgENpu3Rn3M+CoXYLQcm8NY4koYSV3glRcHy5HFLZJowTfHFW9ZfsscQvkdyqzycftwCtUVA8FyxS9Rk+Vlk2pIA8EsYpZrSwUoXs9LogNRMREjlU1WNumIe6S/xT9xbVVA9qevcHpITXZHw2pXEu2w9Rly+hyx4Y1QxZjl14MUp2i1UNZoFXo0qdlF9QHbZKE/yrdOUFwN3ZjuxhJzr/pjdW4+soWp9htY4bOX2RwofaH21SDBCAmMbSqi93VI3O9dnAJcsR2cMHze4+SD9cs7Pv83mZtA4BzFZBrKRvsAKo+a2+Zyvjbdo0tKzpzBYWh3KQ7NPU9VWjDWN8Ii7Bfo46egEpAYpF2D79GV+HAWsNmW+WLjc+72QLMdn43WktbpqFn9qgjOYk/OVFvm0uYqHi1r1EWzlFGnYo1CcHUXqpmnnBk950KTCuQPlfqHkRLMWLn7FeZF6phFpSjCj1E66MJUOltgF/fNi4P8p53VW74M598NVeJh7eAehY8grkHcvlz3n/NE6N7YREm0HWBodEdbp94CSNj0TeiSWQoXgLzdSl9OVHZFppysAtYXcDQbCVq4g6F8gsDXTgpkur5AQwvI2pgjejDBwDPrv66vuj3eb4oX8IlOSsaNK3AWWkP05sKKdLkd8uzn3zLDBeSeqGNbVc3XgOOZQL1YuLGixVtophXyERFNRUDpKjSSOzcEyrNswIRz2dYrmfmfYGTdhpwV64/LZVhqIlSO/+koWXiaUXOyVHNfoLPcPTML8eotThhIlb79OLf4JupW+rtBJ09w92wzAEwjA3Z4YEfBWxwut+XwrYgPaLh7Qu/JLc/Iiuq6OUN8ktr0wVs+f1DebQFc3sFwXgXa5TEkqq7pxadDm83OkUFuPAJFjtvc22NPSMyTGACtxcSdto+qqaWtLLzHpPgS1ciEXA+EVwiWB+P9UkcO2luRPhQOMVc4cJ4JByLcpn3cMirjBNs9rNBOg9FMPlV74WMxy5/7h0voIDlM/YY/SWw4FWiSW7pQyQOcwGtUQfhcN/nN3sqDEKBrwnfQBpAf01f8g0loi569g1lRkuBbvL+pT7kt48ltg3RSXqYB0/Dy0AS5DgA2LUN6HvyQiKNAJiEON2SmUnkmwFDBHZiSIAmfJrTT/N0Kso/G1K/J0RJtrqKYAU/e7/7RJFmi9WFy7ipxKDeoHsPGcqb2hpCAcHtPlYqT2cYWdizwZx9ZzslgiF5wosm5ddoc8kr1vN90ROk72HiBBq+UzR+30Tr+iunOxrfiHcre9zgaYs5ExV6cOjqnxSM3zWql2bXP57tIjUf8VJJQ2hQYYtCLIr86mha05wgblJXYF59zmP8QiTUTC7+U3MLadyA2kpGuciUUM7qYX/mMDD5hTXvNqm2rMnPZzgg8ntevBQCqZCx73bGJYqjM4WvzseHEIW7cylel8kKIJV0Vt4tEBgazB+nyXFkUE4BpsySFaNlZ/6vbSHZPYZEWLIumKaflWi/6kUY0TfAX0hIMXT9HTV6nkbiVulaiMxs0VajBWMMQxKBV3vUrdwqQN6RfaNGWXPb6WrNI8IG04YRvSHaM+tvd0KllprXOavy9ePT8EwEGjj4rJchMiwYnegtovVKZGyUacc+0UB0mwjsDkZpjmZqoMfeYCqSQNFzi5N00F0DhyHUIdg6whAUpDRCXjGpfElNjl56HYqIqiG+t2b4+ZrQ3ZNeKsoCjCrulLhbkYnbKEfOs+vn0GK4mLU9efFFlFRYRy6rH3Xm3A7oEl0vfF+uWmBZhOtTriDjdWJbEpp52jQ0wPzGzzUJXRimKaqA2BKxTXBvFAQFe+l6Cv6PxhNsxYnm9k7Yt2Z008TfHsXZUOTqrvGL3AcqfcoCcr/pKm2kwIjoRCqMZppSuWAExdiceKasyqgMkcY7Bt77pVhhPNL5t+TgBCTQqn5Amrh835t9dP71iRtp6pR5Re+z7+csxh8Wmhx7kRWoin+wPotWhgIQbCRIJ5P2MkiySLg44ebiavh8N4c8kEoX+fZlo7FlziWsphYAjipWJEKVjWmOiFUZJzPCcOByp2lHFHQ1Agwgt4DyvPOygtVV6crc+mRX/wBW6BJWuOKNoAs/VfZq9Uy16z891z7OnkjcreH6f/6k42R/9rUJmNvTena1r7zfK8XVQLc2e54GIqh1HF7wHzAdmRk1Y1AkPczaWaIPG8oQvb1IGCZtWjXzWyFb/Rs9FJqzNeSXWQkGBBo2uC7aWdKqgFx/BUjfzWPIyWG1AspRuQML85tUTobxVX/u3cmWwx3txAdV696XHfso7BnqNkrXmkd+YdI5cAY1WfNvdie5SRUCYqSYQuQpcaDlXE9cDtejHVxdUSYJOkvUbm5bm/wIy1o/S1yA5omfxnm31z/ilF+wgipsMMafSSMiRTUCYtDwpoOFb+xG7Rh47zWkCLUj6wmE6oHsk5AvaDfQuOTFZVFT8f9LZvKEvRwo+UNDGkxmVbBa1H6brzGTFGCcRUydDoRr0xuDOV2LjhdEu4smwohIGSVSQbUY522xkLijyrLto0/jxNOrc/PWrprGU/FGncriEVTovEdBUXj/O12vei84p6HBZZCgFCB8eSProxNahFI6ahU7EsGXZdTkWt8pYSBFHSU3JvcINcO2tCEnzkDo9mfoeCX3bOfexcmk+7nbPhXBMARa5+hqUev1whZzltvc0G8dN1nOzgQIi9qQ0MojXgbcK25vIe1yKiqbxI7sJ88RhP9rBijwscrse0GJ9Pqgm8x2H/vcjXBeqNMDs+E5Yn8HSIwkhZIUg1j6TwIOjAUrGfFTy8ApP/WEDhDbs63NwEdm5zQEi5jtAre0nML++Q2EviqD4wUtAPqP6JCjOx+HJyzS6fDDJz9Pv4xmEMA5OcyYkomLYstQExmSw4yYrnWW0QhAqkbHUJn7xeHbLky8zRSpjoZjOd+otEGwWXdp8KZVZKLtjtFpMDLh5OvGugGVPieTvxaX3q5ZaNwQbN2FcwNFNJbD59pqfhqCgYxAm4cUIiR+nuFPzVjAOHYSci39E0cenipFkxSpDZsCN80MSoaT25mAstHiwQlsajAk7EUfp/GYkc6THPJ4r7cVU6Awti+DZZzl+dXWLyY+VPRMqoBzvPEx2OpBAqotIfMfKSkea0lBdsHiwqdw+EvKN2UbyCKBP/JMMLtFWkuPVGOMcNViMOm83ANxPj0s8vJBpDHVk7bN5ryBeDp5ATgFjh7hD48JdZFkQQlPOOakLhtzTux6nfdXeaOvFWqadeYMkvwKffGrAO6ygiDmxIim0YoEifjpcCPmrylWpNKOt1nr74VM/nUW3WILJdiL2W5kDdjsUXliQmKZDvXX91RwonT/8UeMb9HOU8s4iD5xn2b1aOMuHrooLJGDDH4M/h5D80Iq1V7cGCtJyNPFEQL4xjuMcScgMUY0/Oqd0fTel4vRSfsn8QlV2z0z0auW1vB8vlq/FS5mz2kSlYAk56gBe4CZcAd+umCYnL8e9Y95cB8wK1qORwIhowEW0EfgHW16q3l9T9KFGN/xKF+HNcJFi1+03adbh3PJL0aOojqlCaP0fFpAHUpeOeJADn8bszUkIesh38XeI4y7YCm8P4hDfURDh8hIRsX98GqFC4HWkGioLmHKmYV9ML3l5UoSmF40HB82duiBIC2mP7uU/lugDZBa+l3W5LBlzVB+Byj2d5XGZFZDHF0g9KI3CSNruJ6c2vU6/vOXLm21YN2bcpkYycmajmhUPjIWWSIfkUTxAfTfPP0BYtnHYgAj9AcKg6elqZ/zxU7jYCQDBU8GwwGZuvwQqUhYMUfxMO+ioBQ7gZOslzp8vEUlzZguozKOIfKH8NUOizlLY2TbbXfgkrxBB48BQzCgbPMSQTUOklEIkqQopngpRMtManS3UEWwnNpTmHEHI3W60GvX9yVNFLLyGg0KocH7JFSJt1Bl4gAOXRaYOM+NofJEgRYc2eUYimBWcLxIEqe5rTfYp24+IXq27eKFYN4x3zwJNjbIdHC4AqD1kr+UXQhOjTLHX2mHo1/AaDKSkOqYjih5eaxlHjQo8K7BRXmriStTXaUeVA6DuSgz5ove3XRGuaEV4JpdXFjVgc5fUkk+/NLaJy4pJhVg2oe5QQ8yJ/weo67CxBbzgFIe2E55mxquN6YZrly+2aJo/56oJq+DZ6h4Vzov3cg4uKiZ4IgS00F5iPO3LH9y7Ti5ViDB7CU5VwnBHl6WBjGk2f9xlS14CRNwkSFgqAffwRbRnuqivsX4xn9J4ZRIQKtH/1QlCPeLuhRuP4IUxcIm9qm7gtoEXPLvHPYKVQzTXzP5nHd7S92ziofreLI+aZTYvquFBEcxp344X/RpmZpoQGHYvgOjPA0Z+eZX8z6lp/e9c+QPaUr7fKpuNRtbsLQzGCAk1/V+Cv2cOq5vCeuSQFitMik4hUBl/xYnNA1fMwUOyc2Bv/XBs20GnOp/WvZsCQWa3KJ579Mw6bb9G6oAnPVwFjh7BuxV1kMZvnO00TNgOaA168aVzPjBIH8XKmNn3/ClRxDohgbyujmgbhMu4Q8pFv4aL17u8la/H9Qm4pR190u4Lgj/05awb1+AfzhyN2L4Qcp8q8UqK58gAlgqecbU8eaiFHfpPiii6VgNgMwz3Ak0lEdR9vZfd5Iqot0e1W6iUmhUBpE/z5hmi50GlGXDizWdrzZG7+L+mctn7sUST6hYEpMFFz3w+ich8mDFom3Te13FI+uvciv6a6YMbgrppSSHliw2u1BzQpof+sq6ikUZ+re2Q7vzfrjI9v0pC/syHUZQvZIHu/EXOLYgbUGEnRYPj7nFUH8LfYBEmVXZeWNICFys45LoCFbm7WmWpUNRDvsBkpfbTEkyX6wQAVX7P8C9MMzCeRJ9f4Wt05KiE5a2UeU7wPx91R0/BKcWBCQEeyEWveiRaAWnv8VneWl6SloBPP2n0jzGLuZptz03DHbq0FdmrsJeQGr1GZOdHDYZ9LJsiLhlycyrzIUG+wE/CB30hHIZJrhmXNS2shqhBktSIxBJyc652ZYpJ9Gncd/kUk80DbraOyh9jzQzDnFt0iS1TmI0rMVeqe7jrw3mRF44daoQ9k2+kqPKabKo6lKJTwsaw2XXotwYChCePsjyhkVWS/np0UM2Okhb4WF8d7+D04ASs7QC2OLoa5Wi6HpnwTAAF2MiE60Y49uUFJI/jpauNDUXspgWC5UE1kZHzaOXgDtBBgaGwNzbi2pMqfYA246xR33xAyHCBBKcQJ3i/JbiyToItiPF380sMfens8tih0akQ3BB58ErqBKr2i6Y/bNj9z9qmGnSuZTtggM2I9qMW6lLi8e5AmtoLiBeqrxfDxStFXCrzzcD5o58qWaDuBMKeiE5vE3GvGnC9VAeYEouNOux6N7PzWQQNNuj2l2ODB9bQC/t351WqMOyq7G68f/PjzBJ3yRGVWvwqGBUfjpGV0IsPI06/FJy7T1Pm2TMnA8VtERoQvTr+naAKs0wyINjpupRpqAQqJGNgLxy3dVZRsc0efWijB9bW9h8SJRcIjWj1KC+lx1B0QA9m5sEjae4mF1dbnU7IugPmXfzlBXSwbR1E+EY2zgrAVYfAj/2aiq2f/0D6Gc+4Z7q+x0BBoxu6VqZGire2u71tQ3ufg1aHYzd7DhMjURvlBzUe17/4t+KFxD0DMfhIX3TZxOVC20n5Xk1bzuVKuYaUKbSZIdTBegDS07zM6z1Wp9BVSzArsMSz6691sXBeFTXgZEBUfHnC4JCQvD3EiX+r5ZEE659tA/FM32aNax8LOwuwlEkat865ia9kdDpDttQSOXq4CK6UWAOM2os1zUJyvLVTXibLnFaErAP2pgn6oKPQ7CrK0GqqM2GXQoD1pf4nPQlq+L4E+9Weduu+NYAh2IlEVQZkgXFirIU3wFADPtLenm6jM81s+QOPFS/GQHaaNUT11XDUdCksLnRISyLS8K3Wixnuicln0H91kXnOuKo6aEL/7lz3wzoHCxb3/gio9LkQ8FdS11owR4pRLDt4O9dKwRa9iezHJEhwl4NB4/GVDMdZJr/LpTDF+uCDwYkExBj0/h2mu0WFRkE5bzjSCbyoLeAjX+WxqnRJBckf5R47q3IZz7EnzsuZVYy0Oau9bHWOTRAHf6e/z0PNraoBo8nAP6c0Uel8lFjdtjaSdM5llO21e9DjD9QX9vQOkQJsP5I4EjQ6xE5tmTSWOf5lcD/MzR4d3ctJ44ojMTeePM5luGa2HuTjJJ3W1VRmzrl1aub6gRD+Sx2zRH40fuW27B7m177TRHVwC0t2/YQcOFkVeuJL7VR4xfIYgvTtKQkff6uo7M6NmOPR5VD9KMoWqIqHg7JzVeNR7CyAKbzSplr50AyGzCYD/tNbT3bWc7XhM8UzyRaFv3sM5Yw5uA5jlyxGmRH4td9vNQjs8s4QNgfV7t8oDuf2d134v9BId2gZ3TaxX/ikNBxuV+bFBox3JP84LdbCMoK0o/M2EnFNrfjKWN/5WjS1ki31Lr6p/Ij0P3EahHT/s/0hzAkVpbKKRmy6xkGYS3JUwH37+nsuu3kJVCqGF+PkIJEg0dK/lRacFp1v9wH5NFU4CDi9NhFHHwLUNA71h0SGW8twMKtaYG1yCWIe10y5ce5CQpGkJMn296v3nPJBzskOd0ZCqFyCHqgnjoPl4iGmQXgOVwYxa7MfU1sEyC71T43AcoWi4en4apv1eY5/pKvtJJ3n8Uz1fqWIqx+EXrnBjGePFNECXqXfsH+mx6LH/HQBgPkyjZRhECgtDZyEFqhBlYi1DjgNXTgh7gdBx+rBdgrdseKif54DVAAmqbsV0NoY4wwQ5YtwWoMVdmcdeCvSkZxDNEm10YtthjwEWCYW8s+MerDpp6kDhve32n88cju4h5k0FmT7bZJsJIFtw14p3Z+Lahnbqp9yK2rDO91WoyPh8aCWKxHefUG9LjaCN28WkZ3gKJa6wIf1wZxHKknJwHCnIQw3T5bZS7BC8NgwqW1FlCBU8lo8BQH2J+74o4Vu52j7AVtsWPlc1O5HJ/BkT6IUIHeyjgG1Q6vtuKkeY++NRRl5b0FhfaQY9k2O5ZqwW3El/ROiiTnGk9LnSDCF06jA9pTFW88ZJPbdQB387kPRj1U9x3Lcng7Fa/fRFuXG14qejNW7d9EkKMUA/KQ7JkDYR1rxT7tGoVYb608ODi9XoAaG4aXoPoCe7p8562OX2oDxygn9iwvb5mwl+4d1P/TzoNHc17ud8Quvs5GGDOfwnn/f3nwIk5Q9hWES+twPbsL9L0ixabK5K3U3JQ3yF4JaSyYz7UHY320/taAiRjtjivrOfX5HfjwdSef6XUMwmDiTyJULhq4cTqjArpsplRXQIFrwy9PLTfPHLBuV8MVdbu/eYZtMWIdz/ZWQUb8OoCjOuki1+FY7FPL9Jk9c467lEVkj7UAS6L7htIJDfCbDH49nkdtUD4Y19dRcmjhhS9t/Yt1IXqDK/PpI0/2S4tDS5veur45k+XwOecjqpDF6ZArb7hSd/uJm28Jy0fIOs8F0ZUUQzSPT8BA8Bqcystbd9FtWd6oIbnvjVLm3O/UXjSmV2DP5IMvVHMYFjT78bA0CuBcTc9ZjXNShjKu4pdFOZGiiNRJ4e9/Ft6pykbg/BaplT/4/xFLxSTVFGSEbKJETPOAR2BCbduu5SfF/y2dY8envFLpITHltZlSNZ6P2qWYpdnIyvo1HgApmK/jUqOgaQcr8tHeJq7wRq74wBYptoaebnfnFq9W4KYJZhxF/l8Bqy/3A+L1xHqXoagBfqxatVyP1vnbEGXmus8bZk25UTvGDZ3EIbkil9uUETiXKQOiAgMXndix/eyYmKxQdHW1jAns3dP+dWhXE8kS/Xm3B++Vysg6Qif9c3VSnOKcVN56nXlEKDuoRQaeBDjAO4uV47dNFh5LUCYh6uAbvNk7DpbbVnFQms+9SdPe9emHZX9qJRskLZfqE5MRNPdQLt4+gbsaWknqX/Hmnjbm0xzgd6ZtVxoNp/EQm/Nu4kE+wAombvA7bRaKpaPB9SWDl2dyE20Pxd/g1LDKWQHYgvXc6y04m5gTTbuEsNE08ezlw0VRs9NongXMXIEtYmspzymyzOJ1f3pg/bHdlvaxqk5BINokSVyGK9eF8f8drKcywASz84VOlbrwxR+MOjFF+p7QpeD+nXFdqSQhSKOWOh4vPqN37PB0fFoHg4GPBK01SOgkjgjaTrnVN6S5NUemG1XwhBNrpnBwg7MCKuuFEI6/Ovz093nQyKB/V38pECJiqGUfJRbGelrk/PLqUFrhizTD+FE1JwQ9WeUKgr9WyZOvYg1vnTNf1T8636TLa9n5GnPCjGwxpMbDIdN6yOk/20DRM8YRGWyHXNShgRYTniIk9ehZa7frFetCuGm0rznsYC5GI07i/j0EEg2FvpeqMbjHzdY2pIm04XkjP4YIcjBhxtKrssDTnlptyaJHNYzVaNoV4KguZpHLLY2rV+yc5EmQHGkPJsS6Ts+C65HaO2zeVxby3glJU5QYPTZnQjo4cniBlfX/IxXGIoPDcY3CFsmImhIziOgQ9qY4E5vv1VQzdlrNpuQu8i0+ldlRKUqnNCbA4zE4xZSAZN+YbR/NsshgH5SMRwnJvdEPriAwqcC7RdIiI8XCPWLxG5W/2wt0BBpTU4Ghv5PJvj2vZgG9LiMNqRdfST1FGQOUsB/mjXFG1uiwE/SMXx+vOUHr3YnBY3GSHJ5blXSCA46jcqePzSdfgxEJiljZ+fO9LEU1IjtPy6tukyHqpD0F9qsTVKxfr/bRD5zcqPjXUi2PnAmxRIB9WGRgp9z86i78bGcKT2K4BuhQH+7pdhxZah547/iF8450bFjaI7Y3EQG45gFVCRYTaBj5/WUh4Jgl+m9vqfxojWG7z/G8nteJDvSsUnTIYbcgAMY7d0MaQZ6z9WVaICDbCP70SJ6muyCQ2FD24P6i19oTs+VYTSBRLsJQuU/njyi00g/BA4976gpPIf/8kS21lUeXx7zWR5d513UlKOi14kOJ3CCXZRXp7rHRKNoeCOHLHFqc1AnMMWfFDzZEWyH61zFlh/Zd0h3pvk1UJstxc3myk0ScIK4Y97COOelKF80ZkcrqFcjhD5KleibiR1f07NjJvOXxyGkosLxPWJjCM7l4cZFVQjy125uDtD6Bfu0jrn/m9/5ten3VqniOR9WMAu16xA8DcoL9CEWwP25AS1TwrG/gkUeOdw28J43LkFEKGX1Ec2rwHg7Az9LHFifdHTRgql6Fp67NRoK8ZZNug7MvRfAc3cQlzdu9w2N7XewPRVx7Vu/UCQI6TDZG0kNGOIsfPfrbVymrfIS+uvivchF/vYOXGNqSVMQkCcgF3IJJEa6bC5Kw/U7zGFy48/2lVxPYDUrj1VAliERchYxG+ySdnfDENIcZ2AyFDsD2FaPu9G4Db2ahLrvZ45bBUqQCZKah3wH9Ssc8lam8o934UCwK1NEuvx+84FybqmfgTig40cap6bMxqS7F2hhuA/oXarISVPshKCBirA6DdlXif+VSPhHvsiBWbDO0ZMQYnUBPhAfL/uvEYJU5fWWI9vVHZg2Ztkiw4vQpOK3Q+IlbirXzbMq06+h9IlFejw7Gp+3b26/CDGhIweSyOYNe0HGi2YIz50zOsTlkb8tDW7/IRiOmtI0WBH9EQhzMPcfjdch0bp1qOie9zSo0jw1QwvZeUgcOCA6NRGGp77GHdmgLQ6iqu/9lR7XP2qZhWPh+SywaoGESx9X4JD6MgBFSWsJe5rPdvA6JUNbVhbHIX1L11654vSjG6FD8HYocCwcN1Bp4Q6kxwiW/FofrsyFR0a1HZM3NSfVNyOBbhv7R2SZKeKS1JjbVHHRKzlvZQHUlaXNwPHrtwAszYSp9hYqvYVNl7k4LjphwAYDwleVOE8xwwgsVO/mA5Tddsf2V1Eh9vOtZ8IROegvzJMgzRa96GbA9QGo2VXMDEAB2cU//wFHO8Lpchp8xmIUAtw+D8RjtM3MFmNGruFGYs8NtgYa4XpCUkyowCQGReOxbh6CJ3dPbEDTabhWEGThkcq6HgsJAJjrgwZRRwA4w/jx6/dbszY4aw7/AoQhyOFGX6PXE1nUNhDn/l3cEVbhXfVeqsTigA5pzDs46emnWkUxNruyJQ352Rro0VGjJ887EXaOKtsFBeVg34aLTjZPrtaOz9wE6cCue0G7fKOKsaofdusAIFsBvhyJ2EVLPXOW5WNh9p0fuVlGE5qrLLhWQ4qwg2GtOnjZ721sFQo/4rv7SRqIHtq81joVIeZ6kNs217GH5+7sPsyTmYngHWssZH5A1V8JOS1nrOJYAr/9ZTi420CRRMtepz8cBGn7ibqRJVBWogr9PmYRw+zfmrboj5acdLvgB11bEDrFT2k1e7TpJbxniiLA1w1LuMzsxrtXsrmNoAn8oaFknu0BI+4U+6BG3OMDXHlOJkK+7WKInCbmQsKKoNXLM/SvG41kdLd45LfjZkVkLzDxfF+OaD2uE+zYLySSfQUuioTEInouFqr8x7loN1ulSvx9ih+iEqrMEvjLj/QL+io0JFGt864cKwZ1n6ibo5XbP/kKRGhfy0n+gPNwZbh+LagyFkCGtrSkT7kVRymX1WU1uBFPfnq1L/bU1PdzpJeDGzQ2vyYb7lWKoJY/HWRpxnbzeqZRAQzjBc4Ej8t+lN714Ivat2PnT2exi/sUxRuEWOR8jcV7INxD3pJZQpfelhm9Nlsh0i9QmcX2txGybncXGtMSy4I1xis5JYlbmBJDYr8Ad0mwZStzAhZeFltfEeR4xOkodgutmPc4HT6+1w32ALhKhJ8YXnjFJ5WaY/MERm6jcFrpWDY8yz+FDkM7lYOIEyXbgTi3pItcWRT9lzBVBA+oOIDkWVe5aCoPKznyUkCwXyP8Fi/GoQqhRT2fyDfneS3DV+kYt//okdSDcwvS7TMNJt0PO5hldo4YKTWyXOf/sVh3ltVKM7XW3Z89oI5LvAjlJRXozPUEf2hhmTcWhrSAumhkm74/tzoO04Bki+cDH67aEe2mlEHtdxvaATmcghVCFZPovQJgVsUXRyH8x6CRvBe8XdW3ZgBqz9gHpJBzXg37sP+QGiOXkVEMjQ0mshbxTuUp/Gyn5KHzX0y2llBYiJuDoRMhWZu1IAW4FuSIX5gq6QGbbNcaTioEY08SHFep3u+ll7Y4DiVng4dqECIbNBCcJMwtQyPK/vuPW6HOyVvkLD+Wz4YYirE9YdzLtrZmcjXo5QpHjkIglbhMy+7WWPKXYymYQtDahv5LR+VkQdHKfYj7p+oWCWs5LW2RxajpK+Aog3r2pVpCdE2/WDg6xk9ygjpDustUcCji1+2ajbkitDA2JCGFSRiur2dR0z7szsPZ7K1OaXwmUb1cHG0LZ5qCdGtX/kw+XecBow326/4LxC77YG5DT+9284ortP5o4u4kboJZsjRAAPJ6UCU6kfcfoynct8bKw5BphF1ZjWDSAYWvzdM5lfQ/XcZqnuLHalAfMwqX+Fj+oyJ1VnoLOibxCbRCSFPNcdYaSUYBiQ2NbtPyYMFQ5VKjslpFvjzdXrs7Z/ViVhVMOag2yBy9FXgGKeu3QRgqhOwmwVeRPPgrNCGkeltLDvUAK1I/LcvGNjQqV3583godcvew73tE/fWZ21er2gS4kFnHwF7qOj8crL4JuETVF6edfPNjeYvO0nd1k779f8+J1sfEqfU9mMvdon0c5S25JkY2V2ZK2Gt4riYaWrM+HYoIoDCYU7oomD8MIDf4M0pN7ayWtVKMZ52vdZhhfVEUyvY1ll9zd1vuBshM6l6RQQ5p6wpbGz+j0V8hi+1sIVY81xOem5pB/cv3lqhBva6WmYGSteddmvgEKawSczCy0aNegIMz84kmW0y0g240EQ/GcoALAMtGqF+P1qmkqQ4tTRP5jRJ8qPnQvRJ7mjjGHUDC1RaroCPuQyZEBGQ7uSMjzKBrVYsKtpt1J6zrjgGpJbTYC7ojEjFNG4tEL6g7Wmn1jo+OhjjMCRBEuycFbkQb9TGsSwaDZnIhzr3OsoWR9UD3lFFjNmz3V5mTZqCZv5AItOVLNR7z/wdEz+MsW9QicePAFnUiWM22k4K1Cj+jdmDbkj/cf8KuhZ85/dZaj3dO0+0ugdegKgEEzXe2ybIqkHOJVzQyN+9w0geNsPJKrXTNxSDJiRqmNLcwGUo2K1P3OhqGkYNLCAg1H7CykDIbHQcuBBbhHUBaALwQ70XUNZhT6RsPgJZxRUNbRnjoiO1D0XTY1uFXRqryvQP2BPfJZKfSaaMjik5vObT+WNdaHvKQwVJFrBCA5uU2OQJ9MVCO5sysm/M2aUeQJrAiyr3scMa4/w33rUxKugwcv4JGwy5yHBiExjx6JnH6u98nrgV0+y4RG/8VYlJPlldqyyhynHU2smquQ1PucKmgQxYEEImo5CXeZXUu7SKKtThB3NlxppbJDEv2930t2JhSvBcUJ4GMhb6gXzUZIxkFnmJ6K9PswZ8rsZovL499WaOFQ4prcYsbcCmaDP16sPkun3zCHGUXq1SOZzVH7nSGRcP5VkE5qBP9Rnf1rxRNxJrROvehCNBgOB60miYy3/U33xEr4RgK/Nxg5dBqLpLYnYsEObCUrx516ze1YTbGapqcjPmWGpMhbmPLEdOVaymBuyogiiJ0RfRXvKjBCYM2L6qARb/bJz+7Cug9EBFjP/QvbQViMvBcW0loB0ytgDJ+3NPjTSavBARt6mRiJuVrt7GVIADtyoJqb/rMSJ4Fv3eacfhEa6Fcp4dUqcS/JysUC4Gd9mBQIihV+9XQclTSU/Kt243eFPD+R6H1A3zpJgUExOasNCIEl4+R806SMswlNtVINDgskg0n9CshEozNE3Yr6+QD6yNiXuME9ZV0eVEl1M0jv4NGjAccP69F3AaeZgCPt0K8otKlOsVZvXUYWxDEqadNzk9qfwa3NxmUQ7Mkzsz3lIxnLBkB579tTEqajRK8k3PlrBmPOT4uWxJsrUbfqd9dFMiTjcect3YCanVzCbBKZ2SQKnqPBs+SaTc8jv8Pr9KnYGaUDiJ9Qz+H1LTTezfz8QDKK8cfQsavtD5CEpiuypekHru8YrWQgAESw/aeXnlyy1mIiIMXZtk5Ba/kkyKwuCJux2G9PR8bOc0t6h9z/hdjjWkVp2TNwoASIs+cHvBKJK5Oi01Kst5b4N3+SG4IPdbhqseJ7X49FYtxiAH6e19hiVnnivWHF1o4VkZ7bXLDtaO9a3mLdgy//+wly/R5rEGgsSpRN3fWkHqwPO/0JwsE6sNH23GsTJybWhA5pTrblwuHMr6iizJWyx+8s6IdY8avp0YbtNaGNIngM1moQjJZhVKI/YV/crp5YGyr8396Wd9gKPZ1zYvvx77RAB8eCld4eng5SFtjDP4jnKXjOkS7Q5UwkKk+JUIR00qL0TMA06RAGQHVC7i/IUC64pAn/YJjCL2KMv0vTarLrgWmjk6Ch0JzDVr9VxU8YRqRpYncJhYeChKbrxvyUvlhZCcE3BdsH5fxgvKUdaSPso4xtAzSKgWuT/aBHzT8u3gKQkVm8IWakh/YPrJqmmcPiC0EuDp4t/Apl6Eeq9NjBecwe/fTTcePnDigKeXrzbPO96zulxdStgrCakL80z46UUZYjXhwU8e1bQr5XkZvHnn8myE2dq1waaUGKoKvtyoYR4qhzrYos1oL+Vx3J/bhNMWLxEARD8mw3dy8SRfrhD1g2TzkWgn5zT2uhqI4iF5/wPYmkbdETzc5BG1jxFJFxguJbx9fscb+pvRFAjbNj+pkC8lQuWTrt6cCT3Qj6D6ONAcvZ9zIW59GfoY1MGYuJPRQlWIE9ppeph2IKjdSNqxEM4MoTqDmB8h2XmPnxFWmJ8vZIruTjTT9xKbbHwLvWD4kNjjZAjWz6oSuZKVVnbx3eNNTH7Eezcy+7DBkzRh9eLWiIA6Kg2BQbXtBv2sddT+cc5ilGLQ8iT6NGZ9kPHxegoyViI5PyhSaCFHH24zff8nchy+xzq3QDX1PLmJmKhRo6s2WvRTHWvToVZiM1N9hxVDe8qg4zMRZNlcm9VdKmrE1nJLDcqVUzA5nEFucGs+TrMu+d1p9b9+mvd2XwPz7YiT4AvjSxx/qz4L/rpkGTbedp5lHzLDVNSS71LA+euXHS0734pMNR7rdG2ELHiU4KcoJc45mRPRwBl+FpLX+tlG+uXL877BkrUxW5c6DZYo3wJ7ewwFOSYp7neJHMHR1FUX59uPftE9lCTzKKeu6whQtbfpDiODEBOzueUQw5jcPLozYzFNlP69Jx6sL2++u+Sk1MSoLdFi4AcY7rivR+Y+KBDQXOZcxVUoh+Rv1FlkB0GuwJQEnsaaJ2VIYiRAMqaRIEhZcuvMwBH948+dp2Thqricclt08xTG8ZS3A8EOD68sxVcR26baOyQkJy3wGuan+/GH5ZXDl9g2ZW8PKOetTu/vAX+poat+PaJ2e7KZlk9dgWKi8rVahaghiIOALfAkk0bZHspjrkcOSIj8yOv7BEr8/gTCBWsTRWSWG85hprr2ouRop0ioLZGvKFDv64j8/jxEsD1HonUo19IYBjFysz9O4XJ/Js6YJeQBByxocVS3IQgrIJjf+u2OhYMH63qufvtnPmqCeip898rPsvxdtQFIuVuoklUnaT7dExkAnxD/TfWIuJ20KwVRy1hETjQPwMzAeIa5iVoNT5vrRHCEqU/08ZAbbcQFZuW8oHjZe+JZCGQxPJWbKwkDKnuDPRTqTW3LjN+pi1byPaYT4JnM5vvHKQBzrz2EyHi8QEeD/I9CwUUwdax4YXjireLZKxTbb++sJCLHhoxkNE43nqCEYsIUaUKrkOaQvgbMplG6emGdkh2+JhA7ZQ6guhi0XJjoVtEoKXy95KaqrJU8HyQSxrVFTkyr4JSxvSFIv3W6nWDhtlM9ZqJY3TwefteP1CacsDq2Og+zLF5xnJg40Gm5EEw6pyBdjk10kXWjfqLoio4scuplkHzw8jNOfmg1m3wA8W5XMkVDitSee+QX+BlmgqVjQZ/o2vuKcfoHTfHhIMgQj//Nw3yOL498TATnyavyC9AtUMXrZ280MdR83qjkI1+SiPMz/dlTd1J80wgj5Ch80Z1czfXtnds/Ah1SO0nONR+lzIt49UlBcE6KCwxRxBp46FNx+lxL0RPIug2ODizNoGWKU7mzBdphZ2dJpFRIqt2cG1pp983q7mwybfnzgy4/kLqINI5fO5g4Nl4ds1P/pdxHv8d3Pu8yF/08eOz1MaA5XvR1V+K+3YCFlMCKk1DGu2A8vuem8HesrxxnxH+phcOblQMVu/ZU+X2oqN3xxJdWFepR4wRWDbtpXu4HfTPYiY/NcHrd5NcrillHRl+RaWzDQluGGCpFLyV9NN1KdNRRsUPoOYeeDVsyVyvYE9YoijWPRld3jmnkgviMPlGPRflCXz+7LFdg9zZIzgPhJTcWWpTVFbOeoBQ9Nm5M+h0WP81St5/oUgrpCKcCcQ9nKoYZ8/RpASDGhUtEul8y1XkKoDe9LjKTqCqX8/rINn1ryz2Azr5hrceKSIQ701V2u8ww+AluLLchx/sd3Ldft8wSIomsWNCX94co25hCQNhttN/8dZVHGlNLCn82w3sWxtqRPlfhq5O81WtmBivPBJoGXEbQtUim83Vi28AsIy4vNGASKO0E8V+AS04cYOIAMQxWHhWZQm7fMi5TopIILg5BfYEe7IhOiV1Zf/C6FOMznOmeUtG0trDl1qy0RcI6PrddExzvtTtg+VVFDqcteEZ/CozGV9OWESc/8mlxBbwlDOoAbMVWwyT0wtLwXde159x+/0VCHtpYs+eOdw4ad867aGDvxETcOQbtDBVHbbtTbhh4UDg9qniQeOc/xvb1aDU9xne2E/3v+akt7BoDp+FAYAfvsXwPoY/bbEaiUz/6anCZ0/aY8YiOXyRoSKQAb830qpMm9MMG6ibmyOlXhIm+pAXnQAIEX17Xt1op67ETYD5E1+hNe14eiSitDTtw+wKTXaK19Ix58u4vQ9c3ORTv4WTjOExitu6WnwcpxT0Lyihvozh3qrTvziTh5hWC9CXk8FgkWuAr+33UW2gfKT1jOMjLR4VOafjKtlnzVyW5tWv7Ip4RRlfMDgRfTGRZTdk4hmWYfDYwHRTUooueFB2y8kunjFD/ctYE75Mz67/qqwf0RCNbZOijgCc6IEsT/4Hv8SVK4QQm+G72JB82PLlQfaua57PAcliHOV7qtmp5nIrKOWHvp+LK34tLjSQ5hMKDi5JmnHjYUqdyPv05DbR+zrlBy21gWjprSRdVb4S5RZJA8mHqnXkYNRjohpggy5b5wiGveqHEdl/IVk6liiZGJRCWH1On2/TXvd/kVHku5kdhNfrRHKs4gavrkVMa0YHr13KoFY9t9GVdVAhS3pHc6cyHxbrx+yP0qAhIYl/H2QKX2xdDzf7ZnPvw80vaJJM7pOF6V13ESq/cnD+rXV84jM1YHDzdIcB6DfIKf3WRDzekZYdX3hUTaEh8JbsAY5mISO6V49hD5lOWvc7MPKZsZN6hvb5TFCYoWzjv0Dr783HRatSbq1HN0jYXlQ2r0g7Gy5mtUdT9tfbZ8TibsCAdQrktPsUFnrqUE9LSOPLlBR93ILsuCk6qDoj2EunMtf2eu+59cy7q9csxSDkYvXQmn2/EAbxIAc2NaD1rgalt4EWR4GCyiDx3z6L9TR0nK4CRFxyRv+f6AhBrECjMCIKVgr60D0GJ/YKgxqVsI7g5E0yBlgHFQmDLdTo/qodKFOaE84Par09V83e1MqDvncyO2Hq+85lQDFKilTr9U+CbqfOanmyolUmPw9P4uotSGizk2mlZVEbxe2fGNmpw2PqxFYvQFmbXe7ySoU1Lg6fM30iaz0KbJAHPrABT6hCjo/4A+0n5H4m7nTe2Zjq9SQmeVBAGQDS3DHkTw5q0VCZhapYLpQH/0W8d+hOZxAzWWgzTVIDaHKJATbIoddlPZGhM4zdFILWbMecg0q5lHWW0ntYEHyZ9fKec1fNr4OfRHmqmjsykpIaiLxyOOz4EM/k7Swzzew5+xp0S6U2hg/L+kz0hw4eUyz1isV9n4OisZWRfUDXGVXkJH8ZHbtaaSun6/UJSndJyxxrN8kuphIKZUy0D581tEPmgz+zA2UyLHneTiJYTxZGdPkxIPd5X70mss8zqrUWhAgFBCKYs6wKQpztw9ulPOtHy4CqMeDTzlwPgASrlvoRKdQwiBg4FeWn/6ZQoxwjx6GxswKBQVpcJp0NWGZ3GYwO+0wpP7Q71BaCGqmimbRYM/V4dlp6QxRT2+E+MB3WJxIf5y9hEpc/ndEdi2M50Sm1Ros0ZgaiPHHfQRuOA2VkBN20l0q1qyzQq7z8aOdqxoeTum+2ZP3SdPQgcka7et4u7uwuBmbC1/FUbYcrxAdxdy1BkuRW9wMP+zYGJXyEiJ5yZQPpbF027NRAa1IJRynyY/fsIiFMWdUsQ7A8YhK1/DKLqF+pdJF9QoEUNpwgPHj9IH+m5DJS9cIWKlJHV87NHcu/wRkzhHhwyDUA2ajnb293UYzcktp2KAZW0z8v8Vc1x0XXL06gHh3unBVcyg3dXfPGdNU9lPvt7rN6DgUWHp/fJbVQfaDI6blxHTBa64SbCsmwCei8747Yrjb/ktAZem9b0JCS2B8EFbp4AP9gn54mpy/TAt83QgFUZAS9JY5Z4tTcRl9Vb12BPZGSFKmmhlQRFV5Q659rHIAgsFmG/SQZ9UkqSJvdmEHb1s7R7Z/5/WZSEXpLB1R7Na5kRkv+mE9OrXjSY5mycxfiJ8P0xGLk3WlgqqL9x33vXzCZHP/mxYK1S+krM81eaSQ2eo8l/MvnXXJmwcxtP/EufAqzALYixYbX88ApiInhNMkMVVKRvz0BBwIFENIvHeVEzf/BKtRddmtWaB/3x5z7hTfGjdOBOJWjZPquKbG3ThLn1XFPxeKhxuStFhcAa8djcNLB/WZZogfdAkcgV89xvVZVFhiBw7p2KaRCrTIFcr9PnsCyLdFCq1sHslO5FSk6Rq2/hmasY7+bUHU/kD/3pYXxbugo0I1A52qAg8+wpnWF6zLocP8fuK+OSH0nUm0yCNIudSXcq4f+ArVSxo85NEiwqSHndEE6jMra8cl4Pmp8guU5JzysC4XcdzhO+AdOvztgHAYyZk8gnhKV0oIe6xROCwVbDSHzBpWsc+KOthKMxuIfrJ8LDQQ3Kh7635H2NR7ZrTIB1PsyDTCW7ue+SWwrn88pd+xIGDsXk753p9mwjfWwY/EVD6xXPZ6rtFtu9YRapxFCJj44twk7zvJfRb32guKTpGo7C+/UdFozIi/nRxkPViKgDbe8/1uX87L/uwXGZiORA32YwDvokjC7R5oP6lvko9iE7wiN0VwH0IkEZaD71NFJWMKyu+EJayio4/EJoaRlcWe4wHe6ZWjdDE3uJmD7wYfXhgXbDhqAfsACocgci/XQpSwC84reW8YD28dHcZX5Ox5j/qoWHMbHrSZe05oo3zcx3QNOPvD5yp4H07K9nFNsghlpYBTVtZ0h+AyXCxquOdm0jvltHK6PVt/TDZ/mmwSAzJhYgsBxsj2UaT4QuYoKPAnRk+H80s7f0C4HIeEt2CCnqFxM6wjiWtwSbaOB0LAhDAGlSx4jFtV8c2B9U3YtgkfBVkq0P9NMGIhXLyTKtjew86YN8Ktld0xqILqYSa9aA3uthQav/qJFAIz52OQ2J+tLy9TWIEayzaIXd9kze8+RWcocDGjLtPjL2eiPnNPkHNoOPFonI9Wo29dZKGkn6V3m2lHkX/N5jy8N3jAPY78R/9J8LzST4ZlbOvP3y34s4QIyNjzApOGmro9CT9R1jGhWyS28M+Sck2QSXfsPldA0tqYR5tvqRPA7l6GrFVTkNpvOuVgFPD9mKpd8aNFe9oEkUJT+YtZoaYf0V/RuxBduCJs6cr1jqdPf7HiRJOF5lTuDJF+kH5inFtuIsxAbKpBFuStu/3mX1e8nQsn1PIsxwqIsxuDg4XR2jv/gEwllQY9hdar6++oebmbMzJPQ1lNUyzMb2TEZlo/Z9L7TnUvDoKLbsNoWccd1uvWc8mpPaDAkZOB8X4t6ea38LmAK0iO7ONsuWSxcnYnT52Kn9ovpTo49YzvOhm+KdxA4TavdzA8oLlYQHZj8jFEfhSTPgEw1H9GmDMVk+WLGUvd8eQoxCewJLRBC1SgjNbyy2gxpp8rILnjfiSJvknzn2RomAcXQ6auirEuOtdVZizlZx335QnC0klavUrcAaXbDiqBQiYwi5IqZcXq2VWNoTaGc2q/MknNQNFCbJew+z6N13nxIuR8kK+G5hVXADxomjwNXwWhIFRUm9E4ReczUE0v8uNmv7V+aMc0pDGdB3ox5CN6jXQjrCJPw3Brx98nV8vVMEzTn5ZxS1T6vw5guzZ7e80LzA84EJ+R5m9OgmpQBMR9dd/gOB4Umu5BRaanrGs3MWCgDZO6oKhkZ1zwyY8yf4VJRNtTZLlWtJoQOz7CQOtIS5KJqGQ8KBwpkpKUK50Pqy2qlimQYNMouTdU8h2Ev7qDxSqGZ3VQ1cnmewCWFPjQNW7X7q6/Si1CBSOuq3vSyVNDnwWPMsuh2pa5QJgmedii/HZEzb+EgvDDuvZBoxn5RjzF+nBVHgzQKUkTKypzOomyocL9lzu7+OLdD+GmTjPngbJOu0imVLHJI6M81+54Kb7Hv//+ViPHyIl3wqf3eLZwW+7jh8l5aleB+DCk5Z3TVJQBtbIO12TzSlXJXgM7vkKc/feGYiznriYNdtdMZ4MinQPHM2KH4JhFVbawtoqpG538JjxgqK3w3SRoJ8l/R8Y76/Y/NMZ30EP+1lDu6mm24uqGLOzufDXq3SZvS8wF1kLQYbrclzlFVWAqRfgVf28pI/X3BGaxgZ3lXIsJe40B9rGRVeWHwIdWa2YpbHrYvQqFtfv4r/QMEafF5SQD4Mgq2yGwy0Xel0a2+79NORqiSXxcbRSv0ESFQgpM2tkdsvqd1rKzI5ZeoZ/q6BMRuD1DVp3+mEEMHEyrnNmHiOkn/oMIUEwqZMHi5+JnIf/1cXuD78U9k/JfK5cs7JCWOdfln1rrq/rkQz9OZ57WjvQPw9wFXUppHi+LwYqZKqm5MB9w9X94LrOYoOCa1cipeqzNE+kKX2SYZRWkn7BO9qEXsQSYH9D/o6P/cnXZjwRa6xMhg9EDpxteh0GWT0UHn4WjjuRUi53uzSt0+bRAIYgAnZJrK9wPJdQruTju1X4DcLfhImaVSBXA0sb6JqcSBmsyFsCUhFAKCPJQceg1N5vK0mJ/BJ4ql6mUucS2YrdCl3b0MJjvrJJby0diS/srCDkYnirKVkt0AD++q7l3GHQFzE/+5kW9SEbaK+txPAH+pJ6MMQ93O4AAUhwE6TAL5qdqSEPS1/S4ls4z7K0Wm/FnRF6UStWMdli82vJDFzeFnsbRuG8wUjVKgpp8NWwArypPhq+V6sBje1aI98ZMONloF1/KwQoJHoNb808NqYjfxMh+CwV3CewNnF5qBjxO1l+OFTl0uhkBtIXgRloOhUgjZpEnVs0LfkvOSnN9etzEBK6CqgOxHomo5HaBAtXQz+tCoB72RK5NlVXQ9yCnBDxI7Vw2em7Ji3IskJPYf99w0VT35AfX+ghykrNdL5xhEfFnpNhL78l4lJz1QRXUyoc4lwFpfS8SD7FkiuaSvv9roawqWLBDVDk8XB0eHGEGrMVIyudZp7OyupcMFgC4avRgW/B86U42ogad24hxltG9bEwRRCxBBPBo5ChIizh9i+1u82yzFOu/H6PKKfo2hbs+goSytAQdAO9pyIFNdjmcvCQXHhY/AyBZ0XzhXs7LyDWkQSIXUUzNBJOUHn03OpKm3kXk0UxAB95G99U3D8ELTFp9DHk239Z4cUt9QuEHAAAtmwHoEqVLXYXT9IEqfhUyb30S2wmoQAAwdKQ1EDOgArgPmx1QjAuwbgCZqlk2xmj+ArH+wJFgHdYOiAB3V3fVyDJVogGDieFNcAHtKsjo33ZbhfscQFmPIpfT7qeLCJVf9hcWJwPmqw59CElCET1OFQyvw8OHBEsaG44Q9YC1tI8cexbnTZoTZRdj2lRFyExrQs8vbqQ8ccC/ThCLvy4pqdAb5g/5T14GXg49fJTk9vgonPZuwOia7r6KThRRZFy7IOOAN2B1nVCwTmJ4O0ng+2Ozanc28ljLvD5R8CO99ToBLcmkJtNzuvLKPK6ACpvqJYEVwFFPfYYfkf8qX+g+X0ALNvRCL9tvvRhsBSy2DEemCv5ixRU7pt05EYtX8soBrVb8fTQ6qboWhyQjHEGFEv6muPVS10EOyGTliAYvzTSrQ8gBO2wAxnW46Jjft9oXEy+NAbtCrnsqLzFCjkw4pBJJLB3Szn4VpNBP6nHZ2LPwHgIbt2RczNEDyIDKhXrQSXTWxGH471FR9lJ+SsA6v9V9pfJUVXUpdvFHuVafoL3Sm4HacP4+IKIBbY7afqI7E9TR/SuK3gOt0EV/wcYoesEGXxpFWMSWgoWO0ACFuBKKenAoBWAROABwoB2hgAMLAAZPdkuo2OkD671oi0BSiSfiWK6biE0sHviC8QCR35DO7OJX6XdWAV8Z+QasA/rNR9fk4LfBN4PXzh4+83lJ9GDe0/lETK3kZcFxxKqxzqMGIS6cQyysQgAEiFvRLQzdzlboMXw+P8gKXrbX9v9hqWZ6Po8/qsR0WW00AgLuoPfTjzO/X7+wyefrxzcgkxMlozZkYyJ1H/TUJ21AkpKeuc+lL0dHwUX61+NNCC9NVrwbuvLvDRphBqOYhC3zuweLJhSEd4DgnaoTHm+j8sEpCD7eFgEE5NmxaOBGSQKLCTjb9KL4B9VZdoBsRvEVh0BvvM+O/23mmNHSArmw7dk4+nfAI1aoTwhsfqYwV4SAGMRAFRe+k037gvxSo6lbM9w/NI0ZfHDtBNyb4uNAi1zfTI4BtstsSyN6ispelpAsaWFofTq1VWW8LPBYPDCIutvJsggqUMAh2ScVKbYyvKfc7ZZrNxVtCUmqOWVOq6kSD5ep7++pmfdSsC0p6WPccrKyWDowj9UtiygijSFac+ixLXD2Bn92Brk9eX7L5tkLtGDAas7GwVQOA6sSUuF3/lNpvde83wmwJulEDv6nDtnOxHV1RCA2RjoxRA8jLJoAvwMtiberQYKVVYVmfu1MKna0vY5B1PlHd2aeSjnNvDYkd/q4+CmNzW2KkiT1ILlRYIaCNitSyKTePNyOSDwrt6RcRIwAC04AAAiNeCIOtny5KoeBLQwKhHSAKzZFBuKL01qACafxowmR64EACXAGpKbVopGtEhzwANtAOTrJzfHFNwxywAGJpAn1kkcZ09EV3AByMTkiSKYWglX0s+P3DIACjW1RQxFBSNw6Vmaaeba5gFpkyHN1HPluAJvC3ImMURuX+YhBdue1j/I4o7zD0UEDdZjPDVm4L90q/dwExIFeODLmXaIAumHOncLu3CE9haIY2BajyvOUmojos5S3lUld+0NHO45NYpBbup1Lwtztv8e08ZA8lGt3yNxLed42bsBGPqVQo2Moiu6ObZ+rQzmC98A2RroJUI6i6zgz27atMrAhuCKQI9ZlGfZNo0yarYLb3tIGp0f51xaATWNUq3aSaOItgzAdB3+n//rSj8DpeJkbMaQF4GkEkTK8XnwlE63QBT1sI9ePo+1ef9JSbdX33VArGtGnUHhs2SVMZk8dlj3Ene5e6NNfLaaSeoj4TUIwDVx5Jdrb41rMSt8NAO/BeadASEl7PZ5MwzsOhCvVe8e/kCwXiRElz2KlucYW2hYBGspfdKvcwgw6g/hSTa2JJ6/atENCx7h89RF9ctYXDW34USEo9MTrjS8yjMnEgRU+6EWZLu7dSgfLiFtlpGj7O+UVZ6TvP2uETBWGYHeamtwOolLOTUTSQilj1e87kv4hVe5tKhp+kr3JTnbeOW0v37RB/CNwlOxwxEngdISv7MetPGWbD9tG4Sa+x4sUYdJ0NMOeqM+XBSIXtRbMhKxMZPBZjLyRQ36JqlHgrNzWglT/GKoLs+lrP213uz5+KiZHYNXhhZYGg56iweQRdSN+Qwv550A+MfFjTCk0j3fLz9xlBXw9CThYtpWJtONBsbHcmcJQ6SFWm4N3aH83tjUq5fiyEGcjlIIddAEUc5CCDnnNwwAAGQiP9QoaTKd+wfH3Ww+sI/iG0SMEgAByOpCD4wa6+/rezBQIYYjILsiK8KCqAhYmBBwt2+swDq9WrAUmAACxgJ/AAFurF49TeA5wtyoAO/jnYIavIakIP7ASI2DK9MF6ew4S+IqRcbzMzIvAAZ/1pB/oAxTTfmPV0LRnQxDRlcnZpcrn0KCHr8aMLvYRA3KsmSutOY9L0zjTr6+4PdHYu8DAPyaPPOY7Zzey39gqFz0IdNQGb/TIlSWyj6+HZQpobIj0MqmiVkPA6xAhY1p1k6LvckYThY3JVInEaxrMDQYbDJ5vknCpXSImpnQ6Dgk+NQWZ86NvxhLL9xmTivck5lEHCMtr/YbhLigZZR7POfD9XJ/wdrF6sxrOEYFq8S9S9INVwBlmbJd+zAFracvReBXvDi+DhiuZWDHygdx7F20rdANvNu6mG8Wmm3rs5wevQqXJ6lDBENhQrlJcMlowCTxogiO8evx10OjLZ0H7u2VSBOC6LQD49j5SbPlGmWLM+nUhJbmc9b/KVpQ0ewXeI/lk2xV2Tfo3gkJsg6Z7Bdy9TxvcYCUQkei/jzG5SgfvB/F959TAuZnua4P4F/8GBf3YRHBiwoLbjsfnOg/QBhazhvn7vPFVFouh12hJlgrDhmMNwLhNFXARijm0B55BwTZBCHqwsBep3Fx2WeXz22GSH2NgYRRODVgFIKOZgy5RLSRbFBrP/uQrYfuvQ+z5qzbfBGc9Ib33mOQWW5qWve1GBrB/83tTBiYLWqhUal9JK2zENWrykf4q0CA5UVpR4xKNHw/7Pkhrl151wxegWNIGv2NpAjglGNZhxbFxu49hX1PzMfslUtwMoujHzmKMiUo3MM2p0AVBdoRQHurk1EA6RahfABb5OhgIKEXcnUqOIOzSrnRgCSC8V3xQXkTnIGcyS1OhUnAwACGSwxAAvCRJ+AkyH61YlT2PwR/SRZwSZaTBJbAAAW876YVCBPelgAAADRYhMQbzTThu4UDWYNYlWAp9aQUEURFPHsqVWVEN1nXguICR5k0nGsaee9a4TPnwZlQ2Lzi48iTZcJ6LSGz41i4e3xTkyzlfAm3v6lM7F2PbsNUQBCA7kOtxGMZhB59f6h6tt3PMdn6k84QDBWob7bDzFTQktLZHRCWJzo15AAqRHh+lSVuWAYCBReUSnih+ZiND7LdZ69+Lg9P+ufl4XjU9UinWdoxXgmlpetsWYs7d58fQlktsBDI1T3LcKbeGf/y1VEV7nUm1b2ST687hqItoiEvZyiHRqzNLL6uspsKH/hnmz/nVo1Ad3o3kl5actvmNOLZE2vMiusD1pRoY+dffPVLdNIVruShNCzNB6K/A8L9YdQEZK0h0NwPe4e9EDrAl+4tgmFYB8KyLqmpnT6hdyasQ14e9lWi5TzvPmUuh+POsdQlu835QL0YIJoB+mjJWlMPyHZ5CntIYj2jgbq7hZzPAjpt+yTnb7L1iCCpCkBxkBNv8YvnOl4k6RcfAAydWHACW+QwK4d4Lrf92RMi9p7/lOPD+88WaE0KIiGwVbaHBWeX0LXFEF6gjYOCVpkOCgCc1QbKk1QGFLCVawbGxdHEpr5s5cEXXWLcg9BsuZgqrbFLqbiWhF3QCvzFk+luYp/gXsSa40j5VQQCa0lDsLZcWEQeuq367I4Z0jLsPsiIVid2444xIsya6sgoJHp2s6tZ8s0xkD3alS2SJKTGkVgAcRZ2EwB7bkrHvYoYIXIBIhmltbSZmcAApsAAC6BX5iNj56eR9SBSvACzjSXjfquq02HBW/RjKQwZAR827fc1AcWLGvApErTo5TdEYF1IWAj/+rTlnbM+ZO+GVaBQPrbz2JuHNDFfpi7Hl4V3HgajGPu6SZ+XnCJ38oElDy5BTUD5N8Q10IDiYjtQm3Gzd+d087i9DF12QyFqWrMXtPu1Je+tmM7+bNcLeufgl6HCIr98G558ix9AL3E4aXomhXSUe3vGsrroRzCgq0cfGu/4rhYlzLJlsPZGS0UMvaF16xQ6T5EsJA7IlikxUNgVqnjGGBpcQFOR2zL8VSnnJukzeiJc7STjtk0rC72BxPPnI2Hwb3rLK+uitMMCj88dSEKC+6/EBDU0VarCbKeeuIKXMjzzvNA06Slvgc2jZGfSIkBNf0ziG2sz512yX8DE6ghEkigW/zMZxBr/zBgpG6CGhT072gIGrEqiQcb+t9FB1L05QOoVfm2SNEduRg7YJJw4R24GE26vWgCz/Po2dZHfecyT4XSSlatyUZl3uXnfWzpVaYIl/e5kuaewcJiCmts4B+6ipACKcotRT/Nb3HDUpGJhlVgXiuCAxG2/7DZnxUtFFqFdqSy9BYT5XUwfREflAKJfyHCkPQ1Ttbu7IdwhwSRxQ2oDm6v/Dq0V0ir9Hx8ODYrxew74pc8xiheaMHTLRGY5EEnQ0qzaEr6g646uvBGkuzhOB5erpbG/570FYGtEdMr6yhZpFRXHet0hK4SxYPi28HtC3N7xuuOu0VCFWEXFdf3lbk/HM3K7VCYb/04QJa1x2IAgkQhXAPmRa3VMiPegi8Mol0+vcjTPQ7MinALOoI9ZhGW10IlhWA5TqTouvNktTc/vCsgAB0TbaLcAbB6MIGx1Ajwx/c4pE0ODeleALDVVCW9QLTA8WZ1gAHJNjuqMDRiGthn85BoRTjAAZChXwCdO6v4AAJJaah/oZ+wHzwGDCN9+h1EfAc/IJujz5vuKW0u+Lp0X6eMfq4ls7RghW3AHuvY0HcdWBETd/Ew0wAMqhSoOvxFWsL7I5k+RE2NzDl2jt2yUCH+GShYCSYS9fV3kXDcnch0ITlDEV/KbHbVadu9EHo/eiYEZmHCV4e9D5vNA/o/obNyEQPMwjjC/Z6fe8bxMvTgl5npJjEYoLEGYhqDxvbH8WLtVdqaFE4iBtItSwJKpy4DxFXSsH9zqhWGbLmOv6sz/YDyQINreFlx/2BBQGZCZzt84g8it7qWAX/z9hMzTBHSBpTRZeK8R6zk242pXyy9606mo14Up9Zv7Hix92djbpy97cBI3rmlaxxEPGSoBOLTXAFUrvFI4jk0F8SSKMLcIQIKTwMcpn38iFy4+wSyTrijvtsOJn9oxw+o9c6kOdhDM7bCg0GoyF8jsyFMU/nMiu0sZ6gUm0TI2SBBQWuoI+w5EUE/SbU9Dc2k7KyGAJR2DfjiLeBErs07nspO6IqvZTCT6kTCBY4n3STlbkGVPC15gquaqPwz/9rAD3iVhm7qaeqL4NocWyDKNvT7gWT0RslhBtila9Vt41pwk+Wz2sBpSQTSyW7FCOXBuGRqVipPdknUm3zPALCHdggjar/C3Bhol4oSk/uheIMXZssRphG4nrtgtYbkKfRRahC1Ii63Jq5JWWuicnOd1KZagStc+8FFK5FZdKStEQGqwqafGDxmAQfb0qWQg+FCxCL52nZLNlVWIuLwJZGw3sQP9OkS7NiTv1b1YBXUr8dElpzPugwYtTdZCWZsZVQZiuoNJe1AA5aJUTUsUZJbBQ0xVufTcT3d05maqpf6UfWOCgy9bb7gNg/KdRfqreUD8e08094LhN8Otp46hwLt4SgrmlvZN+LUjvjDQfAAWf1lx26zge27bK5M+BWZBFoCxAFaAACzez4ZewHfFItkcq8MjcLAQGConmCXcc0B0z1AAaG0fuev+BCFn/cGBAAAQOJF2zDoHCsCkHvC0ws7/BhsQHs1GDDZTT8iAAPh91WsfbsMWvgpoykp9XhJ36B//Ca6D2b/rEs+EdTgpD16Li39OAWNceQ5NgPge0uMFfqUJLxEzlRDWEZOzitycOmxw8X5wqUmYjjWgrAey/umAmJZ5n2Y4u/h2gIPD1WbXGT3EjjuF1kW7nRXDrEeAaNx4eN2h5ApgIfeDbnyQp4/fxu7bJSltrEJRYLktOa2PTFBR+kLyVB9+Bme8uihjaOeRFn6UmkScBbooRtYOaznKi/xTaQ7b4oO8pgT3iUPBeUEeH66fqM3FxQdLJyy7UTw2/iDKc69lVagwxYmDn1F66GMWDsJM4a69pi35Sng4mdc1wo0a0nwIfdaF+kcadV77Glq7+NcVRk3wmfohhMmeB3toblGYNCCIGRU14Y3p5YM4bc0u0Sju8Z9qKnE9NnbWa67vE0uUNKNU8d1zZp1ltzZ5egFC7YgnY5N7/BV1Ghk01hEfB/mZMdwTkPfnA3FFvkz454SGKZaXet3x33Re045doRPvyYjKC0kmXgXXY5VlrVdnI+Wa/bmlLkY8Y7OjdIPCwOWCrK1nQGOlsrqV2RBdW7tppU8FApJLb5h0mh2kFwc8hAMDDPPW9rkR8aqcbnfIt5ALw0HxvvL/ueHUB7VcdjDJ24QgLLxtH1v5LAw0Xe17Y5/vBdLJvQ1QtEbkVLmwtISnHn94NEv4dngNnMJOFbom3TzC/4HZhJXO+sueHIYda7FQ0qr7ZY2uFcdRsvA9uzxczWPfX/C4LpxpHHox7n9m7xDswBUQZT4gl8QAe8uUvWTUdue2nYX9Knpx9WWWWdjdbLWu2lTbdE8wuL1+Mgwi0dAlFF23fqlwKvUwth+fTe2HZ9d6+ZRrV6CnCZHlpI0JL+fEYwhmzBoZLd3hv9cmYAApMGuMyLqGwgOt3nIT09+/gxFrACuR1kvjiHyoKtyWcVhAmrcEVypMxylFyEp3zWEGhJEGcYS7UvnapDh3/EaGBgTrT+F/94caiq1U4+U2Wm4Vlty4sxans6BtIYCFenif8A2ogoUPqFZO6IzfigPg+azpByrcKNB1Yy9NFL/+KxPzijgb3AXUi/VOjug/y7o2aupYactsn/Ssc2x4WZ1fs8C9mdIHHq2xyGjEjNZQnWV3TgfwUVtLdUcFfHMOmROvHeH6o0gW4kExD7yV2srAVW7pcsl6XlcvKEFr45kfzljZ4lE3CLLMPrcbf54AkEYl5JW472/BUu04tQWDIk+19A7aEWfuI1949E7zvhGAke7O7O7pTxwwW3vl1r9bZocAvTVbCAAZeonI9uTYX05z4GDqmifn2wMoayxI5thQPySDDRkArf0kLUagYhHSSeRyCim4Nz1ZnINt865rHDjxXafaR3AAG+j7QACfAJ3AYReaFwEogTPIAARoskexsHZqyp+NPLgXFyQ7Zrg6IMuHuix85b4zgLts3ZTNU7vPeLSYsFCuRLJqCPp+ZS4XoBMuGm2QWDI83FluVG4Dc+FeaV3sbaoAjz1h9lAzXPXnosDmMkfvizlhifS7A66GCR+tdYWk/v8zO2oz4N1Z10NgJmtnkuvFJJ8nHGLrkxXhGO4M5nMKF17vj0uklPA+Ry8+tLonh5kyBeupFQF9fLn3RxxfYSXlXWVoN8ErG1gtvWIBvbJrOHoj2Uux8/OpZfLwth2fRvpo03zvU2BzDQStoGvzK8+3YiBbCd+hkHR1o3dP8qqykbkwmYWpIwiV1PfHpoKhZgstYmUW6ddoM90iXXLMNBDujP+1i9J0HTw6ygcNmpmQeLQxJfOwSGLIvm+hmQlCgMJhSht9PEX3mtyw4K7/Lz+SPRxzefnxMrqXsX+ScX/gcuqMt4+DGiS3Sf3GmXRR0Z5fCF/Nc6WwR5wzkiDaRt/x6axQv/hJ+wTrHcT57S1Ao/ZfI7tL/M5zHFle3btGJ+zFR+o2cI6mxLjxSKIAEdoCqvH/ADMfefTr8C2YQw6yCeweVxv1GpkRuojt4FvsKiLfPJSYnXxDVo6h4InKk8rZjYdoFk5vaFQ5lBRlKAK016NkaMqH/FPanUTDJpSOWvL5tmnW4A4Kvk9k2ARNOcggD5IYEkKTiitzBPTfxjgzNtHtyG3FULuSB2HjmTPztg878XOBlg4h1W4sBBvthkZpEZFZuvx6OmrFQG7eNTp78HIfc/i2PLp+9oNjB50CfEunbu1njjaZsIHkZng210xzyw3LyyQYSWsbMHyM1AxH71z1EmJEYXkoPm2w61r5Aw3eFnFQ8HqwZxSD5PvmoxsN3oiG/sm1oHXol27yj+VASeCutfGNJL11pEJyiBqdLyBP6E1l1OuLvuSyf+OJ10dBL2j3s3QBI05Bh+2u0aQPg4v+p9NcsYJrteS4J1hyc8qfWJe5tIImxGjbLPrIoHMjrO9gCbidROi1xhgF/JdKAnDpebGL/LsGyjCI3W0CtK33VImkzQB5OWtO6G90elOJ51pp9jvHYmvIITanizzdS8aLMq4GkPxNJXtw7dQzmqC4A7ZmOSffGvdYZG/lC2M8v6HU2lKgvuHp1GWND8ue4yz2GcOO5rVko340giEF0b5FjuplRJ4K2v4lyQIXlHMgcp/L8EeuWZC+aguUrqnHmhoiwE2hw3VSVjCrMjjhvsxau4gAUtfTtp/9YIJ/EWbSBsyU54K4IRQ6Gn7FAIjcVtHALcebAo8UY0aYezMAIPYd5ZttyPHs22sB4KPckOjIK594Rnt5zUZsoG7xkDlZZyIWBQeBfOjW1ta8UAD7MOF3T5gnLOOeMK1tCCJ+iwWNF8Y8BpUnQAuIeYsyHZpUEAAalz3T16SYJwAAN++YAAAPykhgxuLHkJZEqEWx71NMh7CfAz3eieFgJKtDnhu/Qe7QaIi3J6ZeqIMtDcXVoeEQb4DeTOPdDJB7IErObPUuWGybpg0GYbTp09WNaXmsnfqoLEfGdfIxO9ILdfNKKQcRhNwSH2LyP66ABLwpH33rvNqJe+oq/bZhUvDyclBmpzrAPe1rRmSUz9WU2EE88/aKWy1vEg7kOg7IVK9RpMepdn8ltHlNp1eJyOXvDjrbivp4ctw2zMlHBUxSEX2eSLGYaqkr2rbRBGHBDv/jaY1VRwMGn2wd7PiU1GU2jMv8ovbWBpByYedCqvFI5xJ9V1SCxCHp/v2MELG0sfU5TNVNQAuXZKqESzsNiILJFJypE8nz69Lv1zQB0vXhgja4AZPLXZ7xq7Hz2ej++zj8dxPUvZKEnBjun3b8MuOlhaxyd5f317KyVBZEx1rodZHFJChrjX8i9EUbYZRZfrprWTFPD8oy6S7Tjjq1GjJiWIEECNQzZpz/3kwGR0+/3Wad5GBmwlzkPe6Ggb88HX8pRXNmkU6YeYrP6ooCR6f3aV0ehshYaJKPQ/IacRrvR+AJnzxmDtAHQ+zq9adroexyzK194E6qh9Z++g50kVy4IZ83pcNfVsGq07pYFfCClbn47ezv/2c5A40mdBSU7ZBkrcF4dgjsh3WXY5h7np1q8Pi9hjF43H66DARRIc4y05S+0puXe52XBvcOWMDCcR8i6Cw9EWZHgWRQ8NpvfSkvWyWE1VxzLjnwZgFZvfHrkjzo9VA5CKUfS+xiH9bc5rXdoyxdDBRQqcR28HBxVy1Wh9MGwDKNTpOqEiFjZrmet0/eH/cQLGAvuu3R50QtTfdDKpF4hMmKb+L+bktfos34h+1vc4LLmCpv+IZh7IjyuoPcShO5ftbNHqS19lrV2sACejHIWD2AuSyS2XsYroUCs1fVKuJZme09iUPPSV9YDFwodX/nmGZE24plW1Pa+NsfSURiO8l6XZILw1tdTlOJ38hWsFQBIxRJch46qUMC9st7/yiwRfDIUs1fnABgCtiwB5tC557DblI5Wn50TT0U3gEdOeEgqCGLCjjTez+WLrMjAH6F+wsWIDuzh9Z0705jH7pDDqBpVOTe3mUMQ01REi22vvd8Tb6eUOZLa0mBMZCRe61ZaIyHApB1fEtX/Y5tL7POhG7/Wh1sLWhCe0jpqtmKTxIB6ZVoP81eNq9RcaI2uqE08wBDP+OiYlCqQryRXWXhze/PZpzD7Wm4iFyg4xfmcFkdb3moP0nFSOp+Ty2pXrk26cDOTY9k1BmhUpsFFy2p+d011gStBm5yB5h3hG1B26Yh0gyyfzTtQ6ey0eLLtHno/GVqWcFKQfERoof1pt2mqs0w3jy+XgeQ8O45Wxr7cxw2ll8bj00tNbdLQ61tHO+FeFUQKmDWXvxAP8sw0A6UINOqEKoRaWBSAuL4bsN1xseAAR6AICitnpCRbwHL8qOzzCXvxHQhlFtCXBOYi7OnzJMXGbnZTsGeL1koaTFQBTAIAo4BgVUAVGRUsykEuskFfkexTlSjOGkq62uhgCYsDEyoiU+tLHR/WXQnThLLwx/c14DX2OKnv74Ov2Np9Apcr4+RK4ckTfBKAA/ycguEa0p+AiSJ1YZLGEUjXjjr7QMH50aAfIPtq579g3bXByxRStIOhW/K2VXACLunQv+WrQH/CJDS6ukyZRpPHZkOofS5cIp6AeAmBdD5lODIe+5Y55IHutgZbpIh2Em2w9b9d/REtdvYVcJb8cTw8i+8r9p2BfLcGjPoNyarW0/WA3/pK9U3WfYA7luo98sIi5q3PJizauGmnYS3uFuTEm9CysUzoUKJU4Hu0Tpv6jUphaBKzO1Zj00Abtza/khFVPYUmi6wY2p+COCA5HBicPkitOLlJL4j2zC9X2cjnNcoT1lEiFOM2u0F3gtZejw++Bj2GXY+QW1qweM63txVXjrR+IKy9PDx8fOx4glz3S2dEyGneQ0QGHI3fAX0BkFdc0y3IuvFJXI4TKYFXoAdxFYAM428GNP/vvkrpkenwKAM1Z0SNYVa3/cSxzBZ23K6sCAV+rEOR/6mJbrMiDCBznFmqcMBLkJYZ5YvD+tAwLQvGe/BAfbN8LWyDYReOAFi91DUsCS4MdhXeLUYnUItYNtbpWW2JCz0ReVwWPzzmHt589/0dhBE7rj2GPGSITXPv6UtPh2shhatybSp653tt3BtcqhfAflvuc9bNzKks7fp/0JdnZxiyO28l896hQ3Nhxf/bcEva2b1rfVrzUjfW6l3PmTAf2qEvmi/fm084UuUtT6N69TZFIUz5SAwAHYL42736eNsI69srH9xDHCK/a43p7Dig8tUJwwaZ13LnNNryL8MKgmNEDR3aLd8Y2XefYEzFgCEoDD4VAyMVEOtmXqUQaP7fxEt24Kln2g8bCd9iqrXo9+yh/baANhfhPvmHwIBVUBlJYfyT0J4ouAVWNzpAwZC29HSK1oKOL52drvJXPtvJkGgEkEnm1disT74tqE8rlT4Hj2HGtj5IUcdMDOzOBrP0wmbq+AcEBxpmZ4CKMuSF8vf4gKIa+XJDbJq7vsO1H1YCi5RSNDPk3oqM2lzx2rlDBmHECX6ebKZZgzY/P4+tMaOUs47xNbTxuHgHD4RPFoYc6lWRB7Ym+1MKVJpp6je9iXp6Mb7BgFZcJ3JQX0Snr5mMnIafdaBBIfxxpuO/IbkBtKSJ/Nagttwm6x413bk1DVtNCHEqT4owZf0vNoPOg4K2qMYETGFyM1zCKKrK5R9bRn2O0snAsc0Nd5yE4B2Ge/vkW+Dod2WgKc7SA0RFN8tIvbrXh1M6LzTFCwvcLzxwp0wfTDZXKb9lHpO9Uwo2hkp6OQBTfYDrmwqZoFqVTg+z2rZ/9q9OHIgh3giDs7tdEPYuawO6VNKsG8hyJGroyLwjxJm+XVpzUnzSiMnTPpdhbz39QhkM+tprISC7QFpuYuJo7DqzKyNBO94fe0VsF9FRgcVfLR0mRnZAiMslBjlVYyS5FcXsGsQsAktTvyngabE5slvuWzGKQbz51+TG1ABdMQqabL7jh6JlaC9jfdcUR98gFcdmSPnQqcj+wef6R0Cu1xcwLtxXGtpYUVy3VQtv9iH/PeuTCddVrkleJrQMRnQ/YK/kmuhgsPw2DhHSbsig+OdBI42Nfhb9rWrUWwHz3/sBL1LvpQBEhBOgBH2q46EuAB+4QxBBXXLiKwAQSGlYAmmOAD0VWCnmv7zyAAXRnnz/tStSuP98fsiOzOPGdBiDuuF1JHvUOEi368nO/VyPTHCYJg2ByKPzmsB9mdTEMcZJmSwebotjvLHi5HAMNep8zGIuH4kbY43ZIvEyCkhcGb7n+Avuf0Tgo/WMrh5/3SvMvPjXDbQ7hAw7Yd4YVt2w87tjQ3gE/yPeNJGTSyaeyWAGD59XgR8cR3IIsTIEO4XBXl6QoIAbR2gMIQc4lanYf8ZmtrUuCiC/kgQev59261oP7s1ok55AB+NA+O008jPSIoOM/zjXOE/sV7zGmETfJ1icILlD+YGvKpsHTvpRIbPLIYW3swmRiyFcRphm+AfRb2gME7mMFbMCyshIBhRoKn4IueKyD/2ELliPyRYS0ais2XKFO807K+vG1XigEH4b2UhvZtk9y9lX6OpgSqIvCFPYI6NrQPtjvKyZOQT1LakOmcSWzu7i9oSblOzixUQAB9glP7NbHoutPWvVh464xh/YjWzezHfJ0cxORBSI8foK9fHUN+IH8bmwwFRcRbfUkfbjOiot/iCCVPIKTxZ452Gzv6p78tNJxhQjTtQhdgXJDStiCagFugWPTbvM6J/fgpRBLq3oPxq1aBqQk594Yfjm8gu1sVCuiokuoATRxImdqjN+ouiOtkLnjp5SSC4zQTxk9gELRvnwupfCcxHvWChI/S0fDb54yBmTb3dVxNl1pCM49a+RdE0q/WQMlMh9s2daTiRKheaYpdXjZrIat/0IRzv1OnYqLit5yBVYwJZoWBNogPoeI/oZCxmfa+Wmm5ouPwdEu2ov1RU4cutT0Viet/tzXy+/t9IlOoevJWvj1SuVhrSpURsziy9IH7TS2o+ez3SGZd19gVq6Jr5YLYJklHIw+0HeqKvMV/XdpJkgeZjIIVqlm97rAFbKGdjqgGbgjkim9fK7Qt1PxAJ6Qie6BXaeRkvLuC03Sh/Wshu2RZfn3cMGFYCtd0TyDHaIbedrU+fhFDwzcebUl7PQPr3n+vKASREVLt6qrlh04+nr6e3EQzRRUhLVe5FmofyDVwueLG2hGVmcUqvxDagFxrHu9efO19X8yi7g4ZofLxupQ71lf4J2WJM9cVhaU4Z4YInsBQLsrY/Pt+AJ3WD3bvZZk7PCLCjXJX9+/3w0lcLeuROUrpFt34lMZHMrdoQ2r6ePrukgNAA9CDKhwA5oT/THn5vKuJC07JUdSF9t3TZRwfiTBC6OYCtx/UtdwKumhBzqNfhjz2VvBWucg2TMh1mm2eei0RL38Un51YrecHqcD4w1a0Vlozxfw4C81TK2UvPuifJloMqqBqibN8ifT0ulZ/KTVVjlD1lZ34sDFvCpcmOz5Y2Lme4Et6VJ4gf0pnlUQz6fZNI+uKVrnlPl0sc7Obp7jxPckj44B8M/E+pEDElWX9yY3MajddACJIQUzrLSPsfSLFa9LKPzrz9MGt2IetM8XMzLCn4+cJcZ8ajQF1OtRWitiyT35/oB5OQqtbxgRBhkQPHYCmK5zU3r9Hn8fqGivEJOVG89blmm8GJS1Uvqbm4kbyBdoOFyOLhF3l2sd4depFxeouWATyoGRkIF/tUD6jTX7WntIASOzFxh7Oben55JNjcrIC2qyvxJlBEbk7hpIbI2gDwaEC9tnOIOVmrwXo9XoV9MQ3bXHNgu8sKXuIlhMbd+05FO6lu/jvmhnNMww6nxAh8oHGlGS4jRN1InE2vkcEHRQ+ctu5T7OPm3nJ/AWsPqtwQ/b18faZQl0H3X2q6k0r7zWpbZrzoNu3fHipqhTv21QTK5sGddM+tG1NKPyoEfmgCWnd+Q0UgADVyAARivuAySZZkQsEIgM0y6nfJk1sooMDbc+WZNNpvZa/+nGb4xzwBDepVxBULiT1jcYLLJcXOH9e/K8kC2UV3TpD2wDAK5ItxzQKZX7bc462cADI+IBMJP66ACLEihoeXUzgC33IkjUGCGAlGdLrtLMN02zIyWjJ8iEYbhtuORldyAZrSIgYeVGAulgE5xg/Jrtwv+o/rnr6KiNrMSz630u1Aw4olSchiLJkSaYNUk7ZRkzkk6Zw7QXNw5ndSQgQ4wlgELBHLvSEPswnEncBJvEuhrp23OMz1bEmVrKO1zlKFUgXSqVpz5cp/dHryOPq3n2YzBX+uEN3LKaiXw2yMzzzAzl+nqbUlC6kvMRFv+kYLPQgRmVW8rbhMRHTDBzFJCImPgapAzs9dpztPzIXCQHiu7LR4hVyE8y/3Ob9luojC1RfyI5VXik3TndbSijdSAvyPyAE6TmqVAokoJ1L4FDlRUAaOp0/anb/wnjrxAlCNjx8E55QTteiL7PMWhCoZb/nQdkDMtA+D4c8Itbs4rf6LY+1ymck+h1f14pLcQIAfVSESKxxWevPnSNR88pGQ0JNWDdbItxF+4eJSbhjIGRT3u7+EST+jZHDxrJqhtMhsRQpUIZit3gu1nlwm4om0NQa8FLQXOViPdyZw+HTdgHu92stDdhip8LuiCHEl521ssIEnyHgloTGCif8bt4mdeImJ92AJZ8Wj/4qXxo4qbWEvvtUUo/M0GLbjMIONF421MlGMhXsmEYmyqSjsGu1tgET4cXOykiTuV+fDXqcWmcZIsCEn9mpetzlxT9KoCaHi0txpWbfJECPMLxHPMmaz7FVcrKAlVlJc+mQpkEeakOO5oQisAlH0Quoe3izl8rE7WSOiXXoVrULIni7bYIw24Q18437k5jrg0R/BG2WtAANNm/0UUUz+ph2DudCC83Ampw5Kuw7OHBIsYClVhejuvMuS5lq8y6fTyiQSt2MvNPq5BikhDK6gt7LKSPNCrXDi4L/197ndHGOHoAyeFS1LXt/1CTagmOLVfomVwbt5aYBNiwpUpsYKTBNewUW5WSO+uhbr54Q2CmUauExQRaqXbwZtMU+nqyJ/Ft8RGkjAvcCa+Qxmq5wm1ZaBlkGtLYGDL0W+BIYc1IOQv70JU4zDg14ACGhLAlCzsMswQQimeUeItMU7VwrKsF2LhUwrNfijT0AGZevfRe5+WTz12XhnQLDq8cv3QKGAzbwXsZ30pVLsmL/0qHjqOGoSEC4OJCINSuGJR19cXzRSvn/GMjB5fhCtvSJTLSTyN6IpwNCZHe+K6cheNrzbebC4CxLXruP/VZeD8tvEJPDWS5hhKjhJcYe8YlHkDMijPSXl4NyPdmEosho3Vm1DmvTsboHPJCp/4aFYWsoA0YUQSqM/KiXTZHRIKPvspUENxcapuTtysB2miK/RFD++kf+HjlnCHfXto5xikeyOe95m4p7zabJMlu/l4LwLpLHSc6QFsCOIkRF5BlYYXeFKKQMpgqoQAkm4/GgM63fdqfy+AW5N30qjTjP6drE/6/xQ4z/htiJrE+6tG0vpUhPI8/eiI+AG8oyvwb+cnlv8sFsE00NGhy5Rb/S78Wvv69b7MzqJrIDG3ALzeBVlMwQkxeZ82lnGJmnALZ3Yhy93N5MxNG75eCz77pCrWMN+Jizk9XzsVpCuHJe67WI6Zu6L/4yv9grNg7/7amDpVPcS9TlB1Ca7g1A6su47JYyTNqFIO28eeZHxYgm7wH5Hf55G4ruP9sPD/ByD8K8L9MPdc/eOiPmQL9jowQjtGe7+DRaKES9DfA3IizeuYue7g39+21Q9+qxzAPUMbKtPKvKkwD41EVa1fTfCZduJnKJEi/t4n8ITlEBCEHi0AkPgjM9oP6VEdnaDSPCgKjENS2hsgYiTEnj+Q0JTR85yTFHi6DHtbjbu4UCJHCmhBz7fWTAVvbs5bbPNRSj7oVjqraY6cj523M0T25NmaWqlmuasktIsLtDX6xJzaQ9TcLgXaaFRtG2AsJEJ+NtXp0U8tFIg0WHHp2emY5dgRga8wABWePQOoIigGOj3oKxGx3ziKiL2zvUiiBP/mVANzTmyYk/ekeJjkmo5ePk03C8fbwuKYnfvQnVyRsrd3bcodrY5TCDBQVaKAcO984vkYnvM0B/8ZiVxv/3FStARcPL0G8IMDNqJzsHp+ZibbY42caqX77ObqpbUWYRdNy/G1RpzVE440GEM4kYgD8+zZtYjHQe3UCd/T+gqq/7PJL1M0DjSTM5w2HRTlSfGosDv1xmTd16Ecn1rMxj99Y+7XazFFmT01KQmSnj2iK5SCBHJrGF14VzRQ3Y7Ehldn+Z0Pulys4i2C+QBkZW5tlX820YN2j53tvEP+l9JVBxZoi3YzepDZ/q+udK662Bd7RNxBANbLoUGfAVkoyHjSVD/XboC+CqNWazWa5k/yc6g4f/3wVNjVdo+wcWvNClsFnfXru5jN17FoSfeVUKNXvkEqtNMohXnEhrO2C5fNzLDrTDFbGi18x5LD1Lhw5Gz8A+LYCzhC0XCPAs81z7KPctbB6PZ6yltZXGg9mVBTeiMRxFEb+MCjeoJTLFAkqUe1PoBqvfwZGY4VNgia004+2/u4d81ooHMrOd0V7WYr0RjL+a2rm/LRVi5AhaqJG+xE8L+aSGVB2Zrcv++q5GysqLUoLl0LyyahYtGlMYWpuHh84P9lB4Oe9Ure3RBeI2sRlX2QXjejvZfLi/uuYsHKD+PqpmDKwB+2wG4sUThBhzQ1PtUOhKJ7D2gVKzdexJHPXpwZqgXRTzHX1sC318FlDCpM41ZsMb2qXAoHVjj8X/BKFKwB8lxt1plkbf933o9P+ldnyXcP0cBaOuK0DUa7gEnRtSxsMlYCUqKE5H8JQ+61m+Ac3yfds342eRJecfUzE+X7nw01BV+SybZLTh7dqoIReWqKlrZdZ486WYELmTeixqaDKmbkFceqZcr/ZNunO6+sy8LETeRRs1hPeKsbmWa5ZGegwa0ZWL/4bFMhoDB2+dDH3WYGHSzqnu9KsZBrrMXBHNBQhnIzgPgGdmJJPLhxqcntIqI6Czwm/qnbsHZGoM9OoLkqRYcqHBAkx2csQ4nxC8u1M7tvM4AJmYl2BDKu3OqgOPPqpTylwWm2MMcbad5ksWz1apNQjjAQA7aiyWLh/disFWo6hV5vR6Ukpoy8fWqAebEL1vHaE8JOQY8YUAKOqae8PtQUXhro4mKO5a+bMqdBZMyjjfus4oN5IahBfvbY3x1+BMpMRh/c5VMoOKZ6w++Gs1N9nQ8HA0VTxJRi4QYj/Ch/64rjVvbuVPprFxvlSGFGS0ZeUQf5+nlgxtaVB6m5qXvMSv63j704aKaNQpEak62tR4pQbx5SwEWh9X4C0RcNPvQn+xcBWnqfdj7jdgBs0Ra0kPpKfgVhnu4bBAPk876Km7k0a+YejwO0U9aMh29OF65pxRaOieMyhspd2QdMaQZSivTo7wR8k3Ppr0oEdVUS3qOs7DO3h6oIyHB5cgfdHIUaD6R5DFsDqYwH40vP1TTEByElsq+2GfEX6SBF7l9M6eXSBpu/xmQpcVHQLV4/9YidOmdCPsPtWLsdMQe8VDkzTTpL9QHhplu7pkLAmsAEVK96Dv/17zgwKDwr7hyH5JwJ3NDPdsyN+Urg0oYwGRa8ibepCOfNUVlSkpJ/TXePDQxfLehrDO6SGAGOT1c7dYu3JzsTDn4+6SkDUfV79vGcZ3N9GhJu5nZ2JLxXzCBBlXycvHjhKIeHyhZBYkVptJcZmJadScz81X7yo0nN60cfKHh1EguKqPQrg9++5Jr7v4j4OkBC6KQaM14eU+PtFv282pBWr5mKB5/v74NcSUkrQndzzQzhm+yHDFAORBIMSc42jr3usUuhOc+yBkqVuxOO/VOECR9yEVV/Hlmmgb/QXcZF02aBOZYgGBGkvONQPeDvzsTbOU7Jiq/mfXol4k/j3xYFaizSwd56MNMlOeXJnYXOoq1uaCd41H9TmnjNxLlDoSCqL9l5gHcbH6Gy3VEAo3pVbIf4BNCp+hkcC5JdigxV19dtXCee1IJ7m2BlB8lBKOZ7CGeCRckAStC8mTjTngHYofH2MR4K0OP/l70cnALnUbTHi7hzQOxXsgpCirUd8S29GGxTAT8MFDTbS9P10pimSqAi1Ex5i1BL4uJO4RHoZ/PdDygeFpWCLLoU5ZKmCalDpL9sP8xcNtq5Yuk6+zbB0N8Bp0dWUkk41PychX9mX71vXlu7rZYFn3NQZjcJhk+IGxyajqtspAbEyAK+K+SwUJA+BgN06+L7XIk4sugACIzxAZbKil57a2AI7+AM0kkWCwhhFrQeXxiZ85F1cTH+1vBWyqyA3zJkDwThR7+Ktu3lVVXnx4B2mgS+KrjMExp+ANQ3IqNyNlkEzrirxaa7GqlSzvjtV86ifJi6y2TFT9AQ8SIO5bXWn534OoJho4yCod/YcHoZ15jnEEznd6RnM1riURMFkn+S7JBKkrJdiE0Mf4aZdo+KaX8PfmrMOsbn5qsjKiVGLORLL19526idPhKIgyFgSA47HUoWe1TKFc2kEfez9Yjsz85mL9kfK/5h7wkk4EBBU0pn2OnJtS0hG2NpVFF5KBxelpl62et1gvIZXId5HJlvZGP0LRc/2PQU0r+lFn/cN7vv7OK50xhfo6YK1qK1AoxM486epHAejLHUkc+eZ6Cn1lJ7rPHRQUNBQIh5BYwSFLG1mGtECPn7gfLQxBTRV/E2C/OqKsiVxuDghD4b7b3B4wUScmCu1RqsfLOhDnDP3NMk0/UjrDNI9NQZHeQslgvfWigOSYIlFsVtjYEASL9W0DS6QZ703KDCfEwFJrVEnse435CINAVEs1djrJxmgNZlO0Lhnpj7O72tbayy1KEES7V/HHR+JRDzkkiaJAhvMGs+wQjSNdcuk27WSFvTYZggOrwYz3czSgDZpNLTpuXXAfRBOS/V9JSmaTOkAbFpe6aRPt0hD8KiQreyM6qb4RcyLCmEvbpiPDjqJduzKF4ysjQ507p44WXmZ6oCvx6Pt9RHaBNdVbZhsmVOLBOcElpU4I7DDCAcM3jMZmuotLyfpurh+jjh4oqy8OemCuIAWKhFOzmqD72A14jl6u3TMfudbcclERSskSIk5+1Y5ZR45A+kjKpklepGC4PRAQoPWNIqKz5UJf+y52WiAXlK52/X+GnvAefGCxLtczu+IB7zUx7OiUs+Piy5TilEkAXYLS6W8+8TU+HiDv+aSpqqWn+pRevS2RLwoowJA6xbFw3Hyh1GNSCabjmt3VKhdfk7cUy2CrbIWXMtR7dL/wW5EhBVdJpeLvUpYusCNWjvEBWZd4dYZIptchKwCKEBL4CgeqlWZ8+bnslxMulC+xBWYy71TzTLrRnpKl3vG12nZzjO/ZmdGc2j/7li2dhnKraw1HK0pWfkopxrVrnTz7f9gejjvEaFWboKX9jBJc84UD8rT+199pjEj/NRSrOXI8QbHWzD+8gEJ9ak7HqeIWo/p7QvQ9fLin32+dGlHLtesGWp7Gl3i80LHuqalPN0MK85ArY1A78w8TcUIf1yxL0dFIm6JAiZagOUOond24IvK2+sqHRiNIED1vdx4q0pafCQVTYJpkR+jJRztvxv0SCZwdqzeJeAbTkUZohJVEkgs2XbSZ/mnycsWUXMFdkZjJLPDWJAgvL/9E2acGIIgX1bpmY4wPvjZkYNRiFP9Jn+ReB31/YAZov+ZiWBu68msCQ9Tq3IE/YHxY56n9qyo7yKuW7wiesEHQ2k6njA7CE41+BvrymgD7fe9gQdHUao9hJ613jz4q4oKiOmbm8vYNf01VuPeWSDp8ZWpywtEXzIS35rXnO31pz9Ib3KTRVJ0VBX2OdZmEAvn71aBYXSi+qp5KSXWsNRjnWpe/nb4YyK0eNqI5m3GEqfOAyUsYJDKkxC5Z4m8lB8/xXhmvHYKIsuqRERUNbmi3sNJIfoahpQKsfZwIL/IIA7n/sDqZ4LEjpEyKHl/56sqEwtyxpAVJ4OnO0VqiOzH9KyeFGsxndmtSofm7nSh32e6i/TB9jrTcyHxEqluDi4JJmREWa6ZZWwy3nMmEr/ngduWZdmpZ0cWUZeLyx56CX2S0hi6xGxUXxjC5vQL+7zu/TfFuR+Z0Yq8iE4hE7yiMIFYCIQTNN1t0t2S8UgXuV9ayPlQvJDw/Qazh57TNbyP8c9tqGZLfyK+thlBM4qvmYN9nHQXiJVaCXrM3GO8qEFW+2PY3YExdWndoa/2ZIhwNU31F3hcKNlK1FjpSiDu4Bb9d7Wjb5nYtU4RsPw3e+OCTptCrB1ZeewxqmiPOw7qYiLI5JEGFyiehzNwY1foHotKzbS1A8C6ibnrx7xaJGJDO5YYMDTWLWyQX9pu0L5+8AjHN2dwjer/EMTS8uO2WwTMxM5b6JPyzgaMOPgv8aGFqxKQqP7DRJsC1VORaFu74FBn6246lvYKzshrf2tNfcrSVZ63XeTyhQJj7+zSqfb2n5bDp7z+1me0A37Y+xxnavKWeaFY6lCCuuHZb+EAwrBbHx91wqK1YXsXaXTd2Hhjxvt+1eJ8bj268wfkAiJVfjl18DB2UjL+4THn8sBVPv+Ig4lh1Ppkhqa8qR/3rIW59bb3xt4cfA+b7vVVmICzyX/q+mZuVvplPn8ktIQ5o/JKWUIru1ugAXJI7r5pQZDKrv8qEDDkjvrrRzywTc0tP/LLXlIfeEQEr/+cjIrjfGjuYG6DsmfBa0ucm2Wth1ZetuARwvIQoxYhf6kvhL8brtCEWmvMuQ6Q0YQKmlvUsCPXbYvvata/P7x/eHSY1BLwIsVobKWiszuLHzdjCPcA46OGTr9t8KbFe6IVN/8cdxpMPinXacw7jjtiN1TFnaiNAk1HeQdLhJdpFDYS+Yi9Tl4VY7K6bBmf9NfciiC+x68+XyIJXo5nIogM5Q4tQQ59AyEvdoW1wqYag1zKfFLDptkak5EWxv5+ptihJk+icGPh7vhtGJZKKZ4dHW5Fi2oyoDUmMgtFeyyEXMgKeSndC4mv5xGJVdaIhkzNpsPSHAmqVhkqF4gb6cbeiGB8gALOAh0DUwTo64AKqE1ALvfRkgAF5BaIfx4fpJ2Krdg82DpLKRoURu2GzWHdw4JlOgDD6eqr9WG2DaQiRx8gwgBH78iwEhtVq7ddnJCSJAlPfrZ3WBuBVJyzHy3tPJ+vgVeMCMPfXnPUbVl807VmLCcutJ/isqtAAaJoJmpaocPlw0vfpngwna9M6Sm6r6L7X5YBvHcNc2/dMQkUan/HiIfJz7KZxkwtRjrSBJADI2pd4OfmREpWVcLEL2DMYHM3KHzOxeFHFbmZiOWSqXtiYx+/6Ke1UosRdG9FLEkplf2IHQDTMSvLSjYNc0J2DsVLVFbgnegxWXTJbotGQxGZXzFksG/dJvj/Q67q3vgaT5WIDnQIHhfL8XiWzCDBed7Z3jDIRnyWU4NXaK9HAmEeNB5+R8HAcaTIBJ2YGIvyiEQX0b/CMHKsVUPzB8+Uc72Fyi6T6DEcp7aVpGfeYS7CBVSSAOlJPiGpCeWJm1b9JE6wJoiRQKWqGd2AfFB5EO48RrWOcKrsW5ofdyJkMi/AgZRnov3Wa6hcuUcTCRt5KH6SNnuR1sLu1sBNOxxJBR5mPKbkiPQEBVv+AkCeqlYgihlMCWgI8aE6ujscQpFQoDOvCgja6MCdKf8yK4G14egDFji65Jf2pXScccB+79GrqOrEHFvOWuyHdbfApttMkEgfjgStkOuwiigxKez91ymFNW8ymc2rgcCQvBcH0w/sNnJZ+7zYJEOb9kLO7RB3yyGzP/HCwzjxr/ZtewdXc4+62JmUlat2Yk2nNIE2w3bp/jvQAurC9GnvBY6/USeC6nUrf5PyghmYDPHJwfnzriPs5qIlyYZRsFpXbnvHMeF8worvtqi7fqGf08nhW3CkQxjB5imCtqkeN0l7brMTgccpEizjj6dS4x0NyKDHhYpNhQQmeJ+PV/abQZsAloFSWSMqQ7ZX4KwL10ILzqJRth6pB3ffBtgzjDQom+jFVTnMTEQo6QIWafUz1IPGgrvDhU8ff/1Jz4Ybg+SHSaGGMOsnKOzC2sEzCoaM6qEBB90VV8q4HlVWqH8BVR/vNI2/d8LlYN1TIbmhyLUDo7WblfSi1hmjOJY+j38NYckYY9e9YiTRkg7lCZlub7QH58/Vp6vhfCGpf6XpohgjO7LruxZtdB5pUmV9lz7tHN4p7jhZt7sIDq0ueTbZq9gsHJSB+YqcEVblasVGJnOrbRF1iHIXzvTiiSwj8h17yN6+SWcHmOVPZk8M2jwQn5CB5gT8kwHFPE9ALWBsvXKnsir1Ya21yQGuy5mkLL/Vt9kBY0KNxS9JDD2PsnHw3BxSOo2KvHTO0fqNnNR2JAX7M8blDqbQniCDC4AOc4eMIjwZldQXJu2rRXJqulYNiAN7VSa0w/Q7pMpfTb0cAznR8TDQiRi117+B0/cDY2hDFgBBVKJy51nQTlSpLRWoIZplfQZdQbxLk1sroXHCsPRy3P446l3aR0Q+m4SwER2KOdhNOt9GYgawtCc5HIFfDTWpGelFbqFzTnxfiJVb8+Mg16LuA4PymqjPjinkCIUpASU97lTsZfSd3sjbxJVTRHFNHnkZSj0bkp4D1Bzi0be4NkavmBVTneuyIQLZR8y825e1RgD/Aiy/qc0Cgyo/gwTMH3+HDt2l1ISWqZ9f6U9fwkrVPNkq2i4XZ8jiLYNcCk5kdk7x4tKkTOHQcMd6JaEQGKdzsW9RTZkaIqDwohJSFWbySl2HXnFOy0oA65xovM/9TE9BlbyjiijFKZ/71FaZIHls0rnYrv38QBiOVrKduQqDqHNidi/h1B8qOZlFrgOBc4fdhVM8TAPkGU4gskG1nL2KDkqVIZcZhoGlJnt+lpZfjqDCVmhrajJogq/glYIVYXdW5aQpoRA0scn4cQhOy+VxjuTfVGQz65ewPqZFoJuzV1+ttw5OSqVg3nWjlXOF82V7pWM2cMwFryfkH2ddAZ9qtN4OQqnC4fg8NNZWVNbfob6mDNy1K14cjz8D/onT0Jo8kfqI/BOBWiSwmqQwPljW4QB2rOUJjQbMzkXKA39NzV5ZWWeeqZmoDAckFHzJCQ7jnCgnoHedOyEZX5tfjknJLdlo6SGNOdw6tFVUhx2WYqrWB0oXFhFahjHXbmM2vNMop37yAT2CC6BcGu8gV0uqsqCXGQVWJXYDEdueRUpZ0N36/7Rp2+5pxbxZ7yRlYvnI29xP3Db1rbuTX+pmXJ3ko3F+M9kSLdclHwBJ2/mT2zeBfZUHOHK0mJho+AF4qbneZ7Em3ee1Apaf39x9ORSuu7jbX26Yre+G5BGVfSfc24rROLwK8B96QGryrlEqjJuCWDKZmBIg72wcVUvHnNRvzi9B7CBDnINVa/2rJ4ZBzjTHHxQmsjLcUYqt6ZYyPGLZlJlJIwN1yi5Tu4yzm86p2d/R61AfkvBM/el+syBUJND/jEphgNXCr4THoOTGs/AEr8/Zke/kMHH0ppejavQB28Yg0Q6IzRFUK2U1z0J2YrKyC8CsetlCehc7GhIQQJ1DIySnYzETqGrnQzkFyIBwMPQ5RmEYzleyaMt0zBemGWyGvdAez9PamwrQvX82bM2nA65X7cHkx4Kdd1YEphV3TKc3OI+jfDQwHNmR3I8b3f8cInoEFvUDkl+FsgxvZ1cVp4b0zOgkx7dVOyL9yFSJ9UyLAmwFNJsfBCP7ZGPcDv17f9Ds5KXSIHOkYNRsVdDGGvk7pmoAAAXs7Tg5mfMjtsEnveepnMAjqKMLQYnztqKbEBH1qri5vQ7H09TILKArlffp6c/fpu6xZHKhMPP6dDVguRw0ucq3phjEVUtVWQg8cUXzG/Qi39ILSOzp85e//o/gA7HbRDa9EOCaMOvumqqmc425SbZoexaHyeCFi+zlW5jwvIphZ/IDoQ864AOxNHbaCsZy1veLu1kE5V9aJw5I01DtjJ13eMJC7QRyi5Vhim8AK+LPosd8vF8IAwWuWyTi+Rku2TBRHfYDQbulbCf1okKo0iqKkArPNgIhDYX7LktyVEtk3MrCNg3v6nomFV0OLz6mXMGSPKEqHFix44NRT6n73vHtCqK+juzXVFuypLti3QJtfQL9SQpHVPXPEGzho7W7yMKHLKs+flPOn47VljaJmMG4pOGt7hhnMAu5Dh7zP72jT2uOs5mwg6iU3CmW8wQ8K7Dv2pOh2r4YpOUJllhApeCPkOdJtyGyzQdcxDn4XC9XcAs1S+9mfe0FsEoDDboVj3Hjz1/gpL+JQyx5Ge9VycHpxZh/SLnnh90h9wKYPCtxb1TNf/kK4nAtewqt2sNAXRxN4qluhPhahjo3hZ+ivisGMEPD2ZsUdMWGzcoolchfy8jwDKDRpm4gPucCT53vSS8lIAj92FlVdsuEL1A47aHFawFK6fxMgPYgeZwfa/Um8oHkW5ZvLgART52ibokOG4TPtaxKMhrrPfkgiLUezj091q0370NHyOXGWOq0jR7gKs/tJnOzpM/XnDD2TmsuyRw8PH8uGrgVg5PkAQdqk4OYoKsy3BW6Wah7Ow/7df2KWMSsfOWdgxEenAuBXfqc96jsi3ViH7HFmMhKbbb/+mcadCwNytBg+qmC84lNHRIhCq2ggFWSxVMVmHqtH0QWQgfWh3XS6SRf8npfzjmLQqkeF+IKILV4pAzlhhsPc9vbWsGCJULwSQip8Z8AEy66oOCaFvg8XO6jTurffcw4qkfDITbp0nMlFhb7JiMMgtjHrWNlqwzaYvp5dorv2XIwI0cwDXZXRD6fCqXS4MgCRdTuWGgE9c3Y11FYukdnG2Akzg29/s3FpYNQDGCN6lVYapoKArOzBhpo3og7VPZFoVllb0HRfz2+EQYfyDbZ+nbBj13xcZC5d2EhY2eGvj5eQtkdS1WGUkpZ1GydTfFF4Ktxa/yhi8GMEqtG9V3KYy6ctLN7az9HgzulMf6LGIE/jB4LlTpVgaoxDgGEAI5zjCRto6r9HsMH47N0iUq+3LO1bwUzCHldOxuXumzNDTzijYJKCdlCrK2dxx4hNWd9g1WGTgMbtm8Uo7ww+eT0MDOCSVhqeDxDRd5QomGX9BlsSETbTgxqSI50xPw0hJ4bjlWO5LmqFPXjLJdLL7FNMOkqpfIYlFlgXHBPrwWqm/+yzfDJ/S3fwDXYwr1WXBj1Q7FiDij4ok1zxVszWCfRAJZDpQWFkFwmjBzUePSBbjfQkXisf+z2swkM3NHP3+PpIDPwhYrojHzsTr1UtUL3d3YOvtImUer2o/PArk9kLONCB9B0b80KVNtwOXHX1aHZDx7poHr6Djbyskcx4R5GVmiJgXGH2ToP5ZXzBfq9SZusiWgBL18k8xygYSiYz3rz0aGPVHPhOtDcxMs02WP9vGMv2VR7mfTdE28FQEwvyLT//IS2qoABu8KFxcAcj9M1S7eFHzk2NPvdZrAyUO0kRsBLylyxiMkYiEFXEZqbfBsTMWZOSWIOMRBLeKcYQD8iXsPmBn1lZGAUchq7W7hE7AdacUuBLCdy3/YUV4u6B5yrfoMWx5wslEO7jd48s66IvII4LHBXVV5l7J1TFCnaFZlr1Kp5rXf79KViVMgaWvx00LDWKlqSJq9dEvKxmxRVyeiuiIp5TWkN4Bjnpkvlze+CJ1zjVf0OQ6lLDkbRpWok+fWgurJtIjCk8b6sOIwGTNYH1IzdSoAyjvuEwbU6Kc4nmpAALKWbhut4hAAdIMMclaX1Rax0V+9FVDf6NiH9EIzP+wZuJvM6WLEQzthcA+cE9sErOzScRk7kHTYK0UwLCzN5hYAbj+6ssHXXkS0U20UqYGANmsEl4v3gVbpP9DLpYY40A8cy+DuaFaq2kvi0S68fldcv3WEsWpkvqvuNsKgUBQkPnBTPNVQrDvuYfa7ySYKZ+lBPvMOeOcWEGVrtHMDIM5MHUlCj38yLdko5h8SeXYcN9tIOpSTldjqSn5yAiKkHhhIQ7Ggf1Ixy+SUNoB+ty0m6yI/6JapBjpDtp9xDId/V/l6qL2ipY75bZrI1GqGgNoIPqEml5+nOj432Y0aXkapCdd56kFan/vlHL5RUp603pcmhnC85pXmxzSMl2gsbEQKbCWePVtiTMQCDAEz3V2Xk7KQ8tk2N0mEoF00TdsuZjXK1q5OdgcQ6/K3B74+17a85HHX7sYC2gjReN5otv45eN8UMtSrX/5wL8RYabAb1rq2RCBrz+HXuRw5maqFi3E0se1bqHYhuwqR9Q2gM1M6PB3TLvwaO2RdaDnepy/rz166JEyO2dgoRoO910HSPe51aJE1QQ/9UB7tE1QyqV9acqsu9lfppRdvhI/RA2hz+d1hKB+Bmk45yxz9d3YmBc1eWaa9lCofTxC848bKj/PxAVTFB8+8MK++4oq0p568pJhqtzGgDCXJ/GcWsKLdDfoslUB0JzkCegy2wJGyx0emTQHpeAmABrD1ZrAPtlCmABGHyEzYzrbnb2j/YQfw3ojbzUsTiXvDi/odpathT4IOBqqpNciluK/dHxnc8QFLF9ce/dBVmnT11YZl7LazG8HsEFGbO13duJ5h/4QANmWpggkg1goMGRCYPQIGB1Eq7E4Jw2jD+KSlscQDkBVVjO2EJ7i7yjJHQm/CJ7v3UKqAel+OeXJH+dITnvBUcBA+265XS/Ouxu2cn8B+u63r0EMQAMipKWd3fnDUQ/nDmTXuvuvU878wo3tSz+XhEEofzIUOO27Fz7yOZlxx7TPiF4eTxAodmjHSFfvwURoFnnRf1WZI9x6XbrfWOEGxbW2whVbbYPJKlIuwcSGe25SGu1pkcoM2oRZ6pA79BXar9iT6cFAcFQH5BlkgjwpP/ZSBFjIYl2XxPeAlaeR+vLq9MwS7MqTyPTjWXsj02jRezZ2wdAtfLhvHcuXtQzTmVh2x9tL2zFqzJLZlBn8TkegDUvuXDRB8BgwfmFJRp1uYUloyHW2GX12v8l07T1IfaX+kBV0lbflN5Ao0Icp/hO5NT3fOkXi/autXXF8IAyJ6oqADjW9xVkeaq237h+DVXqT+AeSxsQdJ9wum2+3QUoiSX4wQnklNLoeC+E3jHZ5iOE+9UEGfSDTp4wELazoFBB4CrUPFcAAC0XRfYwlWUTAAEfFcuBq6EbT06RFCpKl4tPvZ4O+Kw/XFojPD3xGx3uKN1tTmYSBmbgVOZHIzapjEXV7SKL6P9GdZZZyLQqmZkmT+OTmS6fY0hUZL54mQAqNgsJb8jc0rmJBlHhxlyj/yHBvXOHyXGyWqXAV93HWNnbOrI/sgV4XnpDM1tXAeOABj82xVN6F3mP7G238WIF3dbT9zOqLXdOMFlrgVVtTY9c40a+3jhgTZCye1xAkA2GWIbaaykTwVDseCNwB6/2el/nuDDKKssazdLHbTGtDjRgdkRTeVcLuzzfZhsUeUIOPQNLZw8X162TL/z4CmtjAXimvo2o4LFt87O+WBU1aog9VYxxWeZDTckkPfK4toxghMT3sfv3o4Np3sBm/MXM1MflcfsiZT503Q4fIUOHQ7ioTb1dJyQ89OwaUtXNj76diDKh9/uDWFNILcbBM5wsT390Utdc02h22uA6LUJ1kloKwn69O8B/s/Qjg553jipIBYqstwrtdWs71evxqnN/MbPor5NlhP7gIb2u/nGdBBTo0u3fNCeJAvqiVlWeYu8LxTneyVLwOTkcB3Ilq5hKfqkuha+h19k++WaqsELW9jE8+8nytvDjq8swZIMXlPbv2rdF55vJoeR9Z9vGHTXWjCKE/2W1sun5wbfg4kozt32FGx8veR4T3/1zeXu0TAGCIUKQw5/z4Go5tpWAaEnd/JzH6ranI3MFw201L2kejyYCu/+vaZrPp/GzEau3n1iJeALua7g6bMseCL8umtmS5FxJ7fxBTRWE1yyw8j4w2oCFMC1bRTXBMDYpthzAKInJt+eW8zUfnxnKb1cwFi9FaYirBt8bnHR5lsd83gOOkTaxyUMusFYfJ6oraVqav5/sEQ+AsNZphMqk7euYq1Nl5gE6ek91BiUdhsMyj+jd1mPQn9WkipyDctmi1g569Lyd3Sc/q22gXLxIS5giviM/C7r1nVVm5ipxLoetteEbk+HQXYO2mOMPopr0YUpeezHLxEBKkLGPZXJuQb1VZ5gSoRdgWlnkA+Yfi4IKV1AZ6tbocTfZA8Nz9X1IiJR1PMEFDIx2sOEu0tEfSuFIHUYLIvcEIFeCdE/fH1JuH14/tEDRNqTUYCG3OF0Ee6zPAlUhRlDiL9xmMYtHEICNN4u6IANTgFe8rbk00A32ELT7mEim5vvFEtfm+1uw9Pt2+6U0+aAWBWaB3zspek7IQTgdtt2mplTnRnHqNyCiBuwgEsNzgJHnCmCSufEu3oHv28HH2NlFIfr2bREr9b+lmSzbhLA87LuDnltlvn+Syvl3x/YbUQUEJCb2yPKU8EGIASu6lElAFrY9vmXU3/oiTqSIktU07SeDFU5zM0c1aRougVbqkEi+Sn3rLcGVRD7Rxca0In3ONFNETd6eZw9eB+x2iD0WLfXcnvGp2/1boRYC7v0KIWSkASdaOgwwZWTf+gNc7s+1CEZZZxibKBhehr+jx9nfEU4/y0WL4kt33aRdUTMejwITvCn5hInf6FHhik2IzF2XNVDjhuE66axV6ass41eNCdmfFwyDpet2sJfDbfsRcLi2BojjVplbERNWVeEMYqbex5jH7y+vOzNJr6IS4/cyQuXh8LMZiz5O5kFfYsbjWFqdGoLcayH2906oCdKWCzmiFyolot/tfbDH1YNq7fpsu1lBVdkz3e4f/9dlkGOjIb8NgYw/qBS9T4fJrsApWXwFlPZNEKGxMFhYZKHa3EtpVH+/5Z0BQJegjSxZQUJFEWqTMjMqWxYouNvF4zdTVian6wqoRcU9nDglGQsshvWNbqyK5RR2wGmA0jxhFq34BaWhnbQKMheNvM1DwRxyJl3lpa5Lj1ZkSOVJHIeTIltCRBCLRifhjKpbCwpe9+/bCLkG+I83suDKq9zl1HUdQUJR1FcEgK4FzVQlV2ITfS25jffght6dfqYe9y/lmNjHFNufJk7Sq2u6nKk7SI7zmtQ/A4m7tBskg8jTxdBtRmLShq2Ji58MU9XpxGFBAu8UwV9Z4KtVB8BFidXomdD+nkGdkcF5BW44QgxGKOoWUJDzA0CceGeUvmDZYvXyPf6HmU2PRQhdGeQXa1RYX992naNE5j/4XhpemmEpFDGkEkXWYifcHy7c6J4y0nRwZWKG6ZTFsYG4b3nXitl4LWJp8BMhSNlaWqn00Pawmr7h6gh9gKhhjSlbTQaKG26jdLMHYobfVE3MA1cNucVnc1P5thBq5gxMNVvnaF1djk7EGO23V6HuTyVIuRBAjQ/fZ3pbLgExIE5zBUNQzY0eKbh9y4p/kTR7Z0UZZ4BQoLqP+Prg6JhrQnMK8qkTtdSWP5t5Wdqmt4bloKwF8rGTMYwABYAAAIMAB0AbpJUZO0sKJpXkgQ6MrHfUQWi0OcB8Qe6NxySrQfaD0q02JKlPRlzFyB6AtOpsHQ5DrJ883DRFF9txHPyw5+gXxuiGsaV4Q68+FLhQhRk2eiYKioCGoyTbacEQj4iyjb/cIyMTXgLeIkrTJG58VN80j6ZFHnBhjvQND+tC7al+DkJqyGglO/cqGx5xqN+vwdHSwMTVyWU1RCBZWXAqjWPSAusE+gRqwl44xv5KuYKl4NT4dCiib+RRGb02ChNEnM6ckXaOrngQrsldqQMS2jc7fcAtnEGp4fuYu3gqQzw5mKB7NDa0jQL4C3hFpZHaSQZQ6YyxgoyfAe/l17yHhbdlDzYfzN3104NyynzP9QK0czkID0d2gLph4wARkWpl45OipxKH3KNuPYzIGEW7fcJr+E0BQsLJbH0iQliy0GKPadcNpGAA7iqJM9U8lChglr72btKcYGkBn772Sw/1TX1eCp8VDaFUem/EZLDDj1gODiYxM+cECqSw48A2rvH19vy0E9n6cgR9OHubhjRLlO3wdZAGw2z6hqy63rbMrKm6TEHsgbz5/reHw0Ws5UKVNmRH6DwFis906E8Mw1yqVL8W8gZ21V+TlinYYcOYEerEqBaKSesg4HfgQ5nnBiVM0ksbZrkuNCNxUD5iFOeQ5/uPj2zqNk8IbROtkdZyUOT+Blw/nmOg5m6jAzt1buRHuHW7lSybRuevF+odzEFOFxzlWbFYlbWdQx+UWeUSY9IG/SqQvXARSGnkGof5+XR4jb6PB93DfIZoRXMEtJFOXsppOUBpLA4dVqzTr/CM2e3DItFi5oe3JEotdLj2pPmsxiLaFaAKCAV9jLYglmIsjQjiaN2E/U5cPyRDhpUnw5YTwjT5FWsXEDV6CoTyg2SmDuMULd86K+/oS1J3MYgcGhe50UWeuDCrIbVuq9IIy8K/bAVJatHmQ++KUzEO2JDevNw29+T32jTgwRoNFs0miurxL+sXtY3EEWMz5ywQyqCzgCYYtnQoHpSCBWQrrISjD3iQCXjUFMDzci4+mdnN8ZHFqwrCtOm6N9rpeXPsXAJg2a/UOQGCgxM6rgH2ps0j5TTQFwVLGxWWvgscOniOSahxvMzBh7ionL7rVMb+qcx/qzsAXTMMDWVwATYQXzPB+XOiQT414qOBvuMAGGRXimDf2vqcSE9aiulk/8rPoyUl+0rE4IfN3ShSOyq+/Vry68Ibtr0J/8ZJ67v4t+KwDG1ryxj2GhG7cLnGjvFcF4WHTG76xlJDxUUHAInRUn5sJGg+IPLPaFp8dMf9yuB6lVcQTOpFMUA0eUhxJoQwmbJHSPfk9kZ9Wjhrt7QCuFLlMXus5AosJPc89edrrCY85WU1TSuEcFQEbA/sR4750lffFhHMKVfS/1FbjCLHNKBFFga/zYpfm8xcKqe0/1VIAA5Qlp50oOsxuVbtv5aNlywdCAVonH95LaVqFevD9G1gLjccdV3EggaTKou1/Y6xlb/jcbdvraCb7nCDQhY93PsTCAD0/yaMx/wyGaM5J3tSxjj2RsH885hC9P5Jj2TkcxRSXMQoM/2jWUfuGOuy4gXbuAj2vpXb4iwp2zxEnj+NVUmoQ5P2ZPxtQ4EjkkCgEhI+JTHj0IJgwRUWlJxqU4KkCj1v1GzZY/T8n1v18VBMAnWFy6WxHTnDpc6iUl6old3IK9jtr6Jf1T6TWOZfsodTBTCcgtWmWfpLjorKmBpnmO3NAouWUpSMNnXa5Bg9x/tkhqBbBApP5anL3pYHhnqjV/5Y7lZ3L9ejK1S12Jn2nJ3Svhe3t0z7DYeYRMb7cyx7nAXVigYld0v9qG1FwKu40BpdoZp5iutR/QePO9stUi1lr8JcD+vGXQBd/qps6NcCrsVZ/YXC/A1xjzTSEyuNIANDfNo5GlJQ/oqoVx3cvCQYwYmM0o7zMmYmSSbnWThZERJzZnlAhYGkNeWjfs1qE+TWFDXP93/6tJlBcJEvVrFOVIZtG3HGnlGYlB41q6DqK8F55JY01CZwTiq0PEsWGPww/Flb8UODPO9jYo2bImKg/Sn7rwRGbCQlp24LWZfcL4L5Z9zhmcR/v3+bO3/EcIB2iNJe/DR//htETphaMmoqY92UNZEqnOV/WJUywV4uNZwO+XT1TDX5sBT/sQ37tfdKsM+50QRjYpkVeGxItzZEFLPoEJtyhbgVUIKrPEHJz9E3bQSUJyVLmSo1VquPuB73+QmwpBQ21dagqERMWJ7pcpYwSEPb1h96wt7jWSJBUJMjtTkUtGNhmR7ANvqJtzfQ2Ff8O018Vw6jH9r/g/Eg4ncYlFGKw9MVvs2fFDg4Nobs/vNtxtxGw7DINgrwuwBppbm1FRz2Y7MNsHoFabANK0C8KQjVO20T/ktu3KPSE7hu1i4hOQKcmIz23MUe65ODhslWyV4powj47oC7v+f1Pzakbb1VI42ZQnV7FN6ifI5ZHjZl+KOCLfXHnMauM1+4i7LKW9OF7p/iJdi2Ldaosy+k5dk5lAeHD47NQV5CVbtneJc1K3u+AcXsPz7YaX84bCx7J62OWC//V5V4hePDnOeqHO01Ub12DW1YaXHrMwoQM7Q2uOug2GehrUwUb8OVVjC3+KZmSOGNBoGkyiOiV/lyJESrZELEFYkbE2rkgU9vjw+Q/DxonN3ILQcHLE/pYyzrDfq81gjRzg6ArRRC6fLxjb5bOeKwgAsYkQzvDHtYwyz3dPEByyzGtvHgx4WH1VxZn2o0ZCK5h9b1OGwP2b9e1CAkiyl9X9ddulFYgexE50fAAEfAUEAAK8Zg0ynOeBGZkMmoN7U1uO6vEnoFXWWcTlg/kekEmrwKOA1Nelh67wMTmouPwozyVUACVSmB5PlNEXQhDMFuatkS3AQgTHIrUzr5IYvlMyL5Kn8V0cXRUTBeokOIp7Y7mKkSqZ0pU5tKhuCSIjtl/5nQN+1ISV0X0h4NZp3+HcGFxZd3m8Qp86xHJBUoacWXsR0LBoWeLRxdHB8cYijU3hM1zVQEH+AwapMBKMZsEbyVPt5CGof10/7NNwsj+zS4irTp96OD+nsSSststGDsTKpddvoYMyvHGVvo93zcnc3sMXraSOP97fYqzotyJA4KRJbHRhHkSIEkbWcUhYdn3fAoojQf8wvvx0fhTL/bC4ouvp/tFyxfZrPnXil3uTDaYXCZmfEgSreylRSUbWLPDXJRrgqUibDMZbL1xWfSQK3WhhOukkADDSAdZblhCJbmQj6Uy46Je5CiHr1YZFvdpHz5Ch2k3VhyBKI68mRmzElckk4c7nBTd8Es5aZFoE/CHXqs/C/hLnp6IH2BXI37y9D3sY334sDd0SLD03PIVriU5mZghSDiNdVqzRdF/W57amsBYL6sQ+ZWiEzmHL2jXIs+W3e4KzJzMMwTqCDpOwTvzZKyQiOfNa7RWegFByuJPM7EUdoJuqmv4RsIRBfROo/uzgbTpXM/HaL5NvLQK/onAywrNxWeua5n2WrhusbypT4Cdz0t5JIvGv0MjOMQ3nopnXNSJ4QvcGHOgzSqMCm2VLrqXUCUi+KPDtB/UVhpVOMDzKHWXa1o24EjnJPUqLblsCcc2AiDn9r+XBcJmXfs9Lm4nzV2vfPSqWp4oWWrFxoDwdQCDBENBHfXF/9QJzNvO7m4cy1s7zHQown9WBULS0FO4jseR6mWBHq7guhVfhLSdCEJtdELD3CV4QXGASzRjh25aWU07qEdOh+YYyLoTr3Gx7dUNPEnQiUSRuKv9ZM6I+r6bDyVu4TxluBw4ibWQLRwQMZ4lLVP3eF19KlI22UH/3dXXi89hbUCIQ7nnTvZagscZVFbZeL30kxugD3Vm/D2PgHH+oMj212D/RLTkn4S3GR0TDOZbXRNci+6BNllqjqQR8qlBqzGGoCj1XxknwMvjtv+1UDj4K39aLTEBItmvaTFeQ5Ca1PXyOhcKv8hRPDUIsMsyqb/232kk+kj/YjyRWWutDprT/PJwleH4vT4VwbsBlokrM6tChI9w8G1xnXbZIvB1Qq9nTjKB3G0JYpVeDg7kAJw7mOpwV281daydIJ4DVziBpvKK0QHWYkX4kc45ubAWhlbyabiZZVZ+qISXHu/fnrx/08rI7CBm4sFHHydJGk1uB4Shv8mEz5PANfY13cSPmikteZykp+rVfRBkCvL4dECdO8EcZFrdnMMPTjcqAiiMKzcYaAyFjmFHq/uUrpkU6XvGA1IRtY7TkmHMSFJ80+y9IiFvXs9PMJJeZ6gqeChso+UAfX0Dia3zqDYsyv3/iTfD2tOu4pZDBB5+4INwED45yhHAsEQvTQY2lGXb8PP8As4ItlqEt/gU6bhPr6nNyrmJS6GZwqMcyAa1fkAy4B8iWXB1wSH4nwQyDeDF6ica1mxX107dzdqr9aRoLhv75g7pHKHAP0wC+FVGWEvg78/6Sj/BKKFgEem/1Ae0wpfHi4VQQO5eaKgUxBoxC+R7ZzY00n/NaKnE9OPo5gr023TcmGW4RZPX5+e5aNsJxXLGkxCdhv4xmHP98/Xwc+0R1skV63Eudxhy4OcvJMjZlPhxw/Snc6K/7YQMyicP8Y4NzCPMkEvEr9G5tCfel1dc58gn10VTIXKN/xFtGbt03QifzdRozdCyhqf+EVn8RNhyyWyNZ6N1zMiUMO7dmUITZacGRZZiERNbClyv4xMAU9FzYp+Pdoy667ukLmOX7JnQ9dU0k1NmG+ePyOG7Mg/+G+jAS+Czn3XuciWr9vdNXD1pYRMUzbr7lA5Ll9e/6IAnO42rwS+kk8ynbl91rT3+i+D3mElbmGrXMUDod1qhgJE62RlR4V+1yO0NcuUi4owXfzbnTyLFw/ZrVkZ6NWrGDMXCTgwjn+xxuydgcHjUWqBPjYmlJ7ipYcrO+W3bn6gtW7wLi7Y/j4nyU4RJAi7jECdhGfJBGIQDB0Dd8dst9Bwv2jsVRx7Z73xxUUKVkRzJkZEgTyTS1QfOLtsFdGavp8FEelAQDAiZswES5lTzTaJWkakvNv6S2WVYnClinodspkXLb8wWkSZlopcBplfnLS2ioxxXo+gkns/cSgJ3311uIcFvBxzMpde1fN64GYq6ZOYKOOin4gyQhb6gfRZl1BYgPyxNI9SCFPSM1zpE8MOLKtY5MPdE2HOzuN3p//BmvtskaEuC9mF2gUPKLY0aYj/KJIDrxeboEt69LPOuSeMfzaUU7s+iH3I/q0ZeDvo897UHeTZs8e8BcZLuhKUp1lOWQCdZ7PkF2wv75n1XeNV4DzrsC2I5D8A2eDZkFk651EZa5RKLOVobo4rCnSJisiqHH5l4FhRAO/ra3rQxVGsyj/3C7nH7V5+gMUUuGNVBQBF6rXBoo23swAUMxvmhQr8VEWd9CRRLs4TIwc8DnRlQ7oL1iNcs/Nixm+7dXZRcoLNCkKMzmmNib5Wyb5pMVJlZ7GoTKvfRoN8hMmAGpnHAk4bMxJtD9OyUortXVh//dGNfNm5LVo1dv4bDcdF+T9QX0W0BekMpvhHCijFS4vCB+563HxRXercWe623WCFfA0D/6zniOuiry3hcK6XEExNgcjpTh3ObGGSkzXNKxrcPW/60/x0t2N8burxRb2/k/E0Fy3Fk2xE7hU3YeNJIdHGEyjpLTp1JES2XBcMtW9gwfj7scGDaGgYWDRpsYVhdN77GTFFjsWXCwDoOIg3njHaAj8BOCJkgb+R0qw4LtFFXY89/oJ3qfyVWKGtZgzkgg5+L4+JpDBkAyRlSYoS+Ha2kfICczKtvJVXcg2QOou5yS3JBWQQlKWKDvvOl89dBirr+sodIHQY/2xk4ePF7CyIRPwC0NeOEG8l6H9IN8GeIMIjOsCjCJweqZ5d2t3+r2wtCcVEyuoiUn8Huc7KjwqUaQouXU5DR1gZREcC+Mh8MubmfRI7yjf5F+pqyZjbFxZzBL3+SxGx3rTEmMpyRerf6BruQ29BJsxIFSo9BPRK4I9xe3Gr2wltSTsDktNfAoh53xam3a0C0b87h9RkBiqx2PxBfa9B5mo2/EraWpXMuNW1qsL3Uhwcy6sh6QNw6vhTLO/bM0xwn6yUJpHHYcZXCzFP6LErcTVOqpTicrjaitZbgxVMyCcEuXEL02yrUg/09BbJmINF4BiOS1F0O0slB7iI7YkjXBY5xZHGQKDGqGCCmTE27/J6tpvihJKAyMnxgnI0p5/0ZmEgUSvHXN0NU6HtWhP8M3eWyHDs3SOqmcFCrEMlE7KoH/xa4JSrvCbYo55SYYxWM6GdWkkzxOeUT4X+bAtT/5SZd02dnZzQHIJdiR/vlpxby9ztX1xh2PmAkujY5ke8+02IiLjC75q3Ta1ukID2izA6fm5aPuHULLD+rXFQb+ye8iQTog6ywTrdtyQsqK9CwZiH0OulW+QKK2zdjksBKFtDSREHeSOdn/IFg3ToqYw+vK+HsselOP244/hxCQigiHnO+yChxsoVbzP045bAXzKAhA0hFhOqSqCItI93XLyEEh+Jvkcn8WM6tpfYLsTG4rVP3o8zdvtRZeOohgKS0Ukqq5kbhuY3+TIpj9GFDGOfDulymopLN0qF4M6kc9pvwogG1k1aOlWrmCk9pf8Dnn1Pz8DgE2XA5QqdA9sq0BAQVGm/poKJyi38m/En3xyPQ3cJwYzobY+5B42O6VMzCQj2RllyxAHBO2CEqF22TyzBzu+nVki5UvnH4v0kghgrP9GlvAaZO1cc/icUNJuDm9JHI5qGSOOTQuYlFUTQc0aLAxumBuryHmgBGmByjjeZnifhP/MAeDYVMJXXX56znORLrMu1vRLTN6ci2GDKjEWh3/Eu96la49f5Z2MGtRgULyeUvamCL77klRr/0RE3tZ5534u2+m08E7YQkFQ82eI/PqTc12BPRUG6vqpQc9fIp6T7P+wdTN07BNQ3xxiRm+BQTRW9LCr3kOkUaGYP+hVG6CQRwQHLQwW090ewFURZQDjG32RUFMFniLQ4gE8d/VJYf9Eflg/hEsMPB1KZjjPUUMsMYTjaGGNz4QTtBnaMnoBFVqEqt3vXYqfcFPf9HgnG/AGnFXH9S7P6s/0Nz3+Y/x3g9QrrZ0WgvZWkTTyk0ILBAWV2yEN2m0MJv1jPk6nc319o6xMXJLyVYAU4Is+jfEhuF4f5o75iog+BuT4wPrsxjD98F4K2ycLd9EJFPCn1iUgY+Bi54WTGQHde91gsXVYumUJZTKWvLN0Xmnq1YQA3Mubow/5iTpV6nMBx2LtCXHcJlMZQO0lLE6jxyBLUYCWNoirgjhwoWBKYLWuqLmDRNmpdxXLs1qf8Ot/KpGdDpkAqBfyD+WCmBPtvfu3f6+CPynuGVYfllyBP5dCdKOtrwJvo+GNWKn8jvoklj16wkarrQlyXm6eSuVpq8x1PVZu5tqP+AD5unFpekhgEOuFWZbZ/Lbfu4P424xBuyRSeEzoDjKqWYB6f2DNaUzHiqYrmzms4Goh+AUk+vEGBT6skOn1jndqHKcssoAQpLklIguI5rxO3VpUeQkdVfgMwzMvupsAUSvMz5GXn+4I5+GSlL4J7pqttODKK3HrpwPqpyYyy5LuBg//47ON1gNvZBz72EbG7ylfajJqZaULpQDA5ed3ppm1BbV1YobVEyx71ISQSCo1xHwMmC5f+md6MiRLf2C/IRJjM4XUtqN5uyU3dazQII0uUrZL0sPBcmPUc2KETl8y+1LMM6ET9HNZF1KCOT9nTuARVH2h9UcNuUaNt+qnMDELtz9FieOGgHwM4WbGH400id743KKdm/GXYcAAAABpgyR8gAB64AVbQnlbXurkoAkQQXMJWtBd6z6ct3qlF3SiCE0tbFTc5SmxEkCjDp2p3f5YlnkQq2Ui2ZxaySokEqUsK70Pt+/RyMlB7YvSQ/xFpyMx+aLoCHIm5vJhs4Wi9W4UUOlxxUoOvXvkXBqvackMJLX0uwVK+esmI4lCEQlD/v3BsH9LYgXUTp+J6AX73Uy1BTqSdv8WIfKKCVNUOladky9FmETLSz1pPPGvKUUf9TSJKf/XGdl0tSoUNdxwYmw4/y8JiVDSS8FqfDKmrJlHofLeu5kShyYlY+0J5jJe2PMPNi7a6ek7dk4FkyP9PjtuULAeVNkQuJjm5SVxdVbdpLbxoChwahsSzJej3ETzHcPWlz3B52zlZ1a534eDS4jjRI0UeSJSDrGT7WHCojkDDcP+p60m2Y3QW9hA21ylk4vkdSHwC8y0Cc3DxMYiEEsk9uAjqmrpsa6lYwKCyNDhYt17zKx0FGUsz3UyrhR+1f0+6BnMvI7ghHkx3IXA6Btm79G/0DPCeDBVC0ZonuXptRkkrhTFXz2yya4M5xZy5y8qNxgtspMZ+rJJ8Shke42U5Ei71hT7e2vtJGDQCW+9m0Jt6O+LySEFaLn/lwwgHXZyVP+q+0zfKv+ZLUr/AsCVi3K2vj3GmZrWVNiYkP5Ib89Zc4HTzJQ5Nos8PjiLEyk/ksBfGkg2MDk49aU5F3TglZ7Y5yskuxeqvX4ng73HF9VtWTqU9RaZl6HGlgjP6/3bvHvrmyn9eURuxqX4oBW4LjgsBldZmycGiXurYu/VcjpPUFQO4mc8UYiuWszWhjuJSEBe7LcanCqT1ojsGzrCM5g1Sw/+nu8GIwMq7Yrah/fIyvmPn80AKY2DWQHTDjqnIIK/s7pJSPbG0dRdsxllVdTXknqexTRsd7gWtxaiNUsLgK9ygRRZsZgfMTGlqUAb0fgOly5L6y3kE1/LxzpOSV39vAsbbsVSL3SREJoHMcpY9QUHKr2NqGNIFfcomaWJXO5YuMuGGvaYKlJd5K60NRNL93X+XvgOQDFk5i5nl7A07qAQO6ZccDRIw8dJfV5JUMwMjDqo8FU4GBVKdys/7p08/yPt1hthkrdr33t95xiXBgj9onvvIoX/7VpFNHkffEevl1kx9AHrBnzFSLORod3laM6WcExPdnN0lWTIHpSpMsQdZiACvm7N/opOE3h3qoI01bx22kGH6icChtUlyYA8XLmTsuBMM31ZR00gkSxmPG5KaqLFdUpnYlfr82H4zyR/ZSRUO0FfilD255G56mvo+boLaUeMCjwMQNx4tanM+jiCmqlqmy5nhzjukAs5IgWjOyIveSE84bNzfXz36Y1w28ndoIRbfY5W/Gyhu7hKAftaPwipeJNGeOtMHi3qJ3Oe+PLH+rkOPixW+epULCUxGt+xgIUz55Zs7b1/1hMUM6pUrdHvn7Oi4DUC03d1M46fDYd51vBC99Vt1BLEvI1DuaYq78EyIoy0ezGq7SMFeGndV1juZb8rApzNXxQNbUagQwGxDdPLxCe2t5sE9zPmm0kv9RjA01Y4FFUvHXOpjxXyi0sv75tNXV7RrqJsRAfFe8nDTRTmfcseqqcOtaKPFlUdfm0i0mTYDLvreW6zcUxqftk0Td8euL28ZKIOP+xUxFRqFlj/IP9mn7XCm4hooQvt62/iMxPlnfjhp117XY4VGET4lJWZSr9kzbP2Nn75gDMB4yik+imR0PKk1Bp8suJrbluGPgZXmjrYRIko+g4EaUdba9TOVZPaHziQEZ93rEKzUEWgrZoNu67wxe41G2nlhTgg5Jw6hZiBXfDxu/75oTRW2QEM0kYTNjOlAyJfiFh8oPCTxBarHgyoq1ijrMc9QqwVVWJzhfsXb/jL9Mvgla2DxtiU4oqvhlgCuzBs+QfWtRattIBOucO+h0khIopizgyhYBU7q397qvCxyVd93FtKZo2o2kGQmKozr7jTNdk+zd33lvNOuKNsSPoMP/41Nr0SM93b9Ag5p7jjZvZZXLUGTXLctBHONTWYe9JHTf/GIMsok4EeWBB+VHmwj4F6kNOjYgZLEGc+uuGQyrsSF2YowCDsb2xKjSytX+YVj7z1w2dVUmt5DG9iw5wxIB4Mq94Jp2d8eogBdigSW60hSBJk56ul0wLnt8xMuV2juiPH7U2ROe8H97eYlZ6U5cNzMUuHZdlmUS3xaWcAWfu9J52vg9gvkLXoPFeyIAMCdQC4/Yu2h0Kvh2vwL4sjOC3FQJ9n6jat4W15HfYARjfGMwTCfUofMCBPkgIKSJrfR+NsvhVg1EHhks/wXxSHkT091VZgB3Lv+Mdjeu01EI9KBX3hcrrRCGrpVQzAhMk2NQNadKtOwRZlO5iPVTl+yNVshlgllU2gh97TnkVt5+sf65Tt7VhrIgkTwtOMfMFquOob+rs1Dvlx7g2sjMnnMIOGpuWgI/IMlOVVlGKVlr8DK5gWUOuEyhfFQ3ajSgU37l0c6QlL5KLRlQlb9fK1Geb0bvBLYQzbvrQze09cKr+g/jvksSmuR3alN349mMV7Me02oE6Lk+SzoexyBq6aHNYoMPlECcKIByOMV1/GansKxNOf5oLAIFO0q0GZmcRJRQ/xpQZiMkP+btCiaXSm2WOKE3Ju4aCVv4Z38/+fepo0TCyAD1ZuQLOYjtY/USPB2C5TRraYmvKRQCbELx7oYLZXRoULeNCVCXOr3DcWUkCsmu7SWCCw+XKVWVShQRPwK2rGqzwe+FTmR/HWL5OM8W5WSOdKySlNj0+yeSKX64Zvu8EHh3HZs5E9Uoy0m41pwa7aj56NVKZnkxmBPWUyXOFVBgH+DaeNOZtKV4T12510Hhg5nLRjjerxY3OtsdFKtCD2glwYW2pys3ao++77GfaqMpWO9Bd5+Mk6u8tXUhzZRX+eR3ycSTgSK8y4cMJx3lWFJadWv0Y++kSzCrBp83XI/sNKLgSxrvRYPw6d6ZDyH+nIs+UUVeqXB0UefiUJzq6/bHtmAAJgJYWicM3yFUZFghIU42L2kBhfKVRSOWDQQMm5NEcZVC5gIzztNNRZJp/Fi+gCfCvsVvXJyfA9FjUmI8Z9hTgMzyQK5oYYEWCS6ZraVFlyatKWZ9v+2o6VTqvANQBZMEZ4XCXEVS5jLs8gt02oyB7DM/9HmqQd2h/KRygURS/Y0GewdujildBoKrV1JHf5C4bKfckrAOMBFsmatXrVR5kjaYwOcJii9OyB4+ksOeAUmosVrGD1xXjDw+DN2hy01/FZhGKtJGniVINPnMGVPyr0N5+NRk3IiwlDcyeVOMSFO9GB7Qm7z7EFFtxFxUKTCRhTY9Yr9QLqaCx0F2wWBPURNH4mdKpefzBaaWPMvzc7MCQLn4Y4hqNWrhylcy1m4v+H9kwjj5/7TB2Ie7dF49CMw1UOOFBSYlpbQ1Pw0AvSoh8KkyXZs6jnmLgjHhm3FcvR3+LLDRL6mXgCXXW4rDuDqkYqQCc5GexMfw5uKwsDL2ir8tFlGFkkSRWvVLnsDSFV/45vhFSn/CQtz+PqMYeUlG7Mx2+mY1FYEzwLdwr71r/SM8tSrmJr81YjzKwQpGFlYq4hB1cU2MPa6Epp2lhGnD82/NWe6fQWPanzMmGl+F5nU79lP6fgWyBBRXN4PefDi9YuewBwyhkJuFXgUcLJt3XyIBCwmLx2NYx3AaiTviW6V0GpZqIJyCHfckEUXOAMfi2A16kv8pxeq25MbN4Uu9FaHZ/7eBBPoqw5pr6YZyzI9Q6SMs7L2zjOKa8ILvXwVQXcdo69oa3Woxn/OpfEYOdPRKbJ/MRLA2SpUBwmfFnfn0nkE5IradHAWuThNLJpm3YUEg0GA93Nc6FZaxZUdqbof2/sy45K0/uYvUp1GuhvJlNqfolg5gpEaKZmo0tgoKUNjWOMZjw+SEB1NQ0IDne93OhStPrtFiPhcsz9tmS8zgITWHFqMaqDegb9I3iFm16P9eIHsube2vCvFLreU8qfonor5MwCifHYWS9YvBhAh3qtjvhECyhv3d1Q32xIxrDfDpt4syousuMjQVnDsj2rfJR35c6xkip1F18UMfboD2RKmekj/WPGvOwzfT3Yy2lmy0tQB4hA13g/pupPTZcMvfwdP3UrrtDko5L/LhnUTr+ch1J3BHLW9Y3W7nVk+KpYdXIvCRehhlhO/mgH2xZ4w2T18Ay/vwDn0sgF/cZGHUrZAvnH68IlNprvKYYB8jDnBDKfT8gwk7kfCCel+7q54y8BRea7I49Ru66mRVxyM+wjF/SlKebISJueI7MjX8+2Mwpt9MFLNpG1qG6YSlid9pt1/BhKOt5ipSv2eggvcP9L5TljRZY7SDsAkSCMbnEPHTaoGPeBuPTFiunvoDfQ7A0U/R8QTdfHRsOIrVSekdffBLu0PprGklgoz2KFXTDH18j1YhEMLlPGdLdW0S9YiH+NQFmsibtz+MpCFKvdvUqpWFeFRTuwZ7KepcvaCgrwgMAAOfqTw+gcxt5Ge4WHXMEyKJ9j457MmhPoxfb5VLpYIt753vkudoZL7qYIhu4gEjIvgAXMNC0wk95gmtTjvisoOqPNPyvG/J4cKrUOyqPjCp75vx6+0Zb2CtKqLkjktY60yC8bIg13SD0rMseqhJdtw8k2hHHbrU7avv8kaLP/+ePm9+LZNAQlQsLmkTbPl8uOhssIRCMUc3AMpIKYZapCFBbmljRX6Qvk/515SXVqZm1wOXwVFVBDZB6QWOTZpbOu58UIu7xSJv3i4zIsyd/wZv6rCqnwL13dlKGzb+TKKuBcem4cn7R5usiErOjGuRLeN/L6uM3N9cupVtIyBlOqZvFDMo/P6xII8bpwrsbge2tt/jCsl4URrcQSLOJPgNI83Ld5Thvvpwka4xewfT9GwC18srUj7wT16QCp3WNcvKGCLHcehep3MpIWPyoKwHHlKK/WTlQxzVwiNFgim8ZtWoV4bDJ9/FqvxV5wsgXPLJzuQY5ASxqtOUyftAKJ8yRcrZqSOI26jgFnrM8ZQoO07P5o3Fm73lilTPv9ef4xtwvyq0me6Yj8XKCtKxbELnvuInwyntfuqA7t93vbqNvQ7LKtDf1MQDizD0yoCCBb0PW90TWgOzWQux/fU1aQPX2NI2JnIgD5Sm3mZekMmQgJGYH9TYQzklb0MqQXj/qvEWz+QU98wWdTXz17IRVDAvLlAPZDdcs5zXrklp0H9xHZ83YERtAJvhJtuOWy8twqFRYG+TmxmHmdcpAEkqPF0VcGCHYGdvDTgUwVNT3tot5vTL1VnpGgBOTQJdMRrd9I9FNz9p+HKmEq6KhQPmzk5XjxmdETLukuR2v3wzl1v6GlAmlO33iYw0E0XfpJu8y44ZE+bg0M8oOSQuPHxRIGdKwR+Kg1nH4mWxIuFmyC6LPmt+mI5w4940O3xMkIq2UBLdebvEcHuUMjxjsGHAQFxiV/YZKGPlUExYyEfR1Xl1Be90jyfUE2AlXgcJv4IU4rSm7iGQ9gmue7BM3b3kNqyq86+H+GyV+Q7STHNx5HDbCht1ac5BYHBDKbsgi7FPQelAewVgG9hA4gcScm4wdvqjvnS6mgEj/C2ZFNZyTPSo0wKhf7o4yBpCI9YI7BTCe2GZYu0HRKJ+oyABLUCjC9oKZx4HGGEDFHHw+SlSW9qHp6HDseriXSjAPpqGcHWpD0lTvp56bOoAgIcxJ90xlDhbdVsL0UkCeEhcTrqhT0Pcmj3Vfycq+RXoaaBCmq69/djEttJeXQpSqLLXli1wjXVC/3nFPPE4yxro/atOtX4QS1MQ0XdcvSeaNMrzm0esp4lTKeHtvEZQeYX7buMdQKhxfDI7UsPFqMpaNm1oXGeV+s5xB5TFLP+N0H73VlI+P4UVX0/lL+SYlJ4ucoyinNclM7WNJWuReQq/URpU4tr0WU+SbK7gtOAIwKAG0bYct7k4wfj+OaPEhLL4kPtiKUqzHqV/M7gTuyue+LE0Nm1+oqj7wHn8zELVHG55Q63tEfIAW4QHNw0FgvAlirbBul5o7T0XdCHxXzJl8Z0KyrZNt2+veSD4coyMZpjcJ8X8a4/OncFaTDkC0YRDc7zKHSmbdrUfi7QNJ0Yvrp6agHFajbyKEJ64W1f12raH89bS0Df2nfiKTOK1qqLybCTdAbAiycTU4vTfU5xRhjVlfCTD3iCOuAdPbKHZ7rJ5xdNBcX9b5mRARxap4fZbI+hIBXi894kja6J8dqk/E/TfhuWWBgRmQ3roqQommvI/mBv2nT/qKRLGxDPB3EVSEle8IcB0zTw6nkoggd8N+zFyy+Q1vk+rs2ke/qA7BdrJddqOG7//dlxdlCdZrwdes1GlsAzISJPYHmlGaHrusnwMAfshThzF9DGPrYsCB8SCmitr3Iaqvm+rjxOq2WKXjZifdaXxG9R6QMQ/fqM533i6kEQfsbMGudXp/7v+X9eKSXG8CMvkx9GMS6SmEI0wl04ru6SvMRU6jqXhOZUfK6StZCmERyryi+hufgz75tWADUYpmtxfFLu9DCXBl+QL7Orop8xSZxsdTeHH/RcJ4GcVMxb9sPBbCAb9dsujFz5l/Xp5XPzr6TwwrjeFr2VcT6mKntd6AaUW4I2VAO0NFaytP+7uGhggrN9kiEQgoqeFRnAKD2VL1CHR2YnZ2kbmJT2rYJtT5AjSpVzdWu+m0v91jERbT4dbFU5iXJ5NU9WzvdKs7xJaII0mNN8SPuZOqInbv2i9gRvV9Z74kB9LAqxdW2XBOpzxJsWzrfAla1pHdHBl2cZ4/tJUJWm0+fxHg3OjpozG0ZEpnTX14uhVO5ZlPP1Wgh9xW3jg7me/FYyQ5gKcQC7SC5oA+JHUihpnaPvF8yLPggz2M7UhKFrFqMSv3yFCMUyb4GLQW/XbrqwaDbd9Ynw22LVtTR056hYPnr0+4UBcraaAa3zVDYvmXVVYdK+TjpFV9/EOxFKfXJ6yfoglmObZnZTrWXD+vjx46pevDg6JkA7cT4ssgammBhrx1cO9ZBc1afPPJh1oaUH+8zuunn0ybYROwjAGVmcpje1Sd1jAuYSP1ublxHUjU0Nr9XduGYl+FrnOo0CHI37NLVtfQTdHC0Z2nuQtGaBkuhINUF/TwU8qPCGutq/2P29SmwSrtWw2BWUl5C/s/rzDp0ktYsbzZI9bsM2Ex7+bnMpUq+m1pxzmyYUVK5DdhEziFweRMLWlw1DcnQGD8XzEoEoFoWpD3RnHUlWp5fORv7OcUwka6owsj5CyfrPbKRWA1uBgLdi2bhaC0kI0xFzIpgk7/YBewuP0x1HhmlkiTRRUdFc317VUCUPrd+RJrOkYcSi+u50FhOh9NRT7CWG/VqPgT6r+9WzDphfmAzFKanP9X6STCjtwmaoegmAZpqQ9Q3UBxECDiGafLe/+pjLBFmfSDw0/8XVZBXfSpcNKRyhge4tjam35coBigBeefOdEen7mQXFyYIbtSYfH1Blds487x6SxxJ9zK9nNfc1NVdOLOXJrcVBSJh0Rionji1vPes8ePv9etJ7KuwmLcGwSWsDpvLdylLiQagBhW/EKUz0/SG4raahwokF2Bxb+IKCM4wfz4VLSlh2tRf8Ij350zG/OE8y3dcmkdkUmoGgVEU62aNXbA8jJDwi+xeLuvO2f+oqswG9FMNZug1+sm8qG9KSOshyGWUx395JH3QU3+hDLA/cC6sSfAKW/NoBBUvpYkQBxkju2RssELmW8RlXG6nbYLMeWET+OVaCJJF8NleZuzZ22DYQPHiTGvYJlFf/glBuc+PyGqj5LqCVXPqHB3MhE82ue5CKiN8z814zphPGqdCYUeksmxU1n3603USWDHS5L2j0XnKMQSPM0LxE1+0pbbuQKB8LhcAVMqOAZzNyhj3lx2wrU+AId1DwdNmH2GTs4GXFlEF2ltG6gh0dCXWYPfYQRXXXvi6Bj50jjEcJsYGmWL8Om+iW7p8pg3tPsqEoYzSEXt/lR19Loy/aijnctXbRYY7TzdzGqGSrws6hOCPfUGbXFZzrMgflA4hH5VtsaFBhv1rWN9Ld3gzRtXyr/pnOnCilwcazPnGYckYRpg0mTq4aUnOdR3hII7dUIoBd0ya2z9RbwuAix+NtvxZjnkT9ebl49V5zBI6pz4hFmv9wlf0DduXXGSoOqdL8l3UQwCPa0ZmQTk2rgLKtVuMjZSG7jhC9voAn3p+xYqv+9aTwms3ouk+B3D/5NCQQGwzzipvWu7+QASfdaNWsrSfmh+bDTMU7ExPP1wvkkmvbKiTqgNzPXlhFw7OV2WgvHx2XZXa8S5NItlW3LKRWpVMP8H8FkImNQ2cwHkrq9HL9lER4V2+7aryfuR0iBeIrVphoVNomNdIyPedsAhgAAACpgACgItOlAACKnntARtjRFKtacx/QCQSpQs+T/nxzOfIusyjg+85SylZDlFQ2Nah+OXW/zNN21IBSOKbJqEbu7TcbFvJz8+jZqnxDZCM4kRkZTyL19Kn/ca4xz4eaoW43qC2uaRMgyOW0r40/UeGfL438BQoLMwNXb/lYv2S6PpcIEby244lic9QW754WoRSj3KJP7Pp4kxTmS0G6Yimf1k7Zkdom4Rcq+2sJDJlIESx3QyWPS5QDf7MbuFlJ7WUz8kiL+t/V3GmlH0XUySxZXVOt9CE1D6Fscyj0j70m2rc0DhTNXbeGaB6B5hKic7SMe8QKDE1ciQ3CsWYabT4q4uYO2eKtsoC6oByQDUZREpbY6tFRibKQv3kRxGxuuic9n5lWIEOOs4abprYjJA3y4eZTB9TSekWtYhLtLeKOfotd3/j0UG3S8O7ICt0yZLd8gOmLIzOP2f7pEEZub+H0cGJk4dNDLPRHsbY/iL1skZZhbSCzXyt7FSM1J4Z/LFigPLHiHHcbKWboZz0isgOtNzNMELaXg2uN13Ip2VPTLcJK+mD280Z9G9MkzjfndqKU14m6TwRlFVb8KDYiSSIGGinb8UDDBtVq344Wg77esesWIX+raevG71HQct/QE/9sFg+iBXi4jLzMa9R4EWP/w0HDYcUlBbK7JvHJhvFKqngvhm0xm2SqXJYdmoXrnj9jRVpS6sirRHAgjP82AzHto22FV/7dvdY6XwIJ7M7oMQVIBe6wvdJ13ZyU7mrnVBg+CVCrQT0n7amHlnsHedc486vV28VoBFeTRDm8TmLedflcnNwXAXkcWf5dEOQpuFWZqJbFDGwrPJ/+t5RBckLMq6Drvvr8FgjXjRRqO1pnJjfY+VDghTxH4TUEyzFmuaM854/qCXJybCyb2ovLyKcNbp9Igi7OK2EU3rZnA+L6erBvLvh3sCuvB4pRV/zC0BwhPu/48eWaJ9mUUuGBoWFalMvBG5yJkWeoi3ITA/EFRaY1LvrlV8r7RurigfpnmXf8sCK3nshy2bzvJrFZ4zfjvtl6kcvdGc/742TpfOhugcLi4LQGTTCj9aa3/abUc2pDypLI3E5UssuszeQ9i8MtaoTgIDGHTUR3JjvEYcH33SPKxpiql5oGxZZORa5ImovnNz3CK7Xj/NgRNawqPmEM3b4L3089x+CGwyz6M9Zmutq/rdqOKyj4HiuYIiHU49NFWHgxjAQdt3T4cXFFvnn1yzE9vn3ulxDzMvltVPVvFIqOGuA9u00F804UBY4g6ubhQMNFZjA/F5CbmVDUJKwZqHkR3CQGQ/lA1aI6b9J7xxkyS7fD/YkUI9zPFxHmVQE9Dz0J38ue/ciBxFTV8qK8uyDpdORDV2Qlnl/obdlAgRfcxtEJyxqdoZxGOlNUeYRcnKfKK/KpR0T5sdo32BNXgIwhxo2BiSPR14BCfW+2ttmR9Wk0KJz2JMVdpHMQ6/iINuTNoL4lIcy/36ekw5S2ViUSjk2tAz3JijBxYTrtiLBLQa7lMlhy9SJbp1sCosbeneJk3rhhHICrfaJj4yyMJ/NnZb4dT/liSHMvLQnqFYaEnUV8fGankh1ehZ6S7wLEqj8kGaPCgkxs/vduw4AlZbOunBI41orbiDMx9/2UfiTAVEVwrOkIO3gzqyI4R63BUBVm+QrIllJcKmk9n2qMgdpy6ocbRBtofOszk17Of16B+RktcG3yYH53V9ETIzc2vBu8CwFR0Kxxd02Km2PnKRr0X5eXar8JB9JveckDdcXW+8+DG79+9YR2By7rf+QBRg9IkTdWx5qhbjl0YgLlpaOzIk+qdXQbUWDwYuQy1mAc5mvZD5U8IlN6vhPW1VRAEp/gd/fiOPv2L5MV9nfHD+z+N1OxDdSURdUtAEOvP2D1VjEKBIP3krlSC5xdN8lWdZJFqxFX2kz694hK8nztfTr7jdoCxvGxnqJVlGBI+aIKe6Gfpq1/aduUFV/B6tg1D0XZAYzxkBcrbXHnPL/RFiVNzAtoz5eztTid/OCReXJ5M0qEjKMvdE6lz5U4wYx9va6qWtN51Pi2d2cII1cWAeXGAqaOtEWy9IOEzUZeV4L1ZcCUlLsI1pqdCXQIN5LWMlOfTfz05uPC0L51tb0wy1y17eWWelcpuwjIO0+QYG//rT9RwW9JQpTE2HHlHrmD5nNFQnqh+4cLLJTpsHtZHWqwZBMirqWQyinaqOvwcE44CgUyisMhOl/28QvNwRzQ7+IzpmnveyRRjzZRL9dXA7PC2NrdH6J9Y41CLBWvz+x3/2OPAPLTHQNnaI/NGOdBiKUmu/UCuu+1JFqPNazpPx4HcTTwAxZz+S9uevbZ6cTfklKf6F8+WNKpx1LTlvi0q2CEzyFMVJDjWNP0hcqqvr7Azuq6WZRumte2xkTVFSd8nv61uBimK+TuvSNt0PzpasbID5ngecEhviAEq2TDAbqkTEJCyGP5I+n6VyZOy8Kv+0oei0dnKRLRL/lpI6+h/wH9nQuexLYGKvBLIz+eqd3u5uVKhLB3jAm/F7Peu8G3xlv5tsjePSZxAaSu2eQFCv2y74HH+TCAlMLoo+KHW4lkFjgSYudVLYChv5mskMQ99eG2EJJLZSzDAm46tjwccFVgsEl/qlPUbY4sZgcVsrrgS/QPKvUwXowAZao2/SkgeoS0Q2kOAjJX/Cvuxt+W+NCAq5IBMvYwlr+eqq1GlmFIKeoYD3wC79HeZKBJcx6dDUzQmPBLVUwtTioD9tqw17T3X2zzTlw+5cgopmsZWx/g5ZN3NoAr/I1APwXAnhMLpcc3VcDrgldgWMruBuA5+i/VP6C9IMqUaVAuO14pWmr/CYP/1lnmiODKQuOYlhhdgm4QIygB38iE8/vHnawzbqzSKM1MSO47Px8ZRaoQ36prF2psc4cyg3VisnKNClnIFBAoSwi8Bf3/c6xO+OnVLtH9JLD1Rx96QSyTP3QvfahoD9nP4hhQE2KU1esXBGbPnNtEOqf4YZbUKpc+FgN0zNQ2YrzW+B6rk9jkdVlBcIhiJLyyR58/PAUvUZtRiOTP3xnRwlphPtmGaUIxZW3B3xSFVtO0ulymAXND3xda8oqQPJTHKuGHomtOOfMUvmfSv551GBBR4mRetefJ/edh2RAey0mIb+EuQhsPqXxsB7U6gB2SFzJPrxE3tGTzOjTMNDIMq3q2hjg+KZ8VpGtXbAdM7LaLt/LHICvvn5SN2nJfGkupBPjEscONU9p7rzzrhdJH7PZalKvpQUEcU0ePECziWFVksl5zya5QiL0GV/Y9O43XsqVTbipieZnYEl5d4MSNbZ6mFtQJf1JqrQR7YmGhSBKVZe9jMG4ss3GBPUMsbC2tuikkl8LmQbnGx+j2tB+u6P8h3q9fK/VSDCe9tjOEfNM/DvQGEV+C7nQME0BsbzYUKxOOPllmU7fbNnUNjS0EcSUrQHYoN+aOzpORoxI0/XloY1LuPbN//LsWD8OXN7EEWjd3E5JKxggnzESHB5eG6ew8JaHwQUOxZoklAzSvufPCtZJIKgbVn8rpvVASKiV34mrNHSaqaMtdXZrOtTmMVDOr7K2BUtSOG2Ip8LSlsEKJINiELkPpA/Uw6Qn88F0kzxHmQ7WI434qTrZ2e7pI+u+NiVRz+yob10XyYK2sFSFxnpvLuTAKGb3GXZhW24j2E1arMNVqLWdA9EWEzYUrULdbOjTl0ZUjlnWxPfjiUIqvM4t03NprmlfBqyqWHcT9e1LGNm1JPljplZNSR06x3GnHZOQ7QAquJfGiz5pPzBPb+4Zu8QWvM5l2rlAAPPZlFEeUujNNWQxvNe9wrWMoU5KyM2qH4UUUlFraK5MLNGdmvHnI3yvUQHRlsxFc5ijUoldFQ6828lRVP+jD2oxXkZU1Sp1VWxKInNXAOQ9vnM1dPCQw0xZ32cgKAZecpyj8JoNi8kHJZ3eGlacjv4PRkAKx+gSE0l853oypXjPgMOfHhrs5NiHdAcMaM+KzEuRGAtxngDxbArsicrYoRC1zlZQ2mhDxuOnViLTdr/wyrqmdQp0QYCjHlyOWRzhcZYSBDEf8Vtw3VypkdGClNj+NlHmGFwoL7JZoTBPsRSh3igSWJs8ZE4vfl1sXJ7SStXsY2n0TYypIvoeJGijN3ysl402mpv4g+bub2pcXkCunXXSCUTAJcIQ1m6kG1moxlgxFdDYUCTkpck/U8MSvXPF0d78YPeW2fc5W1B9ZvD9O52VBIcBiNTSbSax2go/gsYsX2zj+pYXTplZOASYYoFwi+BlV09KBFuH+APs5HHAfFApGI/JQdToSeJGCUl0WTkyaJQSJcJeH7Jr4ooPFIj/zf5GBF417RcQSG1wClAxnWOdnaouc/aIYphUK7zkqEkZYI8UiRXhyem8KHbHwVIhOdvzrSYsZsLWPzZyQxS1fJorwrVzv/qv98NfgCfCI/1msZYJAwcCQrjDPAu4RggdKRCZc2DvTCee7UhJ8Pcg495e6wSYMbV0Rk9dJkP9UlqigUidxIaehG00OJomQsA25zaNLt/Ugk9Tet6Q1fgnvVpNwrdjJc+Enpa1YQWRhT2JwaGYrakb6lYVMeuEDLCGzle8JPV1QTOb1dL95MpqGje3R+KeHmO3k6hyzb6XDBphcS1tybt27ImWjLArdtCE3XGN0FCK+iNYfZTzNG53iW3/QcVX4R8aDttAsjI8QD20uvB38dLkwU8vVNEBAo8/e61j/N5ZsntLnuD3l0Il3/0u/+8wynV4IhLhrFLcijHbadC36lAlOdqREUKcLpiBqzQx63x1auQYeDxW2lPXJ0yG2NO2BAXCh425ga1MXq1pU2AHiUZKDgQRZgAHIimAg2RyxhsAHxuYG+CaDBUMfNjFqfN55afXqcP3ed+w0rn+8g5rNkY9Kldgu0+ALOkcEv0PmtblD8lfOtsZd59AelqjtIYwxzp6/CmFpypBSAOwDhET25yiVdqH+wnoTBL9TSPoeG+PivSYGhK5z2kePLrfjvT+K+nuEs7Ygwse1TsAPJXIIeOeFyxg4h7tPZmGFa+spxVgXK1boHF6ex/jQvQJxSCkaudnfZPhmHZ32jVtxR5us/4xC3p4Tyzv10+eGNY656INUbxtBBqtwsKapoTlFDzEqTbGLMWo4Ydpr9ttp/qo35AXBQh7d5QU9F0upFrvVGPpaRro4WeabUrp+foGxJYLDH+6htnBB2CsSDfbhyTDsczywWKU5yazxbgr23HtQSI5gubLLCozYZkG7RHDM64UMRXHBNCkMySKFwQ/lOi3eswE+NpjEsO0+UiaUoFBN8dhKxbyQFxGCwQVo6qX202SGkweYsOlbMp3hhadERT39W1EBmBrq1493uzJ85/MSsrZa88nPtp1g5nuvVt/ddREK12x6dLHPeX9UlbnhKUuqEaAl2OD25JbWk6iwxjDefGsyJkS9A8lRiRInksQ7P+cVyHdO9VHuScgtKyt9R/9sTYX3/YJBL8/rRV2CQ5REnPM5yCKZdd3pGgeP6xQvaDSgssPOISk6FO4fpTGr1Xw7Zhtl5kAY5fgDUR1h1y1PLEu+X/w7Vu9ZlsXg9s3RdzpPwIoRcdf3I4INIx4tFgFsAoHp++EMCeqZCOvmoHu8zYtMgIzTw71tvR2H4is8BaKEq6c2n+YbjLbo+46BZXkm82kBjZs/WpliWEyKidc1lpfZ7wgnGe4QYaY4VRu1HcjWLJPIy2nppFnfc9IRCrbm1nBIwNMuXrQpuqiMtZhZR4EHsfsc648hMsGotW+mHo20UoatDVj+cA5TDkEoqbPg5N0cXFxtxl7i0DcoJpx6XaFIP//UQn+b9JYc0fMc0vWD5zCX5TUnKK7tO10JkyzQeOAqxILya8EFSdhl2hp+QTvtojdSTxINwJRRMHgTuX5dQ433ouLFD/tfJSIpYdEOtPZ6LdzbxaXh35BgoxHYpYjVf0i1s+yqPGZ7AF3WYRLx+B3z4C+N6mjWSdrqTx1Ry3vLzXlhpn1vfYplZUvPLubJ2H9b0i546bi8gVMuGmKIZwnvmxWPBYR2WMV/IUxQtQsFqg1PnIoBj5ZZzlWh8PzVvtI8a5cWiHhR64mp8JFnvl5L+L+qg1sCkVdTf6RM3QGmdRDMGSx0ChyYnGVCt+NUgAt985IRzqFxD14ASidUfJobTc+5UDosmp5lgVFOKI2SPhqARlI7jwLncYv4loirslNziuvYgyvTOuOSgZKsh7rT3SC8Wk7t2rcO14ZtHvFCr3i014yaFCiVow/uLKdZv7jwAriQ31dHYm96QKIVrUr9zQbkcvtFzsVJmT+tU0CnDDPxK+mZqz7Huy5RCfelXVS8devLHsLMIAv0FTAJ4emhP6bGh6yaRaiTWvISDKrxW87zUmutMNbTIALLVoNopt0YQm+ER9kep66HUWhIDqvEAHotQN1NG0weq0EYeD3EM0t3T9P1rI31R8Ra23x8vMPn5ZrxEOVcuykWO1CRBoEJ8hPLUrmC9IqG3a3zSmhu7jO3ofBbH8Hr3SqjVk+XAfSPoT5y4shM32wSh1zEF4ieQ4IQR3rnaHc4uu4E5tXPtgqHgYos4Lwk8FHC4a3JmZucj/UkOtQ5ZPv8MLd+WJwluV0J4r1yA4d9I6WGpTl9GVCpzlUUddVDhhvJw+Lcq0Gh17StN4kbJGR2jt6aA74mIQXbXdfndJGRrC3qcqklPc1wdZK+85VTFEuhwmWOhQr+ER1sLPBFw22sZr3FoGCt6vWmMu40VkIEEjOZmHx0OWyQPJS8HPp156Bj4XVnAuZBANwwNsbv0U1KIbIP8iqJOyQBHuv/pj1O3Nc7vl8SMhD2DlcFB9NdtzFV+WWLASK4Fnwq0rdES0Bd3cG87qdILXZNpT1Ba/W10rfUTkmNdmkrmD7OZpwSY1dp63J8AvBRicKQw9blvQuXWVi3g4uZhuWPhIUi0RMWkGgi+hITUG2FzxkMjfKMzrpolMweI3dtJReKNm6FIlQwsEjPbDrAdnFql92JAZDAHxauu4XvJrsZKrKvBiG0ibKd8rkaI9MI8wazThMGUcItTA/aHCyQXLnsZ/9BlEvtNfh4EGXWk4TzX9pn4MlOnb2LtHxfV7KzLkqdpwgzsrz40PeQPo28wHbTkViFIjhLJri6zAn7h1smFYWyKsWwSr84hFHel/0jXTf/YPlwbm+01fBOGHONWOTu2azUSkzVbI8ty6znftWGsD0HUl80604Uavc5pQ0ZlkwxiazPJqSI3pk3nbZQZuOttlmY9xiKjWWLV4gYAAVAAAJWHXGBMRXVPl3XYQ3IBeAFeZRE7uzxKm3+TywdOom12Q94x6BN9NW0b+Sf5BodC889NrgpribWt337uv/wX1ITVOfHovQFBSsKt3yyBj0gU4AY8buh2PiC3nNYVThzHXzRO7PeWEJsDqfSBc/61DOvfTyoLgVchFtjdCVWK1IwS51AYxBeVbM00TaHwawc2uejAAqrsIo8sL9HUd+sM9MhDYtId75PEpm9kVS5wfU8guG9y5poVBo/VS9pOlu9xLIHlwiGdBQlw1vGW91XB+xriWQXQ1BkrLkUNkKljkgwmMw1q7m/tSScbjBShVn0AkaEWS5ozyNn0wOmsp81b5FQKAZjuOu0XDymrW42+wFN0a4cVlAmJEPrASfn2AtdTTQ40gHS61dHTqqq0WH8EZQ//fZk8YeSTlnSh/G7Yf6U/oLoYHojuH7wtSEKKplc5dITNa6xJK7Yamm5LFKSMtcWfUNgAnFbsgajw+kcjWTvLzcFcSmrnmgof9X4CgIczMeLBzkL6rsvKY7HuPKwVSQLP1YVRh4n2u+rBMgk0ikJiC3wvjV8c/EdpBdPSs6CPi7VAtrPNUY6c0E6uetHYYgRImrHQprHDq9YGWvekcQGhdRfe6f6EYLwte4z/ZNQNYs7f4Gqax6dnTuBQKXFAoc/bJjNuB3mUA1QSbLRpho1wsSLtECM/OB4KtEG7ti+mwWO/BS8ZRwMdVwnIyWkivJ2vMgXIMgAjTiKA8uhucptAmfDhmN0+oapmvfDhb58OQLGBz8eLkZsuImXk7lhS1xqdMyMbLCoJm0rZivxunzanyYNse3Gdmel9HdGlE5ppriA+kw+wYrr2zui8e1tTGsq7zWrQu2Lgd4tFZeSGosfpTENxUsqkwaX3ZtOXiwUf1rrKLEM0EN0eZm0Eu40MnvOhe0dEI4UgLE6/Jz0dfa5CkL6lwNb8yYFe+06La/HJ7eCbdF5pUaVIpa8hGeYfdcIj0Ayj/cPSiOEgZ/A3KsWA5bgPSqdglNjw7N4n9j1O3kH/XvMo2czmdwcCX+wTw6TiiS+rtOXfwK/eW5Zl3KTnSuN5wLuyaa4USzHxfJiSrSn9adzb++LkkbjqPBc1U54FLmmy2bgrJyqJaaJWo1l85wI5N4RImX0UX0xVKy7UE/ZXgySJ5eM1e02185CXo4RFPVDr3dcVHg/fyDFVLXJ9KIrJb6mj9EPQOufeRijKUutIY1Wu1CJU3I2Nw+z0ojmQMMpFYb7sjQTAmBp3sKWZYSZMGVtFl/kZCCsnP6z3sHGDkN7Cug7rRATmGMLPVGfL4lb6Jut0ZwRw9ANhuV/ZA7keswsTuumoIfSxcdzeSnzW4c6w6mbUuM2mJSmiVfLAwAGgvpkopufikRVabZnyWXTLtVjRVJE1dzFSB4QmZZtFzAf9A7pA2ZpCP+K000fvk4oQ71husoP4zaOSmUNrT+M8bGIjuCvtZuD/cVvEFh+WuCUNgTIvRZajH7Y/U9mmExjT14Ej1xANaKYEkKs97Bv1u/onqzUD436JOMwpRTOrV5Vb6Uc1uiiCbVHqpyFGqhQy3aaRin+mFlop/Hu1YL97Ups4cCvo4mq1V4kTHwi+TPkhXE3Cc+ZRvnJcck9hrju4WKJJi0AKBkpsJo9uhc5xSb5wRHkRQiidJBPo/VBK27o+LUwTf94Iz4b/e9RUlJkvwJcRAh37tcWafu1+gQGBQ09OhtgWyfvHyh4AevL7Td8X8Vsz7JwWmD0oSmiZ7InYyj3x1eJbylYy509auk82a+xc3XbnrAMRSZRzSq2PE8P1wsglPlaDomTjBnZ81Ek8aG2Gk4yXX3U2HV9RyMP3artJRZjsSNjlhdbojT71DIkkxe9dO3bTnMqFNYT2sIOntlxlxcLuZ+X65ZS3v0y8NqQp4EKd1EhhZOS8hd5VWqbK7U6K8aSYdB4uvrZPR2wg6/wyhgxyFL7YVYVaVh56J4+rU8GwVNrEe4P+jkWwYksTRUQSlhf5L87K2wTnfHV4oOl+0/Gh3KIPBlpjZu6f+FaGzwB5W06V5tO6h7mIByF0B5Voz9rSrErI5x6ppoUj0qzY/H7GVf8aMYp3DzOM1FlCj3YYGPUonNb7qOmpDCcyB+Wjfazv/TUXfOnJvAGrpb8oXAaBlk/fop6faZZ+pyYT8WhGmM4k2OFeXltwUTpqSikOtokPl3jT9z/kTzo1h4H4yrCFZRUTp1B7r5yBYFGfvzkWGuaHcxOaBEMX6MGE6jz6W3klMzs+7INdBJJ0P4VwQUow7a6Q+rlxz8NjSs49ERZb2OjiahWOHRkpbBM7wkDSXKQwDNG6GTKy1U3zhEtws4o6LZeqZmGaeIkbnGatEYR2xyvRVAF3jUtRRy4MStu3Sywf65gNO/IvZ3kf+mOBXIFXNZj3lxpDhjob/QDYgB1yLP34PwfTWvDB1lfvo8L/DeSwLKf5hESvVhj+bxss+cXgckfLmvbPPzGWAQ1ijHv7i/d2ZKaK5I++NT9StQNTdTxiWUioYpWA59J0jK5qAIM2Ql1fNECR+w+dPC6KgosKE4zAlIzYJh6IUacqowUAzHX4udaaBk38LPtzc0hvC/94iWVSyGvwxjSjOIycr6JwzFsxKSY1wSrA09T2irxdpAXsrdCM3fEhSMzWnGE5Kd6j/Gkayv5j2PSgt8eXHJy6SvrwyWalCUMJQLj8qks4mH8XqYkB+TPoTKrusfCcZzaE9poy13yftpNBxlbG7vNc0ylE1drsjq2Ygkds8RHYMa+OtJ+oyck22wPiA4rmb1U+SfZGnO7mEGFCbJAPpyUNK9YIKjnhKfRUVCnmBixSqm+g4iv1WUuUFpUR3gGKR/+1XOWt9dLig6yZPoaJI54C3FKmJb208VIi1WxB+PpBFBubQGcLnSb5G/lKzgQISbOp6fdkXCjce0Md8+CdE/bRDLJ3/bjCwhKrRgEFum2QGN+NCeVb8xXf9b0uE6P3v8m1+DvVeN+A1LuTDZDVgjbKL/DRrdlgcVfLxaRXL++1t6MUQ1YukEmkq1mwLHlOwQZ0/R1/FCHwaVg/EKlBRmyBiM/nIhJJb4qjSfgmIP2wCFswIjh0H4HtqFfI1kRjbRlHyYKOaJ+FDjwLrxt9ZbA9sJYV9/jHiofuHaGu2vDGeuTTvfQ5mwLbbbNu19YxxLhWt0cxlnGoQl83NA1bqAs0RA0Dv47/BiJUVzn2hkB4hOVK3WzWReKd2vn/4cts0Jeq3pGN6ulLjU7ovvGYdSCNW5/ir02HF1E/FD8J2jTMAj8rwoCAqgXvfyeFB0HAtL4oz5gCj8Se7VX2N3oMg6MBYyJAe5wIssSSrEfHzI7HzbKUuxkkLiioH5eD05yHmiYEJ6YbTqP6Ax+ImvWiajzqp3grjMQs2cDc8l8M3FlPNoOEGLkmDN9jJ7AiuOKUT5nwkqrOhchBIzB0f+BKp358qBgE3Fc1ftt0fxYxnbNHY0MWOdBfuwqi3+1yDeJvDpUWkEQDapdYbeuUk45qNv7ew8gDr//TzvYeWticYDijSSDhVRotrdRoQcUBq/P+oEJNHz7RzB+zd94lfWnqP3pzLtqCQ29ABl9Wg6Fb0EnXQpsZCPbxxmwvNjsphFZkH7vQTeinNS3QYPMU9dlC7Co0wfa8UE9Z3+vHX1PSnIckMevR2K6qmMJpAA47Vqcf7POgOeOwLy4098bkm0vf69TmESAxTWndalo082eCCxLp9bzyE7qQzWTUMjLYUf0rxwI13Fh+uCAQ487UfWhz8s1cOmZK1cgo7YsWOSULXURqn4XQ1KTE8v3vBCxg18vWc2vjUbdm5EzNQ5PwBKtf/B5RVziORA2gGu7eBQswthaw6NQh+EycHS0Z6q83qs85QD8+gcHhyMUz2tc2p+CPZNqKpz5sa3GWLreJD2TXpOdouYgYaNAWjw438jPnsUiaFWdi7Nm0RL96wI9VNwtqmVyZjK09NkqONNHqju0af7LlEZYvdVkq8PA1Oxza5fAPx1rj3IfqwVq16t0FRvJEs0KwLREQQo8fbAXFaxri3HX/FUUXld6AWJH/SRE1OVGTVoP+QlMuqBbQPbIlQYsFEXR7dMGCLmnqN4WUphCDmJ1xiOClAaU8Hulnxro5Loc194QrXnjNUvybPyAq9nP4KlCBRofaIl+1oK2X/h5rmArINnooiT4zz2L+OxYgSLciV6dAeXy4PYtZ7OGTMHtAJSoJyPHzzuw/9ujn4rC6c/mbtw71V+VvTLtnz53VLDrWeSxybD5/Sl2ddwVuLIz0qNMIorIn8Xlsdda2SOC8ZCO35r6jj0xA5v3MKzQzvuHdtS98GoAOFkaifWP7E3zY6vYbXQCmXVccBG3zxEcwoH6dU24iIbz4H9w8koVGjWAhkAYsUxza5vgLA0azDfSf0L3x4G8H3PChXcXWGNLwCE/IiLHxErhUBP8b8su/lMMxtmXARFajqaM9KZFeZph3utfpG5OP9sudPvcyjLv3MYpOKsPpTvjgLVYrTWKJR8zBqwt0UeGaXfvRwPAeSFimpzrx6vU08uogMcZ7EdWcTOIvHnv6XreW689FnSFJb8yFA5VXAGhn6BG7exYo5FSe7tqT316zm6tiOJE5UIWpRCs5SawWqb2X2fssNFFLoXF9s21RkT7216OX4iOo6yXekJXV8DrzTDigIIQfHkH3GUyfNT9VglVjZiJsLAgOk4cZ/caGjGSgyHVIxQGH7BjidEIiIxywV75UegOmRxATXjgiesy9RAYAiHga5RhxLtXfCnB0gnLHgzESv4N0NZsy6IYDufxF65NRkq89yPYS+up/rqgo1MhV59GsXUCl6nHOqitXjBD3p+6M0rCsXC5A3QKRDFc37nM3A03MLJmz+QFmrfNMxz1qYEG7b/IwgRoAkMZdMh8ZkaIhCBA6SCrhuGMtnZWXuzZZSMCsCKb974hfm6lvfsH8z3WIOn0t+iU7ijHWiy++vqDhvBp8JFdcdOV+F5mkXn5VIY7wBeMqxdvFqAaRNpgLep6BbQiUCfmR/K6+1YKGPUcs2FUePjysAuwk8kbXPMB1xInXxd4Xi+fwHRZmZY1YB9Gk8x3RynZa/LgZHykismxwtigYP7lCsawIGJHPE8SGh6rDsFT7pcBK5fdv1zfiyWzgZuJ8jtoUWxKV6fHiY4KBECkWtY8ppiysjHHTHoklY5eSx91RIBs2RFAHJcfEorKUcA6jVHAtfPfi+AAwIeLdlIWJjHlnb9DURcnQYeaLrFIxkEkj/VlL8FawyvQ+4MnHZseNwEvoKiaKvp58TBmwSVZp8S4FlOSjB5uKkw5RzfTFzd6CjgPpcIkEeTXlKadDPk/S93WjLGEukQPZdaH8WEkbibeD2zRu/JN1Ehbx1fRkzGo/Ct4yJDKighesbLABVwx0bs4y58cYiWkTBuq/qIJdJ7SP4YacJWOyATFylueTmanQZrM+bTWx1zz5JbWUXN8I6toyriN4Ip9vybpiaYk63i2e/MBjlJTNQGaSoGhHC+gb0E1Zv8pPxwLdkcyBnZoBaNzhJ09/9DeawR/x+5nKNCy2BNGSVISdhtiAB2hnzMpPl/zQmqz45sl3b8a5OOJl/39Dyd7O00cXeui2wf6UVIcHr+hcoBVWc3ccomTcbJ2lXxdId1am4d14Wlr+zT7r+q8xylqyDVTm4/T1RDaBIv42Ndh3V5VwttDK3tsuo9audZ+qafElMdDM55sHp3oUBSOAPSaNQfNtIxuWa+OyP/0KDJi03K6baQOaepSUKbDC12tWPrwsTpa30N816yGlkljXHHa3sXBlE+l9g7BXaZnCWKO9PKll/i/jiS/1RGnnJjJ3QslQ3Wh1YUnSjcN7/y78y8gfx3O89kC+WKDTijOwiNcevLvLNvctO6ZMM7NIzIa97je/FSv6FSNEZUD/kB193eSJWbrag/fSPbMUWSM3yHe+Z/ci7Va3oJLPllgivg4VsWq61AVCooZAqpVCsxDpReAAUaRqy0FFOj3EkyzU4a+nTVOZfCM6gw/JCdJTz2pOzmwUlXCMrCxl9nEp6zZ8J+PHf1BVKuiu+DAx+qi74f8MUzy5A7owHHSGkp7tAotDUKlfM+bRzkra3OB21lpeQMV0J8sMrwHyFnSIxZOwSErwskkJBD54LQg5p4uaL0f0uFDeptNnVHxtSw1bd30fihzjLCt16EkPJCZ19bPz+cYBc7JzSXNiDnygbloYArMib/yD8wTWltAcNJbRP0NVvqlbeBkKIyX2//swF50QyHBaqabblDVjzAdEUi6Y5oAXhmkMfrbKwUN3GR7TXCsMAcko+Sjs5nZOaRquuT2G39uk4fDotBlnuh0TCt4PDCOKlJMqqWMipN6hp53IhFN1wHl23i6yCbLXHnUNYCRZAc5gstsUashKQExJt1+9pdrLLzSIkRaMsvaJP0OfREZFVBB2tWNayq8w4O2I8HrncCDnaDDCdkyl4u8/OA9603j8rz/ZNf2cQL8pNOhwupXDhYfB/zevAjCheQ83TgTbIjQjiuzd2pHecRVO0nx6T8A0MNpEIc2fXnp2Tz/FtcL1PQjDu/yUue6eFOl+8I97CwHe829kNkzMN4rXRr/qEB35h5D8jsmB6Y1Gy/4NyWrzoNE0sIfspHvVgTallxy3IB1dD3xmhhVCTskdOTYgsixdB8Z2ZJbF+/1jmaa4OhISN2po7XWmJdTVH2PL1bxiZunM0HiUlFOIP4v2yarTYSFrk1N0FDR47DHHxnAQw8LvGT2d9ShJUpwutz90v2LZ6OnrSY2TLHGyynJeP1qFloQzXjHU7fgThgBVkP7QVRkplkEr3PRWz7GCNeF7MnJhZy/e/9CFAevfi/+lisCa4+5wRxInPLivOv+EhjVhiMaJLYq26DZoDQfm+Col15LmYoV1OakThFPsATxhci0TRb5HTzkwXCr/Ix2GtsdAuqhv6rrv6rA4scCLuomC3X1KbA4p2Evr2GX48ngsC90RjNwbt/IjigUMAw5+AwsfGB8cfYE7TvQ7WmRGlSvDR+ku2K6sJbWh4K9rxCjZRGaHImK8o3/0+MVjZedI8qP+jjK8qGE9wicMTplcRfho460FnOyjXZrMcK+1w8uoeMz41m24HkO0Yn+ncUjbbT39qa2SQJhAKgeAM+J1d1WuyxHyDGJcgY0kenM9fLTNhRy3quCGbV7O9GJs46WmIkFncbGRS2HRv5lOsKNnfvUen3qQcU3vUpwNozIcnxuN0IBDf2/p9s62krngktD6iEubQiUjWWkHuXb/D2PIB301rqWERkqtEV4L4kiYbQz9zeUQxTGDq0B6c5Yq7Fc+66Dcp5+bRZ3JNDv6h6g950noL0WLkHIcDOhlNtMeD6g+sSH+SjnJ3NWSOkMCWNQCIPEsJtqK0afzJUypSvW5/wd6iu9T884O7G+uvPTIZu35SefspFFbCxXdCQ9kzgZStHlDYAMa1sSPgOODBhwnKE+HSdr6hYDti3Z+bn9gFGMBxqfIdRNXAxK0HeeF+qO+nY+/MKt+l/8vizlB5PAogmAXXg7mrtP3uU86gdmJNa9bQDDGVRQcMDa4MoXd2uGXuaXdZFR9VXHrvtb79grHLWPYYcjt76lz6NmdO+z3qTYqmm9Je/1yW2RIk+NKW/hG/dQF18R4KGtY0T7H6ksfKu2wxdzpaJuFsaCein9vXXiZPE+8EI7UrydYmq44F/D670Zjm4/+4LDgjeCf5z9hX7qJr6Ax57vj3/t9LcDREQQ6ap7jZLjl7naGBVMkwhNROWyD/kFacbhnVcKCBZr5tW/GttHCL+kO5GFDOvhjjNEile2utO0di3mQdk0XuFr637W7qq3FqDWtBUE/TQssKbGNLi7EvZjmFXqeDfhQzYV1WZGzgEm0sAjybNdj0VsYw5YePHaQpbw3ahoHmaGRzHJo7y7Vavzef+CxIAx7n41gAVqw0LaKPYszYt/hxTbtee4UjzIAWFqekDVdwLZ7QNSD45ppi5CFS2KeqpUJNsPqPg7s1KaJbvc55jJDrUCTMA72wUAphjwgPwWPpU0rkNxRwW3oqe1CfUwxfos4cejFHGZKefx9/pso6Rf0E+NTnH60YQk3wTCNUqEEcna9nRdFkHcUiLbrCtTY5dgGaOT/5Pc+chKt3idp/Q5Z7zzC+I1LPPnB7qMvGH+INFPHYLWRtxUru2OoZ0gIlb2TTz91+727uNvJeeP3FL+SSu4UqHyjCJLxjn9bbboyX/3dslJOOcHrGpDlds67RRf8KInsELU8p9WBoLPnvzKLpNCtVHaEUK8bOcjXofV+V8kmct4jS2v8QqBA3Ia0HSRQ1EBVLtJIp/Ml2OYgXlL+1qRDHPaYMwYL8P4YoeiDo2n4rJEOCFB05+m5wqcXdDBbUgtNlawZ6zSYKTtbNh3UvR+ptY+v8LLmxTNDhroxFd4kzRv1wIOVTi+VPEuGP4yQ8VDY13DN5IuNvq+LpJWSEt6NuBF3kxRO01XerWOnYfUJuBG6hDvJJrkYzkg6I+fF0XLeYjdPKfSKaVI91TNPPZu/gm7RaKeYPLMf53sW+ppmmEpkfdU1RUc8gZUVe8ND+OaC6gZA+xebm4COHcHdoHwh//2BOQrrwU1oPTYZIyc/UvhxUzJeAy0vTIbCUaUgYUHxVDDzQku0T9dPJ62lDfvYD7GDneCepl4LxgflFTHZVpjLIScsdOf5oqiyFvk/VZWp92qZFA+MaTRwEs9yAL5RlesMhlK8p+0/BCCUzpMo0yaHve9rZ+rNnFcfrffRk1s8BZrQF9U+W2q5xpmZM4ZOvcuRLyZg9OsY2LOkNdnoEyYcopiTqaD32bKfHkRZ/+oPYQmV9VR8mTbBxZ1Q96mcpY7GWYBtSPh3H+8VVDL7ewtW/gxkB1o4mbqYP1ZBFwA8hubHj2JyGiOuXMUV4IVPN3MXskExOluBipJ6zIPuyYfiRkO/rI7brbhWVViyww5e0DnZNA9TkXJWqUUSurC+jQaaQuBM1kiHymbFDzushZVXpmsAUQqeke+lspZLasQ9Pq9aPTZnWl5CVRHcNXBmwoPKdYWS9C/bEuSul4Yqyj3RQ7UXFSUvaVbfGp/FCu0TTsTZ2H59S98kSA0ETUs/bB6Bvbxxr6IUqKF33jwfTLpsIg3A1MwZms9vibZzGtNDDkyrs6w/zE+o1cW1onFqkBf1S6qERzvYJcoRzxDnrCIvz6tARNOLa9DOGImxxbpUNT5XEsKvTQm2gR6Jr0rAv1lO1cjjFIRBxSY86A8YRVtqqmYIujmJT2wP9zbLzvSrlnEzfUU9kThVv0NlbckhAAJfINAIy7b5ELATGAOi2Ff2gCImL25fvtZXF/c1Xd2rpDyZLvvRkf0lBbCyLKpUzETN0puJyfTgvhuZkoGYv1O871RbnaBKRnD5Rm4aw21fe/x5MOBq5U2YwuJ/dSZBZbZpXyRBtHqTQpnWpHzUnmBKx2XTEDVxiTixrfBV70cXwsprVMD1ojPNWSdtPsyJj9ckQEEuTijJpTaPWZ4iqJ2jtaxWi+fXvUI9YL/kknfTfztygER4sgIhqgL56RYCINOn0nhzAM1LGWdyeOoqUhanDvLPt3fNsZ6WnyYsUbO6lPRcVKF5jv2lSfpWroodAOaemPYvPldZYCTeiFnFFKtACwZQI5XHs8VIO4HxvF554SWMPloZbL66+wPCqKVr+b6s6gyzEd/P6bIlSP68aOMX/xmxdlm+RPV3RbMfuDx/1FZEzWnyQmm1SmbshY6m6XeA4bsbOKmM4wX6XRmPAVI1RKWV4THtO02lpl5p3bN1TMbNUG6PpxwAUyxRFDzJ/xuIiNaTUYlW4wwI9rfaYkdikHiWrrMehRjhmQz9biS2C8j6SAkAA3t66LQjneB1qjKuT+FgWav06OCTPj9KjtQ50USLRwJJtscYmMNUS8wY4Y6V5lNwGzJutRA7/2+LbgEPBZM0aG0ruV6PmknbHV2sn18Z2sjKLprn8zKVLbVC5sfmQBmUHzyxnAtrhPrssCG/yf4bbqry+bJR+VFTiGMj8bbI0iYmqs/oW4hZ6KjrQgMaAQzbIrDRyj0ubA4kIp9r25fstKuRSjEsL+sHtmeL/CbTkFDJX6agm9LfTwzhYuprgaoBFwRrM+yLr5V41vOqifD34n2pCsHKJOTGY/ESRsFWkez2w7cjN1raASdfpUWmUEf9R8bqas5eieRx+S5Bwj04FpmiC8cQLP2gibbVDRWm6BnYX7nsKt9+lIiEO/fTkl/7yH4LPRSGuibwRVMf6lx8Vk7TNyCsOXTyr4lD83jJwowtJBT9AU47reT77RJPaIsDA5w3Ej+rmkC5HcWVLhLeT1KbtmySMkBeq1RqI4IEPla6DboShsN48IxS7oHnZmpeucVt7XtCrQPDVIJ4izEoNJw9/KV8EJ4AYWFpHzvN97o0mqZk4Mr+HggsJwUFJQYLoIXYo44GpzzHhTiWwcWl0P00kPUIbVbe0U5XCiR54uwQlcHsFy39y10f5suDnQeRwmO4YniXOTRuVwUeOvgGfAFNP3BInSZ8yXOjbPtDFNtqkqFA/MG03k1m2JxgIVbwRTPyWfCBTZsV81dLUJ9Cd9Td2OHgzQS2J2TbDE10Cyx8w4FF9YTDB1jj0ziVDnapXTnED/P7bmNjtzTBkeoUt07EDDi5C0KvvxG1NDekpkExso83B9FY3LDgZuezqHADJT5s8wNDaWk1F7q0xZ3U13tv1MI7xDgv0Twx4QFqipewLzkj9NRrGMyqESxtOlhwWHFgiYDnSbIsZ8sMSNwH5v1BHbnLD0o3RWHr/SlsvNerJXPJB+fgC6YAriJ/tWaks8DknkMVA0nYrW7ct8Ic7EqZ5GcgMh30rirmm7KiKcjVCv1KZqMkQhlbQv3z5MmnwQS92RXxugKwKX2bXMfNcfDDmhc80DVEeBPNznPDGWD6gfdYArfGqf6d4DHr2H924zDF1nNcv2XcA2VQ078xpWela7MI2+mn2UQc9MV+U7Av41uYsCsxu/n6kFXlMvGkEvJ9aCLUZBW+hkh9QR44e73a0xIO2F/ibS8v8iKc6DEjizaLJgNB5kP5icuoRnwBUHwRfNYpqLCaKsi3yvdVoX1Td1QZQl6Zzbgx35eWY/88vPJFM9yFgzO3S9eo+rK+QbI0EzwbN/pp/ye14SEcaqMmGVQQxZ1xOurW+yetDgUHldFX6qUtz8lDlinMBiLtXeNpWqYOmkoto6OuOE2uoe8dRk+gkWu6gZI2KBqBjTPZpkSF58LkkvHMyWDAvwQBgrJ2Rt8Z1zebepZy6t53m8TucjZoi/MQdCgA8QK0UXbRlWy2jvr0ptSw2wk0KAwIB3Wnds2ksZSJPfn/nU/AimVRwN19tiuSPfvLgK9luF9NAdFULoEdDEOQb+VaLQ3ailepBWpoEqV0Ne1ZxhP60rKe2tPlMq8KqTCMh3RnC97A8djT7S/N8W83VDZpUq0Ha3NX7qkcghdjx2VNdR/ZrZ/tBhwidJgNAgbuaUuakFETGYR12y1aL/IDPC5oyJXZg5umz6rAP6FcytQ0QE+XxgZDhZWEG3XQxWs6iiPPQRlrtypE+HStiWJfyDRL1ZGxi3+2S6lkJw4e7Wrsmmn47TkK/o4JOpB8fVCl/Pq8rHzOOUQ4xk4VljfC2JxS2fIqic5cxvk+xMSQKz13udKJl250mp8tTVHZdef8ddISE33kohiRBv5jSwUBB8NbMlb2EogAHwDgaIaQAGFKmcrK0ViizmZc78AAZ0MLcdlo5U4AcXCkzQhMzurXDYNZb986qj7u0aYHkFLdMByMl+mkjro2hf831Sps3TOAW+9cZrS8wERZc7HZZRv8fh3md5TJHd5UXcZZdlTS4hWRaGUeQi4D+zwRiOmuXaYojwNAEykzims0KFSd+R+eMEsvjvsaZdXUmei6+rJZvuBLWtumU9+62KOyTrtUTyuG12W8DPd2T3tGYJCdQiafPs3XkkSdg5LYMkKdcHA1diVB+dJWBjiYLS8dtEuFTuIFf7gJZlBkbvQAWwZzNlFD4EoEUnBdm9Sk8cv3lAx7rh0Ulv8uqxf+Laykcd4VlOEACXd0uxWZgOJqtGXNCCaD/hAHsl/JdG7hOszYD4jSycuOHtkMMLZB7dQx1Agx4AwiFbnJQYJhfAMNrJOSUduaDSeXVN80iY1arlwl+SbtR5r4hinzYrewW5KboRLG4JTS0gy6J/coirO7Y/hjuDL51nINiA8Fa4FkvJXXXe30+oQLi9c4h4b6pqS05DV2XqsZ3ODmmd6j+QASXLyGcp03fscBvrgvBqKKjZCbIWqr9R3wC3FymbTTQ/7llm4onNAYT5AoUvXWCwRBKas2nbe86J1CQW/vxIaXSrnqzPIa4eNB1LMkWbF7l4zrAubT6/Yb7EA+blZ0HD3lUCVfrFL4flWodisZgs2LIHKSorVhLr5COGSsRU+jTMHTlnL8ylNWi98U2JwGY36QuqO9vgpgJdGbjJdNcUBPyClF389zByFgzz9Jw8ZygvFechNPBqFssNlEwiGgUP7Rn1LJhh3l8mrBiDrRWTqEx3MgLR0NmAzJRm1CqC5wDpkYtz8TcaQb//4IlOAwQMLMa+knwzmpsu7avPV1Qg9mOUkyMF61JkkeJiU0SjOg46firYZMdGxEqi6R5omI8FtFo5OdwQzwa204j1iT1303GhFhzbWUL4yxMkgRztl2Au9x8G3bUpNGIUF2o8G8dIe/HaTNOyf/GnMLsFUe70gr1noIitNzynA1na29ORfSPGjuu8gVgGM7jhYDKXEtePuNFEFWoMXweOqSUQ/towxURyCWhom2ozhucoZ9sIgGpXdi54s9mShaWHfSOhcIhNIqRHRwqf+DYhN0RnHMg/Li3NK1GNyYb/if/O++5qLgmdGd7SrvUJkR/LKY51XUhMoK8Wmuqq6Iwp6FMulCup6aVbtlPG/loc6uvy82/87SSj9heycBQ5dGDKRo7kXiHdB0vYmLrTzOfyTKFJHdHxT7qwvUnyYVm8Sni+bFH3zDUOukilGFIdItKlVGGKBx5v/IYN6OjuRXQ3NA44G+QFsjiP/2xvlsowqwE4VfBjuLsSEpTnS6U8twQGfcnlEhuP7Sh2fYQMcyD1IFvgaK+az5SVOUzBlEiUd9jypUXxHQZAYEiT4k+u/D/P3UnvmVyHCVgRq+EwAxFEIy77BSn6PckiEt440CmCy+1C79qhzHQU6j6Zq8+HhKpc+5we3t2mDpaBz81wQYDv4xm6XBYWv17zwLh3GkcrHsqtSdjCSlVaQ/geI1fKNlAsCBw5jc9EdPVqbbGokCB0aN14/+L3tezZz9SZla5dcYTdKQ2bFp5chB5n2XWURNqSfbbQgfPYbBnWqRQY3kO+9ZwrO0Rpm7dnUKj6QpGch8luuYhWSbDmj/zp5V4POiGhQ59aUdORp3otItGHQMQwBDtnZ1CAf+ZQA7BTjozUwqYgGqK6jz31MaNGlX2YHRbU/EU2HyOucLoRBw8xvccJloL0pp3m5PrmS4L4zBOJ2Zm9imxklDTjrAZBxbErdCHgVUFskNgipEdAXgHEseSfNCLWk6RvfcLCry8q3t5Ar5ZJIv9l/OE14HnqP+SfKPMHKC9S523so6pAqeKl97j/qFNdFJgJ8rs+b1kUIvuHHla8hDOqnE07+qav8Fg7Tk+c7Mr/R6TOnlGtmG/RT5yK6q7pMAIWjre67fmsL89EXH9ud2QKpXQ5rjBimTsv6oT10KnRbBwSeSHhdinvXO7/b9OSyFqB998hxu2Y2DnOgi2QzcXmGOAsMmBuiTXO7Y3VYjghBC7kHArs23dqoYlu2LAckBPVyjGU9FBRj+NO6SL3Zunugso6hpWCGfWFxdpa0znCv9oZ1NWqt8SIqlebW2tjzjdVdL19i9ozERV3FML0LYQsnsj6aRbwp/n56TRf7IzYrjNkUjTYBU9/X/wEeJBZqCZOGQtSjim6lUB1fajbyGd1eGT004eR1maSNe/5CdmT0jRr57sJxxvwg9OAf6tWtOVQILvY4Z3tQiAek4tksD/NB+aKvYA751P6htWwJGQgS6kLIfc+UwsXTCCoDNYnWCiONQug5BKMXsia6ysw94gzxgi4TR8MEFzWL1mmn5QTaxXu9zOEob5eH+8VBt9C9u2YK6hvGAeQz9533+7kmp6eFrUExf3PQnUHAc5HWKGcKlJIXsEoJML976CwXs4IkeEUctcGoq/NLW7fwa/3cKVNEbExk2AZD3lGdimxlskwkX9ZEq7Ran6Ak0ejjuq5tcBvbHXKc61cmJVsaq8pgu5x9bA5G/K71af5e1lh924uilUZm/fMIa9HpRvruoJpfCK36F6HSzmiSxL3kBRjk/Z6Nl5RtVvF9evMRPvRLNnwDtyARVH/Nvaxgnz4rCh9LFtVQ7BVu1sLYyspghRNmxUtpWZ5zAYYcWrK9iTNf2Mxle3ysLhN3i/IpDL1vUkHbCOozImCpTJ8qN3RhH2oIka8Vq1IVgU8LykVmWd4nRiqXs7PPbhT4/9/9Ck308RqvzdU3PAsZYbW6PhFolPGymv7/sUqFqUHCXZ3nJZp2MBu/BwlzW4lR5u7WvlW+hiGsb+dQ9LrxrPoYko/G9g9rc9WvMg2uh0GSp1MTfc3ZcNkOySfbTVUpkGWfS2pF/88cIl/5LLgOzR4ggfj/dU651OQIs0SiHBqAVTpWWGGGJ5WNUJaBRGIyPnGolImS6iATU24TKiQcp/KfXgDS6p6qv0NjBiHlAtEyP114TTdClnEDLbD30DH7ahm5Fzd6osD1wxKPcpbpPFxJ0MBsQMhXLxJD1Zfx5SvVEHY83GVDKRLwIPGNf84LZjfzrGDGyZNU5OJMuK/2zEzpawqGuqSC3mDv1qzQnNX08lhF4ykQv0jrUFs8vHjm55SiG0QdgpVuiDYiLg+da2qaQD6N1hcye6dd/YCwMT+JwrWYW32E3BEFgYgAQ2pGOvdTTPxafwT5ZuRSoOMk2nOqtF1wM8TZvnoVMkPaPriOMO5sDB1j50tiG9ckeUiu2vaOoEktzT2nmdvnw3DPXRM0MsxK4wVGgzKB2sQfmFsP7gk699WDsNOgNsi/uZT4hB8iFsUsXhJWmGlytd1uzQ4FkgygUyzVSbss0nx9sgW19HJRMrzhVuHPANsrCB0lIO798xJvnfH2tPqM3EAHcTkLIbhU7taEr0fCwPLU0V84crLuY7W/lMSijbomoY1h3dMfVs910kU2L2lRjA2TcBsTjnogFbKrj3TlSM1ZcwDivWuz77vHj5p+tZ5TQUZE2CnNtLvI7Ut7cRy350AwnraX/iPNxkeuuV7RYt5YNEdSkwSL0nGahytEdYYq3v6Qt2HnB+ovmRhn97bJ2qdCf47xGRT3EKcrQmOQcnz5lkqHEDXu6oKCRBwKYAT5EqudZ16Ey9TwKcmGdRWPHHAGPXlAsgzf8DO6E8HIjeWJOFAnTT64ZfjFOfsAvgECV/D+9HSypq/C7yGr+9D00ybYBx2UdKYken8Pf7vU2JrOpwBgKF/ieajjdMjGqPtzMjvVdOZ6yBY5kP1Oqeg6W2odh0+1eRYNZJsB5EuqkWq0Bh2OyZxSOMJXoxPwM1lvdUqswyK08b5zlBwwOSH+/QcX6lmgg1Pq4WXoSZYlWPzJqEEv++e2HKl3YDj5fsCe0LyTodinZBezpF8czlRPdfY8T0+L/bcKuDS4YGsAOmRfCXTy3AmHt/x3fo3Kr7HhCjrvq+6szgGq+dTrWXquW7BPsCXcsg1rl+W7vmUZNwJs0n2ZDWN6JwmIbQ1fvzGJQa39WNR1MlvkDt8Mr+p+QqM/hmDpEwGSaFpQttfLqWlVyAd28DhNCofz4YuqUxT/90TNL5j1c+ZbZU1km2iUMAP1jYbfgjFnhXWz3Pe9QQZYKq8MI6nVpKjfaR5/+q78rqFdwiNApgHkYRvaOLVBuXUu/d0HewZbcXkHxvG0hsCv4tokPBu9YHQJEkCpUBQWEbHfvBLfwlGp2PKXh8T7iNFv0VZjX05920FcN0/8E2z/lnoYIQrdDM93VjFg/8V9WwOL0zcynVyxZhqqEpnU8KYdnDTfDnQ+0RngGHI0rQP1rL6sOv4mObX8Qtp/hiCEXYAVZRKg1bNssref7hwaE+Oy1/8rlM2nlezAmAGeLIfxx0lopgzYvnu95vTRTCnBI891IqU0RU24+bUqmylEAJ/Fq+Rjw6xKw4LetjOd3JN3G1AGhi7WbVnejXHaPzu031XpHA/ccpEfFNLtpHHQPH0aaK0cPHFXQdaa0ROXncoE77XDL3+u+/jv8DnRC/up8dHFY5ZPAoAUPAk3I8XKgfq9KEbDPMUEk2H5QAxdXDMHBvDyG6hvNOPRwi0ZkcW356iMmJY/Rsm3zXzFmmNZtZZ+MR7+z5gGrD7C6FVIk6vqfaYoESqeV+K+gASWO1LNKzZf0cFSp9NOiPeVIaLihA06dEdOReTd5CtSGm/xbsbT1fQByBvUVLkTo7JOKmDxbRLVwls1AkTHnuFQE5nIvlNNMmu1Pr4+WTnCmpuPtQACrrGjPp2exa45CAdQHPQr6dOrHxuQMzS2ZJT1N9DDHtEVBUyZTokOJOBiZFx6r5X8ti+U4gH/qSkjnovYRtDxeEmKtO3dykzwlAcqu6vUy9lV08AO7gXXr6r3/QCRHaTaGh3uRzpoLmTNFmbEFBfurMI+LnppfMHcIhC2M09YewMERPUGJzsil2AH7+aa7Nyzm+LoipIHF/9o/ZCEsCrXr1oS8OMeqXtAQC7wTNW1iFakISBnnQVdSLbRAUopFxYPsEdSsnL1Mh6TUiRsswKctE1/1Zj8Zz3oKHiQ8P/s+uNKLT5VXcqGPxE4f+r1whu5AKPbK+Si2EiaHiH3+fb6YSanLCcvJQdyTM/TcjDdVY917+qrUNh6ucFPmOXHA9k32VysAlMXzhPiUQZoM8pNg5BLq11qhK9NaoqlZBTLSADNHOG27xaHHLvHgwL0JDhGwM8IC1MAEnyV+nXYY+qt4EwHWBDMF4XVJNPxDqhdF1weN7cO5jnZfnQSiRl/yq+NT6Xm2M7oV44gNCPlcCha+ka23abo+mBucTX7OBnYBUNxOU8jHAHtCCqgfzKg3p3ixZdOx7gOE3IgtYe5B/q19kzhONl6S4qwn/2Za1+GjJVRKIbq+dj9fFl9YHU6tGzLe8HCrCjqad1tf9XIDO/L7Oxwe1SzAA2ASPe6eVovRGGfwvmLXaMZjJQh49PriIdy3jR8HB9WKHlnPzywBi5xFXiGqXEZHwb37IlWG12EfBtb6LdYk9hKhO9FQbQfLqywENFO/JQfzyq8YJXLrjgUnLaMdGVmnV9ok57VCnHNavCEBDXzB8EzT7FkDhbud5k+xBzbXHMKGsoT+1bdcuE3/cwwgNs5QW4eLbxK7CTMkXcycGGiQWCtE2Oz7cuDJSnPckSMYzt0LGm+G7WKDoDD3MMoaoHygVwN32kgSM0/qFWHhxZY3fReBDBOVQQzoTQrrYH8JFsC+nU3NA8AS7ty/VDq0YbTKKAJUPZdyfeL5HM3D7Sm9T//VX0BecQGaKXDboqpuzkrcVGPPrh3MCjjdD7DQ8duHqLFoNcnZRd8mgf0fbrFMfPkh3rSe97EgQIfN+4kMui25naM6fuFCEujfqJp9Zmvfxx87eFN77gNTZGbcjkfNIJAkvBO8ULwegBIiywwCVxwY8TkCxrQjn7mKaX96JJkxQXn4RIUOjFhpUQ5ZsqTZPwAqw+c7eQvftfHCh1PH6qvYe6eexIqUK/M1/Esk9sQwVEKjs/5uwPI9UFAEFJKFDB+sTAxh1aFXhT8D0XeQ+RaLd/BgDhlSKFIJPVSpXddczg8vL3aWIfaKs56ZGi+cCr02GbCnILk4H/DWsOvTffHDF6LUs4ecAjJqtcQnBs0HnI4qqolyRZa1m1fYNNRkAfzu2pTEE2oMJumM9P6wU9uriauxpn7y4nxeSKO12sUlSOgSAVQKm8L1VYpOnrd9ySkU3TUfwVWiEiZNzvgXBlk3RpZU+2JBHFES4RvMVJJv6+IkD8bD2jDfVvaeqVF8L6d9dgTBM/xD2DSnCpjzHpSoS06K7k4i3mGxA261Q9Rh/AiRTarJL1EbMEJ9eiYzovrug15Ttyd97NDpvLVkhGmJlZhRFr25Oz1sLQ42LCBCScObj9LHgR6DQQIWFtWU/5211k38DqjiuLqe8zKdIiKBZKYW7rLSSSVt7o66UxuJrH3eYTY0E94FsLnbfYEwkjKmXXqJ4pBjSOm2sZE2OO+kcd0zBTBeKqFeFC6TxGKFWSFRLHJXKHN+qQXSsSgd+KFVYZXtg/Du/HtW2UW1UxmdBC9tz95TfFtw23p3V0JRMtD2pbQzUxPudScU+Ua2qk81pnyGxsKNfD76WVHYzETw1B7eU6hi11x8fqfxoPLKNPh2yuTIAz9SXZdLP7m29XTjkeO52b2Dr95NF3eOMiYSBS0HQ62lGY2UcfIYczjnCNl+kp01OeBVU37AbzIQyttDileGe+xNq7QlYvGavgs1dppDauNoOEBEkqLrw9fBfm22ROjEsrqaoyziFqNSZ3VV6UCioOhWvUffnKkM4Tbs8UX+3Su2BcDTRvwcA22tUNge8GZTyXf5dfmncsL1tPttUi6zJwfWRXnzF1kbq5afhvmjbb2ZbMLRgr5926Ke1eJIjJ4CpcHGNlAx0nIRXTdsQwAuRGZ3jfMv3Q49Tzw+2BTss2go3kMFf0V//a/5D83XhiDd9RufYo6EyboLLzbJrIm1QH0VHwLgrutvUk3rSZ4U/4ula0FJLhPsZrze1K6DDLGj5Fmb/tpRNOWCyiqr7jEw1hlaqWBC7enJPhrzqsijI1B6JN9qpWVjUfRWlZ3H1nOYQRsmUG4e/e9hT/uL2o9/eYzPlwkGqav19UL408f2IROsv3CDv2MGoFHdOXmhvl40nP/vePwuW1TRpUJME3FDu2iDAhjB6u80hA1nrbIkuavbstPIv3tFs7/D9Ub+CR3vpZcfBLhnlOXviPpuTix/J5NEC7TQwRp4wKakNc0xE1q6bUfKQ36SnKYopE30/0UOyDaCDKDOGPwRWdxxBVScJNRU5FdIwjyQtpaDema3hg86s014/6ux+gY+l2wUu7bCtbNXRVTwWVbXjP7CT1nyfxOLsFFeV4VbLdZB5VUaRV1mg34Gju/4WHa30EEy+AOwkqTX5yFFkPi1bqFMUlGyBFsTFRVhkoRxik+XaWhSWUenbB8RS8Ed+Ut5lhCpUz+2Dm2MAKxUqtmvjbJyVAO5vG1tjd2leIQJTU0qGoYBAjjZkWd2qYbekPP/0GMqeKIwRjs4iye0MjJKqHx0ZLWih+lzQbVshhvQSd1/TR52ieGz/cojq5wcwC61ZB8sp6s0xhGjREDW5Wx6Te7rW23xPhGP8SRbc3VStbXWFdZG3o7Rw89EUDmltgPkpHq1Z7M2XH5dgvnJyzZvf5fkAYYYWLlmmcsUUQiwXmLxeGSW39Xl9e0aeJ5nKcd2zeo3EnMeHKslhdxytgCG+VqSy0pJtfiu7tGjnZvsE+ge/dFEUwMa+kM548VDsfgEYtAv145fOIEKgm85FoXdUguBll5XvUWoMVrHM9XSNmg+jDmWsFlPXmrILbvfa8B0LKtrK5J0ID1DHjVeFh1BhDwnWFyIBdc3wWy0shrxordr9PzbtSymDBiBayXEsLAgez7S71QpHQAO+EwIYpOzoKN1kZjy45jfI0KCOgBfsFaL9NVmLX437SD7WsSbObOFVZTMoRKYKKa6fZeepBUVd1UzH8+I4EuW0X8EtRKRHGeT67ZkJrcwis+ZObf7xc4RrCHsAVaCYlMQrlLZMx97EspKdJKOUW27uPVHxWtByJxtSajayKTN9epsCgEYLenxXLhpnVk9nd4BO7jGnu3hRibOcHDcKWYaPSFjdPuBUXvKFjDZ4Tqv+0sEi05ZOLk0wc8VSUDXgAVPfSZ63Nq/0oZTpGH7UsPNp5NMfc/CAGPXNKJt9XQ6AFqCC/p3qxB97t5pnwGHrn7seRFlhFDtpnymn8dTeX5kvUyYnDVQ6knSsnmjPputIJjGVAXx8r6V72hJts3ed353dcgBaplIAf1OhmLv17B7j+AVZ2ewKqH5VWY1Lpy52oKLSZUHCiGK+PKH92CooKeK+h+9ezZqY5jAAjOwC5Xna9bVUZ7wxfuo3VuN30GAGGS/wFxPlVJ89bkY1D1PZMYQcLfDOOgcQQDd/1NuQd2bkedPpinKdjaDH7tU9hkrhrRYa5x7sDlnjt6vYV9LDAma3DUpTDhTZ617a+JlJLs3JmjTDnJ7WxIPX1wCUbIqn9NgzyvFfijBOyTS+4qJDBgghrbfw61dMWTFhdaiAf8THnndNAdrEc7Nos4z+AwjclcaK51CzkRI9ILIEuzpvRqNOInhLxbzLB9bIfA0/Cq3MzH0LIBAiwwuYzqgqSg3CJHWaUH8/Iq7yJk67yzmEkLGyHgf90Gnt0jr1qNXwmHIdRdjXiZGbxVX3kjXvDSosghNfP+lkTHPXnqqdBWpQbvwEW/qtmZ4ilNSyeq7Mka+Fff1BiWpYMpbn0PtdCnOY3b2hmSxiBnEV+v/cpBEyUXT0aMYw6DOoYrbOaAcDLDcj5MwEAwhJJ+X3H9lUD7jJajoMh2tZt1OznjTPwli7QvycgmDZ29VC5ohRfMSEgCJ0REn3AFh82c2JBwRLecxOq8YlMWg464ho3wEdlOz54J/ryaEN/u/0MuRocfccn7gAc6r19ysP8A2JNPKoIT0vzvrx3NqPDZX9SqFcA9QKRUEzKX/1X8BNM7LjgryVn0fUKD6LZdG5Q874NnQLIXqQci3jz5dsAyj60AYPULesOAi5Zdra5gvC2zVCUOonQOiFNrhW10kMlM2qY/oUa8ec3LduHq50K+/ym6WUwwwS3H4LhpfKTG/5IYkyyxTawPphf89XmFcWehXai0mSNZXKHm4LIWqDX7CQnFnIPV/1z71M/1XwRb7iRr32TvckvrS+zuIiKJwbtinfQciZVrRupZ8utIaeXYvdserDb1SkuXrkMpMyatcTkK++iXFWpZxxWDwlPUczGIrJ9sHJMo12zl4grPMia4KC3AwG41URFppZb8OKWGUVq1ChVnR6VVc7Jzh0Va1muZGCIm0QwN5xHRURPSLMGmoyKci1wdq71QuGpnqw5T23h7nH2qfZp7XBNKQfNHfPSu2stSRK2xnOQYIlm6n9EIyczRdsrUWjrEJABCrI8Z6A5Mlb2HweusoXZN0Mh1fKLyZp6nuRzA4tJoBN8+ZqtfYyuNn2KYIo0yLufXE33Xzu9SrpL3nuWrzW98Og4Xww3VKKSh2TJ1pwrwTZVA3xIFb4wWQKbz5QIf02EqfLOKTsiTodUf7jEmMSTw19wqiuAH0+7Jh0rKNtgLro7JdiHMiYBtu7A4KUpkfBQK6Isdy8qkgjkfxTi2/n+HUOnFRmMFe7IEbmuKG2ngi7Ls1rUzcTtmlnD91YMBZyuidQwfutSVRcB2lVL1ibtZxQXVsonHwLniq2rFRmjaTDWm/G3KQa+5Dpfjg/WXybmWoY5sseaTPKYFqQ+SEZXJ8GZhzx9QqLTD23W+CUageGc+b7fBvnHcGTPv2WyqMZlktLvXvnySn95ZDGLjTy33YjvrXXWdJpc5lRZM+1L+9boNEsz9UvIjhiqnV7Qj9KB6ecbPGERLFLhsVLLCLrT1hff7FzfT3tTLLU7iQ0Bakl3YyU8G6O/Qpu7wV7YuVAFEZaSTF54fCZ4dyAxysJ3CWyy6lAHSlAuItUGeSyvTNTs6k3Ck63lLuOzIhArJCN1725YA4abFu5s0xYJhXNfux3y25Yu/UiGfRKg6Hw0sS6AxO+K1Vp2pWtLLQe91yUtLxTdqnjlA+LgqQFoikiu6lr6OKNjBklvzsRrpRzQk8Mbj9Mv6F0Wvy4k1MBn7IQjsM7ciNWpRLSL5Nll7defgbdi99n5cqU8jCvU4F17p1Po61oN8qhuIboqWEBh0lmhFzHGmsstNLoAsDlGD/r9/tJO7SfjcGUFW+9HAqV454oVYl0UAK/zIMkaugM9GHRuG7TJHwVbLGF9qytQyCBi4xwO0tsqd7PaFdMQcD65YdfMOfqm5d20nPIvp67CROUFS35couaQ4t1/ZRVCF8gjqUp/zknJn38dQ6/6OKxfb/4H/WhU49Y7LZKiDTHd22dvy6euJ2/+st0t0T2UfT9HleB3acRG/niDzytByQddMdvdKtlL03X10UVGbrfMUmrC/oXMziB/XiLwYpFobAtkZZeEYgmpsANHAdgsGUNTKUA7ih30a2wc/56x12V/qcxUuWvyYcg0av2s6XPZhehG8b9VvBPDtJFXUqCHEq2aV+RfbWjKbcuXqpK3cbi0gRfk68Hu92zlxeL7YbXmR+x7frRAJizuvkl9SbGtYxlyDNHsrClB61/MMVoJl8XcSLblvUJSyozJOZ4xcszR5fZMIk/cLmjUNzTIhLsMVMdJymhHa2v2lBMBl/Jx/LbxYurk+rTqbwcthwl2+bcrH+ecP6NeStd+hDWiZaufP3yquiQePz6VowurxDd71cxig0zI4yu8E2zA6/bU0AoANvZtY8c+PEDWHkaVVNDbkOUrPLbGwRumnG0+Dn7lSL1eEdJgUlzUENfUeFPc0WUq1dB+9CSntnK/+KuVGbI8Sk9XYe9go4lAXPZLb9TzL9wDZuQRDmrOV86USMao1mYa3FH6w0RsEZpKpEmfSw4H/HpL7alqmbK55lqJ2q7o5pCiV1g4XWMrdh6W7VzB9MbLuRDHYS8prWL5Vt1dgtLnal7gXc03iSryroIqNZiZZhBlVriHtf8416zw0iPTiXz7FWsgyS4cXI6glENe0BfVST888U2BQ3C008kbVS6r/pxKtLFaEociIT8wT97U+jCKzX0Q5YRHKZEZvqrqj8lGC5k3f5k50gTV1fjwDtGxMO2CAiH3L01BVsUkzJjXHS4z8nrf8EgCUZAMZ+4tqQFwZmspFq06T2xsoIQZlnTpLwl662JJEgZy8YmYTi09jqV9jsWbanO9wEF3lWKAEEuxpG0/muz2sazo2l5PqGMJGkoRa36j72sRh4tO4AIXASe50MAmAClI3kOrvmtdF5Ywgcs94w4Do8UF8Sf2fQ+4ZOloALg/c4zWnnIqtzUtXWE8vgUema+5Kdye6R63rY9929kri152AvN/+yg11jYY5UJz0GebA8laBpAm1kXcHAp6HH4ljzwEtWsJuSHzzIJwvgm463plCfPyfBuQDiMccwGxNkkYhZ95+v2zDfgHsfAk4//R7SOuDJJSNoPE7zue/BtOs+KKbaZ0lPmVrvGJzSaXMfSjkR+3JMDBJG5GPIKeU6jkzuyXqfPcNyiVH7XJ/iB99R0fYhZ+exRU1sKvG5JqLs8dwUwL0jo4+jCT6bIlPDDw9SMEsQauAWY6sVT5nUyjItG9nK895ehH+Mqg/6P4dgVe7aYm+vNxTcicsM/GhwtsEu1jCxS99srLyssWP45R8VGyRo/ChGkUGrjd1RUmsmrw3fRLguNmoXlFaki6MwePPuofltBMjK0/I9tuR4VgjJAmERdA85cEdcheYaDGCECWGFCtoRqGuctslt1ZH2sQJSgFHL8E2NalPjvY6afRQ77rFBcVTW7CjNz74OIZ7wYxJg80RotUWfER3Ow4zLYrzdMIaEEqx+KZBratobLr0YFNvuiFmRTqrQ4PPsANB1kfT8o6QpblCkdAhRLHzG5MVnjoJVQEkz1dcf+pxQ8LsIsxGi1dKz27t1lvQzEgI2xJvGei24h7Pk2m0s6FwYIRgzNg0ZY+M4sg8WdjZ2Xu07CYHkuzY/ixqBurS9mK3vsDWjw/WtjYjhE77ezOXy8olPnoyqCdKma3nqSc/32Dz2L97BfwTdC/50UDkDkRhXQxhhtMvBJTe22OEO7biM4WSlmKVI+OpXRLLo8GjilYLXKM0ab/np0sVt5K83xyj1FAmljp8wK5X1tFL88DGuxZLOuZrEH0/ZWKc0mxQBwUP8mqvUUBT+qhlOG2cvxXfcHBEgh9GQIRA6s6R7DY9UUExuuOiUFtMf9E6bLKjUXN+8MzUtxN29H5yviI5mappVZhoEnTuMZfefCZ3DlEsCedHDc2pPhx52DfePprUoZCeb/LWBwJmB1fm630f4YeMw9Texd6Qf7RlRVGqUQ7wE0ww6mO4xfjBHkVpvkw/gCtEQM54oiqjhq49CWL+enqLU9JxkMyu4e73X9GzUPYIkfo9LwnBqWu6eRvHqe5H6/WG/OIcenHoitBWeoibcVzcpkW8VxYz/hHAoIxdMKwqHlIcf3KNcNOGQbtC4r60su5zBsQdbV/GHAdXmgy9Ay9DphPnjf3rD16372fY2SxBoPDitd7/tYjMQk7yVFbJSNl8KoKYCrgTK0HDrd2oSr3/MCKexCJBo2uvH6yOrNmhxJ79w0JlMnBXtq+HfUjJrXcX0F5PBnM0gMh24L/AUuSwMk9gGkQyNSpT1tnRj3boS3h/eERgdehflq+8zhJrsB9nG4FrXLjO5g8wRG6p2Awy4shfPS6R8n/rs/QsbWgKjAWeQoQwzIepYDXvTSaMWsubHDK1BhIejrDlFYWR6XZReRGgOOLgjLvi0G6SnYrQJ3bciUp6dsAU+RnqJY4BhVmM+6NtekkU2qTMzqwneVVr1u+//ats6VFv484J0Vs2kHt9CQBs/qk1rmvYgbIypjGtrB3XjbILCxW1iA3JKeVVxIt2yziNCr8K8QVmYjd+jkej2H0eAzBt/SO4Qu4BzJ0aFA/oy9aW223IsBCSiWprKF+M4CH2KNMvX/XeSN5OXJ0UtWge2JTllE7W7PrLod0mbGnK9/XpFUbhk4uy6HoDOwuxjsBr2XEPTsI/Dp1H/xtcLyHjBS9C5dIZUr6I7pCeJRF+5CcBV02T4cAvXPwLg7FvB+pkaTckSiBV3y2TfwGYhH7TscpwiG9jsGV3d6BI+Cmm8pseI30mx5wpxJr4ckZJ5/V3NuaRB7eTHPZipKEzpk2gJc5VOpbQ1X3GGdsMi2ZWawsW4eVs0UGOZghR40gzknHqpaFMwpwdDi3nncF+xFQLpljc7wB3XLxmFvajElIR4LThEthwk7vD68N595UHcSwMdyzoBX6WgxCKsDHDOzeDbnHbfFgpFB9CuviuUoV7ACREeBM40sak5h+aUV+VMktI2ZySKTB9CgMUpAVQob+5233csIpvYSwZMq9+7iN/gEggo7YM/ay0ZsV3U9QdeX/sdTMm57DJa+BpcvYEcAYVOUYsvAz+YdIGv5/E1WMBgbBE059oMohqfjfcXZGxnkvDGj38bbCUd8UoEC2etrvH2EvAqza6SKcTB7pOR6ecPt27HIDr35sxsB0rEE6IxL5iHBjNeNxSO9yMQyGWdUQkpTHIh0T+nx9Blvj3MWZsCAIrfDQ41OsU1scwwGRBt/1WVPjuEYZ5NFVFBCcdP75HerxdVH99d548l38Z4JJ607owmNrzjK6/JeHuCGvoziRsn0tc3E7XpAk5cdszQ36R7QnlPJw2i5YUY6KRmwrRwkos8AMOZ5XSO42XUiyhb3HXdpEP2eqRAazFNPtcTON7MMYXkMjEOsuJwytkT9c+yKGkciGukzDCLqp/xHEfWY3wL8M0tyn64Hy9gkN5merZ5H8L3jOunbhpYhkPn5igRl9aXSjCObY5gX91OjHn2/GKzBiXQ5tjTA+ztSHfuv4zSb/hs5MkuzLM7fVrLPieJlToDvnHnvnbi+mRPiUCzFpCz4lnyaAuj37p44kkGv6pj22/mMbe+2DIZ54jXGO0h0aEC3mBmegHrihb7jGyqfZZCCtjivimWBLwsTliZ2F+FXZ7GtPEavEmqlze/gwGycwoeF9Q/3OYF0awa8ptMv6BOiupHCunVZpgrGKdLOCnP3L5QOuVf6xDnq9KdeldPj/LQU/3CemKAKDUgRZXQGrxXppmnIBByMp4ha7FcwIzb8/R6ycFUMi9JNM++7FJ/EdyEb1GQkiRoI4X4R0Sqe79V02XsEvvgP7CetQugmqIk3NO2tSuSy/MdnSEVtAVx56sF72gc1Whgk6gaoI8vYamlr8O92DJeiAIeUtQEasqO9B36Hv0DpScV+b45ZH2RwlbAaW86oO2XnDBjzM0Kk2WO3he+zFGsoqzMIAGhUc3YdkvzUVc81tiKTk5hLbaJZeEs+5aYSFkJi7q38c2EdB6GC0tJ7e03ZrSmWFky6ivMNMUg3V/kc9szrwqH1y3Vg2xkncFvU0T3QORSy/ATFggzVAHrs3FaxZyKvLuuLG0c9ao0nHbgEzryc8iAmCcMCbuNIC4txaB9IDPNNEqVFdZaB7pEbyg0pnYfLchjjq1Znx6rb59dw694ImMoV4WQDU2PgxEr1+374+j2iIb0L0aGXiG2CmRreVPTRZ3wo0AAwqOfTnvX3LGAhL+9H1agzHMNYTdytF65rXwao53mGqZkv/fUUY1HkLgZ7VOWydflOmeoupwdCb07Q033wyxOObXzAYsJ+LZvqsEWvha6dZ2vTqqBqWeTTEDVi3Le0SkUspSILay2L6DBOD60FoJUQTe9WHXTNdJMofUCTVc1JfbpK+CO4WXSv4zsLbsti9Gjxhv5OAhDT51oGiETCFH7jt2AoVTbHwIn5wv97XM8BD42aKk4fi9smZanzV7RrkguFW9MVeH6OJjDUWQfTV88GKeIvz5VKLIwAbI0Z9iBUqS6MS2sCfjkxjwUbk5DO0IK+w3zEh2OwFXvITbe0JCOUb/637ZNF2A0MQK3vXRz6aKDNSL9kfc8oXF8d2XeIFnPt+Y9i0fJ5Cg6FkBQXjqNi/HgQijNw1krLt9n7cr/AZbSz4MNelQuSY3wdnK3FwBmkzSeJHMPhRKy4ForLyHf8xb/j754O3D+mm+Wi6VBKPdb54Oi7w3GRzC0egW7VhbvPFHIbxLYh5yEeVlEphsjCQ402WZCfOl+L4zqXBNK8MLXDX7xLvILorRNTtVCTgq+A8xgFAfvljwLem3vDJMS+Xsiirj5a7QOQg36oGmBKWOvcTm3tg+IOWUnXcVAIR7qBAF295cqazPB6gsgaeHd3/mPP2AFG4+JgAUBDzmhHOfooxrSFHI0X750iJzWPxKQu6RCwcCg57SGYnlGaRfr0rk/8z1/pbKoJQzSqN1l9S517u9NXrLuKU9ikZO6dzUyLPcQVe3j8oApr1bCyoYIVh3A5cSBZJXnk9/iRqZyauu6OKM9FHpDMsR+UT3Skt74u5hDY8efaIK9+Ot6Vq1G60H2bDZfYEE3x3rpIOPfJ2TAyu9IXu6FORJoZK9/Tt/2tjKmcu5R/tEbvdmkH25xcf1aXBcHtwbVOpnCQeHMQgPeix+LDCaTGkyO/4uHOurPP9GL1nDJMSxSDaSs8aF6HrT9XkmRx7Vr80qLrwe7BaDLM0iJzvtq7AHxpQQGhqhJNacRXQ0seyf6j+oatTAmMU0Vfae9dzkFFudjxwyNnTRoEU9FIZ37fFvTx4jc/hIuPrO+3+L+DGqIAtq56IvM3UWcyat7VkeNh36v0ui1lytehYl94df8I6McP+OafDfmqsYyWKovgID4hRf5HYVdFydIJgm0755tufvVLzufW3wRc93Vd/O8MrxPobKvBwQSd5gl02zlM6sfrC5LTGTVzDBvuscs/nuEcaM32CiICZSQzasNBOWssmPS0sljx6tLS0HL6rAEa17WAIbRwHasLIkOyqf2Gf7Qp3NWQQ5TajYLyJKPumCM15HQ5G9GDagq01Qfg7Nl/zVMXqTcXhuFRQG9ozcL50SAfZm9iMLETeFiZs4qGvKReXd+kaFh1XNWEVF+fNNUQMRe4UNRhQBOpgyksRcWd+8QZu3UyB7DTVTvQbjnmu3CQ35U7B1YAORFfO2OinN5DfcWVIp5paWCmZ7QByorkmbxQVayA9RU7u9bq+78w+iYh30QLJgggo8Im4/rRVr04ziUJGB8CQJbk4C7xWwK12XnONWlaEDh6SYhN0xiU1kMoD1DqhbG0SDQSk4zgpNE5KA55FU42fCNgAcfDf9J1eNsfErwXmMytFWSOyiGmqevVJNq3JXmToICHzJZXmU8F+pON1GBwthrH4vkdojlEFkS364B4V88JuHVVt22p18tBqM0rFxw8suJTHfJOS3Q7QX4ubvKI6FehTQJrU2UAhq98Bq25UhNU5f2IOYlutYXZeJ0OA2uCdJZVfLM5SvArQsbKAr3oyjrmjpFIbEfPm1z3H/JapRZRD0avG4YzccHWcqsYI3q7cQfcHwSPdHTRfLyFI54x1Hac2lTDPUQ5045oBrtlb6l9BoAwUsxwOViSOnF3RqDx+qspT6XjevPADpigkaU8FtTiGYY2kxTfHTLGmciT4oIi65Qf82cH8NjeRwqoW7FmLMZbuMXozMEUrWlm4KfCLZ0mukWahv/MLXqu0zMvSq4UG1YomqUv0e+tTHQRBGOSF6Ceq/xAeV83p+BR5fgLb6mHBcGF0p/X+yaiAdJ3onziGIMalf0Ud7/wEaYXwYM2CIXeOqvJVAzo62RoAoGqMs0S9EcgPj0uvhVOCLhmgGd/ke0jW1XTnPRuh5bcpuZQTWTa/w3CcYuUz2xQREQflX9Zfna1NtUu0cUvqy1+6JLvbPieJ7K1bezaaSqJRyjjacnc1YBWMg2rVQ1qO+Mq1AMy2gJ47VHpSh20WI7zIdBtmV5v4KFdoVZ59Wjm+9Sh+E7Lj/6BySCQD9mhKw6UBuGBBkJ8Ecfg4ZIBm+CFPp/mAcaijFcSWrhYMz4NcMcCOqR1/uwSyhiDPnlDJ2cO1MZkeBBL3QiGS51dy+5yFzFRQhI/NGLn3K/1Kzr1gohOakRtH7iGjt1KxCW9o6EahsOF1C5Ipm+/PAVec/iOBiEi5sR6m5VqFkjalzqIUN9Jc4jyEtl4ic+SiokEbuZbQEG6ek66ueEP+Pff88nR5fBcTtOoyOhX20VrytEw/8sBLI1dHfaDJoApdDTpM9fVgfjJ6hP6AV7gop/Yayw81NO6Dga9Y6zkKJMlG2Fnt+g9R5H2rDi7FKTwD/fTUvpDTAxyg/qOLBBNjcA34dRaYduscVIBSNJHCuOY0RbdSil9QGO1vpKr0xVOmAZDEF1kYnPj4J92Kv9L/kP9OOv8QQ1wN9r+5sUNkZr/wOhG3pSk0t/qKT1KBs4pdWlpP8AjcG1QJaF5hRXsbvBmH9cd25WyphbWg7xcZdHclYTUyeXNcngnzv7c5FRnC82z5XZN3MWvXaYVGyxgaJnRzI0sBA5iR9kKD1WAJcYbuPQNs2PLECO58MqrA2IGsgvpCQBdM1t3KnSpXgwu5nHNGLYXeNbmQfOyk6iR6felsj+C8wJlSsfDpMHOea+xK6XPMFpTotGmuOkSR5AZBUuKAsb9FsNtX1AGRZSkJDI38ZouODy7LecWi3s2t1FTnCcfuW+qww31/IC0zddZnRSM8qHhkuBZ+D9QMUL1t5MvbO9g1+51uk7KEnDsUfdYkAf8F1BS5NfIPfdx5BhkwsSVaHJdWkxpqZIbBYfUQkAlBVbv/HX96UIAVY64UyWwwKpF4sTtEXCxVvsj38EIgfygjghbj2yhwLQ0V18PbIDQtoBsdvY1sdt40R0YgOCrZKN8cqp+hZPTNJJc9w1ivow6jpY9EPFy9P389bpGlrJjjVaYb/McsrDxhyB1H/Kbh31j+Xro294ysG+kC7vbX7tbaWMp3xQR9MRTMw/dNA0lodMcdRdy7NA3ZVKTJIxMmgW1UrSNLXYuTy7jITe8pAY18GtdANha1HTCqetDjyw00SrjWIlJ/6POif1wXZFY8dQadpy8ujB4FGcqy0qoGo9L8L+2se7lgX+aA78424RbfTYV5b7+QPnCZNh4ZLIyDS9iOY4BzW0pnoUZE89QLHj4j5ddGhAhob8HTrLGdBSOe4dBUYg6/r5DQN5/8gX0OAPh0K82Pt0flG4Fg2iIe9JTKJn7D1EoPkJx8x0y4nFSjWZCRTb9rkJA66PUMDKTBuqJFVgr95lrFFsvipVzJmzicWbdWz/wusKlrZBvS051b4r1DdrIaB0RSOmvo9GPDaqaybP2mny8fnXkuZ8feXxf+7DAl/aNJAtvcd/roq5m9Mf+nbQQKvZOlvpirfDgcSRKihjOglumFSFoKfS+Mc5PrsUFra7RqoSPvh6g7SPJ5fJlLmqK/qXsEmQJpzblTQlHARrmSy5WgP6G635g9r5zv5Pf6MgDbA267s/ZS82qYG+5E8j7JedFhnst/oZOGPP5l2HzDMJQq4z2GhbIcAoR9zqp6VwM3K48IKCTfrewJkgrEL3L2K3J52czQ/m5clBI07RJJK3QnpXugVwc7+Yla7n6TlEP2Nv0L6wGoOIBoD3jTddrmyTe/MUX86zNWBAoBj4ET4XLYx4F7kjd0svn9ws+iiECIhbHLOaTl7/uZwjWrwLA+e0uzNySdiluQ6vjzJiFtmDrmyr4qQLQLdXMoLcwmRieJfuna/QsVWyo4ztDcd3M1/RqLj4nZOU1PYPc9YmnX8OpO9ZLWYBK82cU+kh3rkN9/XT5HvHC7mERunLIzBF8DoiBy9Pg0iPLUYqPSU3unE9JN3tpb7rvJIWpiav8nFPt9QmSHOxWAsLUrXpc0c94X8UaFq0L8bNLGG2+7x7lTPXz+NJvi3z7zyzDNU3Si+UBHVDH42D/JWSiCIN8VU/1COnmY/+4lq0vUOE4r138adwoz1QyECXHCVu3VzzqRHnNUvFOjGD2uUa1KvF0qtkIJGbVpDWq5j+AalWOwheJVSJMdDlcaCRU9jTDq/KcV80XOdb40KWQwGZzksRli1wov3AhK0mSWgiuSQhuwfDCiE7TIkmOW9RneXrFgUvdlZCLkdJ7GTNSv8mAlTIU8+QjVAvFUrY5z3OCF/XRlrKNqGrly04f+crRs55lpb1NjfNZpEj23SZzeZ7DuE0IR1KIKMOm0Q9/UFYMOVX3jEYY27EzeDVpG6oU9NdoYUnkwMaFYRH7DIfFZ0wtOvNlvyjPU8bDG+M6/FFflINlxI5k+cY4cq25UfKo7GejEeq+FAjGV7bmMT1UsdrbyD7e0sJR2ZJwN7/xb6j8qgoJVdQXMgpQZ3PNUmjP6qwq4D7J0tk2+xFyIfLhe3qsMWCGah0fjxqWAN1J2fBYpz9eJJlpDskpjhYShgyvBUj5clQpUKMHzThNSeea5tpnr4mRw5pUUoODN1gkUk0tvMD20yVnE7y80DDuoX/JMNfaUjrzN9IUHHxx2P5XeMqndoVYJXGHpQRo1te8pbeYwiH8e3/xFPnKzVPg95EP4PgSrbcX6z/ejWmexrp79oh9SxEqay+uklMd/2r3tONhqGAo6ai9+oc27fBtNBCibzl6+mnRyjlD7slTJ24+jyiDK4KMFoT5SrN0ljM4yu8ZcT6Jp8emsQ0/0DmBArI2DJJtuA8N42UKuqxMDAmuuxbY8ZMT7qDHmQmTR/aADY8qAJcknQXbJerlkDL1ZR0f4Kpn5IyJ02SrWPn0/f0coMuoe+zLgmNnNOVylL5y9ubafZ6AMzwtqgKDbOTuFa4fkK6mDs/K2RpBIdUulJFL5yesHkVRqwVAebn6xHii+njuK/IX0nIZKmjnGh2TPS9wSAibj8uWIrWKv+YA5BJEMvwcUJzXfzfn6n0G0a/Vgehm3/eaOcnLoqv40Cp0d/yFRXGoogNIuAriayibDtC4ugMsDW1iKcOb83PQ/FIm6VBpozMGhIRGrNOcUhVE01Uskks6oaEcyoPLsevnaZ339PNH1jR6XJLVnNtJ5jrG4br7gaXymNFheq8ZhXUgi/WE6a1iubCh8YqlLfk5IjvprgIM7VCtlKxU028PVzJrVhCsaUPg1gYvZeMDkXvTaTY6eQEhRvKJPtvg1eMSAV+u6jN5QkEG9YChdgxOyS71ktWbEonIW1ohhQGFyHwzbAK1Vr1pBn1yoLh471Y+2Zr0cZhCevznX+s67RAAPm7+PnRchsuD2cc2WYy+p3uLjwWTElYcV6Nyz+9oKSc1STm5WkoYazxkKt6NuplR41YYeVVPgraWMB0oAQv6AS5etAwaVrAd9JohoGvUHOGj+Vn05oJZUZLdGO0uytCrSDT+bAeT860CXXNnH6x0Y0FpxW+UReefWG0s9hIJ3fWlwiSylErWzd6SheYSBkOn8o7FN0eiVAe8RMrgl/noPr+TZdVg+aCNJRtaUip+zOYKprsEj4TO3KkrrIK5ldnZnAZBs13S7XjsmwG/RJUwRud1DRmvwAuMV3O3Uh7QGbIbw3VEUa5H066IZwlGUXG6fed03igaveR9ZNeVDW8zJTLOiYxXwc3tTYiln5FMFVtjv/wVX2Q56cW014+d3sLYJSbGdj3SnZDEHDbz2ZDV1zCuelXRUHBDD0tegiOagCyWdLviCdlwtDmsWNdhkHh9m58MTdk6KuvEtIskbA3vIKhqV1/iShSPfzrtYG2Ie/EKGYSBt722s+UxNYR47AAo7AnYtNDQOD6iS9vRMVpRkxBjhho6o2fLoTqpYb9XO7WFc4i7UQ+aCWO5jDoC6p9zhg2MYyqOxZ/Ktds3LrBbq/lAYI1hT3LPpRLK+SvNXpcsIoH3FPQbI+ap7YnFo31Kg4vVZIRcv3Br2SxrVZSspIV4gkJy8C5YXaED/bUVtl3KdAGMr2QXMtyXhIQ2sor2iq78rEmGDOxt+nGIz1Tt3twX8a5YMXXs8tTMEGSaIYyz383SoqqCW+Zfaf/2bMYbwn3/4KTFpFipS8XMPoVUVyHFQUA2lPjYh+1eSIo6nLABVfphycktOB7L8zYhw7DqroIcgKyn4v/CpMG3GIqiY5kVqkaYsJHoJbGyegPoTHOlT+38JA94YUjwQhXL/tc0E8E6mWeDtLEMys0w8oCoCa5YzfBKBezJxMz1Kar+B/VV3rqp1zu0V7BrxiU5K+5sCb7ghWTfyxNMOtQr2gew99xHvCDI5oAtCx5hYtYB4+yjn7FkmBc5nQKfnB4peuhuDo1xSbQQe2N4j6Z1s7T7+/NJ5sR2jXLLNs2qbKybkrisCOIPZSyzWAd7I3lVtawp2vD47X38ioAjTYnSNL7nJy7OADJKtrqRd0TNe63d5G+TOsMm96g1eCk1cdNr7iGzl4SLv7maavUvpxyvxz4aOlP1bxeR1ldfVIWgEsOQHTguUwuA8rQCb7mmv9apiADcf4MFefX/85+eicce66xuFLWzy+w7hSq9GJT1B1uo3jtc5ygSkR/94CTRA2viIDQ6vMQQfh0FpPmGku74U/JgJp1Xd9RlV0nfnpmhwhI3fYjqhvbxBw7ImY1USCfSgME+U+F+GA/ny3inesXqL3hMJZ9OSeMdr0olVGbj0rm8bCPoVSjr2PRkpNeV7HU5bSl8zxGm2OObtknymBO1D3wn/rAXPI9jIzsuil+Zb4AfO1j8XJiH6jvOT65ucwqZMzoicYY170pgaYEQwvc+2F462ugOKV5rZ/A9GKGvTXBTBaasa4T8gTb7K8h/tQcY6d6PXYN1FQnKX0st1sWoMOBBJ4yIa4/lkBthjlqz88Mlv7ZvLF7tk+/H/eriJmXGX2vsZJdxeSyHzafdKLTw8QJKo4udXSomBdaPDQBJr7gYmRTScgdc8Qfz6cPI2+MhmDoPeBWNuUHVsVxlSrD4fZp1E1tkXbSNVLCcGuOSnEO/5ZmqvTE3jxwpa9fZuzeVWvJIt6tPV8FftfXTXnqtotafSAi5t8+NOPhADOlmzqnntlpwc6i3oRt8zhNyY6p3vB8y95GIxiPUYpIsDO+zg7DbB9k7eLzLScmCHb06UclVBKPscCmTUnuckLTiYfHZLNG5uxvDxU9Eqt3rRmlZBWVpT4Fk9Sxiudyf5wYaGQRj5wcGbcpPe3YpQRNwuu65Jcp6XB2FXXE1kA6hC2jMkhZgNXgAAJFUK5rIDGslqKgAGC9OG9UjWGV6CQzWx4Yk0jcm8q1WaWZ25X0gxtFLtcmrviUxTgPpw6PykmBz5eIwBYjO/thZhaCAe+zpFa1CRC2fgM1H5qA97Gcqem425KZlo6kQ+GrLiO7KRx3BdZuokQ2SwqA3aQN41YPufYyeI+wh/IenCrUKsbUpbvFYWak77cEUb06LmnnwzEi6sjoRU2Ayjz43QR7vkNwoHLqMQ0+vPBA6tXIuk38sVQTZBh77yuYMKFc4ailVSdtl5FkTywnS1fGllY7tVDARcNHB1cImLCp0Q+di2etgzPTs5Deyv4mFddhYFiiMRmxu4tFhvFr/OVTKN0edIpqZIuApU5YHahUYeEg2xmGcPw322Bhk4NYEXzI1y9AeLTsn11zoWa7YxBQtsLG9Pf4410LlP+ifbW9QiGzUiFu9mJgLL0Tm0N4WZw2VZeKV7AbyHK2hMsXpy2QD4nEmWZxCjHHhMiMzwlE+fPmoQ8680wz3abzxcZfWftyzPUTvP1MnnkuuHivBX6swo2umKe/WK0Sn145r8bc15v9pV5smghopwd/hjQSfWOuUj0vMQ8IlgM4IiyT3AAT0YRA9AI64QfwmvUvk5onJkW0whva7sPVeCT+Z9YK2Me1ggNL4AdTN/aRLEAC5MLdYVKqgikxNZE4pyamaadD4pkRD7YatPUym1jau5GVHIAh+DWei+fTMR8jyKACSILcCICHim1B43MGlLXHMbJjsOew1eIkBCwsdPrQ1SuDg4uJzvEsERKL/3rPYg/jO+NinvwxZacEsaxqCSE0GMUIeI7xdslVCzkMuAVyA0zK4ZcwcLOgOorOXTG4Gydw7/UxhCaA1MP1oG0CEuAm9FiGrpinwcxvUKkbuqODedYqy+IVUL9Ujyvd7uJXlRfdNorn/ZNbn1OvrQMYKt4EtVE8lPFCfh/v6k8yytirLYMybiIXXbUFTqlT2mQmXtd3WZxo/WDAiEUm4R8O6GzzpufGfni5od5/ZW11IRFraqnnwkFHH3FDVAOnNO2Y2BgRDa9QC/jqDHgmkTpu0xjxLYHsiRVCjPfiCvlKAABj1kw6xbOpAHpmxyKy9FKs58ckkBE0Hlvv4qmGqYnwxxadeeu3Czl8UFIMP992zGOQrUypR7Kyh7Mw/UqYq7KPsihp5iVD3TEkJoteNDZvzhzgjShGj5hAq7GpzoN51rT24KO3X+eG1+vkQDeH5OL57k6fa6cIHE1r//ZaUOARVrS93AWddQPFXhf3hYKEqxC12bVtisIwCieEN7u4PqjKR/BSzVO1ItfzWyiGS+MTqB1CaHglbp6mNwZk8+xCwq6Z5xPfNWGhh5ikX4nzV6G1MF/7eyetBwHkDpELWrjgb8huCNDal9rnuiN6eEQKRkG3hup1u/rGNO8k8SMFL69Pp8j32HaKHX+MxupLz5y9/mzdoAYdwlDN8vYS6as8A93dgixCElgNW6jXko7uh75/rmGq2CRpbnx2CFJbUadacSnsoNHRDEsC4/5YU1AXahcbTRWYbOp1yELJFFHXPaGo83lfhoiVX189pRyLUBdJKxdKtK3/F3TEIvHNnK9k/36/B/xQmfHJIHpT2+bsFFb1rIyMRYavvlhO+dYX5sQFNO6PwBYi5QaUHpG79CQXIeCd1ZQIs1eniK0P8EIUIc0hHQyeaXlcL3Cmn5TIu5IANCRPGdgF5TLiDfthwFh2bPp0qpEdCWmrV4oU8lIwOZXNEcdui+YtWkdLht5PqY3apGEs2utePJz9WTdemniDqHggOXmZ6bDKemtb5QrECaY71BHkptQupzFu5+YwIOfKN09Yb/Nhcwl7RGUy8vfFJYTvSvzMQ7nIdOCvVyISO8ee9ODn1dVBi9Dt/A3k9v+9AfJXFsPmeGtCWwxrkj7t45Ya3mnmFxxvP+obe7NECMu0nC5bNSLXk13byP2HtzjWW60iS6LjBzpl+epcz6/ZXHBEmjfADIIa3o/pVPcG/ztmmRn7LmdAMrvNZTAy2QlCyuVKNC/JzcV7CJ0MmnzO+nDf0kKRSxNqX5i7IcV2om4NAYy0u1sdsosXO70ggdsRcqBfcaAtPjxjjPLZczvz63zcOs7ZaGj8f46ytFAZ82yXF59nd9BruqUJOw/8IwY9J1ZfEzMEMU51X7W8N5ZEJqXOdeDmu+T0iuXjRIYz7JTBBBqWd0871SEYuZ9vaYPzqcUIJZ78o9B978TAHRsmlct5hu4wiD/gBt7m5GQHYa3tJzNo3dRfGKVtSz4T8R630SRZhWx/eHZEgtTiUViAWBnDFM4RjDAcuIzj+73nITrXrhJWN+XEFfAek2YsTXedpJsE6GphkGSq1MQkBDC9w7SsHSvPc6MfRn2+l+Ky6b4ZFyz8WpXC/i3JT1ZWPz7SnKv+OeygUFeGd04NtFpOP3dHWnm9xe7BRoczBVgC/QPMzpo6AALo4Yj0gsbZ71va2CoQXyHQjJeSdHANuOQfSrdpIhOElrY5PAwd1NqKsWAOIlbIx+8zbW2vpmFS4Hhxeum3CI9knAgke1ZdIxPaMwFm/nZXccS8Dgu07VIQx81xFfrUNmz4VpobC6gPrHLIzGNnleZo62+nkJyDwAbSsKIkMlZROUv9/SSSH3Rf+EfcG7BtLhVNf6VocbaOErESoOHaEURGvDzMXVo4xpgY3iA+e8npCVzZJ7u19C5St+ruo2R0uQ4KsNDveAIp0FGkv61J1Lvzjwi9G9m0emtmJYYqZCCn2fLG4JL3QNsRsQuQUb2VN7AE0gyDsmLpFAjmHzBVR2P85W8Xlz4Bx+hwFAAMiPdkdOdR3o1+A69oUmqIARdwcecdTqetf57dE6lJgOosyW5hUQsFjbB5Hu5xtwTbJD0Q34p8S0pX9ZO1TlvfCiELfHqQ6g3EXG+oowtu7IFRQrTFvH+9KoCXtz9DO16NqtCR3rmsey/c6duRkxh8ZXHO+CtqY3KnTN88zZjfKi8qlkHrlZhuC67s6yXvs688NwwoUe32+dhxvCojusXLVpJNKcRdf7BhnYOUAVMBQXMUSRgEasVc8ZQTy4hsCh9jxQLm+WD2GuzZ6M/udQj1HEX3Vo5JNFuhbB08MbxHW8geeGHBy9yASQI3OzPNHdbJZw+GNYoCBzYXOmVknIgqJmSYViyb93pyDrICsE4QY0ZcXO7fuagldFDY+p5L2VeK88yh2/0x3vi0NaAWQ6ovgv7JBg3zLg7NbygMmoIv62ZkZVtbDh5dlntXtl6Iu1sLzDKqiOKXhheaQBG4gVOt5kLOpgs16ZSChiJgDyIy4yVUd8x/Vz5DSTu0I5kg5GlVqee1ZRXAeGSNtx0PCW090T7fhlGVPrs2Gc9ecVWCLtlrz3RlyuaSNm0YQZP1opcv6M9ioBVT4cP78lbkiz3naFzLYMSP7e9NICrV0UNyEGv+ildZGY3BGGXNda/eBTb4rmLlxGJCH0VVxLW4LPemDmu/Y9smEYHicU2AAq4HFMIqjsl6YpUuHSZ2WdRhB/BIxv1qcTNlWHSF6H+8hbvJtYv803HSMLvlYe4ecK+Gjx4MtvNGeOHEIzXOvdtvJlOScPVMFDhDxvT1bDzupezpd5MEQJRBY30yfR0DA1Wsxgkl26HB3wQgjecAN4sdBolJvznrKv7n7FaYWS0qOTbIc0a0g36Z8GzJRg5lHqtzMw0jsxpBg0toEkF3CL+Ba6PsHh8bBh73dSFScY/n4uLkYioxlqgqktBWOlsCOWM0xvJaH3000bJq58nyENqXFvi4fjRoFV/Qha6ulFkSzhL3/Tr11+FAsPBUmotL+5TBHxAnKAVhm5J38b9JQ1uWa5vUomaCeF8T2PJVZRQMgEqete7EaDfNqswTGtk2qPz9/J1PnrwmqxtgshOQKQDp0yO6+ZfQjFfU9DAqxySU2Umwi6V+vs2EksxfVdAQChbhF2VSeq9bfdWR9fENA9LXwFOXmQ9HjIWAvIFB6VPw6R4ahtoxwhHzpbYZ86g/HUHQ5wUYsSXTBq616qK067k35fx16JpHOf5ojzOh5QLlh9PSBEjDGuJV2Tzm8QX7NTHs+y1UQTbRyxNqyR1Gjv5nljAya5L+Z37odu5hfbGWBh3nOv2Yr3D/+7tqKqA5os6RZBP+Nks4pIGXqXVBW8cVm044I7mmLrVEFrZuXvfzrY3CYmfizvLLnbc6r+qAD2fNuFagtSohGaDuQqTjbHOj2JptfVxSpaHbUmkQtKDnhZ2ogg91Fye3n047obmWMOB4Z5KWoKykoRSAT14CieNU3FK1zFkLiYf8N61rTn0TmvbAaG5aK9So3jOQY/M+/rxs+sbb4m7zTMeiIml59vvAgTGksaQ6K7zidIfuirazrp0msjai1kXKV2p7e29KxUE3SUutddX+VB17MeQlr2t0F1VwMu2gyZBRw6NqHE6K3WTKfMb1g1at0XAgdGXPY7co6Bbs4Af0Oygi3qOODo/r3pmCKJ6V0bTysHZB2LnA0LHnxgazyHzBXfsBCN1jRRoWy3XMk6YBIL/vatuqAdi9/KtBlzj0sm2qoyzkgvuWc5H28yFXpNpu4tAzl55PB3WudZNQXU0Vx/UJvvyRTQ6cix+ylUyMV75hr5HiRg5o/L+f+HPOHQFAu9uRshQhQFSvQcpjAqApwjZ+7qAOGBy6uwcwh5vwCvzISSpAW2FncqN5mnlWU4J/1fPoasmkbkd9l6155jexCOYMjPQXScrTzI0x95ApZPViOHJtmrsg9ysHVba6iaCIKyDiqcC3l+V5+hx+qeDgeWVRTfePFfOfDP0q8PaiQubx6wZ+xN27+8xPeS6/wMwQx+lYNvItUhuqdozWWcPX5Q5LojRYrOkW8JKtpxLEQ7YcLEg3+QOLrSIHdddNqVRET363Rvz69dTd1anpvtlIBU8WiZoxhrjQSv/tgklzBrng1F/kNasYeBWdYWt7Yd9ELDkycIKLo1ZJ0vyCWZDyjXcdgMkbpwl/4sRuDrGAixBljKKAWRiH1gXHcxATU2C6fwU2HoEqo0ExsTmRdD61x31QP8Y1XpOg3Rhk82OyybGDhJR5EAFl5PlFTKByikSpJOzzDIw80Uo296lKax0bMcgWys/h4KwJ2AKC1OrCgde3DW8NJe1b5tPLf9zaIWiHwSdEsT1dDzjIi+s/5nKaMVxPdeI1O/yi1Z+RZNJWbH50QMyEj0s0PB9rbCzatuQsenF1/dgPT69D29/h27JZsbVdd2HC4wHbfGVpDW4hQvWn2Zb63majoDzkcyGdZOg1Hbb/oZPKTo/Qq5EFU8EJbL3DdOHn40tab9AA93LqXXC7FmFfXUmVnzKX7D/UdqTCzx4wOqVJyaqZveltzb6NNAn1BN31rIqL0TctmQtvXD2gqWXm5x+gg6TV9eY0/KqjcINmb/jETovTPw716Gh6ymuJ8JGa0HcKrt5vVO3p1/Nq0uXDV+hT2nBkjkttM6lOBx0WpYQ+gRA6ANqDYR9ltzA70rZJaPMVdxEEsQevv4Pja6xCD0/zaiFq5q50XVRtLC9Tl4Qssf3kdhZjnrMTLxZhCUMXO40sWVz0GddT5SSoxjPTbAH3yCqOPeLDzO47sr8AsYIl3if8qY6Jr4GBTZD7hOLghelKFEWG+2LA5gY1Jz5EgcFba+GcjhLEN3UbWZN4zqhMVzk2UqD5Tg0jZp1fLHmIhkemFOe13hHAJkvoVtCVwL+jpKihuh6MhslEmlgmIdtDSYIHoeSrcDa/lkVJgyoyPGAGoZxT/AaoQxENikY6v2pQjbRkskjjeHE5NshSPILyqfufZ9JlrTynQocZpFftya/4qnX79xl+VBdPdOv6CVXgUGQY8DpAHfLo2xqw5kMJJp10n0S8ZKkxnO/7C6mzSndVsvaIcymD9e6r8npO+4dr2dhfVeZWnciod2iuB8WOZYU1U0aIenefyawhsp9OrxW0bMKWk4oJX5UCSN76A3PScC9nCYuYw2gE4/NEHHtu8lXhI8KxjmicZ8mxVU5Dli/RSaNmMiKFKUJaDTy0pommWLEijzt1mlkItEak2ITmqjH/ALYF4krf9Yoc+uSnabunGXsoXc8h1rRvpXxX3KTaB1iZ5DQCPWJJSar5yXsCbRrsd5EDuH2ubPLaZcC6uzxWirDoPOO3sW13xSQ8snI8eSZ4iXv8JJk8vVr+YVw3koIw0WPe75Fv1l9vv8jv91PRCmAGQ/Rz8VLjWGmQR0LGZX6wwv8s3bzaQQAFfz/yls+AyDDkk8s7np497D6uz1qWZSZZmBm2uwBbYQ0ug3kuwsp9jPQlbnstMsdyk5/YEpzOW2tDFcVuZTO9THh5PF2hMWF/g6b5ouwY1nfgBarqlbhEyjmOlXeJLYy/ge3qdr7o0YU3RtyZK8cKN477HOnygHu3SXrjNTPom1G4hn5mJfRjiLRZapgzTcA7d+tNHWAFPv9KFkXZJz5U+UBJUkKRqIeVhKEiCTS78Aru1GrblpVCbx3kInxzEb0JwLrbDnB7IVu15S60ujuryumFqYfKlBX3KjCD+1R5FxyEm6vtiiLuxWcrj8a4gYXIcCAJoyC5uxcR2hx7INuW5YDCe7pNIbUX5FuRtdo6ynWXFqFbJbN7RLB+WLjPKvNoTHgzFR7+YLV8XRSNWqQWGBRElHuuZpf0lWBGn+B/1xGLpPX+G0jw8IIbtQoh39BTdcu5Mhf3EJJr8mnrLat25LbcsnSlAGRnThxNb/ygcfikheCEHt+/Opujb9224t5VMfQuz8/7LgFcUeoEVv81KSVoZPmogtqQCBhogM0TxbxExcT59EZnBa2JmEsHY2waUjTdfQDCjxdCMb48CYUNAJSDxjDfaPc/+HUGjiZakUtPTD+BTcyAqnNdCE4EHNn0kK3j3DkojVziZrE+pQC4NyQ7cBuBm1P1s3C8u77D7Z3CThNwrg+DmGv+lKySHy+ByMFbpJUAot8WMA1rPhYaGic9sKunarwWd+ek5TEtSdZGruLUO3N77LH7/mIvGfc9og0c7Np6qzGDoDhgKGQyWi+Dgfnyt43QL/PGYGzctETBIh56mSD1ToFLhtS5SkHUhUgHwDNhsXWgHFeNU2gCtZuHEQV+MvOq4fI4BFSZ9W6IHYoUl7DsKSTSwVDnryOTVVeYNrgLZCmASwPjksPc1ak/NQI04S1aYsrvDnJ+9S9UNQ6pYkdQFGcT8zQPDbKqAGcRDjF/5aW15QDd/3AUNZ2eNTbFN2npECaKDG95++F9dnEEM2ze5AUhH5TjQ5CSuBZbOSNOGYT3mJfTmxX3IdT1ajOP7Ski/PKUiP+j6UIxOXWO68GCj60wrTqTm5oTtXQYkf/mVp0J1+WMW3tVmqer0RKVpZSBA9TA4gd/Hfmif0rPnpj7/pyhMZ4U5VC79/Pfvpj3DMfRVidYv983UL79Al0TPFFeQmNqqh8fBjUBBtoTezJJF1Gh1DrD/PP8JlKYjJmppP1abSQmk1Q1oyHOSShd9C1wRIjdmKSVvaNtaEo2JdjEyhhcuoX7Vpm7jWOzfsGrdNI24ja3tysdxp1EmSj1J7SXKM+QPo80hC2jSkg8q4Ddnr+MyJL0jl8IjCN8NLQXNveUwPu0DyKW3cdP/C0AOTEwzardrTinxc4Ks52FwMoOpVefADf14ov37XfSZ9jva0IhNNQ3hQcWdGSadMHbRoxH3kogxuUa7TJYQJpRYTbvrWz5EXVr6gIm4OkpXLfXdYOSHfGkjYt1EWSBp/lMDyoI5Qw/I0v7ByxUTGbd+wudUA/HNujrTif2vTdoLwF1tS8PGra7+Rb0DtERdOQXGi7MOI9BtN1qR2mB8yEyjEK/Bm47G0qyj7nQsmmO3icMfR6WDyl++Mk4X7KH8zkXUm8BcuF70zdlZ++0PacjthJ04Ke+S7ObO4skDwJIgzLjFJh+sA7UEAO9unGLzN0eSbDgz9SI2p82gE1qdeLKp++TXO9sj7A3LsN0LrjmoP7Zh7gOGxHDbd7Yr8Em6vRRCm99t0dPRv79IxNF6TEOa4AGrmgmjmpx6DTOgpH4hrKbE2LOgI9ZAKiyGAGIORHjIiVNBwu5DXWuRQ/tIS83NTqmKpjmW0Mb3paSmQWkWLmeaUbgGHgfGSqxMnIRojYj2boABew8tbifcfNaU9g7lyBpSyReNnMIv9FwMsGG4mejl486i9ZzpeutaM54t+jzg5A0YSWbFA/vzwozK5E+rR5gBc7gjkgyGD7eEg0wVUPWhTgnbWMntPXSiCASZHi2qBL2rYY2WpfZTIZq5VwmtdDKGMOUKn2v/rEPz/NpLFiHUnLYw5eDV9qbLS3kxFHcXHmOXdKzW7rvpSjenndImBUR8YYrah7T3B/ffXueeH4l71JhpkqLpVUr3a4ERJS9/NihLsNHIAQ+Kc4Cwh/auN/Tc+V+BxpOeSc5iDBIHAJRvJWl1tGXNxVJJALOwKCeO6l3qyfuO8t1f6HdCF+IRWXxlu1lH8fwZ+UYjJgiu4OQxVyBxLo5DuXcFBVNU7fS3EppHmzCFlUxIGT26axhbKqu5c99mC5+mDFkyLJNHwLDFGVgIXpTT47dFmH/oT3HZ2JEvCUaqRC3XjKrkdM/B03/doG1JK4DNZdd+E32oRlhRnOIdmk70ge2Y3PQVH08BN7lSHoSDA07mnIF7LzGXEtkZrp9aTT7IPXvqofj+/VIQ3HPsb3fNNKJgV+5YGQ2Z9bHsL4lxxmYNQzlwuzbS/KvCsEBitV+jupi5+HXhNEd08EsfCLjsFF4hb+sCBDn3GLbpFGYFfFFGEHNI7jrGo6UK/EpfGfAhZT8LdoGx16dzchFegrQTzmMk6hvJAvL3Es68dYDuknnjE9AeOUB3bXnIF+K3TO6MSNNEM4G04mbmIAdMSOTda+9L/7j9KGbPzdHYsTOraJEF9VFkOBdy6+e1LUS8vWdyyhzJazAdNmMe52nqw1X3iyAf9/CEPVLFRd3y1KcjTs+vvXWi/2xlKV/ZNk4eGaEQCbsyzRofRn+GD2BtCAeGxy4dDgxtIQ24YNJEYihTvBiPwKVjPHT5fCr4NTvgcFvhzzQ3BGxEiH7xvziK5cnyIzAAHCaIkk0sQmuw2Q9/zlD88z50OBQhvOmGA6gmI2KFlvJoV9wmXzWucr2IaFNUnCn8srnBuIWoXlqRpbWJi+3Hb17nZYdaZG+rSTSYIMSdp1ALsW6cU6uDAkveJBjWHroXICNsTrm+JGq/9cxPPiBobpCYgUb4FZuYg1o1UqRrHDGWMJfVBGH9M0RlPY1yLxn5Hq8MbrEM10XmdpTW42g6Akg9q5xXLL/zDs0Pzi5nn8SD1vv2ITffgGPfc0LEzP9COfo2LSBf0eXkM37q5e5hDxmo2Xiq2n0/EGbQqW418F9kaAnQTQtv9DdFfCvSx9IhFAY2JBHeAhGkUcMNwg1XlfmxUNCeglqMCk1c6iE9cZd6BCbCu+R/ti3JT6ljwzG2c/JLYKNJ643PGvEsiXxGxYGa+WeiUrLEQe2LYh7aOy03dmKs192EjWIpu8r1XAG/6nnmEUwbO7bIyiOMcSK9UenRB+oJimpfkqDjiOBMC2EOuUuOp5Pat1+FIKyC11YRVPdK0iO6ZH/U6ea1Yp7C1R0oWdaYJogeb7r6w0XPXJY/5Bf6XdifSOTplFwLdQJ/fZyUG4JuHxqzRRbeLhdToRyqmJL0LcXqlOJBn6deW8uuDnvs8iZDAkhEZSCryCpQeMf9vN3YN6q3fAM1q03wUhvoZwkUfJn5P6bUBKNmZjgGlWBI+MregpL8dG7r7EnVI6IxRFO2WVyWuDh4d9GIoEPguZahSop+4mDIozuPlF73USLc4I2QDdvKOYjAsO7Lg62D/oQxnPEQDAdv8CpuPrFM4qDwcupoXsaGkOh+nenu09DlqGCNCwCN9oqxqmKSHTfzWgT8TnDZp7I3syLXi60w+FUn1vIQDyrjj8LDdBhJlFj69f3dSjBGmC1KsOPRpfeAMKral7/bBmbZxN+yWgtJwOetbMKQIyunJs2g4gT0rBFel3X9G3gf+J/6RaXZerYeJmJ06LHyeNiqsZo3AVgDgz9iRxvxap49k6N2imCUBXJdYTDTQnNN2bxvL9GrTAABM4CUqHKvKAC8AXseGardw8FLKvV5C/NQQZ2muoGzPcRhqRcUS76UsMQAoIDGLAoVnS9TWxNxxivEng8wFkuvNAwsw8jRbs7nCAjjJyaOMkssCE81Ykmuz/OcTMQW/EqlNoSpci8sHE1u5mQpt6pBmbJmS1+WQtd8j1NDNPfH5CaAF6nulWpILjlrmW9EZGMw41cC0CIxYMrZ15fNsW/skg97nppdVjB+KJlztghxMe/e4FnqD76+rDFyfDgNuhXwxToAaaJTsNrd2IagGWCuNbRtnl2+QtPtjNCYJKWmpEwJSfgNXDgnPB2TwEnXodKrRavpjRmYuiwzrr4+hHZ87B58jTS01gmN8J+DOeCKAJLv7IJoS+I2RC9qgIX/I4+RRb01lkhfHRiwNz6qU3JasayHEmLqBjnlqeiVfkwW+ynRIL6NS8jmpgk/MajqzOTLEGiEB5npSRr9zO+CI9JeThv9tnuN/W6NiHPTitpslbYKwK5Nn8h4l+YfRAyJyDLkTfyaS0bSF6zPMK+AHAJcXNYi51GnwNY67sV1j6fuVdjCIU8YypTpvnsoomiXupecWxacHTlXs4wWrzeaXn1ZrtuE6p04DEYqmJeOigHyrBAcklA8AVQEb8rupHsfnWuxUVx76yPXSLW5OI+snn++9aARldhfIcGVijzrVZfV381LLW8L4zML74pZm9mQ6DpvQnXHWSILBhk0GNPRm+8MpQjrO5CCPcxaQEgeOooiVnYuGnjtS0/G+k/LQPkfg02yOcUJk+ZlSlIZVuCNZfFN16f0/VkATAr4iE3dKRUlc65sJJT8exDUFMmD2lLFdwyeDWMEK53CbIu6T4yoF1Bfc91juT/wrqOEUT8kkgUa38kFvoJVf8LLG449GDnUg6Baha0uUpYjtBL2Tix7Z79nnSqA2d0rPkK+1OMFF5av2xzgPw9giRVUjVALe4UNZhxoXk/34CX372M+SlIDabBtsFWwMHuLyZJgVo/lHLz/aynqmYCSuFcXEmho5CrqFBA9WG/jAr93wC5e+RJ9mOm3qGkAZJapOkQiONqN8OqrhPry4wfX/iBgJMnQtbRVn83pn/cBX84zCyI6TLiHt0Hb6cIqwerlyKLkLMQy7alcHFfNITeJ2KqbMETFQi911IGvQClGKdeN51JlU6Csc/vw7vwbTyPOzixWdEH1wF4C5mKuyx6qCc1Tnt0Zdlvto7ePLqvegA5HadeFVlWKYtUlCZ4BaaApGALfCPApWfCTfhcQvUY41/HExNONVdpJQbpptvRqcrNdXlALBusUdsIzxVEfzBTtSOVqbTec92E/D0PMl5ez0fD+bvrTteWT5j7LuTUgTHWKmwqGSyeHrCcPRG/eBN62i6MIlkw2BImUYO4vgDDzRu34YPkRAvbt4Uo/vG20FYKiud3+/+NunAzdFNkyn9gVbvvP5nl47yqbn6fIQcsOEc6nrSpxL6G6Gim7PHuAUW5i7x8taw9ud2+o/Go0/Ztl3uuThrCCJA5yOc8qMfhvEtrxoneaEn+I+KYp0YvmmkUvdCoqW8YpOq31/eb9wGlWE768EolS5U7QpxFcc6/rFJfPUKDFt29WbE1I8AM0ljWOJEZEDnUx18uNdHY6Frxtbrj5VqV4l+fqMotDbcqBM/wLfOtxowaeTsNRvV78xfszQ9I9YLQXUFRPBrXo8WAErZLbR3mjiwSJeAU5SDk+CK7dfca2k+yZx9NZuMx8Ik3W/0Drb6VFUj1amGKPVGgemOeSWBAiAGao6FKTjD/HhyOqz4bm3j3T8lHEXNSqvnQF6mqQey6CHQWHTDC5ApVaXs2XzeI0UZNW+3BgIDZxt716yHHTO8j24YRx2aG9XTrHl5ZkWoqUKb0jB7nOF+7bXZNpqKyBkLHaxAN3/aZgvVl10AIVYcmSa5ch846bf1XpUZ6PCruJ4HdinE/CGkliqiM4pkRPLQcophmksoWrzvnyFG0dyAo2nmhi+zOc5sphV1Xvi7qgJ+145ZhC/Sm6mywaFYF/hIk9KpGRJ4psdT11i37PZBYJ1V0RGiV0UQG3hqKckBQnNvCAoATEMq3nK/imf8E+fdnajYwQX/rGImdL0wAH4iNTykt+v9A/c35XEA//PQVz3mQQ/flv+STTkCowuuR9rhp3YLvgOFsIuPVyhyF7U8LFC9GShhairTemKfg7gClH3ZlO7WaPpb8DOMbndVBTgtxenUuu8iO4HcJ80KKCqrxoBtdSePHZJGdEnG9ZgQ5Yu7FJCMDoq75M38vGhteU13WUk5X8mEtWfV+vxyXSGakNstobEHUiNPYDnvj99jvrXZjXmCnJAmtAl3jeig/AuGyTEYNxsatmu2GUaRh0Gbl5tty0iyyNb20LQjdC+A8c0ZPHahH/MNNAgj3BIFgQcI4t4qOQSiNyslwrfwGf9x75NwuC+ZcJ9CF9j4mzFnm4UgRSyH1JNVY+aN+ldzWLuKXcDX4AcL04/BK/7hnVMvUCaLxyeCI21qrK1REIbOFejArWUrq7HlCOz6AyaGejeLgWC3hZpY5PsJveD+ys1H/FkMFsOTQicSM2FpxJdz86VQyOSQzKOXZaH+nJcC070QHqFaKaKuw8BgIGArHSrm+sCl/oLVzkk4ST09p1TYLsEngJAQOciB9KQaVhCTUE5Or4zIiZYlBMogN3ba7vxKfqVH+YB5/CqP18whbNolgbqao6j3kKKtXxiVGIABWo3gLHbxHWHdkdFZzNAiVRi/aM7qSA0nCEqaMN9NJ77IoMBkTF1TO5fftChRlHa8UgrVZf3EsShEcpqZtbx7Tociul9H7egOJr3laKTT/MaMcuWyx3rLsRztJ1zFqUxbIsSNZIGtzGwyRBnCucIyrfDOm4/Q/MLj5OsAAMd4d5Pf6azNFaX1xRwc9jq3PCbzj804Ybl0GBh/mDkL/udyTaKNpMaym/8qqfB7q8cVaSB7yeaXR53kqQkfxk68zaeS3sK5oSQomwcMyI8sjGnKVnMDo1vMIqjB1pFd2dQuG0AJyz4gVBi8AwD8PwuLeDAetKWTCAAcGMOHkSpPb/AaG3V2aj8SFAyXHRC5/fPVHhkNXTEwjR7pg9wcgsQCyCaVZ0512+jFwSkxs5lKy09PCxo1ssOi/S6txS9a5km9Be6ARDSOeHlUH2RC/0glzrjSlOseXdITMQH6zsnHCG7nDzBxux5HjguZvPA+Tg8kKpUzhQq24eER+oZrtSVRyS50S+CTnrua0pjXYXP517C5nq1kq6mPwP2ZAbIA/sO74+G6KwINSOa3OAZ607UZGXXD6wYvM3x8QmxsN9pjuh3O30anKPMZ79IBt5msHzQiwipg+8AlnlwptpXSdXc58qYW+FTMVZakTdoU/Xz4YtCVPMG6RtwHV+qCbAtti+Wy8/KT6BpIXMiONLQZNuk9SicvYWKuQ6+Q4Vs7d5hzm/WJ1o39goFBWnMx3gMHDBn+sm8bbfvZuLrs6PiqyjI/KlWwQwmareuvRmIpFLTZ/T96oAS1FUnFlHCqD9LXy4gpp3m9o6v4ED1GmgOOt1kXAvSQcvMt87pvrJjfBZJTl0MhfEdsn2MnsEy/2mvjw0Hw1pY8qK2ryxEZ7EIKvBf/uJYLsDsICFc6wAmxQ7e5Umv9X8yrpCDdm9sv3GaNrtqzE3jtBEfdTLo0n0B84SXtDCBW3NaR31cKPQE8QZpIndt3tjjlxFivFWI7vPFEkrkv2jyrNVMLC9RqnDEI+FtT0aZXkJPH2X5Ru6ouyvqzqty3gxY6Q0pTNJdIV2fQlQDE2tU80WRBWqJ1wFBVOW/MNcni52+0e5xO70AVnZiiL0AZD0cIi9lpJEBHds/RyaxpxhlfGBAB2C1lVDsLCQwGvvOuO3lzaiiAO7oIzI5t1qkXPkYToNKF/WwBdIropZzrqsCzSwfZYpw1jISKxDAahGy2fMGWMUI9ExdIxeC1PVrtUetO8ZHZBGtE0Rd5bXYClruJc1cKLQUtEjQjnkLaVb6auSCPV5YXPPSFNnteqdneHk3WoeeTj7PzR5A556DlMyCA2WO9dfCh2Wi7ajYrdBEh5n6ipJsvfjjYheqycOfRYJE8mWcWqMxWXjHEzfBcupSbizzRWLHj/nIiKsIpyDYUyDDbJ9/BSNcA8jLu7wNPl5q+qUu/pgZeTmvw385qS5Lh2K5z5GXCXT/D0brYxvhEuzOkX8PxM/IOyPwWtv8satwUAxIJIiZ+CuF7vQgABQr2RURAitRoPlzGiWlt/AUjDaI677W1aClEs+U1eFHEN/HW0LU2nOab3QoQrIXk9VAMhP8rUk1P6ts+/d2c3HlLkKEPEQ16k8qOgsBeuSWgunDzCR96YS+9owT7KJsA5Jb7pC3SItIoD4zPxqOgqS0nFuvomII++islQF2+CwL9qrdF4cpHvT/qQNYQsNLib2vmC9YsfasMygkQ67bqKVY/i9EZfPaTQAuuWo98SqynFsd2nJtS7D27wvaFBzuc7f9Y1ztDD6k4Brcctkwk+QWzWuYQgzIRZor3HP7pn8wndJzN6uCTuZ+eTk+5/1W71YXG+Zl47jtCs5n6DYRo+gBwb8vozW8zyaERqQhz6CBnIDlvwo3SvVSVdYsZQ+kZdDiL29Cx8n0cD2D7NI2omB7knqANAb2K/wGOmhj6ejhLfKA54aNCXKyOk+gGnx+7fnpD2xumU6e/ziegdKwjk0mQc86d6VYCMw/zQE/cy+ROmjA8A00CEEwYAE10lQEuYjdOmMzsRMsoqINUFLK1L0psDjSE2jCfPUHbnL+4l3ROr/utTuIekIkqcCkLUOAK9MTouumCqSt5dmNhh31I3FVBjJ/lGlm1qgKVPuR5FiDFbi95JyOLsGln5gG5BckM4mS70MBQ4m5g+IxRCqh8CvDZsn5RtWpR7JGxCczB2pZ2ZY/sZcWy43eOjdjRCS0UKcW2ahd2JHHMk4vZyJ4zzzdB2V44CwqLzms3jiCHfkH42DhRLo4nkCG7mQZlKx33PuNdCZbDHhVqGYeBzeMg92YEl/oLUbXl7FB9lj/j2h0iLdnb6QWD4gMJEF5OTHONbdlbUoUa4QWh7yidnT/ARZ2zcZIkeQm6Ni/kF2wIKzYzIhmea9ckCeats1/Mlqh41iTUVf/faiKI/569Xx8f5SLQZv8FWbXNfLAI27TnDAu5p0PkxwwkZ4gdYdLteXytHSnJtaduu/1NwdR2V8H68fbHWXKQKGv3YUR4U6oyVPXHKls9WQMC+pt9stKFUonexg20VkXvEBaAtStepbW4mV/GIoMG0rBGTxRsPvnV0pr59pDQc1uhAKT+yxNufEXSOMvZKJyFJ2Et8QpdxsxDDrzvOHwmdQ62pBa+1T/h9YKXCjVx3W3VHUi0oY0XXXSs99D1YOKHshw1ph07ozWe5Gy+GXol4oks6Ky3c63qQdgTWjGsHOcUTZfX2OtTbfEurBQLLJE0KdyMP9IivAxwLraWlU/GqUr2Ba6r7n6eW57YcVXcGerHx/GhGhF1aicEu2i3ynCN1iI+4cCvQGO1iNkkmojF3ZFtVriajBnj4qiM2woSwlRBDvuw/17qpYsqYWNBf4leFEibyiUSmcfz3S2jJqoy4zD6BefHeGErdMGKO9PxgDZ4BV6zIxzdVGEbi20CzEPO7Z4MuPD8XI/pVzKhl9t9RX+vF5NOpRyoW64oYvdMcyJ3G6T/bwd1kGOf/nPsoFidyuKf2RtziVzNXq4PmySSVEAsc/cvHviq3+UmMmreH+jXg0VZYic+dGtnThZChIPxePfv7LiEcbLm9AhG8xJrLJ6QcEXATDmov5NIRl12veUkWii51KK6ySSnYcx6NKiW6JCiWY8l/7wlpmF4hQydar5sIj0aR5w4pORSiaD9NP1AxfRpmXDfHacSmouN10t37+r5oKc3mUlnD2kArl8LlI9mvbGelv8SKCxrMD+E+J7qGT7gvm+gxtXPFo7e4rzh6c4+3KGz9jGsOEJ81ba+GKWZnUkWR2Yp/djjEmJgVWt9i7c9EsHJUwkX95nZ3ZhbGB9eiv6QnJGWotRcaQDCD1/b5DRO5Dt2aQJhJUia40HBU0904hLJfQTKfHsRlJJ7q9j2QZ3ovee16YMGJPF9pyGLkbROK/OS+8InzoMT8ReLtSGVOWogdNoqo+slYdUkrrMIXz+wh0imPIbh7vYGVKv7c5wzCyMc7Sv7+VTaFH3nY6uu2Rq7YmYGvhj+9LbmLL2+yRYmiWtkCxEiMy3FvH/cij8DxAc7pARiBZE9Z0yzfpTP/Gc4cbZfN+cjBHqm0ktqocPe6ew2FZBWAOhquujHtjYmFN8D9o1+PIyYj0DFQVgZuF3/3UjIKwRHeuzSSXUzsH9Ep0a4+knDwByMGHWPKzXWOkgi8cGyKIpuyRrJoLbpTtO+k/PVAsuvKeYCfTl6VGXqx2guoA5FRqt9wVFEdQvE0obFqw+YBxPQbP9hjzNmRPd8BCrx4FgzTgRzw5OUmb4Wp6sW9f72pQusR6cAHCKUYkK6Jy4gvepGh+RbkVOWfAANaI0teiWsiAOZJTNCwKHY3NLXkKQOkYF/sJ+XQi26h6HER2Cs6hMVIbTMg9s196W4Ggl4wg4xUMsfUVJymlGo7asD9QCzjLt27yLW0wtLS/Dnu8Xt0x/t4fendQWoAA4DWTRjW92ySIxkx5yfSylVUoLpJeyJzK8Cum2NknGznFdirUEoh7MojEutDEHjRgJlqzbJtPcr1GipC8tNGCs3hnomvtzzJm22r10o83iWIOrt8230JKb+6oqjTcR0kIZcYlchWBaGPsvTvrk4D61NLMTT1kxTKPwzTVaTHn2oUgm78JJJsmI4X9LoFPekFAkyodVvlmlk18r5dEwZoPPy4E4ikkzYHXcTMe7ZfCGp6MWCBlsHkN/Uy2I+hPlaz5XQQL/KHPstBdPbWZ4apUw9HJP4Re4sojUiLI3mYyr+yHW/w1AJkFuvjs4rcoUJm9TNrrZRTBl9TnjXESRgruF6nfQ/xEj/EzO/zTFf7aFLp+d9mJiZM82cdAIK7KdsluWJ7YgNoqHw/Ee9mppYmaBjc7KlJVhV6hMm6KhqF5g7XU/FTbR9BXWMdFkV2Pe9JEr3siYHSSOcWRhQlqzZ8Sf+/mapyaEiheppjSH9w5fMLoJ+kcRRXrQZNGJbtrMKPnczizJ6VfY2mI3mV46IECFXN7PnkQau3ijkZRqgP+fUppJVR2A+89J6uNrNmuzVbE3ET2L7mVwnyOlYoEf//ZvZ9cw0ZBS/oerjhhKAUGZhMoTaHRuk65sG4wXvgiXGX25mSl6xYP/EbfOzIjMjqAsypekoqiYFGBh2oDcH5naKYn9bGkEAUZaaIYglOyGANjlw66PYh4NaG5oxWBbtOeBIcovz6Ku6VPgTSuVdd43axAKCTqIYr0l9XN/+yRyBp+fI7xmpmWzezctcpcxphX0jQc4mzZWFNfzDVFYI95OEs6KyNAvTlicPSC9sI/Ra8ih0RTH4IhCTN+pYHvR0FheKaAS7WSDY3/hqOIaD/48uxZ3DnOdu0vvBnVTH5zQIkjppVMrq/QQi0B1YxlZcppBZaKJOkHLpRvCHb/N+hgyIIwBbuXTGgKssLUYlBeFdMBzZibNiT35nY7GMnZg0WIkG6cewSBGGcvXrlnKuR6W6/rWf09tyFNSadBYZIcraxuOFSPb9Mby59yrM9HOlIUph9m4a50C1lb4NGVCtSaWK9ui4reL2SCY3addHgbdaMCDIQqCkVot+kMydRps4xurZIXJxaYkdgZZk2T2YYMUM2qXkdQGzaHNB2AxMo97YX9iQ0uYy3ZD0KX0+xkfAQ1EbQU2OHIgVbtlDWB9AU9bvTc8oTYCnMhFztb2Rjdyw0zrn8aZKQcg2cmqLmBjulQHlKjK8QyDcY0MyUAZiT7qCzqt7/WUI8k2n3qzgD+AXOqlEVGX5QHKEezZgXRtWnDMqMOh4V9TOlrOQcbwfiGy7IaBHeTxh1ka0WnJx0uaM+JMTBbk9pz7KFx6/to7NwXvTYLv4G3Mk/CuSnJ//oc9QrgPqqZSnFG4vNLd0qTdYXgPt1egdQ45JIZqKmzTrVTxgogInEUjiT7YoBZLo0VPVgtZMhUxYrWZo1K13dV1GdtSJjO0e+BFjy9Q59ry8L6l3Mz+WPl8YMLrkGaVbIBbSG4lml0g/CoVzLWWdZXqqAWmq01ZxlV0OfirZY8G4kPz2IiyRZEREaFB+rv+2sHnOmnlMvxZSjT+DgCuc6QR8XR2dt5VrB0PsLTalYTgSsnBOYkmkQuF0btrHXQW5RDfDzseSzSUQFfotFciQeJHVFngY+KiuIX/yxmcFkZeqQqfBlxJkSTuLryQ/xmVdWHQ4MUSFkbDJtyduVMWUfdGkXJHiJOmZLAnas+BqayMD1o8R4gB6zbPgIabm7VAMrC/5ZuObnLxuCyob+FrhUvX2OopUr97JYZ11x4L92uFyjADfHJDf2OEyIcc9vKQ2gnyAxlAfEwojUXPAfVgPUu7CEekYykItdAName05WqClV/ItnzhcjONLIers2fw9Ufeujy20pr1YfDLx0daviXRlLN42L24PiBinOT6Ck9eNkuPf7Kmlp5HLo8f+d0nW2az9yncX0w0VZSTV4mBl13os5+D4Tx4D9sWKS7H7yi8srjg/J6ss+82UhL38IOW9WsU91THgm7hGEdumegCqa6Ck+/qySxawNmqJoSQ64MZ93wXDl29MAiisnLwRCJalGvp1gdyRa4M4DOrGe7TVW+49oovTgovhwJYLAGlcp4+12uhI2Kkc7fvJp1TC7hmN5SDtn9ZCl4soVKdFd85Y+v0jYl7BZoi866TF1a3IxNB4JRj964plw+W/jvXA6hCM8CQtZ+hjFdRyMsaetudUDo76MfXWvU1JW8Yhszqu+u3q/JePa8Kbhr+bM+GXfp7S6FPudPXMJW7T57iyiQ2nbo8ZV0GM0CN/2M+a5aNwI0eiPHRd+2O/YyQvHnRPxoKoKeRhUuvLt57V7/pWK6YQjOnnw78KnPz3tSMvgYmH0rPxNiCdUY2nODLp3KZ5h1ayqzsq2FKACegJsDzeL6yjb1zNxHusWyf2Jn/Ls49B3/rDrT54Qj+S6QzmzmBI0FcZw1ecjrXShP83LviTmZ3AaVrMe/jtMJgA/1drPXqd97/7nbxNgWkG2JFa358Bb8AafUpCtI8ZeatVOlWGfwGs+kqDIzJDo4FDewVWCDAeSc3a1LNyC/0QjT2yzPRTD09QgNUDPZbZw6/o2Zp0Id7lwAblp+NcFYxRUJbjUvFf/7C2T2LWrRcA6eq0T4/87XuubVsPs/9z0mOgRsQobaRpsivZ/rpEkY3sHxkGScA8s4YlAoWxnFx015gse+HmL6lv+zch80CZiBr8dlSUunKaV0apyKATSagFYEd4itYu3zQtm55+uAykfxaUjyn4CnPcT4YRtDlrD+ikNWlaLf46XIxQYrzqDB31kecf83IEFl1+I8C5GuCGQz5eeZG1P1a7cWJ0nMnCIrTUO5YtSzMNEbC5zldnk/Kyc1S6RQE+uPUXkK41o3crj1f8YCFg6PdAYfU4WmWOblsaUqIX7DkRgt2FOI4FhpxtH28N8WKFq09/6ny7252bEd9YXCwACc/naf57NUM2LCzcDz4/MCTEHdKD/UOQNT2ajB7bRhNllfj7JId4PH9xQ15AiCuSMqlXSaU3DYoJAB962iekPIZmeFtp+ncYfv9ho9GyJMP6si98jlHBp+zvxbE8Lq9Dcv8k3SBsXyTB4NRLMe8ZwPRqNtNB4QuOwlWfJY6hn0uphhhVYKjiSJHksbWWUXTZeZBR4TCOpTFbDGHb2J5FRICUDAYe+Kknqj9/BXN+Sgzk92CMRMJ0Eh+p2c+K9xpsnsFzZ2ZcG39bgZt2hrjSZKtdlG86HKJUWMNA5BzHJSbBQMzLKr80wu9Zxd0AqWAI7AmQSSduFvq+OqufgWcjCstpEzscyoJB5xDy2QdtBIenRPhCA8FeDC7nKaVRMCUsjU8uS6oOhZ7lTYskyCKQLz8eRk6KXq0zo66wjOokxNGuY8pLHJG39kXu2fv9RXLrDGoEQIK92H+Lmrxk8ZKi5FVIprk6Vx8UR0ttJvY09WSTFjmitdtjvG6wPLMVjftiOkBBRI/Jscdfv+GiVCnzUkudZvnt68aXFXb0ldsL523H98IQByAr5DCkhP3yWUFeccfSy3zHFi7NqsGv8heCJlJRQDdEBYzdKmnp/uXhwQLIj/wpzwN+3ZF+N6GAu9CUnZXyZ4xK/evg/7/F1Nbpz/ln/nlFJ6sqSPLbvFPy3bwTUrIRJIaoeSIafrcUM8nK0WgOTX5sWrIWMPcNI/ZC+uNCDWZPnxSsdiGBzTf5I89X9rel8JcQRnvwgciiU7zSNKSHbAJ8DYjZ4nkAyUGeI4qMLyNEIaH76KBjkKWovemt9V72OGb4Trc+i8HOOj11OY16qt+ZUuEcfTFV4YPiEwVb4yYOgXSz0sVmjfHxhFVGsIfQjorrC0kST0IMjsjqLlq4VyXIN7fpE/73CjB2SK2A5YCxqyB9EyhB3rWGGGBziTHA9HrwYFKKLD1FP900ZO1/El8gtNOYG5TrmD+y58NQyZWPeUK3kdmW94MaSBsENsP6z51Y0TdzVF3an2UTkM+iCwIo5qJJntKvsHY3hUXhKQKjZWHfpXwWiWgaHlExNojPipiap4NRPOEZDKqBVmqyaUTaOV6EIgpy3OxAFx0XfHC/cU55B9rMSk30jK17YNTUV9/EyMxjkf11y0uNjimxirW9gcjcBaDXetLxB/UnCeAzJyS9ckwsoKVSr7XFxHhzjgGuHmx4u3bZc2IqSvslrl/qCzi0XQorbM08B0xKX/eK5cZduZVFk7TgthHXRHiD0vW+HQbXvKuP31jjYw6mjIBxWrQS7CIB6crkUJOzDOPqaNcGoymeWB5xw2asDtPGlQlVvqKBKCUjR9VnbUgKxVeh/4ifN+e2JhcD5YYvp5O9gFyBIeT3GjsdHJnFWqTcYyfZZ9oam7Njml6rDywncV8+6lSLYI/dxp12CXSZsHguFGqtcns30FxJFUVA1Af6Zc7hqtO61IA8NuLweA4ZaM6voC3vDKgK/m3tODl2KWOjrHD2jiojbHHNtbAVPDFST06gGf0UdiiSA9PWL/2J7EK4L6xYTEN7/IB1sRU7h2MFI+KR7ZChf067rLhDQ4USSpupILEHiMBRTPSippOhBtfg+OX7xh6xIiVeH5G3T6C94J/Q0hfJM0C/ppKnCqXxAd2hGdKEDB5ddxJfOQ3VlD16hu7mjZvmAMhSxNplTZLilY+vl7Iy79ZZqoTt6cwZOOGL3lAnp+N5HdYjOnDUH2ntUAxKqtoDvcWTvfg9xR59M/hwodrMUkCLkXQg2oETN+yC8ZqtACGUN7ycwCYb0Zw80eVwpydQk1iLe4ewljkwJrzF6AhwV9urkYvehIm0xpdyAA9fKOcmTEqxnSy97G7wPZRoocJSvY3uuQBZO8ZRhgw5FCtVQvYgxLo2uu2TTMQYDBuYoRUyQMxVwZX3O3CLSShqkAJyZE4VjwAlg707jQcPdRpRrhYzTd8aHtM358VnqwiZ063cyL31mMCsiEVhZ8/9/RWnpWp7DoIgRDSpMThirzbQloQ47BNCqGE2Q1//e8/xgDavFedOxudrdFMzPAddOqF3psST4bwo3KuSzfnM7oVr6u+OXATgU5ZnA0iYINngj9rAnOZjo0odg3I25DxxpHimKHiJzlbxZ0jnnREGkJBJYQLLLgYkaXiuvijuXhcTX9Oh8BxXfjDRhFgrsq8zhC8kJInu20m0h5D2p13pw3W2EOetxMXELM0dViQKM7s5f4TSlyC/YZXlVYseOe44mA8QxOnGeCpUoWk3YPFFyqB8LeqgmAnpGyEpfMeyWt7+MQMo743uvg9GNDvTEPdH88D1Y3n5YhMsXx0QXjPQ7P8L3FRBg3cWKqidUyfWsKIPpahfRMBPGrY8g080XLF87qRvx/FGWdQYzn4k/iQcP86Hn5ZxXCBqIVxk3VoLR2Zrw6/rpl+dLIMuVkkV1IlP1L6KTsTeQg298H25rTK6Vxwx9qI+x12RwxdOdUn2Bi26Jxx2LK15uz2AJMtceHPzBK47Q4TUAEPhqjpESyEjQJ7Q/ZxKpcpxL7s9eOBNFhJeXfsOz24CSB/lZyRBvO79ZxYr3FdY2AN9B4ayav9rTd5lW34j4Mg529Qw0XQUx3WJVqgYIZefXP7V4Z+OwviUXn2uX/prj44gQInNwBHcJ6pZRrBEIvcL86nX3lRjUCugARc5uWZOYrlp2bdMkkc9o6cxkZ9QvSWLyMjhcFVzDDad6na38cRl3B9TqkykimwYKh27eLIMHoblpYWObXmdwMqq46HiSIee+ORBESGpxsKKdhf3OjCctgkGAFoJu9XZk2HtALa5kzt4KtE50xiDLzZpXT4xLsLQWqHLP6HU/fkMzOGV/ngZAWD9/rpe1DSz7AWIATOU58jtJDX4QwvUweD/woiZ6P2MCZ3wvKgbos95vWEqZ7bPWLM9dKZ0jHT8faQ/3X39bvdtQ5js1ZXgk1HSjf1jYfn0uWOgEHakCPcgXDJboXz9QrYwGSp6UId5JgOesAPf9GdMHKwX+OSmUKpkh9LGeAzeM6pU55KUam1cRggFXmFZVaJ8Tqq7ht2L/I8gLM0aDmXSDWJkNB1lpiwtk/qvGLWv9po8TptDzCAgrSER54kfyB/b8K9PzXU0oQJlyUzcosgY298KEtE+Szb6e7ynQAwX7xhSonv9oywGWxZ1D4BkrJ+2pLD8YW3PE/2KJjUrn4oKwe7udfzGYY3/OWXLfgv3Sem8NvuYl1HvqN3hV6U4R32Utpo655w3oo00/7uq0YFBZilOiJ1UVqZlLSmoF8WqOoHjf1r3HDKOvjGYGYq9ETrKzn2wF2KrR7R8s5QY5zN4+W8FAVCA4Vj/xZm1T5nD2hIqEokfHdAbWbtOj+Vcr+NCQmybkx94iHr9KtQch4PboCJWTtUy2/RMtcryGeBdooM1BO6Hpz79jQL3q/pcJGks2LZLKtWGb72WCLdaK4TznMgeGmY2/rIZvgh7NdwCcVxA4ewlgTZ6xrbhGviIgGW3cjtDZ7CVVi6aP1qq0lR/s4Oydi44Ah+O3q8QK/9b40ksbEfDIOk9Xs0Mw8ePnQS+FCfSZ1UzyGCKyG8h/pQWfKqS1tZzi9rUj56V6meHVcS0wB8cP6VOOrrsnsYaZzrm2hX7SQK3hckjpi6wXh9+XX8zg4o6jgYFWbvpC2456uFHuATPdSyXBQF7gnqqTX4kAwadu19mkEymDWjkSYM+jWIHgQzDpTQJFO9BTcTF6/olsV0EBNExBN9IKmL59d2eAegzesehT7b1pUQNS92KK1dAkrbC672ZHlWct1coPLU7QOIVt7+0esGuk+aKw0yu9MpTNeBIqXdTuTb8Yv6mvaQeHO2PeCfFHERcaPIxvIkX/Y+NrwdwUohBSs7jtrpUPaBxrZ26REbOahuZvge7YzypmHPL7svAEyrxUn1BN6I7xuP9vJKnWvn230RdhEwQmvv+HPJRgOWdxvF7Y5WB7qGc5bd4F2SGm1xnasaK/U8LX7RhIifoBxWpTjWG895sHgFedysVLBj8QbCnf1HZc8Ki7rtTVV3UKalzCARQsKz9lqqZzVfeTVZ4yg1NWcJniifuvMI79l5eDAjaeLiXVgjXmD/u8lHYtsB6HN63zWHaXjQ+QtF/9oa6XazpvIlE1nXnM/qRDNuwAZwq5svR5Dj5ArjFyfvKTY9Ngg/SM21ARlc9vWzZPo0MmCOSXIXyOs2fjJkJVYtjq0HUeDuT9aUtw+yDR/L2thtWLDJYqyN8KaRT/EeGQAJ9BtEmbsu/nOiwN6iOPd8FKm4/v+zBbuh1V4Q/VKu2R7+LyVXW5s7GiMY95xwcN8t54DBAAQiz9fcFjE+9NHXyTMLtqKf8Was5ILGu4PE/FfuyW93bQHreKMeCS5ce+/DL613IwnbbPvHaD8nlinO99NiOjzqkWSBpQIoQmnWPLnKMYhC450rttcUuKYC13UyDakcaxXaWe4An5pfYaw9gaAkGvNZdRQe46WSLGj2gOV+r2lpGThB6X53yykh1LNPvwsRrzghjfgSjOPCZ/bOuWjZbZjbsrhYzUtmeEFQtoPSHgfsXSRRN9rEWyKWR5HUJudVyCJZPzCjcBOe+UGyUGf6I8MlmTc82yJjjWEQ8jPzVLtU+VbtR9qcOA+1H9vCJrua7n6QyPynhViwEN66+4Ippl7qkhMOF/eHCeQL8KkJqHLtwVpEzbNmCRexpn/8n6sSpEQ+sY67T3GPQdQmJWp34tjJe0LAM/xJyJhK0A/ARVnb4zJXvbJvcwpUjd6p2ptLhtvh+KFYx6Bb/YCU0aODLC4BBMyEvWaf9f7tp0sVNMqlwHMCWGcR6HAr+THfmb9973W0IZCsCyEq9cI66cV1qmqh+nA+m9aJE1oQ/LaxhWNClYDMN3hkaaCRZsDQflGKU5/+nRbJAQXBBC55hf6XYA3gT4GmGOqJs/iaCsed2gCAiKpHGr0vC0GvDokLjvqDKK3+R/gAvO8YXQWeNgPrZWLuNpmSgXcYDsr62OKLcqOgN9WAHT3KfHRlsYasN+RgEZUfS2OiCW3szxvUsmG3tICRcvz546Mkk5vccSczZRB/0SVqsZbCHe3upOrAAprhUJP04mfgiRgmuoDlgNTetNnRZzjyY5G4OG4oI9jqAyfWB6k5JK7cC89HQ4mDD0NewjpoG2sGOxY3aB/TgTtcLf11PwZpRHHiTp5yBZg4J4T6wFZieIVYGZGdcHJbaTmKyaqnxk7svrqnfhWaPAtDojHFqr4TuI2mF9E/x3HNM8Pih4DP4Y8Y/WFyWsybfOh0M39fUXo/Nzi/gZMUOytaD5Fq+PEaXQJr7xbJafUUmkC5s8vj8QMZ4etZYbyfu5aH2rr2zgqAn9F6D9txshhpQ1dPSvNiPV3t6cyCXc0zsiDpoUgLwWIJ3DXbU7qdKdIWC4FRsa3nO3C2wmJq2HXJ//1F5dzfOs7j3KOHOHZD9lBMgaxr28v5hsixNp4Jvc0wsJxvWwaJFmGikOXychvsS0Dg0lLe1/gXg/b5b2JTFQK76shr30AT0dRwKmbsufG4gGg9JMUPaYI6dZ/494ab+aM9iD/qqpe2QcoPQ8tXfwtqFM3WSn14Hm26Klh8ufwR4AYIInbdFdtWE5tx95krToI3492VkVQ2lQdQrvv9YBJiXgDxhDRJ5oWOSx21Fshe95ZgPHQuMKuqmB4/6R8NRY1sujAFsQxy45E//zWf5hArloqv7liSXqIpzZ6263xAdKn6jn/0pEch29g5FE8KVa9kxRqbHzGWSjWmOhna6d0FkpzyOlckRJXv/f1HJ1xwIj+XT5daGXrz3YKPbyZsDPUyhB1WUnEt6fcQwhgmPE6Qba88nv/jvr8FZWH8V+7DfI5sL4oiqxI22//jkKUjNt/iycncPvFXXEIvmIC08O7IHqWDX35D2Gi/BEIXESq2XYWfBCNB7U/ftq9W8yRLHyf4r1D1Bh5vkxbG5pX0acYmXaf8UYHtWF+ZzCpxbarGu66B0Osdl3x0AD0k3OaiXCxUBBLJRLCbJwRInEb1wzlIvQOBP6ig50WuNBPoLX6AB0H94YWP96kPGvoSfFFkI28MSXH3yrXS9Mczgf7ixrilVqZEk0jrxZ8euO1zbeOKCSp2zHllpKm3qDJ/I4fufEktqRsaDscS2tjF0oyJruG1+yjYB7Lzg4IeRytct0EKaxeMhbNWEKQ5J0YSwFfbWZ48rhGpoGn14PgZGmlPvHm7STB0BZG6n7P+W1v45hhYFyIomT62JbV+x/sy4VSXNvRnPFww2riqDUREIyyQj0Dj7rOaA4MC5m915j0asue/YrTxj5gDBglTIztWnGrp6ZXaX90Bd1m00PRRc5VmpVB84rsxVNYZRVCbduhwdKejg/r5Iyh9I0pXZM9VU8TOMMWnArBTAT2L2eyB4nYctok6LKrcRS6ewCndA2uteGFlpClpA7JDspSx8AYKJeuC1mdIv2VplBtrRSAJCJgjL1q8yP4rapKRfBSYoVyNlHPDkQQgWRM56yHyOVammbOLcfJIuJJoRUIfMsHjGZWyR/gIIznC8heLGRpCpmfSuu1yy+pKiZJi0vi61SdfZ3Y0kHMOUJ47J/e45F4yI7SwgkxwbH8BDFI+fYDeN28jY58buW7zLBCLMdbiLV/ZXcaXYBR8QGTkvQwTqgUcrgIxnhliV5oJa6iWoOMeulGnh43eHzNHA4exSOAHAO/OR8jowwaFeBaRUep5ZMhT03dHjVX6xnY3wdajECvzjLcWw2I8DXRTqsAI8LiZD5Upf3wrTdrYPstC18Mb+GOpHXK6UMVw9XosKPANz2iU7yET5l2Ulkt5XgyWyp1bjcfJsOUGrpN4f9K3mLfqIPpr37ZYSYeGH7f07cLqNPlnDAs77Xo4kHkbbbHiGKNwc5zKQVIr5wAqE7NsJGmM6F+q7Z3k2acQF60NlMmW6sEUaFw6jXaHLZOoD12XpGkUbB9ocHig/V/lMGiGFOm7xZsmcNbWrAdPW1dV1xHzbntGHfJIX34MI+eYXHZl0SKPSsQLFoWr7qXvyEvxpVK57dyGxqWOAfZve8eud52grja2ZQ/959uby8uoKRVzCFvkeYbhjpaR+zVFDaAqAKWvP7NBnawSUzvunw4HcIGmkWu9jVn2jl1y2RM4VLY7YOiDfwPwf3UTTxSRxyZe3x6eEjb/skpfhyUZkU4RWtDWooOkV/O02hV9hmumR91Lmnj8iW8/wgKNYlTcCKrFMntWTSG5atRNGaAiDDlFthHe6QQvhk9jCbV4Mv8qDOrmiuk3s6WhdFW8leI03O8hn3GDB+huhcK4n6pKgmnTWJ/EIGDR/U78HJvOWCNiSCa1x5OYOIcwXmkh8yxH984gUh9054Qx6S1Cn8HX/MaYJlheJXeVNW2RMDM2hnEocgHiL4zxBtTcl3ATjEAiGnLphggxx82jSZ27nF26cvrpELOSGSa3zeycFQqY0QVYhU/fTc/CBRNghpXH++3XlYO/POKQgdWh61Xua7/SQ+4btL2D5TCJ9SuGnHK+nm5SdBWFM2uDx89aFWAg0fi+hAW9oSWNA0XliYnLmJ7BJUe/cFg3YWbjnoMO9zyUpBY+1IeTUBdzdnP4MMSTks8Rs8Lzu/mLRE0INIvhRa7WDzYtOTjmSbpxWvxUZFQWAZCMJMwoL8QB54uUUO7bcPvlLNs+dLv+z8Yv6gYs015hzVSP6PDcvTZ6AHbTjrTZSr13NS8XjmGW8Pva820UBfhuB93SHgZH46+lMwYMhC4yi5no69d1F+mlBO1jl4pqUO+ZgUVhwZdV9s5NY71IoIaHsF57so7r2B4OHiELyD/r89dRybRQkAsFn954fJibrLCLFaWNEanMG8dU0uLwqsvIPkXyd3L9ffZPl0YZAL71laq7gwS4NJhy4PQW2n5SA5ol/3Po/PXcy3cGp1o4clEwVKQWWi+A8ry4YoXEJf7jJyJV+OlmCC7rmJUo5bSrViTYI8xicmuZeDYXTJ8tdffXFmuZakGnKdU+4zAOm6NIbclKoR0OXVDIJJCHjBSNs0cd+gf6Mt2rIID0MqbAjSyCebFymMjwKq9EpYoSxUUtAfdJRSo8K7znHutqcr28g7qoFP/h4PvSJbj6BtE1UxLqmzIDt5jzZSXodRCiPNB6XFcPRqM6o6VglXvdMUvEW7pYM8eES7YD9vXgDaR+H3G3lNokl37Qqhzpmfcdc0r3Y2i/91USQIg7dEC6ccm0vhVJSHWuiUrYeArEvurdGt7d+5sObwVehP/cfsMwIhbFdKMLy1Xe68pN6k5QNNfOoZQg1+J0NUIq5Sb5a71qEQ5VGStqpVyx4+2fV4wjIoFfI9xGokrHMSK0WCAR8VABXUp1F0L79VqKgLCe35EPSW7m4T+aepK5MLrFJBJl8pYo1wtB/hy9+xUkJQj8kBR9WDyZjs9LQDFj8qkjj71BGqRoylJP5rv8cZogpuGSUFiJ8wuqo6kb8UW/HqyXHdCAcQYB5HjLhIDZckNnSX+WFPhe53ILR9e2Z9W3LhevwEAngjvzLjniU40LMLTWvBo1y6XubMebuiAnNLey1zaTq3XMvxje6V9In99vBXTnvDTwDQSJrRgZR5+PnYeN/naP0byuWf2aKTE0+CKc8q7GvMZDd+mVhH9SqMp7nHiK0IPiy7zgsxMTjtmQ+FI2mBx7EBGEwBMZGSSUuC5VFjl7aerpqCZkMFgkh7Yy6y1yK0hBlI1Yy28AJCcJcUeqGXg+7vE/qWjqeNyRHXgx2kce+ypqcIP9/36utCHtd9wqf4V9vVoefMuI0zSxEI/Bld6kBCevtge9g0sv8CAD3GXjwIbaiI0GNZdd1hsTzdWnBGDzrbirATXFxvVqNz+6mSR8NDgq4RXhiDCRr5yEsplzoAwYZru2a08I8m+H+MaKfbQJmyQwKvCwNuIF3wMeCN3rt1l1QQZz9dnZQP/jXh6edchlRr/NaFm4nTdT7b64i2ZywukL+GdauTIDjXKIrSh5WBcGQoKFbyLmpGSCGszzgWI56tGDKmtMd/GBr3urzkvNxntYlrd3WF3NWv7uuKTt2oPVA9yxlnW61cVM0bESsaVK+CX744eJpegZvFFDyaNKfxSm9YNUOPvze2L+uJzmb1VA2/M9jPgOQaDThn3n79xZ8/JPMScLIUU6VBx4OYYJcT4M5f63GYZ1N1t8F8PIl+y1MsLVrLCV1Boy8kV7fQJ9rdKkjSaFuq7djTsWEwkFH8ol3ZsQ26tZmw1ZWO+xlpPKMDXeuuJAUhr2CLyU9aNksvIxFyMdybajzo6F4GqOc4Z/6Beuc0EY8TiMoY74aqiIXx4JJzbnqrgxECGtKFllGjwg4unx8s657ooRYdkCByExd2GRSt4yTTzeLVFBilHRwkwbAA6kbNfPNGT/JlDmQuXDk+WA9OBw1OiYITJLh/wD4qH3kAARKxnfKwKuUPitLojzJnVECPSez09x4fmGtwjN/XbHb/xo/De52QnbVCDuK99cjs0magmZ+JHqeWMBgmAoW7iMIdLTZ2/zZvnQBw3CAdYtZkp47/SMoce4TfDh+L+TfxiwMHsQi3WvVlhP8WMbaIcWnvViv0XggCdJ92/ezlFghu0gNlO5SJVa7Tq16K8Xz0a7R/vFpkk3WQECifUKWywy7dnFJ0Gm8/5PBE7H+L3oCTXXwjkEgiOoM1v8/Y2QtqO8NGPSksFfOwCSsXsVXZXSZz+HY6CRvC9rQl0zLQvo8wauGbPem1ERfRdR0tgd/6hbypcTNEkwHPNkM/uAWcUX7XAcW+x7wpkw+gbnM5ZU3C68Rre/c7XOSJbi5sWzKtv6JgnxlU95UoVRzl0oNGCSvTY92UxGodiMTc1tsGJ0U+LLIAH9RQQtgTl01Nqabf0Q5R8B5HoxvEyJBIFQx+5RxjCiGpWGKPyqdb9eacsLJ6DobNtTEAF1wfgx/+EqVz2YhicKJRObZXRBLF7tCWkGGqkTuqBBJff/qFLRZXGK1jwiXeTEZAjfDj/oxl5DUB+mpxnGQT5A5mXHBnAA8Is+RLkob7kw+GQi4KtnSeydsAF/TomKrwGqsDAP911qlBp9UUpQ2XuLuicmEYslelbDKfACXad0Jd//RkyLCTB7lutAxaieYkJDc6E/Cgql6PKh9wrgCxlstpyDzPgS0NuIQ4sThDmZaq0uCZI7Ii9l1uNQSE03RnqYNanmJ7G3a+C890JH8vtm6bax/Q9Veaabm/zXM5MtVUUUOgQH4vuVTfUaVlBhcE2rxpMWVns7ugkJc5KcwZ9T+nywiKyIev0JaHf4wZ6KO6b1b29FVUH6tc44/+jnPBGNempVnhXsJDxKtnMXesDmZW02B/EQhL0H1PgW0+CtfuvTvL1v95wuaEI9tza9d66zUshJIzi6Tit/rOWlZ2juqTs4LiRZNWPxYdctROBPB4ktqNAfHvuMbRL+BAcOcsJPKkEbyCdj3w/IzLdOeE87/tHXYLfeZDapwJ+31Yozvy3rkNnnUhNaQR/pOTyJqM6oK7uxcFJhBo/5NYlppXMbD0qNFKcodyKYz2QORkR5OvYsQa654XtK0alYXvrYVLLzDADujLZsYbwugA/xMKNnUNz0EeWH3FrP0libfA4HR+/nuy+uRM0Ajzst7smSBWVKcdvzfxjNis4px4yv+JKmibVXGj3ih0wVDtUItNKH7a59rWvtRtZW4YcyWtOY6pNcOoKFvLqFZajJPuzQQyLRQ+toFnHOiUrk3hoxn1XHDqfEcGQamvUd6mXehtyVm4tmKc+wVXIQJsqlGLi6+wvXweub1p172I3i8IbBawxv71O/zf1PEHV3Mezgfs3o9JztCbYDRgF1uZBZXAZ//goqMOKfwBefMfg114tjHlQKmsxPCGPRJMMM8k4J94CURHxkRJyzCluj+W0vPqUfFl3sg6p23HjftfP6xOqIp0ECb2vHhql5VXVwxPdgF8niaeu2x8TgE6TsonQmPSq7X4lmw3idhn9ojLF0W0hYa/3i4vVrofyQdGZhY+iYaxahYSx6a4kdynBG1pJyr8wafVV2UhtcAMn0sHXWxKYkuXxvo/HAIIbE9dG3Qpj9iCOmFgBv+3gjwyE2tA2/S7T5yfdQ4SlEWd/I+xlM8Gts+XisPmm5eqOzPLsWpvYMwJDYNhbr4V9ts+JzXQos7WG+2AR9O6v+3sID42R+4z8JNUG+3gssO3zgf1ctxJbMXYpG49ILzh2qOlFoSfFqTnQ2rTiR0oKpQwjKMML+qINVHDOgquLQaWIPWr5VH9s6t6Z4V3uTvnK5D7Lk9Xsc3eBpcFL+2ZLEXRTQp3YoIVrumxkZUlYsEGkjf5zwpwYqlgBKVKMBKneRwCJAXASZ7sWHhMXUoQHiNzd2rrIEW+L+dBzm/GeZVIaNNcmO1ZoBvbk/VspmuOFTCS8ZA3rdX/BPsl5P3TR3jT1DyERkX2cEpzFIUje4BOZQN0xjleF/iB4UDapeP/C6i7ipuXtonCpz8UA9z4VHUtdsfIB9+Fmb0nEn+CykfbqJuj8LN04anIvNaEoiqb7gPNBYBQIBSUryMLehvcKzhSJEUvnjhxhqB4dsFkumtgz6Simevdyv8NITYAguQNRcq/r5m26RD8WvasNzYlK7jJpBpFrnZfVsxMIt6IGS/2JWyC0kaNgjX6nATAkJyamcSWeX9iF7m0Gt8qENJzrXgE7NfGYwx9lhjPcsx2LnXZ7XM6q7ZfCsTC7QPu31I+xIbjUbVFgxuCTkJ9eg381xof8FqMkdX8DK8rKdQL9NNXQBXcDk/EvekZOTlM7ZUvHvom/5Y+cixYG/xNFKBvz6wGFlrWvtGjQ1b16Rud5WWwJTzFN/7YfdYvKSriwBXs3R2xQUXVtHhTVTWQXzT8OmmN3eF3cCtYx/btvC55M5eztH5YaIx3p42WNHYqCFX+lkKZBOqonysI5jg6bCm8gdVc5lVtld3vo7+p4mQDTaHaj1U61n5WG7gMAyoCV2rqyksTe2NOJyZl3KlpYcOctEjvRk6ymRN/vNPJ5quOGggppKBMUkhxMTPgU7YIh9PZRJAvvK/PzIg6aorrjGmc/RB04QeFtqr4rldcCaY926NhUB09JzXaf7ysgyPQKvfF2AhKyM/R7eBWYp40qY94A16MVLi4dPpHYO8uSzWUOsAnHV8UOtxflg0lMl7SefK2rwt+dZtZD3dShFAIBVpFM8VL+jHY2QoibniUvDm8pc+xdaI8nogHGnBDNE8EZ05NgLfn3bzC4FjA+g/z792tGp3RHkZwN8TvAwrE6BMwplpKRdi2X3RTptcBu3+k90RPqmKpNuE5Gk88IacfmiFOOLHdswP5tuAKsfHefPDI638afgZJv2yRsww36Z2sayXV5QO4VzHfJjte+ZU5TwossqUxwKtx+xZzNc4GVFK5s6rDg1xXrct/9F5PSB61QkjD0M/SbdKCJeuZl+wrATfrU3NuAejgGp0w8ZPXo+I0YshUu7Ipd+hUOazpdKbs7pyLvz93JwuaXiY3Xy1NgxTjjC04z1P7mPTs0HaQMeoU4ovFystq3wOZ1cBhneTaSzqI6kGrTp5jrKkaJ2T9gWtUDTUX/zfdDJV/UR7nT80kOSnEPXPBtLNnSLI/Yp4eSkWHgWdJrMzhsUbB+lLbBADqMqxMgg7fP160HRKXMr953Fr/qTi825eJs4xAHHaDWIelqL73aZmw1iZ6YpQx6aQ++5s5POM4i92JhYVvG2vcKpXX1ms6Kr3ksNYiuN/4LhYHMLA0OCWJ4uisbvTjXEe19Wq8+bHKVwuGVKD9sWlBwJ7iP9khfUUNKgz0zZANDJiTkOP5l2gZqrfnUR/gxt2hsvY47c/s64v95SQvckaM7XEqVquNkTSkxuP5rKjHdYX5yNpe+3DQAV/Uv9I8FB95GaoFW7BP+WpefZJN+lsVLSkRqp4elEW//9NG0a/x3ZQUyfGrPdMcbe3lmo2UIjTQFyb9yiOl9Hvb+reG0xggUNWKrRJVMhl6ZLcH3E6YhYSew+p1EEscLSI+MvJYIEGy2gfsAXLQ479XH6tl6ym+L6u5cRLNyYE1kbVqW+T0zJOPLyRl39d7hg6f3/bAK4mpGFse+p3fQH7NI8qTqonD/Uiq8lsAw55uBjwb8kg+66SN2Ymur15UE0Y3nRsm6OktvS++ZYvAirjyQ/0L28XWARjM33DioRbnMXOW/CTjckf7o01satbOhsLOfv1XwDh1iQk3RSxEe1mjgjN6eFiKle+T/LsIOyIdp/qj1SlxZgrE4HTwtYpo2LAtVm6V22JYQ/ZnbNofusFhwZhDXbr6D67qmX7PsE4fNSfIMnX6dNqhq+bxTT7oxGZtfUvnv5g4w/hYBfKK0pgqHS/kPmdDiuTh5ROF5YJTCbk78AcbBnguGCgxBkJKZ+4D5zaJbjWG6TQOpKjNK6wqfFJJRL3/0wzPkPbSxGQCf+gp3Pzv54vgsnV6pm6kvkeb0Oth8ecqr0bB3tD/Yu/IgyzLwAuOZj9KMC7gdMnP6ik9Y/mzVPIKsgXzJH8wxEoI/RwsokeZ0QH/1JXy+Drtcdsh2ZxIyBd9+NgT/Z2VwOQqTie0esnkmdYEQFPNkCwXs1Tu2yUuDmaNtXYSg6k41okA/pUO309czRUgZuHQbafiKz7WemyXxiNJh+xPVe9fGA4Bv59Zf8/rhrbke9QXWd6wh1iE9b5eEZJDYG3SYOapYmRJ4axAEdnW9GHzEs/ratTpXviJ3FJoflSCQ06d3Z2g91rUa7AEUdjJyKm/ZgXVq23c0c3vzuWCPKYdBG3mX39cyxLtwsx6oK26nWDswj4HdtMtMARC9zGDHOi9fByRstNhcnOAhLoqCkMTOIyqiDo09SmQBMpyYVYaee04Hb7lKO6Cu3ja1vrTp+O0wkc95iWlvCQJvmwe0NHzPPfLIYApM6LoQWMDcLbuEgADVQNeHOk3k1Iga3U+nE3N/2eqY+f2g49A1170+y3oZfFtBvdw7Jj8cDCmC4tVfd46FwJuwW5VnRaX7qldF8Bo8pGWY3K5U1Wjm+708rHBtxdq10YWuw9oXq/H50nc4SGQh6d/zvnuuDF33scwwXZPOhlKcZCg2Hu9IJDtLdr1ATnPI/3mKxNhlhOO+uI/2/acSLH7+w1SNM089ts+XMh/bl36KjcbHI8XRQaoMyGD2sGV9xlu+dIIYFiq2HMYGIB0uUiqtMb3f4+jnAZcWxsRFdyEplInqO79PUtF9ADsrVIOGd0D3WXfoOoAhvuf9B8HnDxZNzw8Y9u6nvLM1PWopKr+T3HwrQ0Wbd8yHZYqjn5LK6axVrkUgnIuDV+AiOrOtpRFLk9eynwJVVAi9lNuA5fP59ZfFguwJluVLK7/NSJMKX+KrkUz1zl4SoEub3tcbXIYNyPMowNZHY67Y+w392kZS26RHSB5VPNHUE+rj13sdbVbo4oWLbMuHyETFj4HiE0FCCHKMKuMCGcUa6uORZa3M0E94v3J2bcB5/pCjRqZ/z5eTvrRGlOznbtih6rCkSpFjJK9/Z+DJ7LUHGaCjhJL70LdM8YOocTKmugoIOKyCY8O5QHRgVAt+W5RX99u5AvtECOmjtv55o/YZG5bgoacQY0EGGy3zkDZPewmWpQ8XvWAlCa4CWGGZC52Nr8JPRx0RpJRHKGE7wEzHVimJv2+5hPDzUBzuzSoq8PgWLaC8MmXdjMwIMjV5nKKrFQtXyU9ct16i1MbOb52cptTeVMsjZQ8ixwdbvZLNtGiyMk58JT3cvkC2p6IdxD/DGK5bZGbHI8Teny0yH5oZSjqR+KM+rIUt20rP6jYVoYpOGFbrsWcb0suPRtsCZnQqf1tEh3uTJw1rOgtKQ+0Rl3tTzqPIIPnzMx6qntQ/Qp8I/kqkX+VwuSKZ9ArgYDXj/IXoO2L/tRqxPTBf20D4sLpeb84or7X+IYefpeyAXZid6eoiw+vyTSLxG00Hh+4r8aMu7JJwTGHeySgYxSEUVMoHvjqG3GBY1VnZ+dD5zA9ds+5lebw3v/eg6R3s7zlYyCKzBVZrnqk12+jH7w39tEqYXNJXx3GTP5L7AnOXgSV8Bdq50qrvRvdrtVmSWRbbWMYrwMfc5Z65MUD/IzgfUNmdbwwhOFv3bWG6PlotxiPCNaQ+/pcOAJ6FeQnbllTtp4UyJLhHQyLjS66VZk9/4ztpo6fRmvND8F/OOj23s5Xg4jFCwg6yt4mg7rE7kD/wWKNNCifGqU8sdal9+VDMhyOdO5DMkrdvaTDfQRDbbCCO3lGP/fE5hOPwxrpXWbytEwcv6LlqtT3GcWPhQ0Ua6SJxNz5iMi2/x8bduMhycQmbovdS4ejXcKcaBwMpoGE089n0K+p350c/VkprFwRF/w9HjjUJjph1KAUpeoEoxv3zcEjmX/u8vm8Amki00B1FePoQVLT/XXyD4XVrDCyku1643aI/knSluGUPoCxb22uysIjerMFZsY8nGhpiLamEWA7P95bgDRX46PH37/mJ0lP1j/UV++gMo4X6FnCpI+k9fVltWKVVIddrHF64QGYdvulxJ6I93CKAAM8oDOT+8RCCMOsBEdjOYXIbJQ43zNW46QsBvojzWZvT/pAyVpQWvt6DL3qjaruyCkvBo+acpiE/XiQ1O3JOECn4U8IkF3uLx16zIIluJ/tbgn1U7VHvSZ518zd1Hr87HYTodcSgMY1c3wyHZfbSnj799+cr4KXI/uaDeWaO0/6KPtpKkXyzGNoZ+6KZW+nyVJcIzqzkcoC2yn9Ncw4peGYVge9vVVGYNHyKKToz1sDtF9A7Up0DWOgJkd8MQPXgoWR9r0D2aox+x99Pc2CJN5yKVPBcf9gajGhfnaPUSVgBjYkcyl4Td77iHZCFV1ACUI0inLl1WSH1mjucM1p0m/yhPr14pHwG5mtHAxxo4P1TbFYUwcJ5YA5ln0Raj69Ee+COX/t1Q/CPy0fyraOGH0miASiGZq1+QTEV752P0hQG+qIgYuLWXMl4quTSSfiJZLAH+0RWNpUIC1mBq70di6pIJ+cRIvppW/3E4yPXErhgUm+25hXv/Is0zpegVszOG4wOdxxHXTk9hQEN9VxTq+q3QyOLlQRAXud1MljmG3Zvyc4KDRwnogkBYtBpq3Sw6lj+55zsmaTKsQ5zc5fOyEllXIl3Qm4FPtS72Ew1M4Y0sWeIwuOyrNZrV+2fepJYo79atE0dgtMeEupaKxam1ftEwUYmDK+zpw6ud4ZbqzlzWMnmUVPLNxsFuKpSvEhmiQ8HMwhCv0Md3NnJEBvlCLG/mE3mumy/jLA0maS9YagQIyCjBSb8E9bRSDMm6p2S/gcwBeaOar5hE/KAYsCQjHFHkjGOaAfaOtYowZhyCCC0it4ROToJtbTtRUGV5a4R06OvYKMqreiLTGRV9ia7zIxrRpfTVYPSUrzWHzfLZuJTCGPHG7Y+nzNbdruEpaIBWEHLDrXvkKy050hvrJJ8RvMZigsEioTnYzZgnhqKmNy9RfpD6Lw3ztp3FtU3eq/1nu/RMfg4D79ywgRLC81a3VEC3SKZpVajYd2+bQxsj1iK/7nsn9+a8UdJBe+PX3hgj+z3lxvsv+O8uTtMTai6QKX4chE9e27sBENhsXNH8Vw/WzHIyFao3SpB3yLGDE5P76cqLZYX2NHQeDq5wqYrgQtSo9LRODAdY2z16ybOtcI+vJ79GZ6bRimnQ15fknL2mSsmL5VdeVJsRl2fZOmDJNCwZfrVHWAzA+NUsysebGF3qfP8w9MtB9CShnnTnEXsCIzhsXrKqgh2IEAl/YqQgvZexn77+SdZB/6Orp0pBwJGWsTR0GYqFYSgfs+Q0PY1aYf1tO0HpI2ZU5VQErn//mKVt6xwFeb9wuC7Gv8cCCDLj5WmbTykxuD4KxdV3f7euWgoodrclVpW8iJqa5ojrvVtXDJw+OYCqwoghckrguHLANFrRCF+/n98R+DcY04AYJKcpNZwvpj1jX0/SP37kD6WdtOlEG9SPIA/F+u8/B3EKil2RFwaKo5VzU+4F1R+DahKo/00Zgj44udisq0Knotdqk48MNvI8zg4c9yDh5rodidBrk0cy+78YN5PI1XifyCEnJE3zcrMvuF/oe/01uYOQXA4H2ptvFMJZDTfpt7cl6v/M7t3gEXA07LHYsWtCnRc7ZO3a8nOJuMhKaa8MgJAY7HmNfQ9BQP5xmzeb7h/ZNaRsUh4R+3bRrc2T0/1np3wv98pht9aD9LUhxVpKX7wYM1+kA9RylKtePo1b8/KEBTEHKwwuSvOjj/uf9V/6S9tWNow02GJ0b0xk2onG7f0juuGf0EAehNXozMS2uAZcyIjmwTbrq6xLUZp3PEOmccKHHHNROVxOVjmyL7Ca0hSBxfASNYATGZwq3QCqEuMccNvFLBJePcpDjSf+gjILzmRnlaVnxx7t4/YPNpidNp+0V5adSXmY/LbvlM4XF9jEYRb6mGRa7Vk3A4M4QSszk4Q6IM4v4tg+u7fEhp3SfXywKoTQQg/SHv9y/mar5rNCMSE8JFXnaSsD+zI2mtX3qCqb1zRiVw9/A0X6VuVhBecv6YmvuV2nCX4n1YRqo6PmIdhJ50VvFr6SXfba2wXxKbQND78d0QGG1E3om+2vAPxRiySIWs6rS1Qz16mZAmNRWM0vmOOV5xTquM2/oiGQeo0NLXw4kDQ2YB0h/jI69FvwRJnBr4r51ghJuurT+aJxy6KAA6BAAzJih27btRHa3PB+X+dujvuV2Fk8bjCm1e3hzzzxEvsC3wk9EXsPgPTuSRZC+L6QBwY3zNaymDgNlJO4/XmlinCIlYl5tdXUngUeN6MKPLQiNWOWBauoWPDRj4eFhMtBlA7nn6plK1I+ylFWF09+6iYATtuzC+NYcM2UNj2trl1imJrd8Lo5NmtG9lfwLJrh5oeB2Lt4QxaAMdY46KNBE190aoEWWTMxM6JIC9osX878SS32pFFM9ZkS8CUMXznc7qf27QQS9L8xskluzfUcAB1zB0P+cWm4Va+DmaldUlLEs0vGOFrz6kD+1J9a2s9ZZZDgCeeRb3woeuOdspukRtt4vI5+R0WObGeIvdQh/o0Q9gRx/thWC2ERg1yoTzuPiM2/1FP/9eudpKkiyGFG5zBdn7NP6yGNhQPYXy0rZsU5M7TYqx0n5pQmsKTL/9urIulPlq0PSuiXMqtKI/kP0mu89rH0H/qSci/MOsIGsPORxHhq/fWWh+qh1FeFyQx+QVCUsz5LRv1yvRR+7/ofC8UE5bqrzEZb1PQp73hVQaWJhhqWloQ8gsnMe/VAw476M4WtqRH2WXh4TjtRL57bWHO4+IrHDsI0Vcw+5uqqAdIZVjBWUpPjXeJRsLBMLk8WZBBQrVVLiPWVCXTFA2GCLlmHSZRm4XQMCfFKZHn/trFJYvL+uW4WxftE62MDWKCxNBpsE04B1G4N/WI1zsNsMXGSAROXbruMwXpXXOLtj3ONpcGE7Hj1GcR+focllTe07QbxzCBu5jThXXyFb+SERijLqGZxOXHOxZSurwohAkyxpx6aWqln0WNMqiPebHU0XOUxaqi5QgjQ3lFJRooh1kyN1aTqzuo418H5MZRzlARoVqNZjiif2K67g5Vn7uw+BQJbDrySj0ffXpaXJ4ezPHdto67xFQNemiBGC1q8TeRHD/oXg6m13zIUO/k8UkDziQQU9A85GbKH0xATlTOGyUgr/8tKVdUlvXeSvIDvllAZSW7+HHiXehWT1sU95QiY5r+dMUEW+W/VwHojkQHO22ylh8HpI5H7WIT+y1yWUTDhtgSPsDcVq4SDYPBBeUT2VqvoV7k5DPtXXbV/ux+d7yJ8tUyEm8sB8TGmMtfZDXUZlCdTZatNsYmMXCoGG8g1phsiD3I6iFbodVkM+7UBjVq2SJ+1JDNQsDGbiv/1hU/+XTKQt+iJYKSEY59hrIXXfyMzHPBfq+5pnI9gAr1IXWr0rQ6IewPYoczIGyvCbFPLkL3aGP1xZ+Rw8cn/Hp3RtpiaMscsNcUFoxVhiedgqSApAgS9w51CtGzf8y1L5X9qahz6NErSNiSlbOpAhNU+0ID/56hJbEUb7R3cTNx5tEf9xak1Nokg8cLw7FzWTwzZYDveIfcGhzTalmHkFWAD8Rl04uN77H2pT7KnvVykwkpGuocPuZ7HkSG+PRoox4zQe+Z7loOLV/qclM70D8S1GuqkG1h2C8NpepRmhQxcuOQFKHPzvJ52ZqAGhSZYWyE3y5G9Y/gZOO04zal3RyAIAQNmBvBpjydCcfi09lTTVR06zAc2gSBEqbkSIRM8JJegRfsCFgjO57xJzFR6qY++MVxTIFcUCmeSoCUKT0d2g6y7uZXDacXC15FKA9zKeUW21uKjRAsNHlR+1MCassg/q5hA2tRSby99vL3Hx5yWwVTEmMb1D74KGBft3UqT0AM21XTkjRl7jK3ssSVE0jWQVrwKJNmzYkeb5faTGzkkl4Eq0ZRzqlrUucJwSyoUmsJ7mJQ93bGJD/wRwqpQ5kWYsLT6ar7nruxNCXvtMWyVsvJHPvXmdyhWVVoIwW60tk151VTVRwnqfoBCSorqpR9uG5K/V8tBp7pqTpisajfhURN7RHxwdzQLoRuil3JE4h60Tu0HZ8r/RxXjZTC0KlICBenWMCVvy0YiIasW2ddE9v+vDS0VMjZOism7oJXpenAOTtJXF7VsY9bBuAq2vq5ML5pKDK+dx0VbLs9ymtpfeSMtcPrco00zBwXe+FmsS5lUR16EWaMjIYtVbIKyvRvyAoYLi6hDHE7TAecmiGa1VUlxLSghbLSnRpueXOzt4OmHZrfADh+Ina4oIOWC4qdtKvjoiOGRlqg+bJPjbv4FoHkf/PAR8svcTzjRJDbeK5/KUV1fq6oLc2c/qKl0gTxmEKStn9Ynl0UMuF5VcCHSDONgMNkXvWhralytlMZUBX3u0iBMrqFlDpz5anNrQj6xLYSiFUU3BOQLvTv6ZDJC7UkGEj7RD0TBaIqTMc7mVEJV4DnN4TgQ2IwV1+vIfcc4z8dk+CSpE0OCd2uBpApBhNo3dq66VzntzffsREMUrcJ9OmRWzvbmEuZ1ZYPEMr5aYzjG+mMVPUfZj/uJ8IqQCloXv0AGsL9hXFSWJ3Na5YnsquFK+NVBhkMAqZvDngu8n6+0KyXCxnCXmL/KyWgDIb8UjxAgP/zLsjC7MLlY/1OwkJE8Lt2e1FjwXSCISma6vfnOHLwiqqbr/UXcbdJhm/NpKSLFWRN8qk2sts0jlr1OSv8CutWNB9K412GsAZXkHNLkuau0eZe60ra5NKKcwdDj6S4H51tqinIX/JIht1oRsZHYVF7XzOZjU+7rahSfR+qG4lYUUYbbsDR7qCqZ655fcaY4nxE37Pz6LqgWcFNbzwxoXv1a2OiUwzkD5VajGg+ZkramnkjhSDbwCF3Tx09Ct1pwik4y6X3kFX13vJrLQxHPGxTTpMbSQA2+S7FQGUgwyABOX20ez0mpNlyFYL5XZR/UkBvZQZHUUH9oWHqVwRqgX782jlcMWBOfmRVCa1EtiHWPz4w+hiD6FrHkYdJ73rd9BRMuPNody0/kIBA1l2E/agtenwzf0/OYRS+Bj4BmsgXDWLh9QwsDk+gbv7kfaPpr3MOwJqOS0/Kf8mQSeD+mO3hIEUGH40wCeI2z3nyc9x1Pseh8AY3gH6ooMYFOCm08HyViuSeD30BfnoVbSh8hJAFAwHbgFMHRd+31FErA2hVMsQHUkbeJOEUeJHz/Wl+wIgEQztCUiOo0T6AlyYJXhgXNJC0NXiM7ZyD3ndIaMyEjh7ZEcc/MuXxn7gKCGeM6pGiaPNwCU2ZKnuxCihQZakc3b9p/PgDicDdNrZInL0tytTlsPbL5KQCirazzSdAftDyTxRMzbNyYoy4iY3pR+UnAnlgNvp3+8eWzop744Q7d2j1fr22AhYQvN3VzzKZhe3kLR9sVii0nLq2cAbDGOzSjuAwQOsklVm/lTm2hzLVF1pZTkZmArYDqz4wq69Hq8n0SUD9yilyD8w39UmA+3j9LQR6smJTstIfm+rP7RwL91bklA6/jniESLL69OSihMXwFq1G9q7n49bmVjdC32Ht6aYQnO1dqYyM/GehxsqL1Jjp5KOd4O9215VH9P7/ipmR/fA4bpCafh/4ACiOsemq9dCfieItc67tzbZA1GweWG+dgVI6ZV24v6pmAXclanwqEprArl9ldW6OhT/sv9XuOPMrKTfgGmFpt1jP2l6AyAYrRsrtDLD6Dsk/E+neQWQU3EKelQLhRzvx5aMnb1oJulAXtF1KBYqVJ+IG+DbIAn/yHFCNeJtDT8lboKZCq7XRkmF1phBaycN8Fg8kKZ1mlBEMchQkoqsNSExkOGHMEQIAxgkC6pnoAE4nrwJQbX7L84kHx1XVRbRjeMDs+AvCNk9YjrgJkXaX2u6d+EIoHKsonIg+lIC1Kt+vSXrYy9YhoN2okiPRu2EagdNP8DXO8Waq9A2lsus1iApLX62N3jBdQNNeZ5tbJ5Dz70aXsAE+i1o86PiRtmqNKR9sVnVxgO4XplCOIVH36b4wF5mojfVNTK0AJxszNkjQgE26a5jru76niv9/BC/VW4auacG+7nKNfOiAyyM5sPHvB/k/k+2Mp7AzvYxpRT8FQNy0Uc21NxxCPCp4J1o2toVi5nxDDaYcZMvdeuq8ZsoQ/otskKeFDT8MDO3yJWkvzvxkJgX452vD/RK7krbQ1TAudgvGHlwqaOtm6QvPZ3yZQ/0idF4mKGOP3RcbFCUCrCusPA+fseczlZfPkj92Y7ui/yOUmYj9UWUDOanAc27Ivvt4jrN1SB1+6wMpNgx+LUXi16odZjLVL6PVwgloEx1stFl7Yaz3r61ZdkxP7uqRoOK4MMMrUsPNgXPbQsF+0VFqm+GJenAzNe6ZLiy4oyY46/HMsM7iVRtbGVQ9Gfj71vaACTc+A6X/nB9H7s/U3vcBYJEJmLcpB656XBEsKB4H48/nXCulnNnt3Ti93rMK7jCxSg43YDpTXa5zA0f04Eq4jiwlCwftbbv5U1yP0kD0s3HXtNzSodyjD9M3wqZ7CdlRP66eN6hPiMyxcdAJkh+VFA9w4Q9/iuCS5fQ4M5bFyby0/bL+O7EodyKHVGDp98I7QQGGt3Ud28siQRojJ+thuh9nip8o7TQNV8IopU6yu7A3817MAOAXg03NORJAJYz4Vpbba3o57RJD+odgOpOQ5qbXJhVRBfQ62uHV/yf/qxmBL0MJT5P45GEuv1kJZrzIctwrEZmI4kdx+AjT0Ni0/Xqpfaxt+Xd++K5s90u0yDNfdftncBH43W9nNTWykEY84iXAcGnmszAIn9YCxpfBh5Qqn4/elJoh4Wi/84NT8YH9W7cNnS4WfBs/idRJmLhyAVyxwWJ+AlI7MnAv8jRx/yozo/hjeEABLi2nL5ptkv6HP4Yv0Tpm6P9hLVslttE1g+QnXiCKvqBoGSlryNNp5ijQVFDrYOedHoBfpDH7qH9lHgwrp885poPhGJPHkbnmM7DkQqkvriSsRynDkAl5Ea+gYig+tch9ir1qM5cJ2oQ6xlPPihoAdwDSxkCoFhd/r+QqC3RCcCdVSTTxd4muRzCHq23oCt4ShDOGMch5qg1W0Y5tqU3lmbfL6/lTwQClyBwkLGlfbNb32Ew1Z1RPgJtXQqp6JEcY0WdaCCtZR3QkNvrv166GzCElN3W2mkMKfhp3K5cHP0mOO3PUMQbQSDUzDNC7ez2wSHjUYXD98O237oy4Jt2fJhAy6ORATsO71SPqDzn5LFLdGj5MhycE5fNGZ/mAuuKxmCvNvXTR+QWlX6/JiQtXHsBYeT5VsTYIrkHM5wMEZPWkcZE+0a0M4mHm5pdP/J86LUxvbwpPuCGWvYdYWVa/16YSYCheotoPtZIgYSixyBXgGypFH3nRsHhaP85RFCEp/FYGSn5ME/1bvg1GA8mre/fUd5HYxB4hFAfflmeQX9EcwuVN4Ol9yEtnQDMPE4sfrBEwH0A3cLdqtIuxAZwxTktpvsmQWp5QHMK4PWks/RJw0eItS3Qy4w49sCMJJtAV8BgdWUxjbicm+NzHBgU3KodLv/5W5c5qm7+c1SnmNjEGMMquMr1eCTV63b0ZBcBwLAPj6HFTEAzGbhpkwecir1Lm336nXP2Isc//gsiUaTEkDzmq3FSuTgLDQ3gvLNREzAdJq/2KPNJzddjMhpENqaXN2cQKQaksAYT5T/+/xbs0/VE5hyf6Dmr0THxUdSfFE1e48Ct8zLPGNPbrJNsLhvDt8SQY/kvYxEW2RYXkx+fVV18JuUvZm2l0yZ3rUNocySpZv5fHVi3EuiLTd5W8sAzcVnfx4BmgME0GlfhWFOyQVH2Ig1PhlE/jXb+zeFsQK/SyCicn2hfJF/4ZJRtW7m2gU9Ydeo5JMTve9MVS7BFmLLj4RxqKUxYOtSFWitUrPp/Hls2vcz2jTDdxkr2FBckq5dDoG0k2MRHU2vuDaGgDKLz9VHiNUKlRU2nXymlsrgWUmojpf1qdofNuTSyGLGqAXk8/HJYib/IPQguKMgq2Cw0OW7DWUIXtfTmJahKg6MK0fAo5ScG7ved9hgtWSyMC0hh2NoST/yJHZNluYKFFmelKxqSWJRlwoMTMxQqbNa684jFhup5RrF43NfHr37nN2t9vqMkmWDX7qQZzA9TKGKKfPeSkad5+iC0nz1Sbw9bYZH00oqecg0UHA4vevTvuULGPPpN849qydBe93tkY0w0BvjCdSzeQNSm8d+Up4ZQo0fPiMClPs3VFvFyIuylW2X44lQ3zn78RRVHYOD1Q1WjQcPbRTm6yryuyic3W0qpbgegzwRQEKrY2VUZ1O6NlGgqACMMoMoMunmsmz9zo5azWRyG23NRBr/1WsV8FXPNhnkSJOG1UgNt+uAj49cJAwKMPG8M+zOzD8rTHNcFp6kHFZH5/rODngVEvX1tTZpqGkJq3qGvcKn/FYvmOR48OrSNXqqQFdbQG39bDUNqSeDgEAyGX2AB5u/7q091F1f4LTWUd9Y5q+xekXe2xCmbwZ35DKKub7cRt+t+I/t9CgyIJlkunNQrJbE+RW+0N3SNXj299F7p1QtKeF/wifUTqTUq+nlMXyh8YAUN1IPrdrcm/WbBTZONR/JbNbKVBe2ALBBMVt7eK2K6Syun1Jat6739riEIaIY+cL7nd2Wh3oie7lrOkHyVn4tRUDh3fRcOhe6ZYRfHOQlpPOIeRXnh0SZ0oLd32WGHdopTAaAtc0rRDCuOBseSNifk4fql/lDKZqNPq5/QlQzvXQk/QON8lbOP1xiqgwl2Ig9FzikUgMNTRDJG0gP4It/dHSKefBDbIKPBo2IGZ7RYQySzWMuGGZRlZHhcupK7OkWnMSLR1DhvIcIJlJItb9zxSRFxxjaciif+6Rv9VMPUcwKjI8/VWC0BJusDDe3rVnukUz19lSH4Z2jKG/Dj14SJurRcisLWDSD8ZX8eh25MZvrxkuKYR8dAW+Bg1/CRRII9ps1gXMiM9hfyKPBNF4ohk8Rb2yKBFCpo6I8nDwAUYa7Qrovxs0VM1aZvKlxQjtPgG6fPS9GqD3rFYnIWvpoUNQc/FP9q4V0i+3to0a+cP319lde1T3+fU/DSO9lhee7WLTG5w1bLu0Ln99jx8VS9Xi1kYi3Qb3R876LwRhk0BAWDl6OBMfoPmScdEnatbnWqNUhW0uBHSGVAges0oubOtvQAbSnXXtVeP76XYo2KbZs4d12FNe0v8U6Gtdbj1OchtsR20/O1TeFkAUiNqz/CoVC9vidQCHtUyVAhb6gI14eJf+I7lOc4F813xQ7btDpoZatZodNxPFT9KcFD/CJ+nQy6BSEbcWeumIr0Td2OWY3N9ukfTl1/RgjRcASmYkxjHq99wqU/gi3aSXHNhvtWwr4oqfgtvxp+h1wf2YHO4rwRq5mKMvyBNC8jHnmgdX6Nfv05Ry5EJonrnEFBvdMkNIPNFwLG94pNzPcfJ8uuwJfPj9jTxPSLH5gWEn0WdNjhqB6cE545u/wE+pxpmbJamL4lKcPbI3HqkuKmuZ5Ww0y1kMeauTbah2kS1xWN2HNTM0dWYuJHGG9eYI18ZirmFnL90jQsGVjV4N1UbVMLyc/ga5Me8zzVs5QhXANBaIm5xK2qtTNHHF3YDf19AzNWgm2FTFRmHHkZW2mW4e5mj650wW9a9VNIm79gOpgufI0KyQ5P0SGFA8wrWgfKDuMvJy5THEWF6e+3esqVuNM5itSoU6+gY6gqd0FIxmZa7hJEViWFLSzegq8nLISwgQs5jDbwG7ve0ToCWsFKkvHuYps2hf1vM0DO0r73Yr3G8mbn0uU2E4CQWHnf7Q/mHsIHrDJ43/oteIiFTfupx7vGtyV1NKlnu2J01whRo5pHvW+sOVwvqiLWcV1NrIveSFp8qyC2c4yUyPeBO/rUywfAYDn67FBs2NQ6HO61rgjOTFWy2ey/wzur9WgtRrkJzXqHBtg3qJBvPkwGYyVVbrFx9eex8AJhN56dRkPfBLB7iN6PwsH1YGPEdS43c73VaeVGL6JLB1wZYzklS+YoZFlG90JK3AIW+yhlEIDyEAmWvdwfyRCpB2CalBfMqrMSrOjUv3vy94GD3wsxzNOmM1U8C5fwoQtulJpKYmaYzmx/KAA6dx6qyWMASQIfNIIqzMoX0uJVbG87Sp6ziQHlJBWBxKj9RQNs+YMAjqa6El9h9TdD+nEWKKDyxnvjKZVADwZdudfRGSMlpcokxTKZyqUdZIvGefWlPQzN7tc3xDEKPo93F0VIUfzLaCty3qgs80X6SH6w4boo3jT/6SLCyAKVgz9aMjW1sgaeqjy+fvOvnRh8tVIf+FgHDb99DU8L7L2FLSXqf7LVXWpcOeiRkM6SlbfUfCqHAXfQfoPll8hUuh6HPK9xwS6ONGG2QMN763KTJ9E6udCX9XwxEVzxcx4z2JzjkZs/IzFBx4wz9XXW4fv1VEAX0KhephbraPtAd1rXbLHeURieaAMDJ6oX64nklo3fbEXSAruExl+B5gS58TUN9RRe82gcwj2uERv1loduyJpPuUxKNaSKn95Han0E7f5I1FV4X0spdPbliNsrz+m9pm5H/jGZuxrplzinKFrJxuSvlfhN3Jv0K3WxOzetDvAkIoNPSG6E4zIRDtRavqJVoK0fnYo9MaO8MAbMmByVBQmKh2bV7nFqo7t+U10sod1RXieV9vb0QRQ32Xd95pvRClOjeDizqsfZpUV5XfmDMTh7/A5w5t0Hc1xk00AAfkGYhwCBHuzrjl7Px8luRP444/eswmZITX3fQn9XG6iFe3Uxy4jj0uPumjZ9yJWR7+Khn469Av4qBJXfoMdKVG3UiQkhBEdK/DNrF8+W6WYboPudGAtmW2Q5ul/xQXmvleGNlVY8TpPWHbgbEeXHoo/6FXZi6lNnUdA86+BPWBxCL1GluLcnGgP3CHfpEsryRwWcf6adaKVzl0rVIJz4o9SGVSJV620g3gN8tRGaygKvNN6dmDvxEGSjsYCSf29+WuK/25ck7x7L+DQgrOZjDO92EZAc21eA1AVUjY0q/gvCvaFRGDqGxwvFRZUr4bgAU3pS+I94CwfKHqj7yYTt8jpHBJThNsDZhFYaaQ99ZHCX7BRetQOX0XyD7QIjeOWpzYrGR1IplB/5RZ8CWrWyANUob5aZAz7QzB3wkWsymruNcbkp+gGKjQaqtBQkbmEjqrFxF9YKIZa1x4K+5P1qfbXzKlfheofFnPh2wfLheKylAoSnaw/ov/5zRRGHjnXC/8hxR5lNOo1hik6PFSJcgZOV1vraZbUO8zSh1uI5y5010Fz7MjwZwvMHg+l/8p4DX0RMAvLnaoml1kfCKHRbIvRTXEtmAq60yAkl82eNfHCUhySpkQDXT+dbsgpw0Pb4+wDctShLRODS0cZmV4Di00kPD+4d2+KKKEveDGTZKs3hnHJkpy+fVT2BWwJcXt0O10FfI3acERJqz16n5Hh8A8s/8aBrCkXAMwlL60/vuXcm2zzlKEr8SSHUZtmAaM+hsOUBUqnuIh+eetmIF9wXkLnQZL9BspGXjBrprizynPH6H7kUr+njBv/eSoC2HsZRzefFSxjHURY6L8f5Yppfm3ifQWfO8fZnbf8vaOIL+2WpGV9bqSCsj4X0C70D6Sv+P4wGchkzdOhLAzNqXXLzZl9/A9JVG8edS2CmxpVHQHKuyibuOrEfnRRbUjKsj5x0R0TwO5SYf4TkROd6Z+p3SZdd5yCnnsqGYCGov6K2qUPsafV7IFZRNAjqnXhVmlVLHA28qp2UPlJbT7riQSESgk+mBWNPkkfAeGONDkaYe1gvHuDHSHb/67+XYM4eQHYqtbyMvILk3mNtXp60Z9zbHd7f3kf/dUIkjc8ZFOblpYyUnFL+pylHYahC6SxCUOqxpHPdjQ4r6xb9aOVDNumS/o6oy4+DSX2CqlXVoT0GS6aZLNGm9Rha3FKxjkERzZxTvE1ZmiDQxvi9rhS8AO6Kcj82GEPNjhYmYdzVjtFN7pjcWG5pSvENNy6R9UXW1DEXLkPzHBdWMiyRleQRykO+u0+wnEv3m3Dv45nrK/uOl63cSvkMXrOsvlA0zjfRndW1BRMzJ7civQSZE6+uX3fs2k/eg5W1aGWV+veOZgyWTOpEh8dVSntv3u4tmoHkSkyxLATTByehiX6Ih5k1leSALgDDfeZHb/aH8+SWa8d7IRxzxGIbqVFdbDyly1GXuR00nO8dJ0AemKA13VatS8CbKIP86A/SSJtudrgouAu3wroaqDW1Nf+e2Y4I+ofRN+60G4tu8ub7LKTtb+F4PrHSmvLbIC7XKK9EVjQaxK4VBhLPu7HK2FVQ5gLY1/CVUJSKl6phvo3CiNv5RZD6E5eXoNHm/v5jpX/pHz4E/F9syueWLglP4w8XJ/3ib0NPgKfaQLNYbrGfWmZdmgq/Oh9JHI+weIDD5avjVvwMWHgcXtaTcGyJi672Efapco3YqRp7L0oetPHxAOvk9ubNkLXsjwXpmYqCsMQMtD5p2tNjV28NhSXV+dIQNckq526bbPmanc/3BQFj1scVAorFO+13oEdbDANVWZZBj8Kz+m5BTGWRiMMrHrBCc8zqWRlWBEdD3Hx5gtJHcP5bry+Hz91lfDNe4A/ncX4Nir1J9+7OBZuLRsWYHsSGGhJN5RURvV2j059Kh2wmQbUwIrTcCfnlScNJWh1cTJQRi385seQmn/StzcS3fQ43TDlzovBWxMvlvMiIDhN+M9sVN2/6Zv33Ja+JHRjHvsloMmXb+q8qbilvAGpcJ/uhD2DmeHJrUJDR7jp2PyYK9+TVpzNDU61/Di8/TBn0X8Cn+PZ0XwkmFxNsmxe5riVHW4mnaPhNVr1VfWJZTWToTWtBI2l6sN4e34dEtC+rF4VB66xRZ0G9BuXlTICWsA/BHOSld9UOebyiPptSc3WlE+Ni9AiFJm0SoFsp2MoB75HrHe92GnnmFxYYkpV5dT7ZB+ix2GzlLkBArD8rZSRqRl2pjyckHIIKCmAkDzHmlXFiPesKjYD/GjPkTh229KVspqIp75QlYp7IfAS6AIaakSN88h6coWCpPRP8EAwYC9PSehpp7JIMFGXUggVHZ+3gBm4+Im54TE3AQDTbHEP98KoMfumgLv/LvC34/j9FzdBWT37HngVPKGuyTgUO2xeBk+HMOShqFhxnmC/wl3jC6EwCiMKpP4Bdx4k98ESaWZbGGHMAOF1NhzDv77SA2xLKN0L/C5+7VsvUbkIwbJ+3c29vTjD3fqlEN6/tWffg1cMQY3Bsk0GBpXolckwXSaQeF7MEYBfLDssXhx6Rhf/BQCN+4oD3WsRnsg4VakGObodrb9enGRhp0VRLFr1ryT4iJpDpyuKVLH5S6nOdevZQsuJ6Vx7DkmkXbyYI8CY698IGrOHpJOAcJEWs1zqop0ilpV6eYrv9Zm3+W0rpDTdBolPI/1dxnLUOIQpg1DXIyVf5XBdC7SBlYlXI1njlryO/RQr1w9sOC39V6n4abj1prdQFmOL4OR/8bnqQXv5tLPdpMG/1zTX8e0ziv/Sdy4KdDqsthFk4fZFmU4EX04PRenD74PxdqRInJUXUlyoFEKpHQ/zErwyCjqPxdbQrcMDO8L64Q5B3M1i5/SOr9MRqnkorzCQ/RAimmUKEqqIlphGHx2UOJ5pDXQW7wIxuX+llvHpNucRNl355zP5hLqjQ9mRLdZZw4fRw/dOy5kEdf0JTwBhT4ocRHv5U8bEeNAvkXHvcK5xxJfBr2vTD15AbuhGLwPqpaSsihpXiS6SQ5INrg4flK5aKOZiyXl6PKzJfBlKnh59CxuIqOF4OQnnNRbNrtMDRYqiTjywXTZWPPDfOkaN0hIQW1dtv7AZ5Ye8nUrw9oaudrDKzhyWkYtrelvhRObSwY7R3mGi5zssAIRHqgkie8XNvHJJ2mKb0rxnRd7B+f6lZgyJQW9+CZOW4Oy0Qje/WxrSBL7ESwwMsVuj3Vhg+vuhXG30GfabIr1203TLlCWZo4ocu8oOkPFOJJyWfALUo3+gJgY/zePI/ma56kSN7nRPP7T/iiSJ69oeyJ3bfpsRVMdSerb7nkOjchPrKMauUKBjHA2yUSrB27qyjFcwivr5owk6J8lfdaig0s2U6amrkZwU21uDKPn3Kuk3Vybtbvt0vECQw6TL+66fjCCN4MOgLTbMtVkIaUxBd2KkVmsUUeP+6oeS9i3k30khv6qxgAWF/u2YpYst2ptVRn89MCeHNdIII3GNGGrzXksLfcrowb/YKgjDILhFEf6ltSEZmHyWPWXvCmhp9lNZCAhrC057h17VwwP48HkK3dw5c442oNqkTrVMxgXO7UXC1uKv4I0tl47968djfCAJTCr5S0nEaUorGtY2UfFwk7sdkU2XQxzwy40Cu1CImY243Be0O84KHeGG82G35bChz1A9806H69Xt4FtsbyqRhQQ6NUayLpVocIh5XkCU/bA5ivzX81Tn1PaAv1ntOJwzVJCDGqhgu942NAUg9TDtDYG7vT8yaRmJK7t/jHgQ31p9s9AS7h1gRamAIXf8Biu/4iWJMod1FWe/PvsivZnt9tIWgRBdxnTD0Bqii6YSKtirpfAmm4ycsvuqhcbeQA8M3G6SaT5tsvoZKXR7oDjWHGklRefdzeyrh8rYS13bRAqtXN0vLWWZwCrgA+YVbfSvO9GhjJfKh05+CsN9CDBRUOk6D218W04zK+RFQk1CGIxGvfPBtlaKkOYteBH/84mqYljUMHVGau2ENqY+s2qGOrNWkP9kbCp6si0KvR2Y+yrMoWXYfIgwaKWI9V4F6hiwnWHPvDcKz0Q3wtPJykYxQvPX5f2/uXCSB4nj3LqDvXe+x4czilhc53yr6i8FkNINDB7wRIjMMhnzq3xEXHh5ZHOrva0c/P8WbHZWl9SfxYVxcfWhB/CnauomqvNhO6TldkmTSdXSZVPXR0kxTwL+Ps3nJglpz+fqH7l5c6gr0wJz4MzUqPffpV+glPH0Q4a/w+IswiRpq2MejHl+Ek5A2cXB+QrpgKWOQGCJqu6oD7soDT2/krxHP+MvvjZi7wfPWyEUz3xhkt3OvjPJZNvr06e930LdszvkQM8wlB6jv2VgR7Sx+colH0Gg2omm8b5cgu6THQ69iGHxxP68W/hT25MAyJhO/s5x7eLLnx/diBkxsJTRJPOe9tCxYvoTjcxu51rlV7dBTrhSiIArkDFzgOmTEnXZh5MwXMomh3Q9mrAizj6nf1vnmwxtJrf4/NMUEXEjmvx730wsGSf4Y8gVqJ/4CPTknLBFX7TpR/5jgy/OoT3/kRXFUUBCrpXaDQKbbXpuCch7y9u3wH4YpM+UbxkmI5rlbvCpDB1O3+HWy9958UxpK/WXnlI9qhMv2FFrkqyBk0QpeJHu1CxkFY1vqKwVoOGZgZzjlWH7Qj3qgQ+syoiSmo7eR6oHfgcByJUShMHkRZmYKEuNjnk+6ncedbStjTQGE8rWd5zEc/LhzPGhS1iZqv2ChKVD7arMo4jOXjRpTYNgGneosV+vyg+/v2MmRC44tUMKgSTOfqx2mBIFcJYFUe7AdJm3GUTzqQr/gKnj3/bEnNTt5HuFQZip2+hNzjrx7nTCaE/EsmbGwhKeIFd8hULbxyaDQG5cfG059QLNCTV47EjkSdKSog1hbs+BgxQ1hYqiGyVt+uT/qL7EgNDXAWqsIVZmNrBJ044+qsJHyyMpToY3qTs0naqF9f0EQ0txbcVVAyNXSpvq75PfcI6M1Ghzsod/MpbK2tccubNIprlrySl6vsgiOKRt5w+eGSp+KlRWgA9Uea1G/m2PRgU/7evHLIVZpU4Ijw8m9RUxl6JUbUqsgpvLV0BFSq/Bywc4nxP1IKkEn+NMqOXMoxbxTcW4sNaVsCaNAHb6IA3A0iaeZhmJl75SgVBrr2FNJb2D23E3cCtTH1sbvINRgAafxaAdq003ok5dol7Eji9+accBB2n9a0QOB3fczRSoWJL/WwtUuSijhya/vEm+46gX6WrZQYOrnJFuk6nmTtUPjdtBu5KXBwxHvRaDaRF1z/U6vnNhT/gkKkIhQLYGBpoegYfO2DOH/gkUIhgUdqHhDccT2aLH915U0TOm3lkst1JlEAlsFYddMRYhM/H6dnM3gd1P0RP3uefVP53U/aFsIbwMvn+kNssqxWKGr9YaAd0jOxcjjrczknCZmNdXOPxmRAjU7gwiU28+LUb0CMmk2Jf9+cyUflRG/uMfhedBeBGlq429RU8MxU6sXiH8aTSlTyPOOx6xrwPVvnGEktz3xucVJGeHaSDfsX1HNOUrEUt/hV28nOrElzYp8Ih6PzubKXWQXqfSDtJo5LhklCLg5QvJ7woKiXZn7R0KWhkGrxjFwbnc1waiG8lhncjNIiqTCs7UrcNhOR/VEj/nMFbcKKdTf9aqGtQQ+KSAc/3ot42gqSWwVGzKHqRoeVm32DKV0M1mg+eMFhKvVWTbXz13mHPc/WlrpxdnTHBNDHwKLrhNq7x8ffYR/xuCjwKKTqpCLeHscx7bwgX8fuqNyh266W+sC8H/dNClHAofOQFfuxhsCk5hB9/hZg2TNe8j1D3ggasMx9qd3GZajrj62rrsGSE0rlEVDluJdqruv1zLOnbGmPp4HbNu/bsxgBhZrxqWE7YSXIbXprxMJODX6oFXGfUQ5nM6Ce5Uuwik60W6T8iUBDI7gXJO1QBxcRq3ZFH0d+N06l+yn5XTiK1WNAUsnGkZo3DZzScWdU6uq3dZ20oJ++vBSoPvxdTqWl7mGrV+ju6OIunBu+kVjChR1i0QufeXVqismschO1lJeFEoZBpFBqwlA3HceJ7qF3LI6K9fsEeRJl5B0giy1t1Mj9luvHc4XCdSVsf4S3j9O3QxhPqW1fFrNZ/6a9fAqCreFebC+S/Z3h2G0g/+QyIlSW46HT/QAuGBqdIfBI3/6wYKvKMkJ48X4TzcwLU8myLTyL7JJ1D5sm676VK6bSo3O+VzGic6M2hcS9eVRuMq2QN1UudgQWRDvT0soYMpBcw8dCpbgqRbWclVUFWrreczCyVxDdUNgYSm2BjGnaKriHmfq1id5O/Gh8AudKMzpYpb2/smSO4rG08pSEHGhS+KzdKp9bpeWJ1UnGek5eCmy1rGEa/CTR8EeKPYbT8z/iXpkDfmV+ajIghq+zRva7XMW7Jcq7Wefdxi4i+BIahlHvGybt6WgNmXTnaBMMNlAb2n8YfTrLVQga+//VXPHZYO2WBiR7+J6ieK9HBNTUD6I1bNou84930jamiCxk5tpVMJCec1du/ZAy0sVpBxbaVgQyo/G5B1bd92SLCKRcN082wO78c5p/Ck4cn9m+SELcx80y/71B3VaYp5Zyl/2CG/qDA2YByPF6qiiR7yh56Uoup/Z/pjHFRzebUcvA9ZorTTcAt02Dz34UC3ali6kbKUYdPANp/WzvHbgCA8HojjO6kSl12xn8scffwX+zgY7BD3UdxgeXiYL8jo5A07siNA8ESYK1nwZsXPKWKsFCtbCNPXOY4lMykUlyeo8DXOEct9tElPhJpkzZ8mYm+c94gerszybrZecIxJclNQbc6A7U7ex9Vv5bS5D79X7cmCS02pM7ctratQEryFer+ckITgzfcR/LJnBGgSrWpAlwVqokUJR2N9vYSjwgh+PTLvz8YLfMpy+PIcMlOpO1LHVsViI4Y4d0FNKLKERddQFtArgvHVrYhZwr4HsHPGmnSscfQyAbbDISReaadY/y4r3nHX63rL38zQv1QkKHZ/jT07BqLNN6r6+zYHmXs3WxfiBum2HCRb8QQOP/CSTEanibLdg9npwkRdJFUwykXkz8pJwjHsb39+d3eGve+M2kAqjpxgbLUpe7A8cuwEhGiDPT3yFfuQXByCPklKVux2Br/tEe5jfAXTnW+H0YXqt4XsjwXD1njZffXkg1qLqIAoYF0XDHTSVJkyUbrncD8WWaffB5A4ZXIZJgMJS0XCzaZoPV9g0MAxdSdFHBB79qiLcStWLO2zWk4zN2CZwaoJZ/ghLnmFvlU9xSmI75tQzj/eTYinKiGKWgVLyU1GqTnRdUF9P575r0bxU06Hr1sLcRZbjsH6q/e0iPALwgy5Qjt0wm2nPRGYlIBA88AdIbp38NhDV94sJihHPp/wrWTfDhfUUooLqvF6jV2hVpmrD+JJea619ZFGVsy9knU/PiUGh+26KuWDCXnQmfk8Viedh/yA1QDpKN+neWotPHQ6eW0k1BF43F1dGZzgdCQ7eNu54NQ3sOH65mnSKkSR16EWb80rct8hVCneCGH353Y347kbx3zVE6VLHgqpC78gpwoDbpdL5TKCKnm/3tPo8fOCI33G3uGANIPeSiqd0OwIJ7fTBfHI6IIiEPNX8tPqq9aKcAEUCThqI0Z/k/GkHpVQHUndasiIaQu5QbDC7v9P1q+0PMp9p2uHGYu3uU1FrGFRyZqTAG4S9+RRQqnXZ7V+9p2p3UVSCAgY1EiWifHqA9Yfboxroxf061XshYmWzAmwvQb6ywBoj47HI0a6GX8s3xuYAZNNeW3uKTls+wg4r+DLSQzzjMBELfBD+lvC05KVKCLZ12sn7ez3z+4pD1gtFxZzT2gyUFKbN1uewLh+OGhc9mZO9GcvkXBpaFlcWmSTNeiLz59jhBp67WVu1vHA3379mN/GwaY/VqWKB/bIbhAGAeyEZ87Vua5vF27LZXe/hojdsbMpgw99ahiI08C/36UhkO3s6GMO9Nm+B7pndBIO3hZfF2HrQflArE1Iht/LvOIlQNgjBae4xohnVKS3n0ofLcaQqWfrngKLyFx4pKzfW0lGImgbvvlCV6ra9/xgt3y1hoZvHnuvsuB+Ij9F19A0n0EYdbAT95p3DQwTbnwIhyTsccsaH2tt/mDAWQ1k/drjJHA9YOL+nax2ZdtVl7uHqtOwbPkjhsUz0X3zwA0mSvNUJ24O+UCUDchPZEMaBKynSK0sbft61l7igKUMJ/EMKFiT3qnysLT9p4Cbif9I67IU3bAurC/GepBSQc9/z9QnosKAPQYYwH7SrIMF3eyMrdA9kB6WrV0RTy/KSd9TVlzkNBenaaIImNqgaZ7rtaheynJdeoeg6RJ8eUacIRuX0IbVZkMwALuW1CdwxDUqqlStWPbZvxyanq9jEIZRfVlmoZZVfoVLU+P32q9rNq1/GJ7aYferhARrwER33BXrChfMwt15zDvOZOvvNGKwlZL4KuXKdu7iIWb4pB9qDKm3Bs03Spc80ELs3fd947pTELOrzV0VUjkOyYcnT0R0rA194UzcRAGTu7ooXYM1MP2BJFPIbpTEmyuwQyLFpd5qaiXm26HiTpxLEZwSWMTlpCBOZyjHCx5/pMX3argn5MrcTx3w3NFVTwVrZsl3FQaYT+Fg23KZOOI97KXk804y7W+yE/sOuCjyAXXMVvNYiIPQPtq4Nv16hqNMF2rnHX0zYSGTVuJgTdPfqAJUFYg3rFamuO5IanIqyzD3g7ZPSY7sFfpqTQNnbKEFo43JPDj93dtqmsF8qaCbH9LJsq5IaRqVd+OEhRgiZSn8QbnBduBqShXfZoWCImCYHcrePNc3sekgElf9Cux/11/a5y1Gmt094IiRKn/hczhVVTUyrkTrtifM0u2MtjoN5pThckY1pTDWzQ2UIwttHFoT/uOp17qwKmSJkn70UGtwrmqdNYxdpRwCYdACErzwG4/HievBE3bqsj5oa4+ZQoiWg8DO3ximvaNyZnnGEKGxVmah5Q7/DrLIw5YujN+ELHl3Jjuf0gD6z8YT7QPMXHD+wlZeHt9agdA5ooaClY0n808xiF18dXe2WP8G+lZrSSbedi0R5WtUMO44McdCVuUtfaibjcJOO7UFuJKc2oWfPin3OTJG+1WkhC6OU2QRkYNXYxL5VcYNgOjeHS+gOS2b8t7wiy4cerPi9UplzoKrpirpjwxy8jeAFqKLSKf9RiGnIYp6pWz/gMbd6IfrCFGnDhMe1HsMHrNBClcSy7T+yf8RJUhSB2w3qfDFMXubw2MKDRLwodksCmUHJ6I0uIdiEp9HOZSDuQtv0e1NYvDfJKD240Sek2gyGX+SHYDhF1WUAfEeT1FWqWp4G9L4bO9v3mLTpv4db75X1LvDuk3yMf4loqWcs2qw1rmZGN3YuBrsD3GJlf3Feb23a/eHs6IGjQ1P+ga6DfEVcjCsjQxFg5LdYH5zuvV7fH85ywD2kAEGENcW2dovfSF81ZLy6GsoL5ctKRG/aHNWNsT8t7nMVY+yccfJdIjVU0+guOTIsntt3ZYrioh1gT5TWMUt3iOrWO7blH/ddVXnHwQtYeiy8zf+w7zC9qrDLp8m9NIsCN/Zwm7duk+QaqVSSebHlt+pSsgSFXojN95W1mWs8sdlSUhiGNST11qAgehnXtPbCQGytQbQDwk3dgnsqyBED0ALbN2yDAFtwGJzpUKbcukJlvwDdFI1Z4tp/x9DzvmNOzvw+daJOV/9vcWGkM2mwPGOTqYPuHkoVt4Sg3bXVahimTUR6J5mTDr7x/hhmGd2tYTs7w+S8gQbo7S/8SegH8B5n3mA9S1AU+siE2udZmJIX4dcX+rdg9nUijrC39HE9X4aTYPclND0emUG1qeSid7kN0jIWxaOxANdagT/ESBB/T2ydLvKT+ympGQfOmjt0T5nKik9bNxB6tV+GeNLjU+aUzbdn+7tKrwjXzkuy/DjnEgkIOnNApVOWkgR6TzWiGnOBANUzK9oiFdiORbPAfX+ZZUITG6F9qkgzi7cx7n32ndXJ9oCokeWJdU9MEdYKfRH5kbSy55rKvn1/hypvkWWb9T8OBsDak9HmKXzbW85ZERNY3+/INqgLVXMUYlloxHF45c2qbZzH/kp9DTU6aue0Oh65LL6In9NdPdtY4VLKS/FqmboG5V8sB7yhQFVmVINuKBNE5ni9yQ1QC9v1l1F06RGZ989ssp/LlOd+Uo/U3bdhkvD0ykIH1ksn71tMR+ni90oIbR2WOsolr8y4bCL+K5j2vX2eZhN5SGip8FCWB7s5UzQlIr3x2F4aD09V+xfOFnMTnu1ZMhDng4JRM/rV8BfCoi4b/96WfXg/unKpgHN5tYR5frZZlECBHVZPYnEtADQZhuujvJHJk/NPUwTLB6WeLsGEDP55dypMcCgPBrS3Q1sVAUyg8UCevqaO5+qRWj8fH4zTGrVmhHpy5zj0b1YulqKAQtMkEE6Wef97nCoocDzJwtRLgCkc8tFLlzbpTIijXcjS8+uGli6Jn3/dnckCX+uMKpz7ou/JcHBrbhLiaNf+Xz5mJaN7kb3g8URb/Yk0uyasYuVVgT+4FaF98iVoTXdLx5O+HovO2NDdFYqZWp1zF5THLDH1ZAZ7AvzYJiXbzkvm3eOM53eSTBjC2AsSC/6gEzvfpi7pSlsyhVPqwc7qcHR8HkUeUQfadO/Ch0i5fOBXtV4caTdPVXQET78nl0QT/daMGaQsH7buQDJfL2UZSx5okC6YggtugrYCvXkcHNDG14xjbk69zaiqfc0Wc9zRJ7vMiRLzoWfnsq+SIhc9L+rBxEvBpczjSxKlFtwq19DaJVP6dLqMZMSB7eKjb6P2mUzf5rdtatAFtyVxO6kXSXdrm6SLN/ItPDjBZSGUOvsOP9gNMLwfXi2JQoyNyq177W0NGbz8o317/Xui3Wmf1U0xx1qogZmQOM6yHqoSnulNwqoCgJmxiW56i7JPIqYZtRzotPKkukTyiqI9BWVMDbawqivOrer4UJdWbsQMLD50qiR+XiA2EBYifmRO+6Y2+b9XB9hcHvsjxPNQzj7uE5swgQR261Bfmvm/kK7N+Xb4r4ENh9js5OqLQfiL8nxqWO0w7n0oxfmDQCLMklbJNvZT5JwMhuwIgygAHefWdbYLTPK2lltah3UDkfuckeOJ5IDQQRQgWPhzYNdRgNIP40CADOwK2kzJI0HQye9+BqohGy1QpIj9kx5D3B3AC7lzE+LPhd/ygaDpX22Z36axFzqVmlwRF7NtMjDQGvXpzYOVwlukYxBhKlxzgmLxHjnYpr/Wq4ztJvAkjfogQs5piZFhruOc3W67NIORxCByXjz2N3ieiTiMHbTUbmN0uMG/i2ZF6u1JLMpHfhRnDgArvhJunuQVHBtSAzrTMl7gsbXPAWMu5ejkI/Xjh5a7AwbFy+f/TRrPMKIUoNg00WPPhno1VEjU7zKZRVJc5/tpKjLLuFQ14Oeod1VjUvev63RmZ1gHpE6X02ka5TjSU6l7IQQokSPfcE5WlwcYEBniLDG+G+SWGvbqt2mpuVYje37JkEBcTN5SS4FcbF4hjozZtrU8H40354OI3yW/54JHviDNcwnOCMB+qWQmpqN/mu6nn/NfGADB0qSd80a06HL83+uExla9zekDBRUV2esLqQdS0ONOjS9J/wr0Q2UFMiP2sSrknHr4W0byJ37pgpZ7oW5tQfhTS5loIAA3fAcdD7zfTo7bgoyUKLMVCDVAqcb6d5jpxPDrRgDDszdGXHXHpvbk6hlp2sHasSs9kljI2N5dgEkEBL713lbSlWAYBmqc0n0PNrsTG83ExnxxVzlXspb6YFRteyzgbbks8bXdn+e2xT2FrfLcIHS+pLOowx+B74BXQaBUZ8IaECmHgW9sy1nFeInj1E6ERfaWp3TTTwwVd5iiE9Q6++ZKdk3f07yllVtiTX8/RH1BwTkafJlA+HSXP9BPC3Tn1UvO0FxxFA3GlmOjEGK+0/nMX6QU4vUu+E/POduP+AGE0yZCLeQti4HEKdBAVbF7wINcETuOkWDA9VGs+iW5ccZ/Qozwwx6KJrqyJ2mLZRC+Eerk1ujALbtzPDBQ/c4WUaQ/YbUEkMzS6Vg1ivfF8DgfDXY8ShXwvBTb2i3kUKegSzgxOWNXovdoZOr3aGh8lUJQ3qWzT3TCloBrRodEBQGmCv7txZXL3wEyAxwezcOkiVc7ALOwiWKFzdofj3m4g6kivKvYRXjBjtocFUEtj7SXCrmSevwDBgxQU3SOok660l9WdA30HXsFLbPlphw8oQHYDTGa1qizBJyIMv4orCpYDHiVe9PnswE/afFA0AnOJlDME1QIGTKvRwCbWs5JNZfnBoJrPqIY5jW9BZH4UfA0yrJ5g0eM82OLSDtS3BSA3JFTWXNZ6PoQL4Q7Nmw+5Od3ZHvG3wptHFiluIJViXpW0c9H4QTquT6QCsvPPd0xuGjgwaeeDECTBVqDGv71I+y6oo2A92mXBpD4Enx1It9gUaRvTfNDsCmgd4PBYX/hbkRkasppd/uxB1CcMboSr5OwEiRL4W9w24tWrI6R9uZZVHwvLtdt9NT2MOB1mbmdOZPsUs6VlEnoFZBlzeGveKramwWwZMTxWVaCx6gtEcYKSmI0K+AwS1JaBlUqOcMAOsAx5LUGNrxVX3H4V3l4iQmyPNm/8LsGQT7sylF1ewvRXG03OXu4TCBnvGeQXgdTtND2dPw9rcskAP0n5wfTKE9A13GyagXhuvX2jldVadDfZp8uheAMekXOo9C/wb6Xp3iu8aH7xGU0S2/v2J951yrRlxRVeTxMC7i2b4ZBmyPxHvlLXytI/VGO+IPutn2gjyhPLU9o04nNxAwNj+1Df88xwclug5utP1OICZe3QYP6ecjAhX3n5bPZtXA2u2JtB7lrLk90OXjElFY14thg+UG4Hmss/5lCV5kwouhbv0PPgPdbvPnVHn46vT+b3PsgJcHgAfvcHozyGI8apCxFWQumEnZhMyrLVrQVTDT9pyA3c1w44nZ4EyuAZA2bHjGb+h+o1oCr9nE2LGdCCfHlZd4W0SpzIA0TMGTfmY1WGMr2KrKEd7Ftru9YECBm1szXWmlnifvp4n9FJr47+QZ602gdzXfR5mk0MRg7Hhj8RoHYUeZbYvYvdILztKwDqSrQfoZXt2HYAfkkz0tZlmsbCD+1h+WUrJTxBTOx3bgoOY+AgvmLKAaWve4R4ndv6t8yZcQF2UPgmJQgYiNT0g3oI+mAn4I2lXHVs1SyESVxq4Qk+PRs9TK1cKAMAV8Lhl7Gy0QH18d2o672NeH45xwFecqZFomARjYpQYEEEfst2tKBjFouc9pqXZZlZZkw4Q/UAinlleBiVbfaR6krkgAgAG1HwzlpzNiMQDBFgojg0kqzawjKScTpL37p5B/BNIxudLeuBnQk52ppKpYE4jbBfn7UscHWoCD7psjE3NNQCpuOewA1IJCXZYdpLawtscic4fDaLIyym0DpjeifcV5ikZcCYNXKaBGrRam4RBNaW4YzJsDsvSz4Z6a3vcGOsPe5VYUmlLqeYwUMKadW9/h3VuT6+wDRMK6X7O1sVYH4YN2BEDrVBEK1vqbhpE74o2ciT38lnpV2RT7NbBBcyjbktNRt35GtswDgJieDNHjcZvTHAhu1HTNAvmfAADYB6M3rkUAy7+Y84egX8FYh+RvoBrFeZuWSAet3b3IqRPQf0MvXHfwIxDvnSTrkBiivZbflNONWtFk2yhCynl4eG5Mmrk5RA1fdZWZ6PpwrdR/1mMUT34AlBD5xcZE++l7xUHx2ZTyhYkATywXOEvS0oExfLjQhzqnayt+lYdrV4f5FIZLnvyER6rsw06TclZoaxBB5HTYAAA==;" vertex="1" parent="aWSgGrdjoKCMINjONeHv-9">
          <mxGeometry x="44.31" y="60" width="91.38" height="55" as="geometry" />
        </mxCell>
        <mxCell id="aWSgGrdjoKCMINjONeHv-3" value="&lt;b&gt;&amp;nbsp;Input Acquisition&lt;/b&gt;" style="ellipse;whiteSpace=wrap;html=1;" vertex="1" parent="aWSgGrdjoKCMINjONeHv-9">
          <mxGeometry x="232.5" y="35" width="120" height="80" as="geometry" />
        </mxCell>
        <mxCell id="aWSgGrdjoKCMINjONeHv-6" value="&lt;div&gt;&lt;b&gt;Tools Used&lt;/b&gt;&lt;/div&gt;&lt;div&gt;&lt;span style=&quot;background-color: transparent; color: light-dark(rgb(0, 0, 0), rgb(255, 255, 255));&quot;&gt;&amp;nbsp;OpenCV&#39;s &lt;/span&gt;&lt;code style=&quot;background-color: transparent; color: light-dark(rgb(0, 0, 0), rgb(255, 255, 255));&quot; data-end=&quot;403&quot; data-start=&quot;383&quot;&gt;cv2&lt;/code&gt;&lt;/div&gt;&lt;div&gt;&lt;code style=&quot;background-color: transparent; color: light-dark(rgb(0, 0, 0), rgb(255, 255, 255));&quot; data-end=&quot;403&quot; data-start=&quot;383&quot;&gt;VideoCapture()&lt;/code&gt;&lt;span style=&quot;background-color: transparent; color: light-dark(rgb(0, 0, 0), rgb(255, 255, 255));&quot;&gt; to capture frames in real-time.&lt;/span&gt;&lt;/div&gt;" style="rounded=1;whiteSpace=wrap;html=1;fillColor=default;" vertex="1" parent="aWSgGrdjoKCMINjONeHv-9">
          <mxGeometry x="408" y="28.75" width="210" height="80" as="geometry" />
        </mxCell>
        <mxCell id="aWSgGrdjoKCMINjONeHv-10" value="&lt;b&gt;Frame Preprocessing&lt;/b&gt;" style="ellipse;whiteSpace=wrap;html=1;" vertex="1" parent="aaEVAs9FFzcRLmY-xivd-19">
          <mxGeometry x="324.5" y="200" width="120" height="80" as="geometry" />
        </mxCell>
        <mxCell id="aWSgGrdjoKCMINjONeHv-28" value="" style="group" vertex="1" connectable="0" parent="aaEVAs9FFzcRLmY-xivd-19">
          <mxGeometry x="27" y="300.00000000000006" width="715" height="139.99999999999994" as="geometry" />
        </mxCell>
        <mxCell id="aWSgGrdjoKCMINjONeHv-21" style="edgeStyle=orthogonalEdgeStyle;rounded=0;orthogonalLoop=1;jettySize=auto;html=1;entryX=0.75;entryY=0;entryDx=0;entryDy=0;" edge="1" parent="aWSgGrdjoKCMINjONeHv-28" target="aWSgGrdjoKCMINjONeHv-14">
          <mxGeometry relative="1" as="geometry">
            <mxPoint x="496.05999999999995" y="66.21999999999997" as="targetPoint" />
            <mxPoint x="362" y="9.999999999999943" as="sourcePoint" />
            <Array as="points">
              <mxPoint x="380" y="9.999999999999943" />
              <mxPoint x="496" y="9.999999999999943" />
            </Array>
          </mxGeometry>
        </mxCell>
        <mxCell id="aWSgGrdjoKCMINjONeHv-17" value="" style="group" vertex="1" connectable="0" parent="aWSgGrdjoKCMINjONeHv-28">
          <mxGeometry y="79.99999999999994" width="715" height="60" as="geometry" />
        </mxCell>
        <mxCell id="aWSgGrdjoKCMINjONeHv-12" value="&lt;span data-end=&quot;485&quot; data-start=&quot;475&quot;&gt;&lt;b&gt;Resize&lt;/b&gt;&lt;/span&gt; the frame to the required input size (e.g., 224×224)." style="rounded=1;whiteSpace=wrap;html=1;" vertex="1" parent="aWSgGrdjoKCMINjONeHv-17">
          <mxGeometry width="190" height="60" as="geometry" />
        </mxCell>
        <mxCell id="aWSgGrdjoKCMINjONeHv-13" value="&lt;strong data-end=&quot;555&quot; data-start=&quot;542&quot;&gt;Normalize&lt;/strong&gt; pixel values (e.g., divide by 255)." style="rounded=1;whiteSpace=wrap;html=1;" vertex="1" parent="aWSgGrdjoKCMINjONeHv-17">
          <mxGeometry x="210" width="140" height="60" as="geometry" />
        </mxCell>
        <mxCell id="aWSgGrdjoKCMINjONeHv-14" value="&lt;strong data-end=&quot;605&quot; data-start=&quot;594&quot;&gt;Convert&lt;/strong&gt; color format (e.g., BGR to RGB if required)." style="rounded=1;whiteSpace=wrap;html=1;" vertex="1" parent="aWSgGrdjoKCMINjONeHv-17">
          <mxGeometry x="380" width="155" height="60" as="geometry" />
        </mxCell>
        <mxCell id="aWSgGrdjoKCMINjONeHv-15" value="&lt;strong data-end=&quot;679&quot; data-start=&quot;653&quot;&gt;Optional Augmentations&lt;/strong&gt; (for training)" style="rounded=1;whiteSpace=wrap;html=1;" vertex="1" parent="aWSgGrdjoKCMINjONeHv-17">
          <mxGeometry x="560" width="155" height="60" as="geometry" />
        </mxCell>
        <mxCell id="aWSgGrdjoKCMINjONeHv-63" style="edgeStyle=orthogonalEdgeStyle;rounded=0;orthogonalLoop=1;jettySize=auto;html=1;exitX=0.5;exitY=1;exitDx=0;exitDy=0;entryX=0.5;entryY=0;entryDx=0;entryDy=0;" edge="1" parent="aaEVAs9FFzcRLmY-xivd-19" target="aWSgGrdjoKCMINjONeHv-58">
          <mxGeometry relative="1" as="geometry">
            <mxPoint x="383" y="630" as="sourcePoint" />
          </mxGeometry>
        </mxCell>
        <mxCell id="aWSgGrdjoKCMINjONeHv-42" style="edgeStyle=orthogonalEdgeStyle;rounded=0;orthogonalLoop=1;jettySize=auto;html=1;exitX=0.5;exitY=1;exitDx=0;exitDy=0;entryX=0.48;entryY=0.004;entryDx=0;entryDy=0;entryPerimeter=0;" edge="1" parent="aaEVAs9FFzcRLmY-xivd-19" source="aWSgGrdjoKCMINjONeHv-13">
          <mxGeometry relative="1" as="geometry">
            <mxPoint x="377.4000000000001" y="520.76" as="targetPoint" />
          </mxGeometry>
        </mxCell>
        <mxCell id="aWSgGrdjoKCMINjONeHv-55" style="edgeStyle=orthogonalEdgeStyle;rounded=0;orthogonalLoop=1;jettySize=auto;html=1;exitX=0.25;exitY=1;exitDx=0;exitDy=0;entryX=0.48;entryY=-0.002;entryDx=0;entryDy=0;entryPerimeter=0;endArrow=none;startFill=0;" edge="1" parent="aaEVAs9FFzcRLmY-xivd-19" source="aWSgGrdjoKCMINjONeHv-12">
          <mxGeometry relative="1" as="geometry">
            <mxPoint x="377.4000000000001" y="519.6199999999999" as="targetPoint" />
          </mxGeometry>
        </mxCell>
        <mxCell id="aWSgGrdjoKCMINjONeHv-56" style="edgeStyle=orthogonalEdgeStyle;rounded=0;orthogonalLoop=1;jettySize=auto;html=1;exitX=0.75;exitY=1;exitDx=0;exitDy=0;entryX=0.479;entryY=-0.007;entryDx=0;entryDy=0;entryPerimeter=0;endArrow=none;startFill=0;" edge="1" parent="aaEVAs9FFzcRLmY-xivd-19" source="aWSgGrdjoKCMINjONeHv-14">
          <mxGeometry relative="1" as="geometry">
            <mxPoint x="377.02" y="518.6700000000001" as="targetPoint" />
          </mxGeometry>
        </mxCell>
        <mxCell id="aWSgGrdjoKCMINjONeHv-57" style="edgeStyle=orthogonalEdgeStyle;rounded=0;orthogonalLoop=1;jettySize=auto;html=1;exitX=0.5;exitY=1;exitDx=0;exitDy=0;entryX=0.478;entryY=-0.002;entryDx=0;entryDy=0;entryPerimeter=0;endArrow=none;startFill=0;" edge="1" parent="aaEVAs9FFzcRLmY-xivd-19" source="aWSgGrdjoKCMINjONeHv-15">
          <mxGeometry relative="1" as="geometry">
            <mxPoint x="376.6399999999999" y="519.6199999999999" as="targetPoint" />
          </mxGeometry>
        </mxCell>
        <mxCell id="aWSgGrdjoKCMINjONeHv-65" style="edgeStyle=orthogonalEdgeStyle;rounded=0;orthogonalLoop=1;jettySize=auto;html=1;exitX=0.5;exitY=1;exitDx=0;exitDy=0;" edge="1" parent="aaEVAs9FFzcRLmY-xivd-19" source="aWSgGrdjoKCMINjONeHv-58">
          <mxGeometry relative="1" as="geometry">
            <mxPoint x="383" y="1060" as="targetPoint" />
          </mxGeometry>
        </mxCell>
        <mxCell id="aWSgGrdjoKCMINjONeHv-58" value="&lt;b&gt;Real-Time Inference&amp;nbsp;&lt;/b&gt;&lt;div&gt;&lt;b&gt;Loop&lt;/b&gt;&lt;div&gt;&lt;span style=&quot;&quot; data-end=&quot;1326&quot; data-start=&quot;1302&quot;&gt;For each&amp;nbsp;&lt;/span&gt;&lt;/div&gt;&lt;div&gt;&lt;span style=&quot;&quot; data-end=&quot;1326&quot; data-start=&quot;1302&quot;&gt;video frame&lt;/span&gt;&lt;/div&gt;&lt;/div&gt;" style="rhombus;whiteSpace=wrap;html=1;" vertex="1" parent="aaEVAs9FFzcRLmY-xivd-19">
          <mxGeometry x="227.5" y="780" width="310" height="120" as="geometry" />
        </mxCell>
        <mxCell id="aaEVAs9FFzcRLmY-xivd-6" style="edgeStyle=orthogonalEdgeStyle;rounded=0;orthogonalLoop=1;jettySize=auto;html=1;exitX=0;exitY=0.5;exitDx=0;exitDy=0;" edge="1" parent="aaEVAs9FFzcRLmY-xivd-19" source="aWSgGrdjoKCMINjONeHv-67">
          <mxGeometry relative="1" as="geometry">
            <mxPoint x="118" y="1163.75" as="targetPoint" />
          </mxGeometry>
        </mxCell>
        <mxCell id="aWSgGrdjoKCMINjONeHv-67" value="&lt;ul&gt;&lt;li&gt;&lt;span style=&quot;background-color: transparent; color: light-dark(rgb(0, 0, 0), rgb(255, 255, 255));&quot;&gt;Apply preprocessing&lt;/span&gt;&lt;/li&gt;&lt;li&gt;&lt;span style=&quot;background-color: transparent; color: light-dark(rgb(0, 0, 0), rgb(255, 255, 255));&quot;&gt;Feed to the model&lt;/span&gt;&lt;/li&gt;&lt;li&gt;&lt;span style=&quot;background-color: transparent; color: light-dark(rgb(0, 0, 0), rgb(255, 255, 255));&quot;&gt;Get prediction: fire/smoke/no fire&lt;/span&gt;&lt;/li&gt;&lt;li&gt;&lt;span style=&quot;background-color: transparent; color: light-dark(rgb(0, 0, 0), rgb(255, 255, 255));&quot;&gt;Annotate frame with label and confidence score&lt;/span&gt;&lt;/li&gt;&lt;/ul&gt;" style="rounded=0;whiteSpace=wrap;html=1;align=left;" vertex="1" parent="aaEVAs9FFzcRLmY-xivd-19">
          <mxGeometry x="217.5" y="1060" width="330" height="80" as="geometry" />
        </mxCell>
        <mxCell id="aaEVAs9FFzcRLmY-xivd-7" style="edgeStyle=orthogonalEdgeStyle;rounded=0;orthogonalLoop=1;jettySize=auto;html=1;exitX=1;exitY=0.5;exitDx=0;exitDy=0;" edge="1" parent="aaEVAs9FFzcRLmY-xivd-19" target="aaEVAs9FFzcRLmY-xivd-1">
          <mxGeometry relative="1" as="geometry">
            <mxPoint x="238" y="1213.75" as="sourcePoint" />
          </mxGeometry>
        </mxCell>
        <mxCell id="aWSgGrdjoKCMINjONeHv-68" value="&lt;b&gt;Decision Buffering&lt;/b&gt;&lt;div&gt;&lt;b&gt;&amp;nbsp;(False Alarm Filtering)&lt;/b&gt;&lt;/div&gt;" style="rhombus;whiteSpace=wrap;html=1;" vertex="1" parent="aaEVAs9FFzcRLmY-xivd-19">
          <mxGeometry x="-2" y="1163.75" width="240" height="100" as="geometry" />
        </mxCell>
        <mxCell id="aaEVAs9FFzcRLmY-xivd-9" style="edgeStyle=orthogonalEdgeStyle;rounded=0;orthogonalLoop=1;jettySize=auto;html=1;exitX=0.5;exitY=1;exitDx=0;exitDy=0;entryX=0.5;entryY=0;entryDx=0;entryDy=0;" edge="1" parent="aaEVAs9FFzcRLmY-xivd-19" source="aaEVAs9FFzcRLmY-xivd-1" target="aaEVAs9FFzcRLmY-xivd-8">
          <mxGeometry relative="1" as="geometry" />
        </mxCell>
        <mxCell id="aaEVAs9FFzcRLmY-xivd-1" value="&lt;ul&gt;&lt;li&gt;&lt;span style=&quot;background-color: transparent; color: light-dark(rgb(0, 0, 0), rgb(255, 255, 255));&quot;&gt;Maintain a &lt;strong data-end=&quot;1566&quot; data-start=&quot;1537&quot;&gt;rolling prediction buffer&lt;/strong&gt; (e.g., last 10 frames)&lt;/span&gt;&lt;/li&gt;&lt;li&gt;&lt;span style=&quot;background-color: transparent; color: light-dark(rgb(0, 0, 0), rgb(255, 255, 255));&quot;&gt;Count how many frames detect fire/smoke&lt;/span&gt;&lt;/li&gt;&lt;li&gt;&lt;span style=&quot;background-color: transparent; color: light-dark(rgb(0, 0, 0), rgb(255, 255, 255));&quot;&gt;Only &lt;strong data-end=&quot;1656&quot; data-start=&quot;1639&quot;&gt;trigger alert&lt;/strong&gt; if detection is consistent in majority of frames (e.g., ≥ 7 out of 10)&lt;/span&gt;&lt;/li&gt;&lt;/ul&gt;" style="rounded=0;whiteSpace=wrap;html=1;align=left;" vertex="1" parent="aaEVAs9FFzcRLmY-xivd-19">
          <mxGeometry x="348" y="1160" width="368" height="107.5" as="geometry" />
        </mxCell>
        <mxCell id="aaEVAs9FFzcRLmY-xivd-12" style="edgeStyle=orthogonalEdgeStyle;rounded=0;orthogonalLoop=1;jettySize=auto;html=1;exitX=0;exitY=0.5;exitDx=0;exitDy=0;entryX=0.5;entryY=0;entryDx=0;entryDy=0;" edge="1" parent="aaEVAs9FFzcRLmY-xivd-19" source="aaEVAs9FFzcRLmY-xivd-8">
          <mxGeometry relative="1" as="geometry">
            <mxPoint x="203" y="1550" as="targetPoint" />
          </mxGeometry>
        </mxCell>
        <mxCell id="aaEVAs9FFzcRLmY-xivd-15" style="edgeStyle=orthogonalEdgeStyle;rounded=0;orthogonalLoop=1;jettySize=auto;html=1;exitX=1;exitY=0.5;exitDx=0;exitDy=0;" edge="1" parent="aaEVAs9FFzcRLmY-xivd-19" source="aaEVAs9FFzcRLmY-xivd-8" target="aaEVAs9FFzcRLmY-xivd-14">
          <mxGeometry relative="1" as="geometry" />
        </mxCell>
        <mxCell id="aaEVAs9FFzcRLmY-xivd-8" value="&lt;b&gt;Alert System&lt;/b&gt;&lt;div&gt;&lt;span style=&quot;&quot; data-end=&quot;1786&quot; data-start=&quot;1760&quot;&gt;If fire/smoke detected&lt;/span&gt;&lt;/div&gt;" style="rhombus;whiteSpace=wrap;html=1;" vertex="1" parent="aaEVAs9FFzcRLmY-xivd-19">
          <mxGeometry x="278" y="1360" width="150" height="140" as="geometry" />
        </mxCell>
        <mxCell id="aaEVAs9FFzcRLmY-xivd-13" value="&lt;ul style=&quot;text-align: left;&quot;&gt;&lt;li&gt;&lt;span style=&quot;background-color: transparent; color: light-dark(rgb(0, 0, 0), rgb(255, 255, 255));&quot;&gt;&lt;strong data-end=&quot;1809&quot; data-start=&quot;1795&quot;&gt;Send email&lt;/strong&gt;&amp;nbsp;with snapshot (via SMTP or SendGrid)&lt;/span&gt;&lt;/li&gt;&lt;li&gt;&lt;strong data-end=&quot;1872&quot; data-start=&quot;1854&quot;&gt;Trigger buzzer&lt;/strong&gt;&amp;nbsp;(via GPIO if using Raspberry Pi/Jetson Nano)&lt;/li&gt;&lt;li&gt;&lt;strong data-end=&quot;1955&quot; data-start=&quot;1925&quot;&gt;Optional Push Notification&lt;/strong&gt;&amp;nbsp;via Twilio or Firebase&lt;/li&gt;&lt;/ul&gt;" style="ellipse;whiteSpace=wrap;html=1;" vertex="1" parent="aaEVAs9FFzcRLmY-xivd-19">
          <mxGeometry y="1550" width="410" height="110" as="geometry" />
        </mxCell>
        <mxCell id="aaEVAs9FFzcRLmY-xivd-14" value="&lt;span style=&quot;background-color: transparent; color: light-dark(rgb(0, 0, 0), rgb(255, 255, 255));&quot;&gt;&lt;b&gt;Display &amp;amp; Monitoring&lt;/b&gt;&lt;/span&gt;" style="rounded=0;whiteSpace=wrap;html=1;align=center;" vertex="1" parent="aaEVAs9FFzcRLmY-xivd-19">
          <mxGeometry x="418" y="1730" width="200" height="50" as="geometry" />
        </mxCell>
        <mxCell id="aaEVAs9FFzcRLmY-xivd-16" value="No" style="text;html=1;align=center;verticalAlign=middle;resizable=0;points=[];autosize=1;strokeColor=none;fillColor=none;" vertex="1" parent="aaEVAs9FFzcRLmY-xivd-19">
          <mxGeometry x="433" y="1400" width="40" height="30" as="geometry" />
        </mxCell>
        <mxCell id="aaEVAs9FFzcRLmY-xivd-18" value="Yes" style="text;html=1;align=center;verticalAlign=middle;resizable=0;points=[];autosize=1;strokeColor=none;fillColor=none;" vertex="1" parent="aaEVAs9FFzcRLmY-xivd-19">
          <mxGeometry x="238" y="1400" width="40" height="30" as="geometry" />
        </mxCell>
        <mxCell id="aWSgGrdjoKCMINjONeHv-18" style="edgeStyle=orthogonalEdgeStyle;rounded=0;orthogonalLoop=1;jettySize=auto;html=1;exitX=0.5;exitY=1;exitDx=0;exitDy=0;" edge="1" parent="aaEVAs9FFzcRLmY-xivd-19" source="aWSgGrdjoKCMINjONeHv-10" target="aWSgGrdjoKCMINjONeHv-12">
          <mxGeometry relative="1" as="geometry">
            <mxPoint x="117" y="350" as="targetPoint" />
            <Array as="points">
              <mxPoint x="74" y="310" />
            </Array>
          </mxGeometry>
        </mxCell>
        <mxCell id="aWSgGrdjoKCMINjONeHv-20" style="edgeStyle=orthogonalEdgeStyle;rounded=0;orthogonalLoop=1;jettySize=auto;html=1;exitX=0.5;exitY=1;exitDx=0;exitDy=0;" edge="1" parent="aaEVAs9FFzcRLmY-xivd-19" source="aWSgGrdjoKCMINjONeHv-10" target="aWSgGrdjoKCMINjONeHv-13">
          <mxGeometry relative="1" as="geometry">
            <mxPoint x="317" y="350" as="targetPoint" />
            <Array as="points">
              <mxPoint x="289" y="310" />
            </Array>
          </mxGeometry>
        </mxCell>
        <mxCell id="aWSgGrdjoKCMINjONeHv-19" style="edgeStyle=orthogonalEdgeStyle;rounded=0;orthogonalLoop=1;jettySize=auto;html=1;exitX=0.5;exitY=1;exitDx=0;exitDy=0;entryX=0.581;entryY=0;entryDx=0;entryDy=0;entryPerimeter=0;" edge="1" parent="aaEVAs9FFzcRLmY-xivd-19" source="aWSgGrdjoKCMINjONeHv-10" target="aWSgGrdjoKCMINjONeHv-15">
          <mxGeometry relative="1" as="geometry">
            <mxPoint x="647" y="360" as="targetPoint" />
            <Array as="points">
              <mxPoint x="677" y="310" />
            </Array>
          </mxGeometry>
        </mxCell>
        <mxCell id="WQOV9HyDum1XFAFfmKFN-2" value="&lt;div&gt;&lt;b&gt;&lt;font style=&quot;font-size: 18px;&quot;&gt;YOLOv5 / YOLOv8 or similar real-time object detection model&lt;/font&gt;&lt;/b&gt;&lt;/div&gt;&lt;div&gt;&lt;font style=&quot;font-size: 14px;&quot;&gt;YOLO performs &lt;strong data-end=&quot;760&quot; data-start=&quot;740&quot;&gt;direct detection&lt;/strong&gt; of bounding boxes for fire and smoke in a single forward pass.&lt;/font&gt;&lt;/div&gt;&lt;div&gt;&lt;font style=&quot;font-size: 14px;&quot;&gt;&lt;br&gt;&lt;/font&gt;&lt;/div&gt;&lt;div align=&quot;left&quot;&gt;&lt;font style=&quot;font-size: 14px;&quot;&gt;Each output contains:&lt;/font&gt;&lt;/div&gt;&lt;div align=&quot;left&quot;&gt;&lt;ul&gt;&lt;li&gt;&lt;font style=&quot;font-size: 14px;&quot;&gt;Bounding Box Coordinates&lt;/font&gt;&lt;/li&gt;&lt;li&gt;&lt;font size=&quot;3&quot;&gt;Confidence Score&lt;/font&gt;&lt;/li&gt;&lt;li&gt;&lt;font size=&quot;3&quot;&gt;Class Label (e.g., Fire, Smoke, Normal)&lt;/font&gt;&lt;/li&gt;&lt;/ul&gt;&lt;/div&gt;&lt;div align=&quot;left&quot;&gt;&lt;font style=&quot;font-size: 14px;&quot;&gt;&lt;br&gt;&lt;/font&gt;&lt;/div&gt;" style="rounded=1;whiteSpace=wrap;html=1;direction=west;" vertex="1" parent="aaEVAs9FFzcRLmY-xivd-19">
          <mxGeometry x="20" y="520" width="710" height="210" as="geometry" />
        </mxCell>
        <mxCell id="aaEVAs9FFzcRLmY-xivd-22" value="&lt;h1 style=&quot;color: rgb(16, 20, 24); margin: 0px; padding: 0px; display: flow-root; word-break: break-word; border: 0px; font-size: 1.8em; font-family: &amp;quot;Linux Libertine&amp;quot;, Georgia, Times, &amp;quot;Source Serif Pro&amp;quot;, serif; line-height: 1.375; overflow-wrap: break-word; flex-grow: 1; text-align: start; background-color: rgb(255, 255, 255);&quot; class=&quot;firstHeading mw-first-heading&quot; id=&quot;firstHeading&quot;&gt;&lt;span style=&quot;&quot; class=&quot;mw-page-title-main&quot;&gt;Methodology Diagram&lt;/span&gt;&lt;/h1&gt;" style="text;strokeColor=none;align=center;fillColor=none;html=1;verticalAlign=middle;whiteSpace=wrap;rounded=0;" vertex="1" parent="1">
          <mxGeometry x="261" y="40" width="340" height="40" as="geometry" />
        </mxCell>
      </root>
    </mxGraphModel>
  </diagram>
</mxfile>
